<svg width="35" height="25" viewBox="0 0 35 25" fill="none" xmlns="http://www.w3.org/2000/svg">
<rect x="1" y="0.999756" width="33" height="23" rx="3.5" fill="white" stroke="#D1D9E0"/>
<path fill-rule="evenodd" clip-rule="evenodd" d="M15.113 18.948L15.3338 17.4989L14.8421 17.4871H12.4941L14.1259 6.79345C14.131 6.76107 14.1474 6.73101 14.1714 6.70963C14.1955 6.68824 14.2262 6.67651 14.2584 6.67651H18.2174C19.5318 6.67651 20.4388 6.95915 20.9123 7.51709C21.1343 7.77883 21.2757 8.05243 21.3442 8.35339C21.4159 8.66926 21.4171 9.0466 21.3471 9.50691L21.3421 9.54039V9.83537L21.5641 9.96538C21.751 10.0679 21.8996 10.1852 22.0136 10.3195C22.2034 10.5434 22.3263 10.8278 22.3782 11.165C22.4318 11.5118 22.4141 11.9245 22.3263 12.3918C22.225 12.9292 22.0612 13.3973 21.84 13.7803C21.6367 14.1332 21.3775 14.426 21.0698 14.6528C20.776 14.8683 20.427 15.0319 20.0324 15.1367C19.6499 15.2396 19.2139 15.2915 18.7357 15.2915H18.4276C18.2073 15.2915 17.9933 15.3735 17.8254 15.5205C17.6569 15.6705 17.5455 15.8756 17.5113 16.0998L17.4881 16.2303L17.098 18.7845L17.0804 18.8783C17.0757 18.908 17.0677 18.9227 17.0558 18.9328C17.0453 18.9419 17.0302 18.948 17.0154 18.948H15.113Z" fill="#28356A"/>
<path fill-rule="evenodd" clip-rule="evenodd" d="M21.7741 9.57446C21.7624 9.65255 21.7488 9.73234 21.7337 9.81433C21.2116 12.585 19.4254 13.5421 17.1441 13.5421H15.9825C15.7035 13.5421 15.4684 13.7514 15.425 14.0359L14.6619 19.0392C14.6336 19.226 14.7729 19.3943 14.9552 19.3943H17.0153C17.2592 19.3943 17.4665 19.2111 17.5049 18.9624L17.5251 18.8543L17.913 16.3101L17.938 16.1705C17.9759 15.921 18.1836 15.7377 18.4275 15.7377H18.7356C20.7316 15.7377 22.2942 14.9002 22.7509 12.4763C22.9416 11.4638 22.8429 10.6184 22.338 10.0238C22.1853 9.84451 21.9958 9.69568 21.7741 9.57446Z" fill="#298FC2"/>
<path fill-rule="evenodd" clip-rule="evenodd" d="M21.2288 9.34944C21.149 9.32537 21.0667 9.30362 20.9823 9.28394C20.8974 9.26476 20.8105 9.24777 20.7211 9.23287C20.4079 9.18057 20.0647 9.15576 19.6971 9.15576H16.5941C16.5176 9.15576 16.445 9.1736 16.3801 9.20586C16.2369 9.27698 16.1306 9.41701 16.1049 9.58845L15.4447 13.91L15.4258 14.036C15.4692 13.7515 15.7043 13.5422 15.9833 13.5422H17.1449C19.4261 13.5422 21.2124 12.5845 21.7345 9.81439C21.7501 9.7324 21.7632 9.65261 21.7749 9.57452C21.6428 9.50206 21.4998 9.44011 21.3457 9.38732C21.3077 9.37425 21.2684 9.36166 21.2288 9.34944Z" fill="#22284F"/>
<path fill-rule="evenodd" clip-rule="evenodd" d="M16.1047 9.58838C16.1304 9.41694 16.2367 9.2769 16.3799 9.20628C16.4453 9.17389 16.5174 9.15605 16.5939 9.15605H19.6969C20.0645 9.15605 20.4077 9.18098 20.7208 9.23328C20.8103 9.24807 20.8972 9.26517 20.9821 9.28436C21.0665 9.30391 21.1488 9.32578 21.2286 9.34973C21.2682 9.36195 21.3075 9.37466 21.3459 9.38725C21.4999 9.44003 21.6431 9.50248 21.7752 9.57445C21.9305 8.55058 21.7739 7.85346 21.2383 7.2222C20.6478 6.52716 19.5821 6.22974 18.2184 6.22974H14.2593C13.9808 6.22974 13.7431 6.43906 13.7001 6.72401L12.0511 17.5276C12.0186 17.7413 12.1781 17.9342 12.3866 17.9342H14.8308L16.1047 9.58838Z" fill="#28356A"/>
</svg>
