<svg width="35" height="25" viewBox="0 0 35 25" fill="none" xmlns="http://www.w3.org/2000/svg">
<rect x="1" y="0.999756" width="33" height="23" rx="3.5" fill="white" stroke="#D1D9E0"/>
<path d="M19.7576 12.2055C19.7576 15.909 16.7898 18.9113 13.1288 18.9113C9.46782 18.9113 6.5 15.909 6.5 12.2055C6.5 8.50203 9.46782 5.49976 13.1288 5.49976C16.7898 5.49976 19.7576 8.50203 19.7576 12.2055Z" fill="#ED0006"/>
<path d="M28.3572 12.2055C28.3572 15.909 25.3894 18.9113 21.7284 18.9113C18.0674 18.9113 15.0996 15.909 15.0996 12.2055C15.0996 8.50203 18.0674 5.49976 21.7284 5.49976C25.3894 5.49976 28.3572 8.50203 28.3572 12.2055Z" fill="#0099DF"/>
<path fill-rule="evenodd" clip-rule="evenodd" d="M17.4286 7.10181C18.8539 8.33177 19.7576 10.1619 19.7576 12.2056C19.7576 14.2493 18.8539 16.0795 17.4286 17.3094C16.0034 16.0795 15.0996 14.2493 15.0996 12.2056C15.0996 10.1619 16.0034 8.33177 17.4286 7.10181Z" fill="#6C6BBD"/>
</svg>
