<svg width="35" height="25" viewBox="0 0 35 25" fill="none" xmlns="http://www.w3.org/2000/svg">
<rect x="1" y="0.999756" width="33" height="23" rx="3.5" fill="#27337A" stroke="#D1D9E0"/>
<path fill-rule="evenodd" clip-rule="evenodd" d="M11.251 16.3581H9.19129L7.64674 10.2922C7.57343 10.0132 7.41776 9.76652 7.18879 9.65026C6.61737 9.35808 5.9877 9.12556 5.30078 9.00828V8.77475H8.61886C9.07681 8.77475 9.42026 9.12556 9.47751 9.53298L10.2789 13.9085L12.3376 8.77475H14.3401L11.251 16.3581ZM15.485 16.3581H13.5398L15.1415 8.77475H17.0868L15.485 16.3581ZM19.6035 10.8756C19.6607 10.4671 20.0042 10.2336 20.4049 10.2336C21.0346 10.175 21.7205 10.2922 22.2929 10.5834L22.6364 8.95066C22.0639 8.71713 21.4343 8.59985 20.8628 8.59985C18.9748 8.59985 17.601 9.65026 17.601 11.1081C17.601 12.2171 18.5741 12.7995 19.261 13.1503C20.0042 13.5001 20.2904 13.7336 20.2332 14.0834C20.2332 14.6081 19.6607 14.8416 19.0893 14.8416C18.4024 14.8416 17.7155 14.6667 17.0868 14.3746L16.7433 16.0083C17.4303 16.2995 18.1734 16.4167 18.8603 16.4167C20.9773 16.4744 22.2929 15.425 22.2929 13.8499C22.2929 11.8663 19.6035 11.7501 19.6035 10.8756ZM29.1008 16.3581L27.5562 8.77475H25.8972C25.5537 8.77475 25.2103 9.00828 25.0958 9.35808L22.2356 16.3581H24.2381L24.6378 15.2501H27.0983L27.3273 16.3581H29.1008ZM26.1834 10.8169L26.7548 13.675H25.153L26.1834 10.8169Z" fill="white"/>
</svg>
