<svg width="35" height="25" viewBox="0 0 35 25" fill="none" xmlns="http://www.w3.org/2000/svg">
<rect x="1" y="0.999756" width="33" height="23" rx="3.5" fill="white" stroke="#D1D9E0"/>
<path fill-rule="evenodd" clip-rule="evenodd" d="M16.5574 16.0276V13.0929H18.072C18.6927 13.0929 19.2165 12.885 19.6436 12.4748L19.7461 12.3708C20.5262 11.5216 20.4749 10.1987 19.6436 9.41306C19.2279 8.99713 18.6585 8.77183 18.072 8.78338H15.6406V16.0276H16.5574ZM16.5575 12.2032V9.67296H18.0951C18.4254 9.67296 18.7387 9.80006 18.9722 10.0311C19.4676 10.5164 19.479 11.3251 19.0006 11.8277C18.7671 12.0761 18.4368 12.2148 18.0951 12.2032H16.5575ZM24.0223 11.4581C23.6295 11.0941 23.0942 10.9092 22.4166 10.9092C21.5454 10.9092 20.8906 11.2328 20.4578 11.874L21.2664 12.3881C21.5625 11.9491 21.9668 11.7296 22.4792 11.7296C22.8038 11.7296 23.117 11.8509 23.3618 12.0704C23.601 12.2784 23.7376 12.5788 23.7376 12.8965V13.1102C23.3846 12.9138 22.9405 12.8098 22.3938 12.8098C21.7561 12.8098 21.2436 12.96 20.8621 13.2662C20.4806 13.5724 20.287 13.9768 20.287 14.4909C20.2756 14.9588 20.4749 15.4037 20.828 15.7041C21.1867 16.0276 21.6422 16.1893 22.1775 16.1893C22.8095 16.1893 23.3106 15.9062 23.6921 15.3401H23.7319V16.0276H24.6088V12.9716C24.6088 12.3304 24.4152 11.822 24.0223 11.4581ZM21.5342 15.1148C21.3462 14.9762 21.2323 14.7509 21.2323 14.5083C21.2323 14.2367 21.3576 14.0114 21.6025 13.8324C21.8531 13.6533 22.1663 13.5608 22.5365 13.5608C23.0491 13.5551 23.4477 13.6706 23.7324 13.9017C23.7324 14.2945 23.5787 14.6353 23.2768 14.9242C23.0035 15.2015 22.6333 15.3575 22.2461 15.3575C21.9898 15.3632 21.7392 15.2766 21.5342 15.1148ZM26.579 18.2054L29.6424 11.071H28.646L27.2281 14.6295H27.211L25.7591 11.071H24.7626L26.7726 15.7098L25.6338 18.2054H26.579Z" fill="#3C4043"/>
<path d="M13.3936 12.4577C13.3936 12.1746 13.3708 11.8915 13.3253 11.6143H9.45898V13.2145H11.674C11.5829 13.7286 11.2868 14.1907 10.854 14.4796V15.5194H12.1751C12.9495 14.7973 13.3936 13.7286 13.3936 12.4577Z" fill="#4285F4"/>
<path d="M9.45817 16.5245C10.5628 16.5245 11.4967 16.1548 12.1743 15.5193L10.8532 14.4795C10.4831 14.7337 10.0105 14.8781 9.45817 14.8781C8.38768 14.8781 7.48232 14.1444 7.15776 13.1624H5.79688V14.2369C6.49155 15.6406 7.90938 16.5245 9.45817 16.5245Z" fill="#34A853"/>
<path d="M7.15846 13.1624C6.98761 12.6483 6.98761 12.0879 7.15846 11.568V10.4993H5.79736C5.21078 11.672 5.21078 13.0584 5.79736 14.2311L7.15846 13.1624Z" fill="#FBBC04"/>
<path d="M9.45817 9.85223C10.0447 9.84067 10.6084 10.066 11.0297 10.4761L12.2027 9.28609C11.4568 8.58131 10.4774 8.19426 9.45817 8.20582C7.90938 8.20582 6.49155 9.09546 5.79688 10.4992L7.15776 11.5737C7.48232 10.5859 8.38768 9.85223 9.45817 9.85223Z" fill="#EA4335"/>
</svg>
