<svg width="35" height="25" viewBox="0 0 35 25" fill="none" xmlns="http://www.w3.org/2000/svg">
<rect x="1" y="0.999756" width="33" height="23" rx="3.5" fill="white" stroke="#D1D9E0"/>
<path fill-rule="evenodd" clip-rule="evenodd" d="M9.94921 8.84291C9.66382 9.19481 9.20721 9.47236 8.7506 9.43271C8.69353 8.95691 8.91707 8.45137 9.17867 8.13912C9.46406 7.77731 9.96348 7.51958 10.3678 7.49976C10.4153 7.99539 10.2298 8.4811 9.94921 8.84291ZM10.363 9.52688C9.96071 9.50275 9.59366 9.65294 9.29718 9.77425C9.10639 9.85232 8.94483 9.91843 8.82191 9.91843C8.68397 9.91843 8.51574 9.84878 8.32685 9.77059L8.32685 9.77059C8.07935 9.66813 7.79638 9.551 7.49964 9.55662C6.81948 9.56653 6.18688 9.96799 5.83967 10.6074C5.12621 11.8861 5.65417 13.7794 6.34384 14.8202C6.68155 15.3357 7.08584 15.9007 7.61855 15.8809C7.85291 15.8716 8.0215 15.7971 8.19597 15.7199C8.39683 15.6311 8.60549 15.5389 8.93131 15.5389C9.24582 15.5389 9.44536 15.6287 9.6369 15.715C9.81903 15.797 9.99393 15.8758 10.2536 15.8709C10.8053 15.861 11.1525 15.3555 11.4902 14.84C11.8547 14.2868 12.0148 13.7469 12.0391 13.665L12.042 13.6555C12.0414 13.6549 12.0369 13.6527 12.0289 13.6489C11.9071 13.5908 10.976 13.1466 10.967 11.9555C10.9581 10.9557 11.7056 10.4491 11.8233 10.3694L11.8233 10.3694C11.8304 10.3645 11.8353 10.3612 11.8374 10.3595C11.3618 9.62601 10.6198 9.5467 10.363 9.52688ZM14.1824 15.8164V8.08955H16.9649C18.4013 8.08955 19.4049 9.12046 19.4049 10.6272C19.4049 12.1339 18.3822 13.1747 16.9268 13.1747H15.3334V15.8164H14.1824ZM15.3333 9.10064H16.6603C17.6592 9.10064 18.2299 9.65574 18.2299 10.6321C18.2299 11.6085 17.6592 12.1686 16.6556 12.1686H15.3333V9.10064ZM23.2053 14.8896C22.9009 15.4943 22.2302 15.8759 21.5072 15.8759C20.4371 15.8759 19.6903 15.2118 19.6903 14.2106C19.6903 13.2193 20.4133 12.6494 21.7498 12.5651L23.1862 12.4759V12.0496C23.1862 11.4202 22.7915 11.0782 22.0875 11.0782C21.5072 11.0782 21.0839 11.3905 20.9983 11.8663H19.9614C19.9947 10.8651 20.8984 10.1365 22.1208 10.1365C23.4383 10.1365 24.2945 10.8552 24.2945 11.9703V15.8164H23.229V14.8896H23.2053ZM21.8163 14.959C21.2027 14.959 20.8127 14.6517 20.8127 14.1808C20.8127 13.6951 21.1885 13.4126 21.9067 13.368L23.1861 13.2838V13.7199C23.1861 14.4435 22.5964 14.959 21.8163 14.959ZM27.8284 16.1188C27.367 17.4718 26.8391 17.9179 25.7166 17.9179C25.631 17.9179 25.3456 17.908 25.279 17.8882V16.9613C25.3503 16.9712 25.5263 16.9812 25.6167 16.9812C26.1256 16.9812 26.411 16.7581 26.587 16.1782L26.6916 15.8363L24.7415 10.2109H25.9449L27.3004 14.7756H27.3242L28.6798 10.2109H29.8499L27.8284 16.1188Z" fill="black"/>
</svg>
