<svg width="16" height="44" viewBox="0 0 16 44" fill="none" xmlns="http://www.w3.org/2000/svg">
<path d="M7.29289 43.7071C7.68342 44.0976 8.31658 44.0976 8.7071 43.7071L15.0711 37.3431C15.4616 36.9526 15.4616 36.3195 15.0711 35.9289C14.6805 35.5384 14.0474 35.5384 13.6569 35.9289L8 41.5858L2.34314 35.9289C1.95262 35.5384 1.31946 35.5384 0.928931 35.9289C0.538406 36.3195 0.538406 36.9526 0.928931 37.3431L7.29289 43.7071ZM7 -4.37114e-08L7 2.04762L9 2.04762L9 4.37114e-08L7 -4.37114e-08ZM7 5.11905L7 9.21429L9 9.21429L9 5.11905L7 5.11905ZM7 12.2857L7 16.381L9 16.381L9 12.2857L7 12.2857ZM7 19.4524L7 23.5476L9 23.5476L9 19.4524L7 19.4524ZM7 26.619L7 30.7143L9 30.7143L9 26.619L7 26.619ZM7 33.7857L7 37.881L9 37.881L9 33.7857L7 33.7857ZM7 40.9524L7 43L9 43L9 40.9524L7 40.9524Z" fill="#28538F"/>
</svg>
