<svg width="29" height="29" viewBox="0 0 29 29" fill="none" xmlns="http://www.w3.org/2000/svg">
<path d="M25.0425 10.3129H18.8202V3.81647C18.8202 2.8785 18.4536 1.99536 17.7889 1.33063C17.1237 0.665895 16.241 0.299316 15.303 0.299316H3.9527C2.01333 0.299316 0.435547 1.8771 0.435547 3.81647V11.3832C0.435547 13.3226 2.01333 14.9004 3.9527 14.9004H4.21869V17.0581C4.21869 17.7261 4.61608 18.3183 5.23142 18.5675C5.42944 18.6477 5.63561 18.6862 5.83997 18.6862C6.26545 18.6862 6.68051 18.5172 6.98547 18.2027L10.1755 15.03V21.3964C10.1755 23.3353 11.7551 24.9131 13.6962 24.9131H18.6901L22.0034 28.2086C22.3151 28.5295 22.732 28.7003 23.1598 28.7003C23.3641 28.7003 23.5703 28.6613 23.7688 28.5807C24.3832 28.3319 24.7801 27.7406 24.7801 27.074V24.9126H25.0425C26.9841 24.9126 28.5637 23.3353 28.5637 21.3959V13.8287C28.5637 11.8907 26.9841 10.3129 25.0425 10.3129ZM10.025 13.541C9.84559 13.541 9.67295 13.6121 9.54562 13.739L6.01805 17.2476C5.91428 17.3545 5.801 17.3314 5.74164 17.3074C5.68047 17.2824 5.57806 17.2176 5.57806 17.0581V14.2207C5.57806 13.845 5.27401 13.541 4.89837 13.541H3.9527C2.7628 13.541 1.79492 12.5731 1.79492 11.3832V3.81647C1.79492 2.62657 2.7628 1.65869 3.9527 1.65869H15.3026C15.878 1.65869 16.4191 1.88344 16.8273 2.29171C17.2356 2.69952 17.4604 3.241 17.4604 3.81602V11.3828C17.4604 12.5727 16.492 13.5405 15.3021 13.5405H10.025V13.541ZM27.2044 21.3964C27.2044 22.5858 26.2347 23.5537 25.0425 23.5537H24.1004C23.7253 23.5537 23.4208 23.8582 23.4208 24.2334V27.0745C23.4208 27.2322 23.3184 27.297 23.2581 27.3214C23.1978 27.3454 23.0836 27.3699 22.9708 27.2544L19.45 23.7522C19.3227 23.6257 19.1505 23.5541 18.9706 23.5541H13.6962C12.5045 23.5541 11.5348 22.5863 11.5348 21.3968V14.9004H15.3021C17.1441 14.9004 18.6566 13.4771 18.8048 11.6728H25.042C26.2342 11.6728 27.2039 12.6402 27.2039 13.8296V21.3964H27.2044Z" fill="white"/>
<path d="M15.1619 16.6147C14.6091 16.6147 14.1592 17.0652 14.1592 17.6175C14.1592 18.1699 14.6096 18.6203 15.1619 18.6203C15.7152 18.6203 16.1656 18.1699 16.1656 17.6175C16.1656 17.0652 15.7157 16.6147 15.1619 16.6147Z" fill="white"/>
<path d="M19.37 16.6147C18.8171 16.6147 18.3672 17.0652 18.3672 17.6175C18.3672 18.1699 18.8176 18.6203 19.37 18.6203C19.9232 18.6203 20.3736 18.1699 20.3736 17.6175C20.3736 17.0652 19.9232 16.6147 19.37 16.6147Z" fill="white"/>
<path d="M23.577 16.6147C23.0242 16.6147 22.5742 17.0652 22.5742 17.6175C22.5742 18.1699 23.0246 18.6203 23.577 18.6203C24.1303 18.6203 24.5807 18.1699 24.5807 17.6175C24.5807 17.0652 24.1303 16.6147 23.577 16.6147Z" fill="white"/>
<path d="M9.40288 9.89014C9.01048 9.89014 8.69238 10.2173 8.69238 10.6102C8.69238 10.9935 9.00096 11.3302 9.40288 11.3302C9.8048 11.3302 10.1229 10.9935 10.1229 10.6102C10.1229 10.2173 9.79574 9.89014 9.40288 9.89014Z" fill="white"/>
<path d="M9.54177 3.86963C8.0954 3.86963 7.43066 4.72694 7.43066 5.30558C7.43066 5.72336 7.7841 5.91639 8.07365 5.91639C8.65229 5.91639 8.41666 5.09125 9.5096 5.09125C10.0452 5.09125 10.4739 5.32688 10.4739 5.81988C10.4739 6.39852 9.87391 6.73066 9.52048 7.03063C9.20963 7.29842 8.80227 7.73796 8.80227 8.65961C8.80227 9.21696 8.95226 9.37736 9.39179 9.37736C9.91696 9.37736 10.0239 9.14174 10.0239 8.93783C10.0239 8.38049 10.0348 8.05922 10.6238 7.59839C10.9129 7.37319 11.8237 6.64457 11.8237 5.63727C11.8242 4.63043 10.9134 3.86963 9.54177 3.86963Z" fill="white"/>
</svg>
