<svg width="64" height="64" viewBox="0 0 64 64" fill="none" xmlns="http://www.w3.org/2000/svg">
<circle r="32" transform="matrix(-4.37114e-08 1 1 4.37114e-08 32 32)" fill="#037847"/>
<path fill-rule="evenodd" clip-rule="evenodd" d="M32.5098 18.688C30.0656 18.688 27.7215 19.6589 25.9932 21.3873C24.2648 23.1156 23.2938 25.4597 23.2938 27.904L21.2458 27.904C21.2458 24.9166 22.4326 22.0515 24.545 19.9391C26.6574 17.8267 29.5225 16.64 32.5098 16.64C35.4972 16.64 38.3623 17.8267 40.4747 19.9391C42.5871 22.0515 43.7738 24.9166 43.7738 27.904L41.7258 27.904C41.7258 25.4597 40.7549 23.1156 39.0265 21.3873C37.2982 19.6589 34.9541 18.688 32.5098 18.688Z" fill="white"/>
<path fill-rule="evenodd" clip-rule="evenodd" d="M19.4244 27.2631C19.5203 27.1435 19.6419 27.0471 19.7802 26.9808C19.9184 26.9145 20.0698 26.8801 20.2231 26.8801L44.7991 26.8801C44.9523 26.8802 45.1036 26.9146 45.2417 26.9809C45.3798 27.0472 45.5013 27.1437 45.5973 27.2632C45.6932 27.3827 45.761 27.5221 45.7959 27.6714C45.8307 27.8206 45.8316 27.9757 45.7985 28.1253L42.0588 44.9537C41.9074 45.6361 41.5278 46.2464 40.9827 46.6839C40.4376 47.1214 39.7595 47.36 39.0606 47.3601L25.9616 47.3601C25.2626 47.36 24.5846 47.1214 24.0395 46.6839C23.4944 46.2464 23.1147 45.6361 22.9633 44.9537L19.2237 28.1253C19.1908 27.976 19.1918 27.8213 19.2265 27.6725C19.2612 27.5236 19.3288 27.3845 19.4244 27.2652V27.2631ZM21.499 28.9281L24.9621 44.5093C25.0125 44.7369 25.139 44.9405 25.3207 45.0865C25.5024 45.2324 25.7285 45.312 25.9616 45.3121L39.0606 45.3121C39.2937 45.312 39.5197 45.2324 39.7015 45.0865C39.8832 44.9405 40.0097 44.7369 40.06 44.5093L43.5211 28.9281L21.501 28.9281H21.499Z" fill="white"/>
</svg>
