<svg width="18" height="20" viewBox="0 0 18 20" fill="none" xmlns="http://www.w3.org/2000/svg">
<path fill-rule="evenodd" clip-rule="evenodd" d="M9.33236 1.33333C7.74106 1.33333 6.21493 1.96547 5.08972 3.09069C3.9645 4.21591 3.33236 5.74203 3.33236 7.33333H1.99902C1.99902 5.38841 2.77164 3.52315 4.14691 2.14788C5.52217 0.772617 7.38744 0 9.33236 0C11.2773 0 13.1425 0.772617 14.5178 2.14788C15.8931 3.52315 16.6657 5.38841 16.6657 7.33333H15.3324C15.3324 5.74203 14.7002 4.21591 13.575 3.09069C12.4498 1.96547 10.9237 1.33333 9.33236 1.33333Z" fill="currentColor"/>
<path fill-rule="evenodd" clip-rule="evenodd" d="M0.812271 6.9134C0.874754 6.83556 0.953916 6.77275 1.04392 6.72959C1.13392 6.68644 1.23246 6.66404 1.33227 6.66406H17.3323C17.432 6.6641 17.5305 6.68653 17.6204 6.72969C17.7104 6.77284 17.7895 6.83564 17.8519 6.91343C17.9144 6.99123 17.9585 7.08205 17.9812 7.17919C18.0039 7.27633 18.0045 7.37733 17.9829 7.47473L15.5483 18.4307C15.4497 18.875 15.2025 19.2723 14.8476 19.5572C14.4927 19.842 14.0513 19.9973 13.5963 19.9974H5.06827C4.61321 19.9973 4.1718 19.842 3.81691 19.5572C3.46201 19.2723 3.21487 18.875 3.11627 18.4307L0.681605 7.47473C0.660212 7.37755 0.660845 7.27682 0.683455 7.17992C0.706065 7.08301 0.75008 6.9924 0.812271 6.91473V6.9134ZM2.16294 7.9974L4.4176 18.1414C4.45038 18.2896 4.53273 18.4221 4.65103 18.5171C4.76934 18.6122 4.91652 18.664 5.06827 18.6641H13.5963C13.748 18.664 13.8952 18.6122 14.0135 18.5171C14.1318 18.4221 14.2142 18.2896 14.2469 18.1414L16.5003 7.9974H2.16427H2.16294Z" fill="currentColor"/>
</svg>
