<svg width="36" height="36" viewBox="0 0 36 36" fill="none" xmlns="http://www.w3.org/2000/svg">
<circle cx="18" cy="18" r="18" fill="#E5E5E5"/>
<path fill-rule="evenodd" clip-rule="evenodd" d="M17.6673 9.33333C16.076 9.33333 14.5499 9.96547 13.4247 11.0907C12.2995 12.2159 11.6673 13.742 11.6673 15.3333H10.334C10.334 13.3884 11.1066 11.5232 12.4819 10.1479C13.8571 8.77262 15.7224 8 17.6673 8C19.6122 8 21.4775 8.77262 22.8528 10.1479C24.228 11.5232 25.0007 13.3884 25.0007 15.3333H23.6673C23.6673 13.742 23.0352 12.2159 21.91 11.0907C20.7847 9.96547 19.2586 9.33333 17.6673 9.33333Z" fill="#222222"/>
<path fill-rule="evenodd" clip-rule="evenodd" d="M9.14626 14.9153C9.20874 14.8375 9.2879 14.7747 9.3779 14.7315C9.4679 14.6884 9.56644 14.666 9.66626 14.666H25.6663C25.766 14.6661 25.8645 14.6885 25.9544 14.7316C26.0444 14.7748 26.1235 14.8376 26.1859 14.9154C26.2483 14.9932 26.2925 15.084 26.3152 15.1811C26.3379 15.2783 26.3385 15.3793 26.3169 15.4767L23.8823 26.4327C23.7837 26.8769 23.5365 27.2743 23.1816 27.5591C22.8267 27.8439 22.3853 27.9992 21.9303 27.9993H13.4023C12.9472 27.9992 12.5058 27.8439 12.1509 27.5591C11.796 27.2743 11.5489 26.8769 11.4503 26.4327L9.01559 15.4767C8.9942 15.3795 8.99483 15.2788 9.01744 15.1819C9.04005 15.085 9.08406 14.9944 9.14626 14.9167V14.9153ZM10.4969 15.9993L12.7516 26.1433C12.7844 26.2915 12.8667 26.4241 12.985 26.5191C13.1033 26.6141 13.2505 26.666 13.4023 26.666H21.9303C22.082 26.666 22.2292 26.6141 22.3475 26.5191C22.4658 26.4241 22.5481 26.2915 22.5809 26.1433L24.8343 15.9993H10.4983H10.4969Z" fill="#222222"/>
</svg>
