<svg width="23" height="23" viewBox="0 0 23 23" fill="none" xmlns="http://www.w3.org/2000/svg">
<g clip-path="url(#clip0_1210_29878)">
<path d="M5.16699 13.9668H12.4902C12.6763 13.9668 12.8271 13.8159 12.8271 13.6299C12.8271 13.4438 12.6763 13.293 12.4902 13.293H5.16699C4.98093 13.293 4.83008 13.4438 4.83008 13.6299C4.83008 13.8159 4.98088 13.9668 5.16699 13.9668Z" fill="white"/>
<path d="M5.16699 11.5566H12.4902C12.6763 11.5566 12.8271 11.4058 12.8271 11.2197C12.8271 11.0337 12.6763 10.8828 12.4902 10.8828H5.16699C4.98093 10.8828 4.83008 11.0337 4.83008 11.2197C4.83008 11.4058 4.98088 11.5566 5.16699 11.5566Z" fill="white"/>
<path d="M5.16699 9.15039H9.59579C9.78186 9.15039 9.93271 8.99954 9.93271 8.81348C9.93271 8.62741 9.78186 8.47656 9.59579 8.47656H5.16699C4.98093 8.47656 4.83008 8.62741 4.83008 8.81348C4.83008 8.99954 4.98088 9.15039 5.16699 9.15039Z" fill="white"/>
<path d="M20.8168 6.68357L21.9141 4.37315L21.9168 4.36848C21.918 4.36606 21.9187 4.36358 21.9199 4.36116L22.5842 2.96229C22.9063 2.28361 22.572 1.44712 21.8383 1.09732L20.9349 0.668177C20.5662 0.492353 20.1416 0.467286 19.7698 0.599356C19.4327 0.719163 19.1659 0.956036 19.0187 1.26622L17.4844 4.49678C16.6274 4.19791 15.7311 4.04612 14.8152 4.04612H8.18477C6.00695 4.04612 3.95384 4.90062 2.40372 6.45223C0.85365 8.00374 0 10.0586 0 12.2383V12.5785C0 14.9258 1.01106 17.1542 2.77851 18.7162L2.60327 21.9445C2.59024 22.1955 2.69706 22.3287 2.78897 22.3962C2.84881 22.4402 2.9374 22.4815 3.05878 22.4815C3.12764 22.4815 3.20702 22.4682 3.29771 22.4345C3.31029 22.4299 3.3226 22.4244 3.33451 22.4183L6.48977 20.795C6.50657 20.7864 6.52481 20.777 6.5378 20.7706C6.54983 20.7705 6.56578 20.7705 6.58052 20.7706L13.0796 20.7707C13.2656 20.7707 13.4165 20.6198 13.4165 20.4338C13.4165 20.2477 13.2656 20.0968 13.0796 20.0968H6.61726L6.58267 20.0968C6.40119 20.095 6.35016 20.1091 6.18174 20.1958L3.29237 21.6823L3.45719 18.646C3.48715 18.4682 3.39317 18.3568 3.33262 18.3049C1.64288 16.8662 0.673828 14.7791 0.673828 12.5785V12.2383C0.673828 8.09268 4.04319 4.71999 8.18477 4.71999H14.8152C15.6306 4.71999 16.429 4.85085 17.1936 5.10906L15.0965 9.52507C15.0167 9.69316 15.0882 9.8941 15.2563 9.97397C15.4244 10.0538 15.6254 9.98224 15.7052 9.81414L18.8151 3.26556L21.1634 4.38312L17.0814 12.9783L14.733 11.8607L16.0071 9.17853C16.0869 9.01044 16.0154 8.8095 15.8474 8.72963C15.6792 8.6498 15.4783 8.72136 15.3985 8.88937L13.9799 11.8757C13.9616 11.9143 13.9508 11.956 13.948 11.9985L13.7086 15.6995H5.16687C4.9808 15.6995 4.82996 15.8504 4.82996 16.0364C4.82996 16.2225 4.9808 16.3734 5.16687 16.3734H13.8005C13.8447 16.4287 13.9003 16.474 13.9662 16.5054C14.0309 16.5362 14.0996 16.5513 14.169 16.5513C14.2833 16.5513 14.3992 16.5102 14.5012 16.4302C14.5085 16.4244 14.5156 16.4184 14.5224 16.412L17.4703 13.6743C17.5016 13.6453 17.527 13.6105 17.5454 13.5719L20.5032 7.3441C21.6819 8.71198 22.3262 10.4316 22.3262 12.2383V12.5785C22.3262 16.7241 18.9568 20.0968 14.8152 20.0968H11.5745C11.3884 20.0968 11.2376 20.2476 11.2376 20.4337C11.2376 20.6198 11.3884 20.7706 11.5745 20.7706H14.8152C16.9926 20.7706 19.0455 19.9162 20.5958 18.3646C22.1462 16.8129 23 14.7581 23 12.5785V12.2383C23 10.1703 22.2263 8.20719 20.8168 6.68357ZM19.1042 2.65687L19.6274 1.5552C19.6974 1.40773 19.8281 1.29376 19.9954 1.23428C20.1997 1.16169 20.4365 1.17705 20.645 1.27642L21.5491 1.70592C21.9473 1.89576 22.1385 2.32975 21.9755 2.67331L21.4525 3.77443L19.1042 2.65687ZM14.3893 15.6161L14.4585 14.5468L15.1739 14.8874L14.3893 15.6161ZM15.7052 14.394L14.5053 13.8229L14.5884 12.5381L16.648 13.5183L15.7052 14.394Z" fill="white"/>
</g>
<defs>
<clipPath id="clip0_1210_29878">
<rect width="23" height="23" fill="white"/>
</clipPath>
</defs>
</svg>
