<svg width="24" height="25" viewBox="0 0 24 25" fill="none" xmlns="http://www.w3.org/2000/svg">
<path fill-rule="evenodd" clip-rule="evenodd" d="M19.8 3.5H12.0255L11.496 3.719L1.5 13.715V14.7755L9.2745 22.55H10.335L13.6575 19.2275C14.6279 19.7395 15.7089 20.0061 16.806 20.004C17.9032 20.0019 18.9832 19.7312 19.9516 19.2155C20.92 18.6999 21.7475 17.9549 22.3617 17.0458C22.9759 16.1366 23.3581 15.0909 23.475 14C23.5155 13.751 23.541 13.502 23.5515 13.25C23.5504 12.1405 23.2762 11.0483 22.753 10.0699C22.2298 9.09147 21.4737 8.25695 20.5515 7.64V4.25L19.8015 3.5H19.8ZM19.05 6.8885C18.3275 6.63228 17.5666 6.50091 16.8 6.5C16.6011 6.5 16.4103 6.57902 16.2697 6.71967C16.129 6.86032 16.05 7.05109 16.05 7.25C16.05 7.44891 16.129 7.63968 16.2697 7.78033C16.4103 7.92098 16.6011 8 16.8 8C17.5783 8.00013 18.3469 8.17331 19.05 8.507V11.714L13.1625 17.6C13.0229 17.6722 12.9092 17.7859 12.837 17.9255L9.804 20.9585L3.0915 14.2445L12.336 5H19.05V6.8885ZM20.55 9.5765C21.5113 10.5576 22.0498 11.8764 22.05 13.25C22.0428 13.5015 22.0173 13.7522 21.9735 14C21.8625 14.7916 21.5715 15.5471 21.123 16.2087C20.6744 16.8703 20.0802 17.4203 19.386 17.8164C18.6918 18.2126 17.916 18.4443 17.1182 18.4939C16.3205 18.5435 15.5219 18.4096 14.784 18.1025L20.331 12.5555L20.55 12.0245V9.5765Z" fill="#037847"/>
</svg>
