<svg width="21" height="19" viewBox="0 0 21 19" fill="none" xmlns="http://www.w3.org/2000/svg">
<path fill-rule="evenodd" clip-rule="evenodd" d="M14.4156 12.7861C14.4915 12.4656 14.5317 12.1312 14.5317 11.7875C14.5317 9.40449 12.5999 7.47266 10.2168 7.47266C9.87312 7.47266 9.53879 7.51285 9.21828 7.58878L10.104 8.47454C10.1415 8.47329 10.1791 8.47266 10.2168 8.47266C12.0476 8.47266 13.5317 9.95677 13.5317 11.7875C13.5317 11.8253 13.5311 11.8629 13.5298 11.9003L14.4156 12.7861ZM7.41002 10.0232C7.08817 10.5341 6.90198 11.1391 6.90198 11.7875C6.90198 13.6183 8.38609 15.1024 10.2168 15.1024C10.8653 15.1024 11.4703 14.9162 11.9812 14.5943L12.7021 15.3152C11.9995 15.8111 11.1422 16.1024 10.2168 16.1024C7.83381 16.1024 5.90198 14.1706 5.90198 11.7875C5.90198 10.8622 6.19326 10.0049 6.68914 9.30228L7.41002 10.0232Z" fill="#222222"/>
<path fill-rule="evenodd" clip-rule="evenodd" d="M14.7741 17.3872L14.0418 16.6549C12.858 17.3178 11.5626 17.7595 10.2168 17.7595C8.37495 17.7595 6.62771 16.9323 5.13121 15.8427C3.63898 14.7562 2.43996 13.4408 1.70517 12.5396C1.2814 12.0199 1.23682 11.9292 1.23682 11.7872C1.23682 11.6453 1.2814 11.5545 1.70517 11.0348C2.43878 10.1352 3.63512 8.82249 5.12401 7.73704L4.40884 7.02188C2.88411 8.1573 1.67269 9.49229 0.930168 10.4029L0.871 10.4752C0.541926 10.8769 0.236816 11.2493 0.236816 11.7872C0.236816 12.3252 0.541926 12.6976 0.871 13.0993L0.930168 13.1716C1.69428 14.1087 2.95494 15.4952 4.54261 16.6511C6.12602 17.804 8.0789 18.7595 10.2168 18.7595C11.8761 18.7595 13.424 18.1839 14.7741 17.3872ZM7.09688 5.46728C8.07153 5.06654 9.11981 4.81494 10.2168 4.81494C12.3547 4.81494 14.3076 5.77052 15.891 6.92337C17.4787 8.07932 18.7393 9.46582 19.5035 10.4029L19.5626 10.4752C19.8917 10.8769 20.1968 11.2493 20.1968 11.7872C20.1968 12.3252 19.8917 12.6976 19.5626 13.0993L19.5035 13.1716C18.9656 13.8312 18.1817 14.7135 17.2109 15.5813L16.5026 14.873C17.4403 14.0402 18.203 13.184 18.7284 12.5396C19.1522 12.0199 19.1968 11.9292 19.1968 11.7872C19.1968 11.6453 19.1522 11.5545 18.7284 11.0348C17.9937 10.1337 16.7946 8.81826 15.3024 7.7318C13.8059 6.64222 12.0587 5.81494 10.2168 5.81494C9.41244 5.81494 8.62611 5.97272 7.87083 6.24123L7.09688 5.46728Z" fill="#222222"/>
<path d="M2.66577 1L19.9252 18.2595" stroke="#222222"/>
</svg>
