<svg width="24" height="24" viewBox="0 0 24 24" fill="none" xmlns="http://www.w3.org/2000/svg">
<path d="M9.70466 13.2384C9.6293 13.2384 8.04842 13.2389 7.3193 13.2382C6.94394 13.2379 6.81002 13.1031 6.81002 12.7253C6.80954 11.755 6.8093 10.7847 6.81002 9.81435C6.81026 9.44139 6.95186 9.29907 7.32242 9.29883C8.05154 9.29835 9.62378 9.29859 9.70466 9.29859C9.70466 9.23211 9.70442 7.83123 9.70466 7.18611C9.70514 6.23235 9.8753 5.31939 10.3599 4.48347C10.8559 3.62787 11.5779 3.04179 12.5031 2.70291C13.0956 2.48571 13.7107 2.39907 14.3395 2.39859C15.1263 2.39811 15.913 2.39883 16.6999 2.40027C17.0381 2.40075 17.1881 2.55027 17.1888 2.89083C17.1903 3.80355 17.1903 4.71627 17.1888 5.62875C17.1883 5.97291 17.0446 6.11115 16.6987 6.11499C16.0539 6.12195 15.4085 6.11763 14.7643 6.14355C14.1137 6.14355 13.7715 6.46131 13.7715 7.13475C13.7559 7.84707 13.765 8.56011 13.765 9.29835C13.8259 9.29835 15.6775 9.29811 16.543 9.29835C16.9361 9.29835 17.0705 9.43347 17.0705 9.82875C17.0705 10.7938 17.0703 11.7591 17.0695 12.7241C17.0693 13.1136 16.9431 13.2379 16.5475 13.2382C15.6821 13.2387 13.8377 13.2384 13.7571 13.2384V21.0492C13.7571 21.4656 13.626 21.5984 13.2151 21.5984C12.2134 21.5984 11.2114 21.5986 10.2096 21.5984C9.8465 21.5984 9.7049 21.4572 9.7049 21.0941C9.70466 18.5504 9.70466 13.3277 9.70466 13.2384Z" fill="#3D6AD6"/>
</svg>
