<svg width="16" height="27" viewBox="0 0 16 27" fill="none" xmlns="http://www.w3.org/2000/svg">
<path d="M15.3336 0.0056178L11.7358 0C7.69374 0 5.0816 2.60806 5.0816 6.64474V9.7084H1.46416C1.15157 9.7084 0.898438 9.95503 0.898438 10.2592V14.6981C0.898438 15.0023 1.15186 15.2487 1.46416 15.2487H5.0816V26.4495C5.0816 26.7537 5.33474 27 5.64733 27H10.3671C10.6797 27 10.9328 26.7534 10.9328 26.4495V15.2487H15.1624C15.475 15.2487 15.7281 15.0023 15.7281 14.6981L15.7299 10.2592C15.7299 10.1132 15.6701 9.97328 15.5642 9.86992C15.4583 9.76655 15.314 9.7084 15.1639 9.7084H10.9328V7.11129C10.9328 5.86302 11.2384 5.22933 12.9093 5.22933L15.333 5.22849C15.6453 5.22849 15.8984 4.98187 15.8984 4.67794V0.556162C15.8984 0.25252 15.6456 0.00617958 15.3336 0.0056178Z" fill="#F79838"/>
</svg>
