<svg width="36" height="36" viewBox="0 0 36 36" fill="none" xmlns="http://www.w3.org/2000/svg">
<circle cx="18" cy="18" r="18" fill="#E5E5E5"/>
<path fill-rule="evenodd" clip-rule="evenodd" d="M17.6665 11.6641L16.7105 10.6814C14.4665 8.37473 10.3518 9.17073 8.86652 12.0707C8.16919 13.4347 8.01186 15.404 9.28519 17.9174C10.5118 20.3374 13.0638 23.236 17.6665 26.3933C22.2691 23.236 24.8198 20.3374 26.0478 17.9174C27.3211 15.4027 27.1651 13.4347 26.4665 12.0707C24.9811 9.17073 20.8665 8.3734 18.6225 10.6801L17.6665 11.6641ZM17.6665 28C-2.77744 14.4907 11.3718 3.94674 17.4318 9.52406C17.5118 9.59739 17.5905 9.67339 17.6665 9.75206C17.7417 9.67346 17.82 9.59785 17.9012 9.52539C23.9598 3.94408 38.1104 14.4894 17.6665 28Z" fill="#222222"/>
</svg>
