<svg width="20" height="20" viewBox="0 0 20 20" fill="none" xmlns="http://www.w3.org/2000/svg">
<g clip-path="url(#clip0_1512_869)">
<path d="M0.491211 16.668H5.25317V17.6205H0.491211V16.668Z" fill="#222222"/>
<path d="M10.0146 16.668H19.5386V17.6205H10.0146V16.668Z" fill="#222222"/>
<path d="M7.63379 2.38086H19.5386V3.33336H7.63379V2.38086Z" fill="#222222"/>
<path d="M0.491211 2.38086H2.87211V3.33336H0.491211V2.38086Z" fill="#222222"/>
<path d="M15.7285 9.52344H19.5382V10.4759H15.7285V9.52344Z" fill="#222222"/>
<path d="M0.491211 9.52344H10.9675V10.4759H0.491211V9.52344Z" fill="#222222"/>
<path d="M5.25363 5.71429C3.67613 5.71429 2.39648 4.43447 2.39648 2.85714C2.39648 1.27982 3.67613 0 5.25363 0C6.83095 0 8.11077 1.27982 8.11077 2.85714C8.11077 4.43447 6.83095 5.71429 5.25363 5.71429ZM5.25363 0.952323C4.20592 0.952323 3.34881 1.80961 3.34881 2.85714C3.34881 3.90468 4.20592 4.76196 5.25363 4.76196C6.30117 4.76196 7.15827 3.90468 7.15827 2.85714C7.15827 1.80961 6.30117 0.952323 5.25363 0.952323Z" fill="#222222"/>
<path d="M13.3484 12.8569C11.771 12.8569 10.4912 11.577 10.4912 9.99972C10.4912 8.4224 11.771 7.14258 13.3484 7.14258C14.9257 7.14258 16.2055 8.4224 16.2055 9.99972C16.2055 11.577 14.9257 12.8569 13.3484 12.8569ZM13.3484 8.0949C12.3008 8.0949 11.4435 8.95218 11.4435 9.99972C11.4435 11.0473 12.3008 11.9045 13.3484 11.9045C14.3959 11.9045 15.2532 11.0473 15.2532 9.99972C15.2532 8.95218 14.3959 8.0949 13.3484 8.0949Z" fill="#222222"/>
<path d="M7.63448 19.9994C6.05716 19.9994 4.77734 18.7196 4.77734 17.1423C4.77734 15.565 6.05716 14.2852 7.63448 14.2852C9.2118 14.2852 10.4916 15.565 10.4916 17.1423C10.4916 18.7196 9.2118 19.9994 7.63448 19.9994ZM7.63448 15.2375C6.58695 15.2375 5.72966 16.0948 5.72966 17.1423C5.72966 18.1898 6.58695 19.0471 7.63448 19.0471C8.68202 19.0471 9.5393 18.1898 9.5393 17.1423C9.5393 16.0948 8.68202 15.2375 7.63448 15.2375Z" fill="#222222"/>
</g>
<defs>
<clipPath id="clip0_1512_869">
<rect width="20" height="20" fill="white"/>
</clipPath>
</defs>
</svg>
