<svg width="80" height="34" viewBox="0 0 80 34" fill="none" xmlns="http://www.w3.org/2000/svg">
<path fill-rule="evenodd" clip-rule="evenodd" d="M36.8987 26.5976V16.9491H41.8879C43.9324 16.9491 45.658 16.2653 47.0647 14.9168L47.4023 14.5749C49.972 11.7829 49.8031 7.43351 47.0647 4.85045C45.6955 3.48295 43.8198 2.74221 41.8879 2.7802H33.8789V26.5976H36.8987ZM36.8945 14.0233V5.70435H41.9596C43.0476 5.70435 44.0794 6.12219 44.8485 6.88192C46.4806 8.47734 46.5181 11.1364 44.9423 12.7888C44.1732 13.6055 43.0852 14.0613 41.9596 14.0233H36.8945ZM61.4854 11.5739C60.1912 10.3773 58.4281 9.76953 56.1961 9.76953C53.3264 9.76953 51.1694 10.8331 49.7439 12.9414L52.4073 14.6318C53.3827 13.1883 54.7144 12.4666 56.4024 12.4666C57.4716 12.4666 58.5032 12.8654 59.3097 13.5872C60.0975 14.2709 60.5476 15.2585 60.5476 16.3032V17.0059C59.3847 16.3601 57.9217 16.0183 56.1211 16.0183C54.0204 16.0183 52.3323 16.5121 51.0756 17.5187C49.8189 18.5254 49.1812 19.8549 49.1812 21.5453C49.1437 23.0837 49.8002 24.5462 50.9631 25.5338C52.1447 26.5975 53.6452 27.1293 55.4083 27.1293C57.4903 27.1293 59.1409 26.1986 60.3976 24.3373H60.5289V26.5975H63.4173V16.5501C63.4173 14.4418 62.7796 12.7704 61.4854 11.5739ZM53.2872 23.5966C52.6682 23.1408 52.293 22.4001 52.293 21.6024C52.293 20.7097 52.7057 19.969 53.5123 19.3802C54.3377 18.7914 55.3695 18.4875 56.5889 18.4875C58.2772 18.4685 59.5904 18.8484 60.5284 19.6081C60.5284 20.8996 60.0219 22.0202 59.0276 22.9699C58.1272 23.8815 56.9078 24.3944 55.6322 24.3944C54.788 24.4133 53.9626 24.1285 53.2872 23.5966ZM69.9071 33.7585L79.9981 10.302H76.7157L72.0454 22.0018H71.9891L67.2062 10.302H63.9238L70.5449 25.5535L66.7936 33.7585H69.9071Z" fill="white"/>
<path d="M26.4685 14.8611C26.4685 13.9305 26.3935 12.9998 26.2435 12.0881H13.5078V17.3492H20.8041C20.504 19.0396 19.5286 20.5591 18.1031 21.5087V24.9275H22.4546C25.0055 22.5533 26.4685 19.0396 26.4685 14.8611Z" fill="#4285F4"/>
<path d="M13.5057 28.2332C17.1445 28.2332 20.2205 27.0176 22.4526 24.9284L18.1011 21.5096C16.8819 22.3453 15.3251 22.8202 13.5057 22.8202C9.9795 22.8202 6.99723 20.408 5.92811 17.1792H1.44531V20.7119C3.7336 25.3273 8.40396 28.2332 13.5057 28.2332Z" fill="#34A853"/>
<path d="M5.93267 17.1782C5.36989 15.4878 5.36989 13.6455 5.93267 11.9361V8.42236H1.44917C-0.483056 12.278 -0.483056 16.8363 1.44917 20.6919L5.93267 17.1782Z" fill="#FBBC04"/>
<path d="M13.5057 6.2957C15.4376 6.25772 17.2945 6.99845 18.6825 8.34696L22.5463 4.43438C20.0892 2.11722 16.8631 0.844676 13.5057 0.882663C8.40396 0.882663 3.7336 3.8076 1.44531 8.42293L5.92811 11.9557C6.99722 8.70783 9.9795 6.2957 13.5057 6.2957Z" fill="#EA4335"/>
</svg>
