<svg width="22" height="20" viewBox="0 0 22 20" fill="none" xmlns="http://www.w3.org/2000/svg">
<path fill-rule="evenodd" clip-rule="evenodd" d="M10.9997 3.66405L10.0437 2.68139C7.79976 0.37473 3.6851 1.17073 2.19977 4.07072C1.50244 5.43471 1.34511 7.40404 2.61844 9.91737C3.8451 12.3374 6.39709 15.236 10.9997 18.3933C15.6024 15.236 18.1531 12.3374 19.3811 9.91737C20.6544 7.40271 20.4984 5.43471 19.7997 4.07072C18.3144 1.17073 14.1997 0.373397 11.9557 2.68006L10.9997 3.66405ZM10.9997 20C-9.44419 6.49071 4.7051 -4.05326 10.7651 1.52406C10.8451 1.59739 10.9237 1.67339 10.9997 1.75206C11.075 1.67346 11.1533 1.59785 11.2344 1.52539C17.2931 -4.05592 31.4437 6.48938 10.9997 20Z" fill="currentColor"/>
</svg>
