<svg width="30" height="28" viewBox="0 0 30 28" fill="none" xmlns="http://www.w3.org/2000/svg">
<path d="M7.39244 8.89458H1.23904V27.3733H7.39244V8.89458Z" fill="#F79838"/>
<path d="M27.5867 10.5826C26.2941 9.1716 24.5845 8.46597 22.459 8.46597C21.6758 8.46597 20.9639 8.56231 20.3236 8.75511C19.6835 8.94778 19.1428 9.2181 18.7014 9.56621C18.2602 9.91432 17.9088 10.2375 17.648 10.5357C17.3999 10.819 17.1574 11.1489 16.9207 11.5222V8.89455H10.7856L10.8044 9.78971C10.817 10.3866 10.8232 12.2263 10.8232 15.3091C10.8232 18.3921 10.8108 22.4135 10.7859 27.3736H16.9207V17.0617C16.9207 16.4279 16.9887 15.9245 17.1257 15.5512C17.3869 14.9169 17.7812 14.3859 18.3099 13.9572C18.8384 13.528 19.494 13.3135 20.2774 13.3135C21.3461 13.3135 22.1327 13.6833 22.6362 14.423C23.1396 15.1626 23.3913 16.1851 23.3913 17.4904V27.373H29.5261V16.7823C29.5256 14.0596 28.8797 11.9931 27.5867 10.5826Z" fill="#F79838"/>
<path d="M4.35301 0C3.32135 0 2.48542 0.301675 1.84504 0.904436C1.20473 1.50733 0.884766 2.26847 0.884766 3.18858C0.884766 4.09583 1.19552 4.85435 1.81709 5.46332C2.43846 6.07235 3.25904 6.37703 4.27836 6.37703H4.31565C5.35999 6.37703 6.20231 6.07261 6.84243 5.46332C7.48255 4.85435 7.79637 4.09609 7.78403 3.18858C7.77162 2.26854 7.4544 1.50733 6.83302 0.904436C6.21172 0.301413 5.38474 0 4.35301 0Z" fill="#F79838"/>
</svg>
