<svg width="25" height="25" viewBox="0 0 25 25" fill="none" xmlns="http://www.w3.org/2000/svg">
<path fill-rule="evenodd" clip-rule="evenodd" d="M7.75 8.61133C7.75 7.41785 8.22411 6.27326 9.06802 5.42935C9.91193 4.58543 11.0565 4.11133 12.25 4.11133C13.4435 4.11133 14.5881 4.58543 15.432 5.42935C16.2759 6.27326 16.75 7.41785 16.75 8.61133V9.11133H17.75V8.61133C17.75 5.57383 15.2875 3.11133 12.25 3.11133C9.2125 3.11133 6.75 5.57383 6.75 8.61133V9.11133H7.75V8.61133ZM15.75 9.11133V8.61133C15.75 8.1517 15.6595 7.69658 15.4836 7.27194C15.3077 6.8473 15.0499 6.46146 14.7249 6.13645C14.3999 5.81145 14.014 5.55364 13.5894 5.37775C13.1648 5.20186 12.7096 5.11133 12.25 5.11133C11.7904 5.11133 11.3352 5.20186 10.9106 5.37775C10.486 5.55364 10.1001 5.81145 9.77513 6.13645C9.45012 6.46146 9.19231 6.8473 9.01642 7.27194C8.84053 7.69658 8.75 8.1517 8.75 8.61133V9.11133H9.75V8.61133C9.75 7.94829 10.0134 7.3124 10.4822 6.84356C10.9511 6.37472 11.587 6.11133 12.25 6.11133C12.913 6.11133 13.5489 6.37472 14.0178 6.84356C14.4866 7.3124 14.75 7.94829 14.75 8.61133V9.11133H15.75ZM8.75 10.1113H18.75V20.1113H5.75V10.1113H7.75V9.11133H5.75C5.48478 9.11133 5.23043 9.21669 5.04289 9.40422C4.85536 9.59176 4.75 9.84611 4.75 10.1113V20.1113C4.75 20.3765 4.85536 20.6309 5.04289 20.8184C5.23043 21.006 5.48478 21.1113 5.75 21.1113H18.75C19.0152 21.1113 19.2696 21.006 19.4571 20.8184C19.6446 20.6309 19.75 20.3765 19.75 20.1113V10.1113C19.75 9.84611 19.6446 9.59176 19.4571 9.40422C19.2696 9.21669 19.0152 9.11133 18.75 9.11133H8.75V10.1113Z" fill="#222222" fill-opacity="0.71"/>
<path fill-rule="evenodd" clip-rule="evenodd" d="M16.75 13.1113H7.75V12.1113H16.75V13.1113ZM16.75 15.6113H7.75V14.6113H16.75V15.6113ZM16.75 18.1113H7.75V17.1113H16.75V18.1113Z" fill="#222222" fill-opacity="0.71"/>
</svg>
