<svg width="20" height="20" viewBox="0 0 20 20" fill="none" xmlns="http://www.w3.org/2000/svg">
<g clip-path="url(#clip0_1210_27046)">
<path d="M3.34835 5.71429C1.77103 5.71429 0.491211 4.43447 0.491211 2.85714C0.491211 1.27982 1.77103 0 3.34835 0C4.92568 0 6.2055 1.27982 6.2055 2.85714C6.2055 4.43447 4.92568 5.71429 3.34835 5.71429ZM3.34835 0.952323C2.30082 0.952323 1.44353 1.80961 1.44353 2.85714C1.44353 3.90468 2.30082 4.76196 3.34835 4.76196C4.39589 4.76196 5.25317 3.90468 5.25317 2.85714C5.25317 1.80961 4.39589 0.952323 3.34835 0.952323Z" fill="#222222"/>
<path d="M3.34835 12.8569C1.77103 12.8569 0.491211 11.577 0.491211 9.99972C0.491211 8.4224 1.77103 7.14258 3.34835 7.14258C4.92568 7.14258 6.2055 8.4224 6.2055 9.99972C6.2055 11.577 4.92568 12.8569 3.34835 12.8569ZM3.34835 8.0949C2.30082 8.0949 1.44353 8.95218 1.44353 9.99972C1.44353 11.0473 2.30082 11.9045 3.34835 11.9045C4.39589 11.9045 5.25317 11.0473 5.25317 9.99972C5.25317 8.95218 4.39589 8.0949 3.34835 8.0949Z" fill="#222222"/>
<path d="M3.34835 19.9994C1.77103 19.9994 0.491211 18.7196 0.491211 17.1423C0.491211 15.565 1.77103 14.2852 3.34835 14.2852C4.92568 14.2852 6.2055 15.565 6.2055 17.1423C6.2055 18.7196 4.92568 19.9994 3.34835 19.9994ZM3.34835 15.2375C2.30082 15.2375 1.44353 16.0948 1.44353 17.1423C1.44353 18.1898 2.30082 19.0471 3.34835 19.0471C4.39589 19.0471 5.25317 18.1898 5.25317 17.1423C5.25317 16.0948 4.39589 15.2375 3.34835 15.2375Z" fill="#222222"/>
<path d="M7.63379 2.38086H19.5386V3.33336H7.63379V2.38086Z" fill="#222222"/>
<path d="M7.63379 9.52344H19.5386V10.4759H7.63379V9.52344Z" fill="#222222"/>
<path d="M7.63379 16.668H19.5386V17.6205H7.63379V16.668Z" fill="#222222"/>
</g>
<defs>
<clipPath id="clip0_1210_27046">
<rect width="20" height="20" fill="white"/>
</clipPath>
</defs>
</svg>
