<svg width="102" height="33" viewBox="0 0 102 33" fill="none" xmlns="http://www.w3.org/2000/svg">
<g clip-path="url(#clip0_1210_20834)">
<path d="M12.7381 3.12012H4.93813C4.43813 3.12012 3.93813 3.52012 3.83813 4.02012L0.738131 24.0201C0.638131 24.4201 0.938131 24.7201 1.33813 24.7201H5.03813C5.53813 24.7201 6.03813 24.3201 6.13813 23.8201L6.93813 18.4201C7.03813 17.9201 7.43813 17.5201 8.03813 17.5201H10.5381C15.6381 17.5201 18.6381 15.0201 19.4381 10.1201C19.7381 8.02012 19.4381 6.32012 18.4381 5.12012C17.3381 3.82012 15.3381 3.12012 12.7381 3.12012ZM13.6381 10.4201C13.2381 13.2201 11.0381 13.2201 9.03813 13.2201H7.83813L8.63813 8.02012C8.63813 7.72012 8.93813 7.52012 9.23813 7.52012H9.73813C11.1381 7.52012 12.4381 7.52012 13.1381 8.32012C13.6381 8.72012 13.8381 9.42012 13.6381 10.4201Z" fill="#003087"/>
<path d="M35.9391 10.3201H32.2391C31.9391 10.3201 31.6391 10.5201 31.6391 10.8201L31.4391 11.8201L31.1391 11.4201C30.3391 10.2201 28.5391 9.82007 26.7391 9.82007C22.6391 9.82007 19.1391 12.9201 18.4391 17.3201C18.0391 19.5201 18.5391 21.6201 19.8391 23.0201C20.9391 24.3201 22.6391 24.9201 24.5391 24.9201C27.8391 24.9201 29.7391 22.8201 29.7391 22.8201L29.5391 23.8201C29.4391 24.2201 29.7391 24.6201 30.1391 24.6201H33.5391C34.0391 24.6201 34.5391 24.2201 34.6391 23.7201L36.6391 10.9201C36.7391 10.7201 36.3391 10.3201 35.9391 10.3201ZM30.8391 17.5201C30.4391 19.6201 28.8391 21.1201 26.6391 21.1201C25.5391 21.1201 24.7391 20.8201 24.1391 20.1201C23.5391 19.4201 23.3391 18.5201 23.5391 17.5201C23.8391 15.4201 25.6391 13.9201 27.7391 13.9201C28.8391 13.9201 29.6391 14.3201 30.2391 14.9201C30.7391 15.6201 30.9391 16.5201 30.8391 17.5201Z" fill="#003087"/>
<path d="M55.8376 10.3201H52.1376C51.7376 10.3201 51.4376 10.5201 51.2376 10.8201L46.0376 18.4201L43.8376 11.1201C43.7376 10.6201 43.2376 10.3201 42.8376 10.3201H39.1376C38.7376 10.3201 38.3376 10.7201 38.5376 11.2201L42.6376 23.3201L38.7376 28.7201C38.4376 29.1201 38.7376 29.7201 39.2376 29.7201H42.9376C43.3376 29.7201 43.6376 29.5201 43.8376 29.2201L56.3376 11.2201C56.6376 10.9201 56.3376 10.3201 55.8376 10.3201Z" fill="#003087"/>
<path d="M68.2381 3.12012H60.4381C59.9381 3.12012 59.4381 3.52012 59.3381 4.02012L56.2381 23.9201C56.1381 24.3201 56.4381 24.6201 56.8381 24.6201H60.8381C61.2381 24.6201 61.5381 24.3201 61.5381 24.0201L62.4381 18.3201C62.5381 17.8201 62.9381 17.4201 63.5381 17.4201H66.0381C71.1381 17.4201 74.1381 14.9201 74.9381 10.0201C75.2381 7.92012 74.9381 6.22012 73.9381 5.02012C72.7381 3.82012 70.8381 3.12012 68.2381 3.12012ZM69.1381 10.4201C68.7381 13.2201 66.5381 13.2201 64.5381 13.2201H63.3381L64.1381 8.02012C64.1381 7.72012 64.4381 7.52012 64.7381 7.52012H65.2381C66.6381 7.52012 67.9381 7.52012 68.6381 8.32012C69.1381 8.72012 69.2381 9.42012 69.1381 10.4201Z" fill="#009CDE"/>
<path d="M91.4391 10.3201H87.7391C87.4391 10.3201 87.1391 10.5201 87.1391 10.8201L86.9391 11.8201L86.6391 11.4201C85.8391 10.2201 84.0391 9.82007 82.2391 9.82007C78.1391 9.82007 74.6391 12.9201 73.9391 17.3201C73.5391 19.5201 74.0391 21.6201 75.3391 23.0201C76.4391 24.3201 78.1391 24.9201 80.0391 24.9201C83.3391 24.9201 85.2391 22.8201 85.2391 22.8201L85.0391 23.8201C84.9391 24.2201 85.2391 24.6201 85.6391 24.6201H89.0391C89.5391 24.6201 90.0391 24.2201 90.1391 23.7201L92.1391 10.9201C92.1391 10.7201 91.8391 10.3201 91.4391 10.3201ZM86.2391 17.5201C85.8391 19.6201 84.2391 21.1201 82.0391 21.1201C80.9391 21.1201 80.1391 20.8201 79.5391 20.1201C78.9391 19.4201 78.7391 18.5201 78.9391 17.5201C79.2391 15.4201 81.0391 13.9201 83.1391 13.9201C84.2391 13.9201 85.0391 14.3201 85.6391 14.9201C86.2391 15.6201 86.4391 16.5201 86.2391 17.5201Z" fill="#009CDE"/>
<path d="M95.8366 3.62012L92.6366 23.9201C92.5366 24.3201 92.8366 24.6201 93.2366 24.6201H96.4366C96.9366 24.6201 97.4366 24.2201 97.5366 23.7201L100.737 3.82012C100.837 3.42012 100.537 3.12012 100.137 3.12012H96.5366C96.1366 3.12012 95.9366 3.32012 95.8366 3.62012Z" fill="#009CDE"/>
</g>
<defs>
<clipPath id="clip0_1210_20834">
<rect width="101" height="32" fill="white" transform="translate(0.5 0.320068)"/>
</clipPath>
</defs>
</svg>
