<svg width="25" height="25" viewBox="0 0 25 25" fill="none" xmlns="http://www.w3.org/2000/svg">
<path d="M23.4648 17.6516C23.4234 17.6172 18.7445 14.2688 17.475 14.4883C16.8648 14.5961 16.5156 15.0117 15.8164 15.8453C15.7039 15.9797 15.4328 16.3008 15.2234 16.5297C14.7815 16.3857 14.3505 16.2103 13.9336 16.0047C11.7817 14.957 10.043 13.2183 8.99531 11.0664C8.78974 10.6495 8.61429 10.2185 8.47031 9.77656C8.7 9.56641 9.02188 9.29531 9.15938 9.17969C9.98828 8.48438 10.4039 8.13516 10.5117 7.52422C10.7328 6.25937 7.38281 1.57656 7.34844 1.53438C7.19588 1.31801 6.99718 1.13822 6.7667 1.00798C6.53621 0.877742 6.27968 0.800301 6.01562 0.78125C4.65781 0.78125 0.78125 5.80937 0.78125 6.65703C0.78125 6.70625 0.852344 11.7094 7.02187 17.9852C13.2906 24.1477 18.2938 24.2188 18.343 24.2188C19.1906 24.2188 24.2188 20.3422 24.2188 18.9844C24.1997 18.7202 24.1222 18.4636 23.9918 18.2331C23.8614 18.0026 23.6814 17.804 23.4648 17.6516ZM18.257 22.6516C17.5742 22.5953 13.3758 22.0414 8.12656 16.8844C2.94297 11.607 2.40312 7.39688 2.34922 6.74453C3.37326 5.13722 4.60999 3.6758 6.02578 2.4C6.05703 2.43125 6.09844 2.47812 6.15156 2.53906C7.23736 4.02127 8.17272 5.60802 8.94375 7.27578C8.69301 7.52803 8.42799 7.76566 8.15 7.9875C7.7189 8.31598 7.32303 8.68828 6.96875 9.09844L6.77891 9.36406L6.83516 9.68516C7.00049 10.4014 7.25371 11.0944 7.58906 11.7484C8.79054 14.2156 10.7842 16.209 13.2516 17.4102C13.9055 17.746 14.5985 17.9995 15.3148 18.1648L15.6359 18.2211L15.9016 18.0312C16.3133 17.6754 16.6871 17.278 17.0172 16.8453C17.2617 16.5531 17.5891 16.1633 17.7125 16.0531C19.385 16.8234 20.9758 17.7599 22.4609 18.8484C22.5258 18.9031 22.5711 18.9453 22.6016 18.9727C21.326 20.3889 19.8645 21.6259 18.257 22.65V22.6516Z" fill="white"/>
</svg>
