<svg width="25" height="25" viewBox="0 0 25 25" fill="none" xmlns="http://www.w3.org/2000/svg">
<path d="M12.5 2.31152C6.70156 2.31152 2 7.01309 2 12.8115C2 18.61 6.70156 23.3115 12.5 23.3115C18.2984 23.3115 23 18.61 23 12.8115C23 7.01309 18.2984 2.31152 12.5 2.31152ZM12.5 21.5303C7.68594 21.5303 3.78125 17.6256 3.78125 12.8115C3.78125 7.99746 7.68594 4.09277 12.5 4.09277C17.3141 4.09277 21.2188 7.99746 21.2188 12.8115C21.2188 17.6256 17.3141 21.5303 12.5 21.5303Z" fill="black" fill-opacity="0.48"/>
<path d="M15.1156 8.23418C14.4125 7.61777 13.4844 7.28027 12.5 7.28027C11.5156 7.28027 10.5875 7.62012 9.88437 8.23418C9.15312 8.87402 8.75 9.73418 8.75 10.6553V10.8334C8.75 10.9365 8.83437 11.0209 8.9375 11.0209H10.0625C10.1656 11.0209 10.25 10.9365 10.25 10.8334V10.6553C10.25 9.62168 11.2602 8.78027 12.5 8.78027C13.7398 8.78027 14.75 9.62168 14.75 10.6553C14.75 11.3842 14.2344 12.0521 13.4352 12.3592C12.9383 12.549 12.5164 12.8818 12.2141 13.3178C11.907 13.7631 11.7477 14.2975 11.7477 14.8389V15.3428C11.7477 15.4459 11.832 15.5303 11.9352 15.5303H13.0602C13.1633 15.5303 13.2477 15.4459 13.2477 15.3428V14.8107C13.2489 14.5832 13.3186 14.3613 13.4478 14.174C13.577 13.9867 13.7596 13.8427 13.9719 13.7607C15.3547 13.2287 16.2477 12.01 16.2477 10.6553C16.25 9.73418 15.8469 8.87402 15.1156 8.23418ZM11.5625 17.9678C11.5625 18.2164 11.6613 18.4549 11.8371 18.6307C12.0129 18.8065 12.2514 18.9053 12.5 18.9053C12.7486 18.9053 12.9871 18.8065 13.1629 18.6307C13.3387 18.4549 13.4375 18.2164 13.4375 17.9678C13.4375 17.7191 13.3387 17.4807 13.1629 17.3049C12.9871 17.129 12.7486 17.0303 12.5 17.0303C12.2514 17.0303 12.0129 17.129 11.8371 17.3049C11.6613 17.4807 11.5625 17.7191 11.5625 17.9678Z" fill="black" fill-opacity="0.48"/>
</svg>
