<svg width="42" height="36" viewBox="0 0 42 36" fill="none" xmlns="http://www.w3.org/2000/svg">
<path fill-rule="evenodd" clip-rule="evenodd" d="M27.8634 30.8571V36C32.519 34.8417 35.999 32.224 38.3033 28.1467C40.6076 24.0695 41.7598 18.5329 41.7598 11.5367L41.7598 0H26.0999L26.0999 15.4286L32.8012 15.4286V17.027C32.8012 20.7799 32.3897 23.8031 31.5667 26.0965C30.7437 28.39 29.5093 29.9768 27.8634 30.8571ZM1.76318 30.8571V36C6.41885 34.8417 9.8988 32.224 12.2031 28.1467C14.5074 24.0695 15.6596 18.5329 15.6596 11.5367V0L-0.000324249 0L-0.000324249 15.4286H6.70099V17.027C6.70099 20.7799 6.28951 23.8031 5.46654 26.0965C4.64357 28.39 3.40913 29.9768 1.76318 30.8571Z" fill="#222222"/>
</svg>
