<svg width="44" height="38" viewBox="0 0 44 38" fill="none" xmlns="http://www.w3.org/2000/svg">
<path d="M28.8634 37H28.3634V37.6396L28.9841 37.4852L28.8634 37ZM28.8634 31.8571L28.6275 31.4162L28.3634 31.5575V31.8571H28.8634ZM39.3033 29.1467L38.868 28.9007L39.3033 29.1467ZM42.7598 1H43.2598V0.5H42.7598V1ZM27.0999 1L27.0999 0.5H26.5999V1H27.0999ZM27.0999 16.4286H26.5999V16.9286H27.0999V16.4286ZM33.8012 16.4286H34.3012V15.9286H33.8012V16.4286ZM32.5667 27.0965L32.0961 26.9277L32.5667 27.0965ZM2.76374 37H2.26374V37.6396L2.88446 37.4852L2.76374 37ZM2.76374 31.8571L2.52794 31.4162L2.26374 31.5575V31.8571H2.76374ZM13.2037 29.1467L12.7684 28.9007L13.2037 29.1467ZM16.6602 1H17.1602V0.5H16.6602V1ZM1.00024 1V0.5H0.50024V1H1.00024ZM1.00024 16.4286H0.50024V16.9286H1.00024V16.4286ZM7.70156 16.4286H8.20156V15.9286H7.70156V16.4286ZM6.46711 27.0965L6.93773 27.2654V27.2654L6.46711 27.0965ZM29.3634 37V31.8571H28.3634V37H29.3634ZM38.868 28.9007C36.6331 32.8551 33.2687 35.3887 28.7426 36.5148L28.9841 37.4852C33.7693 36.2947 37.3649 33.5928 39.7386 29.3927L38.868 28.9007ZM42.2598 12.5367C42.2598 19.486 41.114 24.9266 38.868 28.9007L39.7386 29.3927C42.1012 25.2123 43.2598 19.5797 43.2598 12.5367H42.2598ZM42.2598 1L42.2598 12.5367H43.2598L43.2598 1H42.2598ZM27.0999 1.5H42.7598V0.5H27.0999L27.0999 1.5ZM27.5999 16.4286L27.5999 1H26.5999V16.4286H27.5999ZM33.8012 15.9286L27.0999 15.9286V16.9286L33.8012 16.9286V15.9286ZM34.3012 18.027V16.4286H33.3012V18.027H34.3012ZM33.0373 27.2654C33.8873 24.8967 34.3012 21.8098 34.3012 18.027H33.3012C33.3012 21.7501 32.8921 24.7094 32.0961 26.9277L33.0373 27.2654ZM29.0992 32.298C30.8844 31.3433 32.1856 29.639 33.0373 27.2654L32.0961 26.9277C31.3019 29.141 30.1342 30.6104 28.6275 31.4162L29.0992 32.298ZM3.26374 37V31.8571L2.26374 31.8571V37H3.26374ZM12.7684 28.9007C10.5335 32.8551 7.16912 35.3887 2.64303 36.5148L2.88446 37.4852C7.66972 36.2947 11.2653 33.5928 13.639 29.3927L12.7684 28.9007ZM16.1602 12.5367C16.1602 19.486 15.0144 24.9266 12.7684 28.9007L13.639 29.3927C16.0016 25.2123 17.1602 19.5797 17.1602 12.5367H16.1602ZM16.1602 1V12.5367H17.1602V1H16.1602ZM1.00024 1.5L16.6602 1.5V0.5L1.00024 0.5V1.5ZM1.50024 16.4286L1.50024 1H0.50024L0.50024 16.4286H1.50024ZM7.70156 15.9286H1.00024V16.9286H7.70156V15.9286ZM8.20156 18.027V16.4286H7.20156V18.027H8.20156ZM6.93773 27.2654C7.78769 24.8967 8.20156 21.8098 8.20156 18.027H7.20156C7.20156 21.7501 6.79247 24.7094 5.99649 26.9277L6.93773 27.2654ZM2.99955 32.298C4.78474 31.3433 6.086 29.639 6.93773 27.2654L5.99649 26.9276C5.20226 29.141 4.03464 30.6104 2.52794 31.4162L2.99955 32.298Z" fill="#222222"/>
</svg>
