<svg width="27" height="27" viewBox="0 0 27 27" fill="none" xmlns="http://www.w3.org/2000/svg">
<path d="M21.9617 17.1602C20.3986 17.1602 19.0198 17.9049 18.119 19.0454L9.76375 14.7725C9.87313 14.3645 9.95175 13.943 9.95175 13.4994C9.95175 13.0164 9.85837 12.5618 9.72808 12.1193L18.0465 7.86616C18.9423 9.0582 20.3568 9.83733 21.9629 9.83733C24.6837 9.83733 26.8847 7.6364 26.8847 4.91807C26.8847 2.20218 24.6837 0 21.963 0C19.2484 0 17.045 2.20218 17.045 4.91801C17.045 5.36289 17.1237 5.78561 17.2342 6.19483L8.8802 10.4677C7.97819 9.32608 6.59689 8.57891 5.03129 8.57891C2.31296 8.57891 0.113281 10.7823 0.113281 13.4994C0.113281 16.2165 2.31301 18.4186 5.03129 18.4186C6.6399 18.4186 8.05316 17.6371 8.95266 16.4438L17.2673 20.697C17.1371 21.1382 17.0425 21.5965 17.0425 22.0807C17.0425 24.7978 19.2459 27 21.9605 27C24.6813 27 26.8822 24.7978 26.8822 22.0807C26.8835 19.3612 24.6825 17.1602 21.9617 17.1602Z" fill="#F79838"/>
</svg>
