<svg width="64" height="64" viewBox="0 0 64 64" fill="none" xmlns="http://www.w3.org/2000/svg">
<path d="M33.0607 5.93934C32.4749 5.35355 31.5251 5.35355 30.9393 5.93934L21.3934 15.4853C20.8076 16.0711 20.8076 17.0208 21.3934 17.6066C21.9792 18.1924 22.9289 18.1924 23.5147 17.6066L32 9.12132L40.4853 17.6066C41.0711 18.1924 42.0208 18.1924 42.6066 17.6066C43.1924 17.0208 43.1924 16.0711 42.6066 15.4853L33.0607 5.93934ZM33.5 32L33.5 7L30.5 7L30.5 32L33.5 32Z" fill="white"/>
<path d="M14.864 38.896H23.63V40.912H20.246V52H18.158V40.912H14.864V38.896ZM24.9744 45.466C24.9744 44.554 25.1484 43.696 25.4964 42.892C25.8444 42.088 26.3244 41.374 26.9364 40.75C27.5484 40.126 28.2564 39.64 29.0604 39.292C29.8764 38.932 30.7464 38.752 31.6704 38.752C32.5824 38.752 33.4404 38.932 34.2444 39.292C35.0604 39.64 35.7744 40.126 36.3864 40.75C37.0104 41.374 37.4964 42.088 37.8444 42.892C38.2044 43.696 38.3844 44.554 38.3844 45.466C38.3844 46.39 38.2044 47.26 37.8444 48.076C37.4964 48.88 37.0104 49.588 36.3864 50.2C35.7744 50.812 35.0604 51.292 34.2444 51.64C33.4404 51.976 32.5824 52.144 31.6704 52.144C30.7344 52.144 29.8644 51.976 29.0604 51.64C28.2564 51.292 27.5484 50.818 26.9364 50.218C26.3244 49.606 25.8444 48.898 25.4964 48.094C25.1484 47.278 24.9744 46.402 24.9744 45.466ZM27.1344 45.466C27.1344 46.114 27.2484 46.72 27.4764 47.284C27.7164 47.848 28.0464 48.346 28.4664 48.778C28.8864 49.198 29.3724 49.528 29.9244 49.768C30.4764 50.008 31.0764 50.128 31.7244 50.128C32.3484 50.128 32.9304 50.008 33.4704 49.768C34.0224 49.528 34.5024 49.198 34.9104 48.778C35.3184 48.346 35.6364 47.848 35.8644 47.284C36.1044 46.72 36.2244 46.114 36.2244 45.466C36.2244 44.806 36.1044 44.194 35.8644 43.63C35.6244 43.066 35.3004 42.568 34.8924 42.136C34.4844 41.704 34.0044 41.368 33.4524 41.128C32.9004 40.888 32.3064 40.768 31.6704 40.768C31.0344 40.768 30.4404 40.888 29.8884 41.128C29.3364 41.368 28.8504 41.704 28.4304 42.136C28.0224 42.568 27.7044 43.072 27.4764 43.648C27.2484 44.212 27.1344 44.818 27.1344 45.466ZM44.8908 38.896C45.8868 38.896 46.7388 39.064 47.4468 39.4C48.1548 39.736 48.6948 40.216 49.0668 40.84C49.4508 41.464 49.6428 42.22 49.6428 43.108C49.6428 43.624 49.5588 44.14 49.3908 44.656C49.2348 45.172 48.9828 45.64 48.6348 46.06C48.2988 46.48 47.8428 46.816 47.2668 47.068C46.7028 47.32 46.0068 47.446 45.1788 47.446H43.2888V52H41.1828V38.896H44.8908ZM45.1788 45.43C45.6348 45.43 46.0188 45.352 46.3308 45.196C46.6428 45.04 46.8828 44.842 47.0508 44.602C47.2308 44.362 47.3568 44.11 47.4288 43.846C47.5128 43.582 47.5548 43.348 47.5548 43.144C47.5548 42.94 47.5188 42.712 47.4468 42.46C47.3748 42.196 47.2548 41.95 47.0868 41.722C46.9188 41.482 46.6848 41.29 46.3848 41.146C46.0848 40.99 45.7008 40.912 45.2328 40.912H43.2888V45.43H45.1788Z" fill="white"/>
<circle cx="32" cy="32" r="30.5" stroke="white" stroke-width="3"/>
</svg>
