<svg width="24" height="23" viewBox="0 0 24 23" fill="none" xmlns="http://www.w3.org/2000/svg">
<path d="M18.9951 15.3893C18.4023 15.391 17.8182 15.5315 17.2895 15.7996C16.7609 16.0677 16.3024 16.4559 15.9508 16.9332L9.42734 13.4105C9.90941 12.2405 9.90941 10.9274 9.42734 9.75736L15.9508 6.23468C16.5357 7.03828 17.4037 7.59005 18.3795 7.77862C19.3554 7.96719 20.3664 7.77852 21.2086 7.25069C22.0508 6.72286 22.6613 5.89518 22.917 4.93473C23.1727 3.97427 23.0545 2.95258 22.5863 2.07588C22.1181 1.19917 21.3347 0.532761 20.3942 0.211156C19.4538 -0.11045 18.4264 -0.0632937 17.5193 0.343104C16.6123 0.749502 15.8932 1.48487 15.5073 2.40078C15.1213 3.31669 15.0972 4.34492 15.4398 5.27791L8.91634 8.80058C8.32305 7.94289 7.47121 7.29721 6.4851 6.95776C5.49899 6.6183 4.43022 6.60282 3.4347 6.91359C2.43917 7.22435 1.569 7.8451 0.951123 8.68526C0.333247 9.52541 0 10.541 0 11.5839C0 12.6268 0.333247 13.6424 0.951123 14.4826C1.569 15.3228 2.43917 15.9435 3.4347 16.2543C4.43022 16.565 5.49899 16.5496 6.4851 16.2101C7.47121 15.8706 8.32305 15.225 8.91634 14.3673L15.4398 17.8899C15.2797 18.3066 15.195 18.7484 15.1897 19.1946C15.1897 19.9473 15.4129 20.683 15.8311 21.3088C16.2492 21.9346 16.8435 22.4223 17.5388 22.7103C18.2342 22.9984 18.9993 23.0737 19.7375 22.9269C20.4756 22.78 21.1537 22.4176 21.6859 21.8854C22.2181 21.3532 22.5805 20.6752 22.7273 19.937C22.8742 19.1989 22.7988 18.4337 22.5108 17.7384C22.2228 17.0431 21.735 16.4487 21.1092 16.0306C20.4834 15.6125 19.7477 15.3893 18.9951 15.3893ZM18.9951 1.2551C19.5327 1.2551 20.0582 1.41452 20.5052 1.71319C20.9522 2.01186 21.3006 2.43637 21.5063 2.93304C21.712 3.42971 21.7659 3.97623 21.661 4.50349C21.5561 5.03075 21.2972 5.51508 20.9171 5.89521C20.537 6.27534 20.0526 6.53422 19.5254 6.6391C18.9981 6.74398 18.4516 6.69015 17.9549 6.48442C17.4582 6.2787 17.0337 5.93031 16.7351 5.48332C16.4364 5.03633 16.277 4.51081 16.277 3.97321C16.277 3.25233 16.5634 2.56096 17.0731 2.05122C17.5828 1.54147 18.2742 1.2551 18.9951 1.2551ZM4.86092 15.3893C4.10829 15.3893 3.37257 15.1661 2.74678 14.748C2.12099 14.3298 1.63325 13.7355 1.34523 13.0402C1.05721 12.3448 0.981855 11.5797 1.12869 10.8415C1.27552 10.1034 1.63794 9.42532 2.17013 8.89314C2.70232 8.36095 3.38037 7.99852 4.11853 7.85169C4.8567 7.70486 5.62183 7.78022 6.31717 8.06824C7.0125 8.35625 7.60682 8.844 8.02496 9.46978C8.44309 10.0956 8.66627 10.8313 8.66627 11.5839C8.66627 12.5932 8.26535 13.5611 7.55171 14.2747C6.83807 14.9884 5.87016 15.3893 4.86092 15.3893ZM18.9951 21.9128C18.4575 21.9128 17.932 21.7533 17.485 21.4547C17.038 21.156 16.6896 20.7315 16.4839 20.2348C16.2782 19.7381 16.2243 19.1916 16.3292 18.6644C16.4341 18.1371 16.693 17.6528 17.0731 17.2726C17.4532 16.8925 17.9376 16.6336 18.4648 16.5288C18.9921 16.4239 19.5386 16.4777 20.0353 16.6834C20.5319 16.8892 20.9564 17.2375 21.2551 17.6845C21.5538 18.1315 21.7132 18.657 21.7132 19.1946C21.7132 19.9155 21.4268 20.6069 20.9171 21.1166C20.4073 21.6264 19.716 21.9128 18.9951 21.9128Z" fill="white"/>
</svg>
