<svg width="122" height="102" viewBox="0 0 122 102" fill="none" xmlns="http://www.w3.org/2000/svg">
<path d="M3.95199 1.0017C0.451028 0.895946 -0.14184 5.75949 3.28998 6.43185L13.9856 8.68481L16.7342 21.23C16.7357 21.2455 16.7385 21.2455 16.7402 21.2559L30.3716 80.4566C30.6613 81.7133 31.8229 82.6079 33.1649 82.6079H104.962C108.833 82.6628 108.833 77.0661 104.962 77.1215H35.4636L32.8323 65.6908H108.858C110.2 65.6909 111.362 64.7965 111.652 63.5398L120.617 18.1649C121.011 16.4525 119.652 14.8297 117.824 14.8297C83.7738 14.8305 55.1289 14.8297 21.0796 14.8142L19.2037 5.81802C18.9724 4.76137 18.1163 3.933 17.0165 3.7019L4.51918 1.07115C4.33317 1.02968 4.14309 1.00688 3.95199 1.0017Z" stroke="#037847" stroke-width="2" stroke-linecap="round" stroke-linejoin="round"/>
<path d="M20.6885 12.9688L34.6609 73.6888" stroke="#037847" stroke-width="2"/>
<path d="M83.2646 94.2383C83.2647 90.5292 86.3113 87.4766 90.0264 87.4766C93.7415 87.4766 96.7881 90.5292 96.7882 94.2383C96.7882 97.9472 93.7415 101 90.0264 101C86.3113 101 83.2646 97.9472 83.2646 94.2383Z" stroke="#222222" stroke-width="2" stroke-linecap="round" stroke-linejoin="round"/>
<path d="M41.5703 94.2383C41.5703 90.5292 44.617 87.4766 48.3321 87.4766C52.0471 87.4766 55.0938 90.5292 55.0938 94.2383C55.0939 97.9472 52.0472 101 48.3321 101C44.6169 101 41.5703 97.9472 41.5703 94.2383Z" stroke="#222222" stroke-width="2" stroke-linecap="round" stroke-linejoin="round"/>
</svg>
