<svg width="35" height="27" viewBox="0 0 35 27" fill="none" xmlns="http://www.w3.org/2000/svg">
<path d="M30.725 6.72886C30.747 7.02487 30.747 7.3192 30.747 7.61352C30.747 16.6208 23.8912 27 11.3622 27C7.50212 27 3.9161 25.8819 0.898438 23.94C1.44649 24.0026 1.97424 24.0246 2.54428 24.0246C5.72941 24.0246 8.66081 22.9488 11.0036 21.1135C8.00788 21.0509 5.49767 19.0888 4.63162 16.3891C5.0528 16.4517 5.47568 16.494 5.91886 16.494C6.5295 16.494 7.14352 16.4094 7.71356 16.2622C4.58933 15.6296 2.24996 12.8877 2.24996 9.57568V9.4911C3.1583 9.99687 4.21212 10.3132 5.32852 10.3555C3.49323 9.13419 2.29056 7.04517 2.29056 4.68212C2.29056 3.41686 2.62717 2.25648 3.21751 1.24496C6.57179 5.37733 11.6142 8.07869 17.2673 8.3747C17.1624 7.86725 17.0981 7.34118 17.0981 6.81343C17.0981 3.05826 20.1361 0 23.9115 0C25.8737 0 27.6447 0.822077 28.8897 2.15161C30.4289 1.85559 31.904 1.28555 33.2132 0.505763C32.7074 2.08733 31.6299 3.41686 30.2175 4.26093C31.5893 4.11208 32.9189 3.73318 34.1401 3.20543C33.2132 4.55526 32.0545 5.75793 30.725 6.72886Z" fill="#F79838"/>
</svg>
