<svg width="24" height="24" viewBox="0 0 24 24" fill="none" xmlns="http://www.w3.org/2000/svg">
<path d="M21.6004 6.04602C20.8864 6.35922 20.1256 6.56682 19.3324 6.66762C20.1484 6.18042 20.7712 5.41482 21.064 4.49202C20.3032 4.94562 19.4632 5.26602 18.568 5.44482C17.8456 4.67562 16.816 4.19922 15.6928 4.19922C13.5136 4.19922 11.7592 5.96802 11.7592 8.13642C11.7592 8.44842 11.7856 8.74842 11.8504 9.03402C8.57799 8.87442 5.68239 7.30602 3.73719 4.91682C2.34615 7.42314 3.90039 9.47802 4.94679 10.1776C4.31439 10.1656 3.69399 9.98202 3.16839 9.69282C3.16839 11.6467 4.53279 13.2376 6.32199 13.6036C5.93079 13.7335 5.07615 13.804 4.54479 13.666C5.05479 15.2248 6.50199 16.3708 8.22279 16.408C6.88359 17.4556 4.91007 18.3095 2.40039 18.0328C4.14399 19.1572 6.21039 19.7992 8.43879 19.7992C15.682 19.7992 19.642 13.7992 19.642 8.59842C19.642 8.42442 19.636 8.25642 19.6276 8.08962C20.4088 7.53522 21.0652 6.84282 21.6004 6.04602Z" fill="#1DA1F3"/>
</svg>
