<svg width="16" height="20" viewBox="0 0 16 20" fill="none" xmlns="http://www.w3.org/2000/svg">
<path d="M7.83323 1.49999C8.57491 1.49999 9.29993 1.71993 9.91661 2.13198C10.5333 2.54403 11.0139 3.1297 11.2978 3.81492C11.5816 4.50014 11.6559 5.25414 11.5112 5.98156C11.3665 6.70899 11.0093 7.37717 10.4849 7.90162C9.96043 8.42606 9.29225 8.78322 8.56482 8.92791C7.83739 9.0726 7.0834 8.99834 6.39818 8.71451C5.71296 8.43069 5.12729 7.95004 4.71523 7.33336C4.30318 6.71668 4.08325 5.99166 4.08325 5.24998C4.08325 4.25542 4.47834 3.3016 5.18159 2.59834C5.88485 1.89508 6.83868 1.49999 7.83323 1.49999ZM7.83323 0C6.79489 0 5.77986 0.307906 4.9165 0.884781C4.05315 1.46166 3.38024 2.28159 2.98289 3.2409C2.58553 4.20021 2.48156 5.2558 2.68413 6.2742C2.8867 7.2926 3.38671 8.22805 4.12094 8.96228C4.85516 9.6965 5.79062 10.1965 6.80901 10.3991C7.82741 10.6017 8.88301 10.4977 9.84231 10.1003C10.8016 9.70297 11.6216 9.03007 12.1984 8.16671C12.7753 7.30336 13.0832 6.28833 13.0832 5.24998C13.0832 3.8576 12.5301 2.52225 11.5455 1.53768C10.561 0.553121 9.22561 0 7.83323 0Z" fill="currentColor"/>
<path d="M15.3332 20H13.8332V16.25C13.8332 15.2554 13.4381 14.3016 12.7349 13.5983C12.0316 12.8951 11.0778 12.5 10.0832 12.5H5.58323C4.58867 12.5 3.63485 12.8951 2.93159 13.5983C2.22833 14.3016 1.83325 15.2554 1.83325 16.25V20H0.333252V16.25C0.333252 14.8576 0.886373 13.5222 1.87094 12.5377C2.8555 11.5531 4.19085 11 5.58323 11H10.0832C11.4756 11 12.8109 11.5531 13.7955 12.5377C14.7801 13.5222 15.3332 14.8576 15.3332 16.25V20Z" fill="currentColor"/>
</svg>
