<svg width="106" height="106" viewBox="0 0 106 106" fill="none" xmlns="http://www.w3.org/2000/svg">
<path fill-rule="evenodd" clip-rule="evenodd" d="M102.594 38.6761C103.194 40.2636 103.858 41.8258 104.699 43.2889C105.9 45.3797 106.264 47.5643 105.814 49.9095C105.439 51.8841 105.41 53.8812 105.381 55.8816C105.376 56.2096 105.371 56.5377 105.365 56.8657C105.243 63.1779 104.184 69.3133 101.606 75.1167C100.792 76.9532 99.8752 78.7391 98.7099 80.3826C97.908 81.5155 96.9575 82.4662 95.633 82.9641C95.2628 83.103 95.0835 83.4203 94.9066 83.7333C94.8928 83.7577 94.879 83.7822 94.8651 83.8065C94.6311 84.2185 94.4021 84.6334 94.1732 85.0484C93.7945 85.7348 93.4159 86.4211 93.0143 87.0934C90.6909 90.9919 87.6838 94.1958 83.6456 96.3263C82.1528 97.1128 80.6152 97.7893 78.9488 98.123C78.3832 98.2349 77.9321 98.5524 77.6189 99.0395C77.3683 99.4291 77.1195 99.8242 76.919 100.241C76.4339 101.246 75.6248 101.69 74.5491 101.704C74.1742 101.709 73.7985 101.708 73.4232 101.707C73.2626 101.706 73.1021 101.706 72.9417 101.706C69.7269 101.486 66.7681 102.355 64.2013 104.242C62.014 105.85 59.7068 106.138 57.174 105.62C56.4677 105.475 55.7914 105.233 55.1164 104.99C54.9515 104.931 54.7867 104.872 54.6215 104.814C53.4079 104.392 52.3876 104.59 51.4873 105.541C50.9288 106.131 50.501 106.135 49.8316 105.653C49.5953 105.482 49.3657 105.303 49.1362 105.123C48.9066 104.944 48.6771 104.764 48.4408 104.594C47.8197 104.145 47.152 104.024 46.4163 104.325C46.0008 104.497 45.5688 104.631 45.1385 104.765C45.0572 104.79 44.9759 104.816 44.8949 104.841C43.7368 105.206 42.6664 105.045 41.6748 104.32C40.8603 103.726 39.9904 103.248 38.9701 103.107C38.2176 103.005 37.4864 103.132 36.7535 103.26L36.7506 103.261C35.5656 103.468 34.6474 103.024 33.9314 102.103C33.4087 101.432 33.0686 100.656 32.8968 99.8296C32.7411 99.0828 32.3169 98.5632 31.7602 98.1122C30.6486 97.2138 29.3849 96.5716 28.1105 95.9528C25.8856 94.8722 23.6123 93.8945 21.2997 93.025C17.5515 91.616 14.5336 89.2258 11.9686 86.1987C10.5993 84.5823 9.41259 82.8468 8.60353 80.866C8.16857 79.7999 7.51702 78.8456 6.67932 78.0735C5.41382 76.9081 4.81061 75.4793 4.65846 73.798C4.60297 73.1702 4.43651 72.5587 4.21276 71.9669C4.01945 71.4564 3.76349 70.9747 3.33927 70.6266C2.22412 69.7102 2.07556 68.5538 2.46935 67.2531C2.61433 66.7769 2.82913 66.3295 3.12626 65.9308C3.58091 65.3192 3.63461 64.677 3.34285 63.9807C2.7987 62.68 2.36374 61.345 2.14716 59.9415C1.91872 58.4509 1.96521 56.9556 2.01172 55.46C2.01513 55.3501 2.01855 55.2402 2.02186 55.1303C2.04513 54.3474 2.05229 53.568 1.9789 52.7887C1.91267 52.0653 1.71041 51.3888 1.37389 50.7358C0.31782 48.6792 -0.240646 46.5126 0.0994456 44.1782C0.215793 43.3755 0.527245 42.6503 1.05707 42.0315C1.38661 41.6469 1.71884 41.264 2.05114 40.881C2.48415 40.382 2.91726 39.8828 3.34464 39.3796C4.24319 38.3207 4.7408 37.1336 4.78734 35.6977C4.84283 33.9929 5.43709 32.3982 6.26584 30.9279C6.81357 29.9556 7.03195 28.9255 7.1644 27.8503C7.1755 27.7608 7.18711 27.6712 7.19873 27.5816C7.24891 27.1943 7.29921 26.8061 7.30939 26.4179C7.31834 26.077 7.46511 25.9218 7.76225 25.81C8.13814 25.6693 8.48181 25.4546 8.80758 25.2129C9.3571 24.8052 9.71151 24.3073 9.8028 23.5857C10.0033 21.9837 10.8302 20.6776 12.0743 19.7341C13.6486 18.5395 15.1249 17.2317 16.601 15.9239C17.1489 15.4386 17.6968 14.9532 18.2496 14.4737C19.2001 13.6511 20.24 12.9475 21.3033 12.2782C22.6493 11.4285 23.4512 10.2505 23.5514 8.6071C23.6302 7.30642 24.3355 6.81934 25.6117 7.11159C25.8586 7.16751 26.1046 7.23065 26.3506 7.29381C26.5807 7.35289 26.8109 7.41198 27.0419 7.46517C27.9565 7.67624 28.7549 7.48141 29.3885 6.74718C29.4173 6.71359 29.448 6.68162 29.4787 6.64962C29.5206 6.606 29.5625 6.56233 29.5997 6.51446C30.9923 4.70506 32.9165 3.90589 35.0859 3.54329C35.8546 3.4153 36.6289 3.35819 37.4032 3.30109C38.0694 3.25195 38.7356 3.20281 39.3979 3.10853C41.1234 2.86318 42.6914 2.29312 43.8997 0.956361C44.5387 0.249195 45.3119 0.0255005 46.2445 0.204096C47.2916 0.404339 48.2493 0.797609 49.0583 1.49034C50.1627 2.43564 51.43 2.52583 52.7653 2.29492C53.6317 2.14519 54.2474 1.64007 54.6269 0.837298C55.0046 0.0363249 55.3966 -0.147683 56.2396 0.10668C56.68 0.240176 57.1149 0.402536 57.5338 0.593759C58.3715 0.976206 59.2414 1.10609 60.1489 0.999658C62.3344 0.743491 64.4376 1.08986 66.4245 2.00809C68.7281 3.07245 71.1535 3.71106 73.6094 4.26308C74.7299 4.51564 75.7573 4.92695 76.5932 5.77843C77.2501 6.44772 78.1379 6.71651 79.0186 6.96005C79.0881 6.9793 79.1576 6.99837 79.2272 7.01745C79.7312 7.15563 80.236 7.29403 80.7173 7.50486C82.006 8.0677 82.8258 9.04366 83.1838 10.4021C83.2698 10.734 83.3485 10.8459 83.7262 10.8008C84.6749 10.6889 85.6307 10.6943 86.5525 11.0244C87.6247 11.4087 88.1724 12.1357 88.108 13.2704C88.0418 14.4322 88.5125 15.2963 89.3538 16.0179C89.9123 16.4978 90.5334 16.8874 91.1832 17.2212C91.7452 17.5116 92.1712 17.9247 92.5292 18.4389C92.862 18.917 93.1752 19.4088 93.4884 19.9007C93.9552 20.6338 94.4222 21.3671 94.9546 22.0559C95.4343 22.6764 95.9766 23.214 96.664 23.6163C97.5518 24.1359 98.1532 24.9441 98.658 25.8244C99.6836 27.6104 100.269 29.5605 100.72 31.5539C100.81 31.9532 100.899 32.3531 100.987 32.753C101.427 34.7524 101.868 36.7518 102.594 38.6761ZM99.7869 39.4869C100.353 40.9845 100.979 42.4583 101.773 43.8386C102.906 45.811 103.249 47.872 102.825 50.0845C102.471 51.9472 102.443 53.8314 102.416 55.7185C102.411 56.0279 102.407 56.3374 102.401 56.6469C102.286 62.6018 101.286 68.3899 98.8548 73.8648C98.0864 75.5973 97.2218 77.2822 96.1225 78.8326C95.366 79.9014 94.4694 80.7983 93.2198 81.268C92.8706 81.399 92.7014 81.6983 92.5346 81.9936C92.5215 82.0167 92.5085 82.0398 92.4953 82.0628C92.2746 82.4513 92.0586 82.8428 91.8427 83.2342C91.4854 83.8818 91.1282 84.5293 90.7493 85.1636C88.5574 88.8414 85.7205 91.8639 81.911 93.8738C80.5027 94.6159 79.0521 95.2541 77.48 95.5689C76.9464 95.6744 76.5209 95.974 76.2253 96.4335C75.9889 96.8011 75.7542 97.1738 75.5651 97.5669C75.1075 98.5149 74.3442 98.9335 73.3293 98.9471C72.9758 98.9519 72.6214 98.9508 72.2673 98.9498C72.1158 98.9493 71.9643 98.9489 71.8129 98.9489C68.7801 98.7412 65.9888 99.5615 63.5673 101.342C61.5038 102.858 59.3271 103.13 56.9377 102.642C56.2714 102.505 55.6334 102.276 54.9965 102.047C54.841 101.991 54.6855 101.936 54.5297 101.881C53.3848 101.483 52.4223 101.67 51.5729 102.567C51.0461 103.124 50.6425 103.127 50.0109 102.673C49.788 102.512 49.5715 102.342 49.3549 102.173C49.1383 102.004 48.9218 101.834 48.6989 101.674C48.1129 101.25 47.483 101.136 46.789 101.42C46.397 101.582 45.9895 101.709 45.5836 101.835C45.5068 101.859 45.4302 101.883 45.3537 101.907C44.2611 102.251 43.2513 102.099 42.3158 101.415C41.5475 100.855 40.7268 100.404 39.7643 100.271C39.0543 100.174 38.3646 100.295 37.6732 100.415L37.6704 100.416C36.5525 100.612 35.6862 100.193 35.0108 99.3233C34.5177 98.6902 34.1968 97.9584 34.0347 97.1789C33.8878 96.4743 33.4876 95.9842 32.9624 95.5587C31.9138 94.7112 30.7216 94.1053 29.5193 93.5215C27.4203 92.5021 25.2758 91.5797 23.094 90.7594C19.558 89.4302 16.711 87.1752 14.2912 84.3195C12.9994 82.7946 11.8798 81.1574 11.1165 79.2887C10.7062 78.2829 10.0915 77.3826 9.30125 76.6542C8.10738 75.5548 7.53831 74.2069 7.39478 72.6208C7.34243 72.0285 7.18539 71.4516 6.97431 70.8933C6.79193 70.4117 6.55046 69.9573 6.15025 69.6288C5.09823 68.7643 4.95807 67.6734 5.32957 66.4463C5.46635 65.997 5.66899 65.575 5.9493 65.1989C6.37822 64.6219 6.42888 64.0161 6.15363 63.3591C5.64028 62.1321 5.22994 60.8727 5.02562 59.5486C4.81011 58.1424 4.85397 56.7317 4.89784 55.3208C4.90107 55.2171 4.90429 55.1134 4.90741 55.0097C4.92937 54.2711 4.93612 53.5359 4.86689 52.8007C4.80441 52.1182 4.61359 51.48 4.29613 50.8639C3.29983 48.9238 2.77298 46.8798 3.09382 44.6776C3.20358 43.9202 3.4974 43.2361 3.99724 42.6523C4.30814 42.2895 4.62159 41.9282 4.9351 41.5669C5.34357 41.0962 5.75215 40.6253 6.15532 40.1506C7.00301 39.1516 7.47245 38.0317 7.51636 36.677C7.56871 35.0688 8.12933 33.5643 8.91117 32.1773C9.4279 31.26 9.63391 30.2882 9.75887 29.2739C9.76934 29.1894 9.78029 29.1049 9.79125 29.0204C9.83859 28.655 9.88605 28.2888 9.89565 27.9226C9.90409 27.6009 10.0426 27.4546 10.3229 27.349C10.6775 27.2163 11.0017 27.0138 11.309 26.7857C11.8275 26.4011 12.1618 25.9314 12.2479 25.2506C12.437 23.7393 13.2172 22.5072 14.3908 21.6171C15.876 20.4901 17.2687 19.2563 18.6613 18.0226C19.1782 17.5647 19.695 17.1068 20.2166 16.6544C21.1133 15.8784 22.0944 15.2146 23.0974 14.5832C24.3673 13.7816 25.1238 12.6703 25.2183 11.1199C25.2926 9.89285 25.958 9.43334 27.162 9.70904C27.3949 9.7618 27.627 9.82137 27.859 9.88095C28.0761 9.93669 28.2933 9.99243 28.5112 10.0426C29.3741 10.2417 30.1272 10.0579 30.725 9.36526C30.7521 9.33358 30.7811 9.30341 30.8101 9.27322C30.8496 9.23207 30.8892 9.19088 30.9243 9.14572C32.238 7.43873 34.0533 6.6848 36.0999 6.34272C36.8251 6.22198 37.5556 6.1681 38.286 6.11423C38.9146 6.06787 39.543 6.02152 40.1679 5.93257C41.7957 5.70112 43.2749 5.16332 44.4148 3.90223C45.0176 3.23509 45.7471 3.02406 46.6269 3.19254C47.6147 3.38145 48.5182 3.75246 49.2814 4.40598C50.3233 5.29777 51.5189 5.38286 52.7786 5.16502C53.5959 5.02377 54.1768 4.54724 54.5348 3.7899C54.8911 3.03427 55.2609 2.86068 56.0562 3.10064C56.4717 3.22658 56.882 3.37975 57.2771 3.56015C58.0674 3.92095 58.8881 4.04348 59.7442 3.94307C61.8061 3.70141 63.7902 4.02817 65.6646 4.89442C67.8379 5.89853 70.126 6.501 72.4428 7.02177C73.4999 7.26004 74.4691 7.64806 75.2577 8.45135C75.8775 9.08275 76.715 9.33633 77.5458 9.56608C77.6114 9.58425 77.677 9.60224 77.7426 9.62024C78.2181 9.75059 78.6943 9.88116 79.1484 10.0801C80.3642 10.611 81.1376 11.5318 81.4753 12.8133C81.5564 13.1264 81.6307 13.2319 81.987 13.1894C82.8819 13.0839 83.7837 13.089 84.6533 13.4004C85.6648 13.7629 86.1815 14.4488 86.1207 15.5193C86.0583 16.6153 86.5024 17.4305 87.296 18.1112C87.8229 18.5639 88.4089 18.9315 89.0218 19.2464C89.5521 19.5204 89.954 19.9101 90.2917 20.3952C90.6057 20.8462 90.9011 21.3102 91.1966 21.7743C91.637 22.4659 92.0776 23.1577 92.5798 23.8074C93.0323 24.3929 93.544 24.9 94.1924 25.2796C95.03 25.7697 95.5974 26.5321 96.0736 27.3626C97.0412 29.0475 97.5933 30.8872 98.0189 32.7678C98.1042 33.1445 98.1873 33.5218 98.2704 33.899C98.686 35.7853 99.1016 37.6715 99.7869 39.4869Z" fill="#037847"/>
<path fill-rule="evenodd" clip-rule="evenodd" d="M85.8604 32.0696C86.1987 32.0696 86.5178 32.219 86.7371 32.4779C86.957 32.7368 87.0464 33.0856 86.9771 33.4147L78.6775 73.0396C78.5681 73.5578 78.1096 73.9265 77.5815 73.9265H34.9175C34.8628 73.9325 34.8079 73.9312 34.7551 73.9246C34.7219 73.9205 34.6895 73.9142 34.6587 73.9065C34.0505 73.7868 33.6624 73.189 33.7917 72.5814L42.0913 32.9565C42.2007 32.4384 42.6592 32.0696 43.1873 32.0696H85.8604ZM73.2961 34.3114H55.6306L54.3657 41.7839H72.0208L73.2961 34.3114ZM36.272 71.6942H76.6438L84.4753 34.3114H75.5781L74.0835 43.0992C73.9941 43.6375 73.5259 44.036 72.9778 44.036H53.0305C52.9705 44.036 52.9006 44.0258 52.8408 44.016C52.2329 43.9066 51.8245 43.3284 51.9243 42.7208L53.3489 34.3114H44.123L36.272 71.6942ZM36.092 35.8062H24.8733C24.2559 35.8062 23.7578 35.308 23.7476 34.6799C23.7476 34.0524 24.2556 33.5542 24.8733 33.5542L36.092 33.5547C36.7195 33.5547 37.2178 34.0626 37.2178 34.6804C37.2178 35.308 36.7097 35.8062 36.092 35.8062ZM24.1262 47.7715H33.8406C34.4585 47.7715 34.9663 47.2733 34.9663 46.6456C34.9663 46.0278 34.4683 45.5199 33.8406 45.5199H24.1262C23.5085 45.5199 23.0005 46.0181 23.0005 46.6456C23.0005 47.2635 23.5088 47.7715 24.1262 47.7715ZM24.1257 56.7386H32.3457C32.9736 56.7386 33.4719 57.2271 33.4714 57.8546C33.4714 58.4823 32.9636 58.9805 32.3457 58.9805H24.1257C23.5083 58.9805 23 58.4921 23 57.8644C23 57.2368 23.5081 56.7386 24.1257 56.7386ZM30.1047 69.4519H24.1267C23.509 69.4519 23.001 69.9501 23.001 70.5776C23.001 71.2053 23.4993 71.7035 24.1267 71.7035H30.1047C30.7227 71.7035 31.2307 71.2053 31.2307 70.5776C31.231 69.9501 30.7329 69.4519 30.1047 69.4519ZM68.613 54.1383C68.7725 53.5405 69.3801 53.1918 69.978 53.351C70.5759 53.5103 70.9246 54.1281 70.7654 54.7263L68.0054 64.8988C68.0005 64.9183 67.9956 64.9354 67.9907 64.9525L67.9844 64.9746L67.9756 65.0083C67.7861 65.5963 67.1487 65.9152 66.5605 65.7257C65.9727 65.5363 65.6538 64.8988 65.8433 64.3108L68.613 54.1383ZM60.2639 53.351C59.666 53.1918 59.0583 53.5405 58.8989 54.1383L56.1292 64.3108C55.9397 64.8988 56.2585 65.5363 56.8464 65.7257C57.4346 65.9152 58.072 65.5963 58.2615 65.0083C58.2712 64.9683 58.2815 64.9385 58.2913 64.8988L61.0513 54.7263C61.2104 54.1281 60.8521 53.5103 60.2639 53.351ZM49.1748 54.1383C49.3342 53.5405 49.9419 53.1918 50.5398 53.351C51.1377 53.5103 51.4863 54.1281 51.3271 54.7263L48.5671 64.8988C48.5574 64.9385 48.5471 64.9683 48.5374 65.0083C48.3479 65.5963 47.7104 65.9152 47.1223 65.7257C46.5344 65.5363 46.2156 64.8988 46.405 64.3108L49.1748 54.1383Z" fill="#222222"/>
</svg>
