<svg width="102" height="80" viewBox="0 0 102 80" fill="none" xmlns="http://www.w3.org/2000/svg">
<path d="M51.1718 79.9994C50.9588 79.9994 50.7509 79.911 50.6054 79.7552L0.213117 26.3595C-0.0207098 26.1101 -0.0674752 25.7359 0.103998 25.4346L13.1463 2.76374C13.2866 2.51952 13.5413 2.37402 13.8218 2.37402H20.6756C21.1069 2.37402 21.455 2.72217 21.455 3.15345C21.455 3.58473 21.1069 3.93287 20.6756 3.93287H14.2687L1.74598 25.71L51.1718 78.0768L100.182 25.7359L86.251 3.93287H34.118C33.6867 3.93287 33.3386 3.58473 33.3386 3.15345C33.3386 2.72217 33.6867 2.37402 34.118 2.37402H86.6771C86.9421 2.37402 87.1916 2.50912 87.3318 2.73256L101.819 25.4034C102.011 25.7048 101.975 26.0945 101.73 26.3543L51.7434 79.75C51.5979 79.9058 51.39 79.9942 51.1718 79.9994C51.1718 79.9994 51.177 79.9994 51.1718 79.9994Z" fill="#037847"/>
<path d="M0.779381 26.6042C0.420846 26.6042 0.0986845 26.3599 0.0207422 25.9962C-0.0727886 25.5753 0.192215 25.1596 0.607908 25.0661L60.9249 11.5145C61.351 11.4158 61.7614 11.686 61.855 12.1017C61.9485 12.5226 61.6835 12.9383 61.2678 13.0318L0.950854 26.5886C0.893696 26.599 0.836538 26.6042 0.779381 26.6042Z" fill="#037847"/>
<path d="M101.164 26.6041C101.081 26.6041 100.998 26.5885 100.915 26.5625L33.8688 3.89173C33.4583 3.75143 33.2401 3.30976 33.3804 2.90446C33.5207 2.49916 33.9624 2.27572 34.3677 2.41602L101.414 25.0868C101.824 25.2271 102.042 25.6688 101.902 26.0741C101.793 26.4015 101.492 26.6041 101.164 26.6041Z" fill="#037847"/>
<path d="M27.3526 6.30813C25.6119 6.30813 24.1934 4.89478 24.1934 3.15407C24.1934 1.41335 25.6119 0 27.3526 0C29.0933 0 30.5119 1.41335 30.5119 3.15407C30.5119 4.88958 29.0933 6.30813 27.3526 6.30813Z" fill="#222222"/>
</svg>
