<svg width="80" height="81" viewBox="0 0 80 81" fill="none" xmlns="http://www.w3.org/2000/svg">
<path d="M48 23.8V79.3C48 79.5762 48.2239 79.8 48.5 79.8H54.5654C54.8416 79.8 55.0654 79.5762 55.0654 79.3V30.7246C55.0654 30.4484 55.2893 30.2246 55.5654 30.2246H71.4346C71.7107 30.2246 71.9346 30.4484 71.9346 30.7246V79.3C71.9346 79.5762 72.1584 79.8 72.4346 79.8H78.5C78.7761 79.8 79 79.5762 79 79.3V23.8C79 23.5239 78.7761 23.3 78.5 23.3H48.5C48.2239 23.3 48 23.5239 48 23.8Z" fill="#F3F1EF" stroke="#037847" stroke-width="1.5"/>
<path d="M1 1.80005V79.3C1 79.5762 1.22386 79.8 1.5 79.8H7.56542C7.84156 79.8 8.06542 79.5762 8.06542 79.3V8.72458C8.06542 8.44843 8.28928 8.22458 8.56542 8.22458H47.4346C47.7107 8.22458 47.9346 8.44844 47.9346 8.72458V79.3C47.9346 79.5762 48.1584 79.8 48.4346 79.8H54.5C54.7761 79.8 55 79.5762 55 79.3V1.80005C55 1.52391 54.7761 1.30005 54.5 1.30005H1.5C1.22386 1.30005 1 1.52391 1 1.80005Z" fill="#F3F1EF" stroke="#037847" stroke-width="1.5"/>
<path d="M15 1V8" stroke="#037847" stroke-width="1.5"/>
<path d="M21 1V8" stroke="#037847" stroke-width="1.5"/>
<path d="M18 8.5V23.5" stroke="#037847" stroke-width="1.5" stroke-linecap="round"/>
<path d="M38 8.5V23.5" stroke="#037847" stroke-width="1.5" stroke-linecap="round"/>
<path d="M35 1V8" stroke="#037847" stroke-width="1.5"/>
<path d="M41 1V8" stroke="#037847" stroke-width="1.5"/>
<path d="M72 39H55" stroke="#037847" stroke-width="1.5"/>
<path d="M72 48H55" stroke="#037847" stroke-width="1.5"/>
<path d="M72 57H55" stroke="#037847" stroke-width="1.5"/>
<path d="M72 66H55" stroke="#037847" stroke-width="1.5"/>
<path d="M18.1144 33.7185C16.3984 33.7185 15 32.3252 15 30.6092C15 28.8933 16.3984 27.5 18.1144 27.5C19.8303 27.5 21.2287 28.8933 21.2287 30.6092C21.2287 32.3201 19.8303 33.7185 18.1144 33.7185Z" fill="#222222"/>
<path d="M38.1144 33.7185C36.3984 33.7185 35 32.3252 35 30.6092C35 28.8933 36.3984 27.5 38.1144 27.5C39.8303 27.5 41.2287 28.8933 41.2287 30.6092C41.2287 32.3201 39.8303 33.7185 38.1144 33.7185Z" fill="#222222"/>
</svg>
