<svg width="120" height="120" viewBox="0 0 120 120" fill="none" xmlns="http://www.w3.org/2000/svg">
<path fill-rule="evenodd" clip-rule="evenodd" d="M60.2854 1.25029L62.8584 1.28009L62.8688 0.37635L56.6809 0.304688L56.6704 1.20843L59.2434 1.23822L59.1656 7.95778L60.2075 7.96985L60.2854 1.25029ZM47.0065 6.8707L47.9731 6.72063C48.0593 7.13765 48.2077 7.4697 48.4288 7.71512C48.8522 8.15517 49.4797 8.31595 50.3413 8.18221C50.7195 8.1235 51.0686 8.0155 51.3554 7.85259C51.9427 7.54623 52.1782 7.1223 52.0933 6.57594C52.0297 6.16616 51.8579 5.89153 51.5781 5.75207C51.2893 5.62473 50.8567 5.54126 50.2907 5.49999L49.2252 5.4287C48.5404 5.38437 48.0415 5.28966 47.7406 5.15345C47.2082 4.91328 46.8932 4.47797 46.7953 3.84755C46.691 3.1751 46.8461 2.58071 47.2416 2.07815C47.6459 1.56345 48.2752 1.25054 49.1368 1.11678C49.9248 0.994441 50.6267 1.07917 51.2422 1.37097C51.8473 1.6644 52.2167 2.2419 52.3456 3.07195L51.3895 3.2204C51.275 2.82929 51.1209 2.53039 50.9202 2.34635C50.543 1.99602 49.9777 1.89008 49.2423 2.00426C48.6434 2.09724 48.2216 2.29184 47.9981 2.58479C47.7746 2.87773 47.6942 3.19151 47.7464 3.52773C47.8035 3.89548 47.993 4.14583 48.3238 4.26664C48.5503 4.33908 49.0233 4.40553 49.7639 4.46272L50.8521 4.54126C51.3849 4.57691 51.7981 4.67416 52.1128 4.82975C52.6411 5.11359 52.961 5.58041 53.0654 6.25286C53.1959 7.09342 52.9842 7.73965 52.4407 8.18988C51.8868 8.6417 51.2106 8.92962 50.4015 9.05524C49.4664 9.20038 48.6934 9.07294 48.0946 8.68165C47.4837 8.28155 47.1215 7.6814 47.0065 6.8707ZM46.4603 9.67735L41.4773 3.27929L40.3648 3.64035L39.9876 11.778L40.9888 11.4531L41.072 9.02266L43.9442 8.09046L45.3781 10.0286L46.4603 9.67735ZM41.0958 8.13178L41.2184 4.54828L43.3613 7.39653L41.0958 8.13178ZM34.5844 5.99469L35.0058 6.83015L31.2082 8.74537L32.2472 10.8056L35.5891 9.12018L36.0008 9.93664L32.659 11.622L34.2198 14.717L33.2895 15.1863L29.8565 8.37914L34.5844 5.99469ZM25.075 18.1519L24.4557 17.4084L22.4541 19.0756L23.0734 19.8191L25.075 18.1519ZM13.668 30.9641L14.255 30.1815C14.608 30.4196 14.9461 30.5536 15.2757 30.5749C15.886 30.594 16.4475 30.2708 16.9706 29.5733C17.2003 29.267 17.3746 28.9459 17.466 28.6291C17.6723 27.9996 17.5447 27.5317 17.1024 27.2C16.7706 26.9512 16.4559 26.8746 16.1582 26.9703C15.8626 27.0809 15.4947 27.3233 15.0609 27.6891L14.2485 28.3824C13.7275 28.829 13.3043 29.1097 12.9938 29.2224C12.4452 29.4223 11.9157 29.3308 11.4053 28.9481C10.8609 28.5398 10.5568 28.0061 10.4887 27.3702C10.4185 26.7195 10.6503 26.056 11.1735 25.3584C11.6519 24.7204 12.2134 24.2908 12.8577 24.0697C13.4957 23.857 14.1634 24.0123 14.8354 24.5163L14.2549 25.2903C13.8997 25.0904 13.5808 24.9841 13.3085 24.9926C12.7939 25.0054 12.3154 25.3244 11.8689 25.9198C11.5052 26.4047 11.3393 26.8385 11.384 27.2043C11.4287 27.57 11.5903 27.8507 11.8625 28.0549C12.1602 28.2782 12.4707 28.325 12.7918 28.1804C13.0044 28.074 13.3894 27.7912 13.9593 27.3148L14.7929 26.6109C15.1991 26.2643 15.5627 26.0453 15.8966 25.9368C16.4729 25.7709 17.0279 25.8815 17.5723 26.2898C18.2529 26.8002 18.5527 27.4105 18.4783 28.1123C18.3975 28.8226 18.1147 29.501 17.6235 30.156C17.0557 30.913 16.4134 31.3617 15.7117 31.5C14.995 31.6403 14.3166 31.4638 13.668 30.9641ZM7.49712 32.8302C6.80292 33.0776 6.2372 33.6389 5.80469 34.5044C5.30089 35.5127 5.25358 36.4875 5.67227 37.41C6.04338 38.261 6.73781 38.9408 7.74602 39.4446C9.06814 40.1052 10.2236 40.2429 11.2174 39.8479C11.9592 39.5529 12.5392 39.0107 12.9384 38.2118C13.3947 37.2986 13.4658 36.4189 13.1469 35.5821C12.89 34.8831 12.4239 34.3174 11.739 33.8801L11.2875 34.7837C11.7012 35.0974 11.9914 35.4207 12.1722 35.7488C12.5147 36.3716 12.5149 37.0136 12.1727 37.6984C11.8067 38.4308 11.279 38.8684 10.5895 38.9874C9.90959 39.1112 9.16772 38.9782 8.36873 38.579C7.39857 38.0943 6.78025 37.5238 6.50905 36.8772C6.2521 36.2257 6.28523 35.5648 6.61793 34.8989C6.89359 34.3473 7.23112 33.9811 7.64478 33.7955C8.0489 33.629 8.50544 33.5955 8.99523 33.7095L9.44197 32.8155C8.83802 32.5731 8.19131 32.5828 7.49712 32.8302ZM3.27685 41.4855L10.5012 43.9207L10.1683 44.9081L2.94399 42.4729L3.27685 41.4855ZM7.40767 51.7926L0.679122 52.8142L0.418885 54.269L7.92359 55.6114L8.09766 54.638L3.67023 53.8461C3.59827 53.8332 3.50889 53.819 3.40302 53.8022L3.40088 53.8018H3.40067C3.24518 53.777 3.05431 53.7467 2.83102 53.7068C2.72321 53.6905 2.62389 53.6759 2.5326 53.6624C2.30326 53.6284 2.12469 53.602 1.98993 53.5779L1.75967 53.5367L8.47771 52.5132L8.65749 51.5084L2.70887 48.2301C2.91998 48.2678 3.12218 48.3069 3.31745 48.3446L3.31806 48.3447C3.50016 48.3799 3.67624 48.4139 3.84789 48.4446C4.20188 48.5187 4.45308 48.5637 4.61008 48.5918L9.03754 49.3837L9.20979 48.4207L1.7051 47.0784L1.4486 48.5123L7.40767 51.7926ZM0.173008 62.3835C0.147153 61.044 0.563733 60.0363 1.41232 59.3711C2.08306 58.8584 2.93924 58.5865 3.9917 58.5663C5.12921 58.5443 6.0809 58.8131 6.84678 59.3725C7.7423 60.036 8.20749 60.9947 8.23164 62.2492C8.25442 63.4292 7.87878 64.351 7.12625 65.0356C6.38315 65.6561 5.44274 65.972 4.30523 65.994C3.27403 66.0139 2.38674 65.7757 1.64335 65.2796C0.695108 64.6386 0.197837 63.6698 0.173008 62.3835ZM7.30431 62.1394C7.28687 61.2358 6.94459 60.5831 6.2881 60.1809C5.63182 59.7895 4.87312 59.6021 4.02265 59.6185C3.12965 59.6358 2.41126 59.8836 1.87811 60.3618C1.33453 60.8509 1.08107 61.4939 1.09667 62.3018C1.11206 63.0991 1.39014 63.7319 1.94197 64.2211C2.49379 64.7103 3.29583 64.9393 4.34829 64.919C5.19876 64.9026 5.90694 64.6762 6.4728 64.2399C7.04929 63.8034 7.32299 63.1069 7.30431 62.1394ZM114.622 66.8335L119.253 67.6983L119.446 66.6635L115.234 65.8768C114.314 65.705 113.579 65.6977 113.042 65.8568C112.048 66.1364 111.439 66.9095 111.203 68.1742C110.967 69.4389 111.254 70.3904 112.079 71.0097C112.524 71.3523 113.211 71.6105 114.131 71.7823L118.343 72.569L118.536 71.5342L113.906 70.6694C113.362 70.5679 112.948 70.4147 112.657 70.1765C112.128 69.764 111.945 69.1241 112.107 68.2565C112.24 67.5458 112.607 67.0844 113.207 66.8828C113.612 66.7421 114.079 66.7319 114.622 66.8335ZM109.639 79.9246L116.791 78.5719L117.233 77.4319L110.126 74.6734L109.768 75.5952L115.528 77.8307L108.353 79.2433L107.933 80.3233L115.041 83.0818L115.398 82.1598L109.639 79.9246ZM112.294 88.7165L105.647 84.9851L106.156 84.076L112.804 87.8081L112.294 88.7165ZM101.112 92.3613L99.686 92.7593L99.8759 93.5453L101.159 93.2119C101.241 93.8233 101.503 94.4097 101.943 94.9724C102.227 95.3355 102.57 95.6765 102.959 95.9727C103.796 96.6107 104.636 96.9289 105.48 96.9441C106.558 96.9494 107.51 96.4185 108.322 95.3529C109.101 94.3291 109.313 93.2605 108.969 92.1691C108.694 91.3193 108.147 90.581 107.326 89.9567C106.42 89.2671 105.488 88.9307 104.526 88.9474C103.512 89.0165 102.637 89.514 101.923 90.4527C101.684 90.7656 101.499 91.0793 101.376 91.3998C101.252 91.7195 101.167 92.0423 101.112 92.3613ZM102.248 91.6231C102.339 91.4514 102.453 91.2843 102.581 91.115C103.123 90.4041 103.74 90.0327 104.463 89.9955C105.172 89.9598 105.889 90.2119 106.625 90.7724C107.488 91.4294 107.989 92.1046 108.116 92.8162C108.24 93.5127 108.05 94.1833 107.548 94.8433C107.058 95.4859 106.46 95.8322 105.73 95.8778C105.015 95.9218 104.298 95.6696 103.588 95.1289C103.258 94.8775 102.958 94.5691 102.667 94.2137C102.383 93.8507 102.19 93.4367 102.096 92.9636L103.313 92.6469L103.12 91.8464L102.088 92.1152C102.11 91.9451 102.164 91.7864 102.248 91.6231ZM102.372 102.104L99.2151 98.6081C98.8445 98.198 98.467 97.9231 98.0592 97.7894C97.4599 97.5859 96.888 97.7294 96.3518 98.214C95.6964 98.8056 95.4541 99.4261 95.6242 100.075C95.7116 100.44 95.9478 100.814 96.3184 101.224L99.4756 104.72L98.6949 105.425L95.8225 102.245C95.1951 101.55 94.8055 100.928 94.6597 100.387C94.3794 99.3935 94.728 98.4631 95.6827 97.6003C96.6374 96.7383 97.5913 96.4929 98.5506 96.8735C99.0746 97.0732 99.6541 97.5243 100.281 98.2185L103.153 101.399L102.372 102.104ZM89.4404 110.829L89.9311 111.626L94.6657 108.71L90.6685 102.218L85.8609 105.179L86.3349 105.949L90.282 103.518L91.6422 105.727L88.0574 107.935L88.5199 108.686L92.1055 106.478L93.3154 108.443L89.4404 110.829ZM84.705 114.395L78.8652 110.051L81.1217 115.802L80.2012 116.162L77.4161 109.066L78.4954 108.642L84.3944 112.963L82.1379 107.212L83.0584 106.852L85.8435 113.948L84.705 114.395ZM69.6533 117.943L69.8322 118.862L75.2907 117.799L73.8337 110.316L68.2916 111.395L68.4644 112.282L73.0149 111.396L73.5107 113.942L69.3777 114.747L69.5464 115.613L73.6794 114.809L74.1204 117.074L69.6533 117.943ZM65.3851 114.384L64.407 114.403C64.3775 113.978 64.2751 113.629 64.0891 113.356C63.7285 112.863 63.1283 112.62 62.2566 112.637C61.8738 112.644 61.5135 112.704 61.2074 112.827C60.5843 113.051 60.294 113.44 60.3047 113.993C60.3127 114.408 60.446 114.703 60.7046 114.879C60.9737 115.044 61.3912 115.184 61.9465 115.301L62.9927 115.515C63.6654 115.651 64.1471 115.812 64.427 115.987C64.9221 116.297 65.1759 116.771 65.1882 117.408C65.2013 118.088 64.9677 118.657 64.5084 119.102C64.0386 119.557 63.3729 119.783 62.5012 119.8C61.7039 119.815 61.0198 119.637 60.449 119.265C59.8888 118.893 59.6002 118.271 59.5841 117.431L60.5515 117.412C60.6124 117.816 60.7249 118.132 60.8991 118.342C61.2258 118.739 61.7717 118.921 62.5159 118.906C63.1218 118.894 63.5658 118.758 63.8267 118.498C64.0875 118.238 64.2094 117.937 64.2028 117.598C64.1956 117.226 64.0414 116.951 63.7299 116.787C63.5152 116.686 63.0554 116.556 62.3292 116.4L61.2614 116.176C60.7383 116.069 60.3418 115.917 60.0509 115.721C59.5655 115.369 59.3112 114.863 59.298 114.182C59.2816 113.332 59.5782 112.72 60.1772 112.347C60.7868 111.974 61.4956 111.779 62.3142 111.763C63.2603 111.745 64.0092 111.975 64.55 112.443C65.1016 112.922 65.3799 113.566 65.3851 114.384ZM54.7427 114.336L55.7087 114.489C55.8479 113.683 55.6873 113 55.2287 112.432C54.7789 111.876 54.0823 111.517 53.1477 111.368C52.3392 111.239 51.6072 111.306 50.9413 111.566C50.2859 111.828 49.8862 112.378 49.7524 113.218C49.6455 113.89 49.8067 114.433 50.2225 114.865C50.4742 115.11 50.8376 115.329 51.3338 115.527L52.3454 115.935C53.0327 116.216 53.4625 116.425 53.6558 116.563C53.9336 116.78 54.0372 117.076 53.9787 117.444C53.9251 117.78 53.7523 118.053 53.4497 118.264C53.1471 118.474 52.686 118.53 52.0875 118.435C51.3524 118.318 50.847 118.044 50.5954 117.595C50.4609 117.358 50.406 117.026 50.417 116.619L49.4614 116.466C49.3294 117.296 49.5038 117.959 49.9897 118.424C50.4861 118.89 51.128 119.187 51.9156 119.312C52.7766 119.449 53.4716 119.344 54.0143 118.979C54.5449 118.622 54.875 118.104 54.982 117.431C55.0822 116.801 54.916 116.29 54.4831 115.898C54.2384 115.676 53.7927 115.433 53.1546 115.181L52.1622 114.786C51.6363 114.573 51.2501 114.361 51.0144 114.151C50.7908 113.932 50.7116 113.618 50.7767 113.209C50.8636 112.663 51.2178 112.331 51.8708 112.221C52.1937 112.153 52.5591 112.158 52.9371 112.218C53.7982 112.355 54.3461 112.701 54.6141 113.249C54.7491 113.55 54.7885 113.912 54.7427 114.336ZM38.7479 111.25L39.1182 110.356L41.525 111.353L41.1548 112.247L38.7479 111.25ZM24.3672 106.691L23.8196 107.45L28.3286 110.705L32.7907 104.524L28.2128 101.219L27.6838 101.952L31.4427 104.665L29.9242 106.769L26.5101 104.304L25.9936 105.02L29.4077 107.484L28.0572 109.355L24.3672 106.691ZM20.0314 104.48L17.581 101.939C17.1751 101.518 16.9041 101.114 16.7683 100.728C16.496 99.9866 16.6888 99.313 17.3163 98.7076C17.6455 98.3902 17.9798 98.201 18.3196 98.1243C18.6591 98.0628 19.012 98.0917 19.3707 98.2185C19.2558 97.9155 19.2157 97.6443 19.2427 97.3967C19.2848 97.1491 19.4554 96.8666 19.7695 96.5491L20.4747 95.8102C20.6813 95.6104 20.8199 95.4327 20.8973 95.3134C21.029 95.0978 21.07 94.9109 20.9979 94.7438L21.1204 94.6261L22.006 95.5443C21.9823 95.6119 21.9358 95.6864 21.874 95.7752C21.8122 95.8641 21.6816 96.0198 21.4746 96.234L20.6081 97.1583C20.2705 97.5281 20.1587 97.8874 20.2724 98.2504C20.3438 98.4623 20.5196 98.7206 20.8148 99.0274L22.4459 100.719L24.8034 98.4456L25.5193 99.1876L20.0314 104.48ZM21.826 101.316L20.1653 99.594C19.8332 99.2499 19.4986 99.0411 19.1615 98.9666C18.8319 98.9006 18.4759 99.0372 18.1086 99.3912C17.7182 99.7679 17.5906 100.172 17.7258 100.587C17.7969 100.814 17.9506 101.051 18.2015 101.31L19.9508 103.125L21.826 101.316ZM9.89508 91.9891C9.95015 92.5762 10.1733 93.1671 10.5703 93.7717C11.1426 94.6428 11.9118 95.1547 12.8781 95.3089C13.8885 95.4722 14.9254 95.2102 15.9918 94.5099C17.067 93.8036 17.7126 92.9461 17.9404 91.9572C18.073 91.0937 17.8809 90.2788 17.3845 89.5231C16.9992 88.9367 16.5773 88.5274 16.1188 88.2942C15.8425 88.1446 15.451 88.0329 14.9384 87.9502L15.6217 87.2081L15.2538 86.6484L11.8415 88.8904L13.6808 91.6899L14.4006 91.2167L13.0926 89.2261C13.8449 88.7446 14.5007 88.5813 15.0895 88.7416C15.6724 88.8927 16.1565 89.2618 16.536 89.839C17.0265 90.5856 17.1428 91.2851 16.8848 91.9383C16.6298 92.5762 16.1188 93.1542 15.3634 93.6502C14.4836 94.2281 13.6918 94.456 12.9847 94.3481C12.2807 94.2259 11.7374 93.8826 11.3462 93.2871C11.0192 92.7896 10.8484 92.3165 10.8456 91.8479C10.8429 91.3793 11.0493 90.938 11.4413 90.5279L10.8808 89.6742C10.1389 90.3653 9.81815 91.1362 9.89508 91.9891ZM5.12827 83.9894C4.61561 82.7514 4.63591 81.6616 5.18343 80.7327C5.62091 80.0104 6.31897 79.4453 7.29151 79.0421C8.34268 78.6069 9.32683 78.5097 10.244 78.7519C11.3197 79.0428 12.1026 79.7659 12.5827 80.9248C13.0344 82.0155 13.0208 83.0104 12.5699 83.9226C12.1043 84.7709 11.3439 85.4081 10.2928 85.8441C9.33989 86.2383 8.42683 86.3408 7.55373 86.1494C6.43699 85.8988 5.62059 85.178 5.12827 83.9894ZM11.6792 81.161C11.3334 80.3256 10.7766 79.8433 10.0187 79.7081C9.26485 79.5828 8.49002 79.6853 7.70417 80.0104C6.87896 80.3522 6.30047 80.8451 5.97849 81.4853C5.65075 82.1385 5.64928 82.8297 5.95851 83.5762C6.26368 84.3129 6.75339 84.8005 7.44563 85.055C8.13784 85.3094 8.9682 85.2304 9.94073 84.8271C10.7267 84.5021 11.3035 84.0327 11.6712 83.4198C12.0487 82.8031 12.0495 82.055 11.6792 81.161ZM7.52139 70.3232L2.25031 75.3427L2.49773 76.5403L9.96382 74.9976L9.76377 74.0292L3.71381 75.2792L8.97199 70.1972L8.73746 69.0622L1.27137 70.6048L1.47145 71.5733L7.52139 70.3232ZM70.006 6.24636L70.9502 6.50222C70.8594 6.91829 70.86 7.28199 70.9622 7.5961C71.1701 8.17021 71.6781 8.57228 72.5197 8.80036C72.8891 8.90046 73.252 8.94367 73.5802 8.91147C74.2413 8.87031 74.6288 8.57874 74.7734 8.04504C74.8819 7.64479 74.8366 7.32407 74.6375 7.08285C74.4255 6.84912 74.0642 6.59698 73.5639 6.32921L72.6193 5.83087C72.0117 5.51199 71.5944 5.22263 71.3748 4.97585C70.9862 4.54004 70.8753 4.01425 71.0422 3.39848C71.2201 2.74166 71.6036 2.2617 72.1692 1.9633C72.7478 1.65742 73.45 1.62737 74.2915 1.85543C75.0612 2.06401 75.668 2.42674 76.1121 2.9436C76.545 3.45768 76.6483 4.13549 76.428 4.94625L75.4945 4.69316C75.5488 4.28927 75.5296 3.95357 75.421 3.70382C75.2188 3.23041 74.7455 2.90384 74.0271 2.70916C73.4422 2.55063 72.9777 2.55698 72.6544 2.73376C72.3311 2.91053 72.1301 3.16451 72.041 3.49292C71.9437 3.85212 72.0151 4.15788 72.2682 4.40274C72.4457 4.56099 72.8508 4.814 73.5042 5.16732L74.4665 5.68148C74.9388 5.93065 75.2768 6.18749 75.5011 6.45757C75.8683 6.93165 75.9708 7.48823 75.7929 8.14507C75.5703 8.96608 75.1142 9.47038 74.4347 9.66079C73.7449 9.84846 73.01 9.83653 72.2197 9.62243C71.3064 9.37491 70.6519 8.94421 70.264 8.3433C69.8685 7.7294 69.7815 7.03381 70.006 6.24636ZM81.127 7.45942L82.4812 4.61838L81.5409 4.16998L78.2599 11.0518L79.2009 11.5002L80.7336 8.28489L84.3131 9.99155L82.7804 13.2069L83.7214 13.6553L87.0017 6.77345L86.0614 6.32505L84.7073 9.16605L81.127 7.45942ZM92.3683 9.88119L88.1584 16.2372L87.2895 15.6619L91.4994 9.3058L92.3683 9.88119ZM98.543 14.4682L95.9364 12.232L90.9723 18.0182L91.763 18.6967L93.8607 16.2514L95.6766 17.8092C96.2576 18.3077 96.8387 18.5121 97.4121 18.4155C97.9779 18.3269 98.4549 18.0492 98.8422 17.5973C99.2926 17.0727 99.4855 16.5377 99.4187 15.9622C99.3465 15.4097 99.0594 14.9113 98.543 14.4682ZM98.3159 15.6468C98.4997 16.0702 98.4116 16.4991 98.0447 16.9269C97.7189 17.3062 97.3847 17.4675 97.0354 17.4338C96.6928 17.3922 96.3328 17.2237 95.9857 16.926L94.4288 15.5897L96.1521 13.5803L97.7098 14.9165C98.0166 15.1796 98.2156 15.4207 98.3159 15.6468ZM103.155 18.6483L105.372 21.2712C105.811 21.7909 106.016 22.3285 105.999 22.8855C105.973 23.4643 105.697 23.9618 105.17 24.408C104.715 24.7924 104.2 24.9907 103.627 24.988C103.046 24.9921 102.504 24.6977 102.011 24.113L100.466 22.286L98.006 24.366L97.3331 23.5702L103.155 18.6483ZM104.489 23.6191C104.92 23.2553 105.075 22.8458 104.961 22.3986C104.898 22.1595 104.74 21.8896 104.478 21.581L103.154 20.0139L101.132 21.7231L102.457 23.2904C102.752 23.6395 103.08 23.8632 103.412 23.9589C103.752 24.0476 104.107 23.9417 104.489 23.6191ZM103.395 31.282L109.797 27.1423L109.231 26.2673L102.83 30.4069L103.395 31.282ZM112.765 31.9567L108.777 38.0455L114.383 35.4495L114.798 36.3467L107.88 39.5504L107.393 38.4988L111.355 32.3521L105.749 34.9481L105.334 34.0508L112.251 30.8471L112.765 31.9567ZM117.81 46.1147C117.951 45.5421 117.935 44.9103 117.76 44.2089C117.506 43.1982 116.949 42.461 116.087 41.9974C115.187 41.5106 114.122 41.4159 112.884 41.7262C111.636 42.0391 110.744 42.6354 110.203 43.4946C109.793 44.2659 109.707 45.0989 109.926 45.9756C110.097 46.6563 110.361 47.1822 110.716 47.5534C110.928 47.7853 111.261 48.0198 111.718 48.267L110.829 48.7421L110.991 49.3919L114.952 48.3989L114.137 45.1501L113.301 45.3596L113.881 47.6698C113.012 47.8768 112.338 47.8153 111.836 47.4701C111.335 47.1351 110.999 46.6273 110.832 45.9569C110.614 45.0906 110.735 44.3917 111.194 43.8601C111.644 43.3414 112.317 42.9644 113.194 42.7447C114.215 42.4887 115.038 42.5346 115.67 42.8693C116.294 43.2171 116.694 43.7197 116.867 44.4107C117.012 44.9883 117.018 45.4912 116.866 45.9348C116.714 46.3785 116.374 46.7269 115.869 46.9851L116.117 47.9752C117.045 47.5671 117.602 46.9452 117.81 46.1147ZM115.469 59.5716L114.501 59.579L114.481 56.9741L115.449 56.9666L115.469 59.5716Z" fill="#222222"/>
</svg>
