<svg width="150" height="150" viewBox="0 0 150 150" fill="none" xmlns="http://www.w3.org/2000/svg">
<path fill-rule="evenodd" clip-rule="evenodd" d="M75.3567 1.56531L78.573 1.60255L78.586 0.472878L70.8511 0.383301L70.838 1.51298L74.0543 1.55022L73.957 9.94966L75.2594 9.96476L75.3567 1.56531ZM58.7581 8.59082L59.9663 8.40323C60.0742 8.92451 60.2597 9.33957 60.5359 9.64634C61.0652 10.1964 61.8497 10.3974 62.9266 10.2302C63.3994 10.1568 63.8358 10.0218 64.1942 9.81817C64.9284 9.43523 65.2227 8.90532 65.1166 8.22236C65.0372 7.71014 64.8224 7.36686 64.4726 7.19253C64.1116 7.03336 63.5709 6.92901 62.8634 6.87743L61.5315 6.78832C60.6755 6.7329 60.0519 6.61452 59.6757 6.44426C59.0103 6.14404 58.6165 5.59991 58.4941 4.81188C58.3637 3.97132 58.5577 3.22833 59.052 2.60013C59.5573 1.95675 60.344 1.56562 61.421 1.39842C62.406 1.24549 63.2833 1.3514 64.0528 1.71615C64.8091 2.08294 65.2709 2.80482 65.432 3.84238L64.2369 4.02794C64.0937 3.53905 63.9012 3.16543 63.6503 2.93538C63.1788 2.49746 62.4722 2.36504 61.5528 2.50777C60.8042 2.62399 60.2771 2.86724 59.9977 3.23343C59.7183 3.59961 59.6177 3.99183 59.683 4.41211C59.7543 4.87179 59.9913 5.18473 60.4047 5.33574C60.6878 5.4263 61.2791 5.50936 62.2048 5.58084L63.5651 5.67902C64.2311 5.72358 64.7476 5.84514 65.1409 6.03963C65.8013 6.39442 66.2013 6.97795 66.3317 7.81851C66.4948 8.86922 66.2303 9.677 65.5509 10.2398C64.8585 10.8046 64.0132 11.1645 63.0019 11.3215C61.833 11.5029 60.8667 11.3436 60.1182 10.8545C59.3546 10.3544 58.9019 9.60419 58.7581 8.59082ZM58.0754 12.0991L51.8467 4.10156L50.456 4.55288L49.9845 14.725L51.236 14.3188L51.34 11.2808L54.9303 10.1155L56.7226 12.5382L58.0754 12.0991ZM51.3698 10.1672L51.523 5.68779L54.2017 9.24811L51.3698 10.1672ZM43.2305 7.4958L43.7572 8.54013L39.0103 10.9342L40.309 13.5094L44.4863 11.4027L45.001 12.4232L40.8238 14.53L42.7748 18.3987L41.6118 18.9853L37.3206 10.4764L43.2305 7.4958ZM31.3438 22.6923L30.5696 21.7629L28.0676 23.847L28.8417 24.7763L31.3438 22.6923ZM17.085 38.7075L17.8187 37.7293C18.26 38.027 18.6826 38.1945 19.0946 38.2211C19.8576 38.245 20.5593 37.8409 21.2133 36.969C21.5003 36.5862 21.7182 36.1849 21.8325 35.7888C22.0904 35.0019 21.9309 34.4171 21.378 34.0024C20.9633 33.6914 20.5699 33.5957 20.1977 33.7154C19.8282 33.8536 19.3683 34.1566 18.8261 34.6138L17.8106 35.4804C17.1594 36.0387 16.6304 36.3895 16.2423 36.5304C15.5565 36.7803 14.8946 36.666 14.2566 36.1875C13.5761 35.6771 13.1959 35.01 13.1109 34.2152C13.0232 33.4018 13.3129 32.5724 13.9668 31.7004C14.5649 30.903 15.2667 30.366 16.0721 30.0895C16.8696 29.8237 17.7043 30.0178 18.5443 30.6478L17.8186 31.6154C17.3747 31.3655 16.9759 31.2326 16.6357 31.2432C15.9924 31.2592 15.3943 31.6579 14.8361 32.4022C14.3815 33.0083 14.1742 33.5505 14.23 34.0078C14.2858 34.465 14.4878 34.8159 14.8281 35.0711C15.2002 35.3502 15.5883 35.4087 15.9897 35.2279C16.2556 35.095 16.7367 34.7414 17.4491 34.146L18.4911 33.2661C18.9989 32.8328 19.4534 32.559 19.8708 32.4235C20.5911 32.2161 21.2849 32.3543 21.9654 32.8647C22.8161 33.5027 23.1909 34.2656 23.0978 35.1428C22.9968 36.0307 22.6434 36.8787 22.0293 37.6974C21.3196 38.6437 20.5168 39.2046 19.6396 39.3774C18.7438 39.5528 17.8958 39.3322 17.085 38.7075ZM9.37141 41.0402C8.50366 41.3495 7.7965 42.0511 7.25587 43.133C6.62611 44.3933 6.56698 45.6119 7.09033 46.7649C7.55422 47.8287 8.42226 48.6784 9.68252 49.3082C11.3352 50.134 12.7795 50.306 14.0218 49.8124C14.9489 49.4436 15.674 48.7659 16.173 47.7671C16.7433 46.6257 16.8322 45.5261 16.4337 44.48C16.1125 43.6063 15.5299 42.8992 14.6737 42.3525L14.1093 43.4821C14.6265 43.8743 14.9893 44.2783 15.2152 44.6884C15.6434 45.4669 15.6436 46.2694 15.2158 47.1255C14.7584 48.0409 14.0987 48.588 13.2369 48.7367C12.387 48.8915 11.4596 48.7252 10.4609 48.2262C9.24821 47.6203 8.47532 46.9072 8.13631 46.0989C7.81513 45.2846 7.85654 44.4584 8.27241 43.6261C8.61699 42.9366 9.0389 42.4788 9.55597 42.2468C10.0611 42.0387 10.6318 41.9969 11.244 42.1394L11.8025 41.0218C11.0475 40.7188 10.2391 40.7309 9.37141 41.0402ZM4.09606 51.8593L13.1265 54.9033L12.7104 56.1376L3.67999 53.0936L4.09606 51.8593ZM9.25959 64.7431L0.848903 66.0201L0.523606 67.8388L9.90449 69.5168L10.1221 68.3L4.58779 67.31C4.49784 67.2939 4.38611 67.2762 4.25378 67.2552L4.2511 67.2547H4.25083C4.05647 67.2238 3.81788 67.1858 3.53878 67.1359C3.40402 67.1156 3.27986 67.0973 3.16575 67.0804C2.87907 67.038 2.65587 67.0049 2.48741 66.9748L2.19958 66.9234L10.5971 65.644L10.8219 64.388L3.38609 60.29C3.64997 60.3372 3.90272 60.386 4.14681 60.4332L4.14757 60.4333C4.3752 60.4773 4.5953 60.5198 4.80986 60.5582C5.25235 60.6508 5.56635 60.707 5.76261 60.7421L11.2969 61.732L11.5122 60.5283L2.13137 58.8504L1.81075 60.6428L9.25959 64.7431ZM0.216261 77.9818C0.183941 76.3074 0.704666 75.0478 1.7654 74.2163C2.60382 73.5754 3.67405 73.2356 4.98962 73.2103C6.41151 73.1828 7.60113 73.5188 8.55847 74.2181C9.67787 75.0474 10.2594 76.2459 10.2895 77.8139C10.318 79.289 9.84847 80.4412 8.90781 81.2969C7.97893 82.0726 6.80343 82.4675 5.38154 82.495C4.09254 82.5199 2.98342 82.2221 2.05419 81.602C0.868885 80.8007 0.247296 79.5896 0.216261 77.9818ZM9.13039 77.6768C9.10858 76.5472 8.68073 75.7313 7.86013 75.2286C7.03977 74.7393 6.0914 74.505 5.02831 74.5256C3.91206 74.5472 3.01407 74.8569 2.34764 75.4547C1.66817 76.0661 1.35134 76.8698 1.37083 77.8797C1.39008 78.8764 1.73768 79.6673 2.42746 80.2788C3.11723 80.8903 4.11978 81.1766 5.43536 81.1513C6.49845 81.1307 7.38367 80.8477 8.091 80.3023C8.81161 79.7567 9.15374 78.8861 9.13039 77.6768ZM143.278 83.5443L149.066 84.6254L149.307 83.3319L144.042 82.3484C142.892 82.1337 141.974 82.1245 141.302 82.3234C140.06 82.6729 139.299 83.6394 139.004 85.2202C138.708 86.8011 139.067 87.9904 140.099 88.7645C140.655 89.1928 141.514 89.5156 142.664 89.7303L147.929 90.7137L148.17 89.4202L142.383 88.3392C141.703 88.2123 141.184 88.0208 140.821 87.7231C140.16 87.2075 139.931 86.4075 140.133 85.3231C140.3 84.4346 140.758 83.8579 141.509 83.6059C142.015 83.43 142.599 83.4174 143.278 83.5443ZM137.049 99.9082L145.989 98.2174L146.542 96.7924L137.658 93.3443L137.21 94.4965L144.409 97.2908L135.441 99.0566L134.917 100.407L143.801 103.855L144.248 102.702L137.049 99.9082ZM140.368 110.898L132.058 106.234L132.695 105.097L141.005 109.763L140.368 110.898ZM126.389 115.454L124.608 115.952L124.845 116.934L126.448 116.517C126.551 117.282 126.878 118.015 127.429 118.718C127.784 119.172 128.212 119.598 128.698 119.968C129.745 120.766 130.795 121.164 131.85 121.183C133.197 121.189 134.388 120.526 135.403 119.194C136.377 117.914 136.642 116.578 136.211 115.214C135.868 114.152 135.183 113.229 134.157 112.448C133.026 111.586 131.86 111.166 130.658 111.187C129.389 111.273 128.297 111.895 127.403 113.068C127.105 113.459 126.874 113.852 126.72 114.252C126.565 114.652 126.459 115.055 126.389 115.454ZM127.81 114.531C127.924 114.317 128.066 114.108 128.227 113.896C128.903 113.008 129.675 112.543 130.579 112.497C131.465 112.452 132.361 112.767 133.281 113.468C134.359 114.289 134.986 115.133 135.145 116.023C135.3 116.893 135.063 117.732 134.434 118.557C133.823 119.36 133.075 119.793 132.163 119.85C131.269 119.905 130.373 119.59 129.484 118.914C129.072 118.599 128.697 118.214 128.334 117.77C127.979 117.316 127.738 116.798 127.62 116.207L129.141 115.811L128.901 114.81L127.609 115.146C127.637 114.934 127.705 114.735 127.81 114.531ZM127.964 127.633L124.019 123.263C123.556 122.75 123.084 122.406 122.574 122.239C121.825 121.985 121.11 122.164 120.44 122.77C119.62 123.509 119.318 124.285 119.53 125.096C119.639 125.553 119.935 126.02 120.398 126.532L124.345 130.902L123.369 131.784L119.778 127.809C118.994 126.94 118.507 126.163 118.325 125.486C117.974 124.244 118.41 123.081 119.603 122.003C120.797 120.925 121.989 120.619 123.188 121.094C123.843 121.344 124.568 121.908 125.352 122.776L128.941 126.751L127.964 127.633ZM111.801 138.539L112.414 139.535L118.332 135.89L113.336 127.775L107.326 131.477L107.919 132.438L112.852 129.399L114.553 132.161L110.072 134.921L110.65 135.86L115.132 133.1L116.644 135.556L111.801 138.539ZM105.881 142.996L98.5816 137.566L101.402 144.754L100.251 145.205L96.7702 136.334L98.1192 135.805L105.493 141.207L102.672 134.018L103.823 133.567L107.304 142.438L105.881 142.996ZM87.0667 147.432L87.2903 148.579L94.1134 147.251L92.2921 137.897L85.3646 139.246L85.5805 140.355L91.2687 139.247L91.8884 142.43L86.7222 143.437L86.933 144.519L92.0993 143.514L92.6505 146.345L87.0667 147.432ZM81.7313 142.983L80.5087 143.007C80.4719 142.475 80.3438 142.039 80.1113 141.697C79.6607 141.081 78.9104 140.777 77.8207 140.798C77.3423 140.808 76.8918 140.883 76.5092 141.036C75.7304 141.317 75.3675 141.803 75.3808 142.494C75.3909 143.012 75.5575 143.381 75.8808 143.601C76.2171 143.807 76.739 143.983 77.4331 144.129L78.7409 144.396C79.5818 144.566 80.1839 144.768 80.5337 144.986C81.1527 145.373 81.4699 145.966 81.4853 146.762C81.5017 147.613 81.2097 148.323 80.6355 148.879C80.0482 149.449 79.2162 149.731 78.1265 149.752C77.1298 149.772 76.2747 149.549 75.5612 149.084C74.8609 148.618 74.5003 147.842 74.4801 146.792L75.6894 146.768C75.7655 147.272 75.9061 147.668 76.1239 147.93C76.5323 148.427 77.2146 148.653 78.1448 148.635C78.9023 148.62 79.4573 148.45 79.7833 148.125C80.1094 147.8 80.2617 147.424 80.2535 147C80.2445 146.534 80.0518 146.192 79.6624 145.987C79.394 145.859 78.8192 145.697 77.9116 145.503L76.5767 145.222C75.9228 145.089 75.4273 144.899 75.0636 144.654C74.4569 144.213 74.139 143.581 74.1225 142.73C74.102 141.668 74.4728 140.903 75.2215 140.437C75.9835 139.97 76.8695 139.727 77.8928 139.707C79.0754 139.684 80.0116 139.971 80.6875 140.556C81.377 141.155 81.7249 141.959 81.7313 142.983ZM68.4283 142.922L69.6358 143.114C69.8098 142.106 69.6091 141.252 69.0358 140.542C68.4736 139.847 67.6029 139.399 66.4347 139.213C65.424 139.052 64.509 139.135 63.6766 139.46C62.8574 139.787 62.3577 140.475 62.1905 141.525C62.0568 142.365 62.2584 143.044 62.7781 143.584C63.0928 143.89 63.5471 144.164 64.1673 144.411L65.4317 144.921C66.2909 145.273 66.8282 145.534 67.0698 145.707C67.4171 145.977 67.5465 146.347 67.4734 146.807C67.4064 147.227 67.1904 147.569 66.8121 147.832C66.4339 148.095 65.8575 148.165 65.1093 148.046C64.1905 147.9 63.5587 147.557 63.2443 146.996C63.0761 146.7 63.0075 146.285 63.0213 145.776L61.8268 145.585C61.6618 146.623 61.8798 147.452 62.4871 148.033C63.1076 148.615 63.91 148.986 64.8945 149.142C65.9708 149.313 66.8395 149.182 67.5179 148.726C68.1811 148.279 68.5937 147.632 68.7275 146.792C68.8528 146.004 68.645 145.365 68.1038 144.875C67.798 144.598 67.2409 144.294 66.4432 143.979L65.2028 143.485C64.5453 143.219 64.0627 142.953 63.768 142.691C63.4885 142.418 63.3895 142.025 63.4709 141.513C63.5795 140.831 64.0223 140.417 64.8385 140.278C65.2422 140.194 65.6989 140.199 66.1714 140.274C67.2477 140.446 67.9327 140.878 68.2676 141.564C68.4364 141.94 68.4856 142.392 68.4283 142.922ZM48.4349 139.065L48.8978 137.947L51.9063 139.194L51.4435 140.311L48.4349 139.065ZM30.459 133.367L29.7745 134.315L35.4108 138.384L40.9884 130.657L35.266 126.527L34.6047 127.443L39.3033 130.834L37.4053 133.464L33.1377 130.383L32.492 131.277L36.7596 134.358L35.0715 136.696L30.459 133.367ZM25.0393 130.602L21.9763 127.426C21.4688 126.9 21.1302 126.396 20.9603 125.912C20.62 124.986 20.8609 124.144 21.6454 123.387C22.0569 122.99 22.4748 122.754 22.8995 122.658C23.3239 122.581 23.765 122.617 24.2133 122.776C24.0698 122.397 24.0196 122.058 24.0534 121.748C24.106 121.439 24.3192 121.086 24.7119 120.689L25.5933 119.765C25.8517 119.515 26.0249 119.293 26.1217 119.144C26.2863 118.875 26.3376 118.641 26.2474 118.432L26.4005 118.285L27.5076 119.433C27.4778 119.517 27.4197 119.61 27.3426 119.721C27.2653 119.833 27.102 120.027 26.8433 120.295L25.7602 121.45C25.3382 121.913 25.1984 122.362 25.3405 122.815C25.4298 123.08 25.6495 123.403 26.0185 123.787L28.0574 125.901L31.0043 123.059L31.8991 123.987L25.0393 130.602ZM27.2825 126.648L25.2067 124.495C24.7915 124.065 24.3732 123.804 23.9519 123.711C23.5399 123.628 23.0949 123.799 22.6357 124.241C22.1478 124.712 21.9882 125.217 22.1573 125.737C22.2462 126.021 22.4382 126.316 22.7519 126.64L24.9385 128.909L27.2825 126.648ZM12.3689 114.989C12.4377 115.723 12.7166 116.461 13.2128 117.217C13.9282 118.306 14.8897 118.946 16.0976 119.139C17.3606 119.343 18.6567 119.015 19.9897 118.14C21.3337 117.257 22.1408 116.185 22.4255 114.949C22.5913 113.87 22.3511 112.851 21.7307 111.906C21.2489 111.173 20.7216 110.662 20.1484 110.37C19.8032 110.183 19.3138 110.044 18.673 109.94L19.5271 109.013L19.0673 108.313L14.8019 111.115L17.101 114.615L18.0007 114.023L16.3658 111.535C17.3061 110.933 18.1259 110.729 18.8619 110.929C19.5905 111.118 20.1956 111.58 20.67 112.301C21.2831 113.234 21.4285 114.109 21.106 114.925C20.7873 115.723 20.1484 116.445 19.2043 117.065C18.1045 117.788 17.1147 118.072 16.2309 117.938C15.3509 117.785 14.6717 117.356 14.1827 116.611C13.774 115.99 13.5605 115.398 13.557 114.812C13.5536 114.227 13.8116 113.675 14.3016 113.162L13.6009 112.095C12.6736 112.959 12.2727 113.923 12.3689 114.989ZM6.41034 104.989C5.76951 103.442 5.79488 102.079 6.47928 100.918C7.02614 100.015 7.89871 99.3091 9.11439 98.805C10.4283 98.261 11.6585 98.1395 12.805 98.4424C14.1497 98.806 15.1283 99.7098 15.7284 101.159C16.293 102.522 16.276 103.765 15.7123 104.906C15.1304 105.966 14.1799 106.763 12.8659 107.308C11.6749 107.8 10.5335 107.928 9.44216 107.689C8.04623 107.376 7.02574 106.475 6.41034 104.989ZM14.599 101.454C14.1668 100.409 13.4708 99.8066 12.5233 99.6376C11.5811 99.481 10.6125 99.6091 9.63021 100.015C8.5987 100.443 7.87558 101.059 7.47311 101.859C7.06344 102.676 7.06161 103.54 7.44814 104.473C7.8296 105.394 8.44174 106.003 9.30704 106.321C10.1723 106.639 11.2102 106.54 12.4259 106.036C13.4083 105.63 14.1294 105.043 14.5889 104.277C15.0609 103.506 15.0619 102.571 14.599 101.454ZM9.40174 87.9065L2.81288 94.1808L3.12216 95.6778L12.4548 93.7495L12.2047 92.5389L4.64226 94.1015L11.215 87.749L10.9218 86.3302L1.58921 88.2585L1.83932 89.469L9.40174 87.9065ZM87.5075 7.81039L88.6877 8.13022C88.5743 8.65031 88.575 9.10493 88.7027 9.49757C88.9627 10.2152 89.5976 10.7178 90.6496 11.0029C91.1114 11.128 91.565 11.182 91.9752 11.1418C92.8016 11.0903 93.286 10.7259 93.4667 10.0587C93.6023 9.55843 93.5457 9.15753 93.2969 8.85601C93.0318 8.56384 92.5802 8.24866 91.9549 7.91395L90.7741 7.29103C90.0146 6.89242 89.493 6.53072 89.2185 6.22226C88.7327 5.67749 88.5941 5.02025 88.8027 4.25054C89.0251 3.42952 89.5045 2.82957 90.2115 2.45657C90.9348 2.07421 91.8125 2.03666 92.8644 2.32172C93.8266 2.58246 94.585 3.03587 95.1401 3.68194C95.6812 4.32454 95.8103 5.1718 95.535 6.18525L94.3681 5.86889C94.4361 5.36403 94.412 4.94441 94.2763 4.63222C94.0235 4.04045 93.4319 3.63224 92.5339 3.38889C91.8027 3.19073 91.2222 3.19866 90.818 3.41964C90.4139 3.6406 90.1626 3.95808 90.0513 4.3686C89.9297 4.81759 90.0188 5.1998 90.3353 5.50587C90.5571 5.70368 91.0635 6.01994 91.8802 6.46159L93.0831 7.10429C93.6735 7.41575 94.096 7.7368 94.3763 8.07441C94.8354 8.66701 94.9635 9.36273 94.7411 10.1838C94.4629 11.21 93.8927 11.8404 93.0433 12.0784C92.1811 12.313 91.2625 12.2981 90.2747 12.0305C89.133 11.7211 88.3149 11.1827 87.83 10.4316C87.3356 9.66419 87.2269 8.7947 87.5075 7.81039ZM101.409 9.32671L103.101 5.77542L101.926 5.21492L97.8249 13.8172L99.0012 14.3777L100.917 10.3586L105.391 12.4919L103.476 16.511L104.652 17.0715L108.752 8.46926L107.577 7.90876L105.884 11.46L101.409 9.32671ZM115.46 12.3539L110.198 20.299L109.112 19.5798L114.374 11.6347L115.46 12.3539ZM123.179 18.0877L119.92 15.2924L113.715 22.5252L114.704 23.3733L117.326 20.3168L119.596 22.264C120.322 22.8871 121.048 23.1425 121.765 23.0218C122.472 22.9111 123.069 22.5639 123.553 21.999C124.116 21.3433 124.357 20.6746 124.273 19.9551C124.183 19.2646 123.824 18.6416 123.179 18.0877ZM122.895 19.561C123.125 20.0901 123.014 20.6263 122.556 21.161C122.149 21.6351 121.731 21.8368 121.294 21.7947C120.866 21.7427 120.416 21.532 119.982 21.1599L118.036 19.4896L120.19 16.9778L122.137 18.648C122.521 18.9769 122.77 19.2783 122.895 19.561ZM128.944 23.3129L131.715 26.5914C132.264 27.2411 132.52 27.9131 132.499 28.6093C132.466 29.3328 132.122 29.9547 131.462 30.5124C130.894 30.993 130.251 31.2408 129.534 31.2374C128.808 31.2425 128.131 30.8746 127.514 30.1437L125.583 27.8599L122.508 30.4599L121.666 29.4651L128.944 23.3129ZM130.611 29.5263C131.15 29.0715 131.343 28.5596 131.201 28.0007C131.122 27.7018 130.925 27.3645 130.598 26.9787L128.942 25.0198L126.415 27.1564L128.071 29.1154C128.44 29.5518 128.85 29.8314 129.265 29.951C129.689 30.062 130.134 29.9296 130.611 29.5263ZM129.244 39.1049L137.246 33.9303L136.539 32.8365L128.537 38.0111L129.244 39.1049ZM140.957 39.9483L135.971 47.5593L142.979 44.3143L143.498 45.4359L134.85 49.4405L134.242 48.1259L139.194 40.4426L132.186 43.6876L131.667 42.5659L140.314 38.5613L140.957 39.9483ZM147.262 57.6459C147.439 56.93 147.419 56.1404 147.2 55.2636C146.883 54.0002 146.186 53.0787 145.109 52.4993C143.983 51.8907 142.652 51.7723 141.105 52.1602C139.545 52.5514 138.43 53.2967 137.754 54.3706C137.242 55.3348 137.133 56.3761 137.408 57.4719C137.621 58.3229 137.951 58.9802 138.395 59.4442C138.66 59.7341 139.076 60.0272 139.647 60.3362L138.536 60.9301L138.739 61.7423L143.69 60.5011L142.671 56.4401L141.627 56.7019L142.351 59.5897C141.265 59.8484 140.423 59.7716 139.795 59.34C139.169 58.9213 138.749 58.2866 138.539 57.4486C138.268 56.3657 138.419 55.492 138.992 54.8276C139.555 54.1793 140.396 53.708 141.493 53.4333C142.769 53.1133 143.797 53.1706 144.587 53.5891C145.367 54.0238 145.868 54.652 146.084 55.5159C146.265 56.2378 146.272 56.8664 146.082 57.421C145.892 57.9756 145.467 58.4111 144.836 58.7338L145.146 59.9714C146.306 59.4613 147.002 58.684 147.262 57.6459ZM144.336 74.4669L143.127 74.4762L143.101 71.22L144.311 71.2107L144.336 74.4669Z" fill="#222222"/>
</svg>
