<svg width="150" height="150" viewBox="0 0 150 150" fill="none" xmlns="http://www.w3.org/2000/svg">
<path d="M144.157 79.4306L144.356 75.9759L136.687 75.5312L136.626 76.5799L139.868 76.7674L139.728 79.1742C139.683 79.9443 139.874 80.5349 140.302 80.9353C140.719 81.3351 141.232 81.5474 141.832 81.5822C142.527 81.6224 143.073 81.4503 143.494 81.0452C143.893 80.6501 144.116 80.1157 144.157 79.4306ZM143.073 79.969C142.846 80.3748 142.448 80.5664 141.882 80.5336C141.379 80.5041 141.045 80.3347 140.859 80.034C140.683 79.734 140.598 79.3429 140.625 78.8829L140.745 76.8183L143.408 76.973L143.288 79.0369C143.265 79.4434 143.193 79.7507 143.073 79.969Z" fill="currentColor"/>
<path d="M136.888 84.0241L143.571 85.1136L143.738 84.0884L136.156 82.8516L135.361 87.7266L136.259 87.8732L136.888 84.0241Z" fill="currentColor"/>
<path d="M133.65 94.2955L141.788 93.5542L142.087 92.4145L135.393 87.6641L135.124 88.6893L137.139 90.0835L136.365 93.0266L133.941 93.1866L133.65 94.2955ZM137.881 90.5891L140.853 92.6442L137.271 92.91L137.881 90.5891Z" fill="currentColor"/>
<path d="M136.377 98.2328L140.609 97.4929L141.043 96.3625L135.721 97.4299L132.83 96.3203L132.458 97.2906L135.349 98.4002L138.589 102.754L139.027 101.614L136.377 98.2328Z" fill="currentColor"/>
<path d="M133.2 112.672L128.747 107.403L135.484 108.932L136.087 107.944L128.068 106.336L127.493 107.278L132.591 113.669L133.2 112.672Z" fill="currentColor"/>
<path d="M124.386 111.842L130.548 116.429L131.176 115.587L125.013 111L124.386 111.842Z" fill="currentColor"/>
<path d="M126.675 121.173L128.758 118.868L123.056 113.719L120.981 116.017C120.098 116.995 119.902 118.074 120.411 119.255C120.695 119.93 121.135 120.53 121.747 121.083C122.527 121.787 123.343 122.178 124.189 122.248C125.14 122.314 125.965 121.961 126.675 121.173ZM121.771 116.47L123.02 115.086L127.402 119.042L126.159 120.418C125.599 121.039 124.991 121.312 124.35 121.239C123.702 121.173 123.031 120.813 122.323 120.173C122.14 120.009 121.956 119.813 121.777 119.579C121.469 119.186 121.282 118.801 121.196 118.448C121.074 117.992 121.106 117.573 121.268 117.185C121.363 116.968 121.541 116.724 121.771 116.47Z" fill="currentColor"/>
<path d="M117.733 128.411L118.349 129.125L122.59 125.461L117.566 119.648L113.261 123.369L113.857 124.058L117.392 121.003L119.101 122.981L115.891 125.756L116.472 126.429L119.683 123.654L121.203 125.413L117.733 128.411Z" fill="currentColor"/>
<path d="M110.418 133.354C111.443 133.717 112.525 133.526 113.65 132.781C114.731 132.065 115.286 131.119 115.32 129.966C115.34 129.066 115.063 128.183 114.49 127.316C113.857 126.36 113.08 125.731 112.151 125.434C111.162 125.163 110.175 125.342 109.183 125.998C108.129 126.697 107.565 127.61 107.484 128.731C107.422 129.684 107.707 130.639 108.34 131.595C108.926 132.479 109.62 133.06 110.418 133.354ZM108.474 128.769C108.461 127.993 108.832 127.35 109.591 126.847C110.404 126.308 111.144 126.165 111.827 126.42C112.503 126.665 113.079 127.145 113.552 127.86C114.138 128.745 114.376 129.55 114.258 130.284C114.14 131.017 113.752 131.596 113.082 132.04C112.403 132.489 111.719 132.621 111.009 132.423C110.314 132.227 109.716 131.75 109.219 131C108.745 130.285 108.495 129.539 108.474 128.769Z" fill="currentColor"/>
<path d="M100.25 133.95L100.647 134.841L103.045 133.773L102.648 132.883L100.25 133.95Z" fill="currentColor"/>
<path d="M92.5479 142.049L95.8914 141.157L93.91 133.734L92.8955 134.005L93.7325 137.141L91.4035 137.763C90.6582 137.962 90.1573 138.329 89.9109 138.86C89.6618 139.381 89.6216 139.936 89.7763 140.515C89.9558 141.188 90.2906 141.654 90.8069 141.926C91.3071 142.181 91.885 142.225 92.5479 142.049ZM91.6968 141.189C91.2408 141.1 90.9341 140.783 90.7881 140.234C90.6582 139.748 90.7145 139.377 90.9415 139.106C91.1711 138.846 91.5167 138.642 91.9613 138.524L93.9595 137.991L94.6472 140.568L92.6497 141.101C92.256 141.206 91.9419 141.234 91.6968 141.189Z" fill="currentColor"/>
<path d="M85.8602 136.586L86.9249 143.273L87.9508 143.11L86.7434 135.523L81.8657 136.3L82.0084 137.199L85.8602 136.586Z" fill="currentColor"/>
<path d="M75.0957 136.719L78.3501 144.215L79.526 144.142L81.9394 136.297L80.8807 136.362L80.189 138.713L77.1515 138.9L76.2394 136.649L75.0957 136.719ZM79.9419 139.576L78.9213 143.042L77.5459 139.724L79.9419 139.576Z" fill="currentColor"/>
<path d="M71.9056 140.533L73.9252 144.325L75.1346 144.385L72.464 139.66L72.6194 136.567L71.5814 136.516L71.4261 139.608L68.2961 144.042L69.5162 144.103L71.9056 140.533Z" fill="currentColor"/>
<path d="M57.2759 142.029L60.8886 136.152L61.5422 143.03L62.6688 143.294L61.6905 135.174L60.6161 134.922L56.1389 141.762L57.2759 142.029Z" fill="currentColor"/>
<path d="M55.3618 133.414L52.9353 140.703L53.9316 141.035L56.358 133.746L55.3618 133.414Z" fill="currentColor"/>
<path d="M47.2496 138.506L50.0929 139.759L53.1908 132.729L50.3573 131.481C49.1513 130.949 48.065 131.102 47.1038 131.955C46.5516 132.437 46.1206 133.044 45.7879 133.799C45.3645 134.76 45.2498 135.658 45.4482 136.483C45.6851 137.407 46.279 138.078 47.2496 138.506ZM50.1752 132.372L51.8811 133.124L49.5005 138.526L47.8043 137.778C47.0395 137.442 46.5887 136.95 46.4573 136.319C46.316 135.683 46.4474 134.933 46.832 134.06C46.9313 133.834 47.059 133.598 47.2246 133.355C47.5019 132.938 47.8088 132.64 48.1161 132.448C48.5112 132.189 48.9188 132.087 49.3378 132.12C49.5739 132.142 49.8614 132.234 50.1752 132.372Z" fill="currentColor"/>
<path d="M37.5802 132.259L37.0947 133.067L41.8982 135.952L45.8541 129.367L40.9771 126.438L40.5082 127.218L44.5126 129.624L43.1664 131.864L39.5293 129.68L39.0714 130.442L42.7085 132.627L41.5112 134.62L37.5802 132.259Z" fill="currentColor"/>
<path d="M30.5903 126.811C30.5608 127.897 31.0748 128.868 32.1307 129.71C33.1447 130.517 34.2162 130.754 35.3232 130.431C36.1861 130.173 36.9413 129.637 37.5888 128.824C38.3031 127.928 38.6627 126.995 38.659 126.019C38.6116 124.995 38.1379 124.111 37.2077 123.37C36.2189 122.582 35.1758 122.327 34.0854 122.595C33.1589 122.83 32.3385 123.395 31.6242 124.292C30.9633 125.122 30.6237 125.961 30.5903 126.811ZM34.3534 123.549C35.0875 123.298 35.814 123.452 36.5264 124.02C37.289 124.627 37.6534 125.287 37.6215 126.015C37.5962 126.734 37.3165 127.429 36.7825 128.1C36.1216 128.929 35.4282 129.405 34.6938 129.518C33.9595 129.632 33.2898 129.441 32.6613 128.94C32.0244 128.432 31.6884 127.822 31.6584 127.087C31.6301 126.365 31.8997 125.649 32.4605 124.944C32.9945 124.274 33.6277 123.806 34.3534 123.549Z" fill="currentColor"/>
<path d="M26.8891 117.367L26.1655 118.021L27.9249 119.969L28.6485 119.315L26.8891 117.367Z" fill="currentColor"/>
<path d="M16.8148 112.635L18.7151 115.527L25.1353 111.309L24.5588 110.431L21.8456 112.214L20.5218 110.2C20.0982 109.555 19.5924 109.195 19.0104 109.128C18.4374 109.056 17.8986 109.193 17.3972 109.522C16.8151 109.904 16.4792 110.368 16.3833 110.944C16.2993 111.499 16.4382 112.062 16.8148 112.635ZM17.3628 111.557C17.3035 111.096 17.5081 110.705 17.9827 110.393C18.4036 110.117 18.7725 110.054 19.1015 110.184C19.4215 110.32 19.7228 110.583 19.9758 110.968L21.1114 112.697L18.8818 114.161L17.7462 112.434C17.5226 112.093 17.3968 111.804 17.3628 111.557Z" fill="currentColor"/>
<path d="M19.8775 104.542L13.8542 107.635L14.3291 108.56L21.1624 105.05L18.9056 100.656L18.0956 101.072L19.8775 104.542Z" fill="currentColor"/>
<path d="M16.4069 94.4453L10.314 99.8909L10.7526 100.984L18.9596 100.81L18.5647 99.8252L16.1156 99.9069L14.9828 97.083L16.8337 95.5094L16.4069 94.4453ZM15.2184 99.9437L11.6073 100.064L14.3249 97.7165L15.2184 99.9437Z" fill="currentColor"/>
<path d="M11.8397 92.7893L8.87142 95.8951L9.19251 97.0623L12.8439 93.0464L15.8295 92.2254L15.5539 91.223L12.5683 92.0446L7.37671 90.4609L7.70068 91.6388L11.8397 92.7893Z" fill="currentColor"/>
<path d="M5.83172 79.421L12.5451 81.008L6.21992 83.7864L6.32242 84.9388L13.7257 81.4621L13.628 80.3632L5.72827 78.2578L5.83172 79.421Z" fill="currentColor"/>
<path d="M13.399 74.6708L5.71694 74.6406L5.71289 75.6906L13.395 75.7208L13.399 74.6708Z" fill="currentColor"/>
<path d="M6.00219 68.6485L5.70312 71.7415L13.3496 72.4808L13.6476 69.3985C13.7745 68.0873 13.2883 67.1036 12.1774 66.4579C11.5462 66.0846 10.8354 65.8652 10.0142 65.7858C8.9691 65.6848 8.08048 65.8571 7.35915 66.3041C6.55592 66.8185 6.10428 67.5931 6.00219 68.6485ZM12.7439 69.5049L12.5645 71.3605L6.68832 70.7927L6.86669 68.9478C6.94718 68.1154 7.27256 67.5335 7.83118 67.2107C8.39086 66.8775 9.14428 66.7673 10.0934 66.8591C10.3387 66.8828 10.6032 66.93 10.886 67.0112C11.3684 67.1438 11.7475 67.342 12.0265 67.5737C12.3963 67.8677 12.6203 68.2232 12.7208 68.6311C12.7738 68.8621 12.7769 69.1641 12.7439 69.5049Z" fill="currentColor"/>
<path d="M8.89241 57.4349L7.97286 57.2266L6.73462 62.6916L14.2269 64.3892L15.484 58.8405L14.5958 58.6393L13.5636 63.1952L11.0139 62.6175L11.9515 58.4795L11.0842 58.2831L10.1466 62.421L7.87911 61.9072L8.89241 57.4349Z" fill="currentColor"/>
<path d="M11.8955 48.9976C10.8546 49.3085 10.0925 50.1 9.6229 51.3657C9.17203 52.5813 9.28124 53.6731 9.93421 54.6238C10.4485 55.3632 11.1928 55.9136 12.1672 56.275C13.2421 56.6737 14.2405 56.7241 15.1661 56.4161C16.1241 56.0515 16.8163 55.3255 17.2299 54.2104C17.6696 53.0251 17.5868 51.9544 16.9915 51.0022C16.4795 50.1952 15.686 49.5923 14.6112 49.1936C13.6167 48.8247 12.7136 48.764 11.8955 48.9976ZM16.1696 51.5544C16.637 52.1735 16.7174 52.9118 16.4007 53.7657C16.0616 54.6798 15.5481 55.2321 14.8466 55.429C14.155 55.6296 13.4075 55.5809 12.6039 55.2828C11.6094 54.9139 10.9417 54.4033 10.6045 53.7412C10.2673 53.079 10.2398 52.3831 10.5192 51.6296C10.8024 50.8662 11.2771 50.3566 11.9672 50.0984C12.6435 49.8464 13.4085 49.8788 14.2523 50.1918C15.056 50.4899 15.6984 50.9453 16.1696 51.5544Z" fill="currentColor"/>
<path d="M19.6132 42.71L18.7666 42.2266L17.4648 44.5061L18.3115 44.9895L19.6132 42.71Z" fill="currentColor"/>
<path d="M21.1585 31.39L18.9924 34.089L24.9837 38.8974L25.6408 38.0786L23.109 36.0466L24.6179 34.1665C25.1008 33.5648 25.2874 32.9728 25.1712 32.3987C25.0633 31.8313 24.7679 31.3606 24.3 30.985C23.7568 30.5491 23.2116 30.3726 22.6342 30.4587C22.0802 30.5498 21.5878 30.8553 21.1585 31.39ZM22.353 31.5793C22.7733 31.3809 23.2082 31.4552 23.6511 31.8106C24.0438 32.1258 24.2173 32.4574 24.195 32.8104C24.1644 33.1568 24.0065 33.5247 23.7181 33.8839L22.4238 35.4966L20.3432 33.8268L21.6375 32.2141C21.8923 31.8966 22.1286 31.6878 22.353 31.5793Z" fill="currentColor"/>
<path d="M29.5741 32.0344L24.7513 27.2812L24.0217 28.0214L29.4932 33.4139L32.9603 29.896L32.3117 29.2568L29.5741 32.0344Z" fill="currentColor"/>
<path d="M38.139 25.516L31.0669 21.4219L30.1641 22.1795L32.8862 29.9238L33.6987 29.242L32.8582 26.9401L35.1891 24.9842L37.2607 26.2529L38.139 25.516ZM32.5438 26.0989L31.3045 22.7051L34.3823 24.5562L32.5438 26.0989Z" fill="currentColor"/>
<path d="M38.1901 20.6878L34.3079 18.8479L33.301 19.5202L38.2621 21.7218L39.9813 24.2971L40.8457 23.72L39.1264 21.1448L38.9951 15.7188L37.9792 16.3969L38.1901 20.6878Z" fill="currentColor"/>
<path d="M49.0891 10.6973L49.6875 17.5697L45.066 12.4345L44.0037 12.8932L49.6261 18.8331L50.6393 18.3957L50.1613 10.2344L49.0891 10.6973Z" fill="currentColor"/>
<path d="M55.6768 16.4855L53.2778 9.1875L52.2803 9.51536L54.6793 16.8133L55.6768 16.4855Z" fill="currentColor"/>
<path d="M59.0338 7.5591L56.0034 8.24575L57.701 15.738L60.7209 15.0537C62.0062 14.7625 62.7875 13.9922 63.0518 12.7349C63.2081 12.0184 63.1934 11.2746 63.0111 10.47C62.779 9.44602 62.3365 8.65644 61.6858 8.11176C60.9453 7.51048 60.0682 7.32472 59.0338 7.5591ZM60.3363 14.229L58.5181 14.641L57.2135 8.88338L59.0213 8.47376C59.8363 8.28908 60.4912 8.41537 60.9729 8.84454C61.4651 9.27131 61.8061 9.95207 62.0168 10.8821C62.0713 11.1224 62.1096 11.3884 62.1212 11.6824C62.1465 12.182 62.0774 12.6041 61.9452 12.9417C61.782 13.3851 61.5149 13.7093 61.159 13.9328C60.9562 14.0556 60.6707 14.1533 60.3363 14.229Z" fill="currentColor"/>
<path d="M70.6715 6.75096L70.5805 5.8125L65.0029 6.35184L65.7424 13.9983L71.4055 13.4507L71.3177 12.5442L66.6678 12.9938L66.4162 10.3917L70.6394 9.98332L70.5537 9.09819L66.3306 9.50654L66.1068 7.19232L70.6715 6.75096Z" fill="currentColor"/>
<path d="M79.6446 6.92181C79.0212 6.03178 78.0301 5.55778 76.6808 5.5109C75.3857 5.46588 74.3832 5.9135 73.6868 6.83274C73.147 7.55368 72.8591 8.43353 72.8229 9.47221C72.7834 10.6179 73.0499 11.5813 73.6339 12.3628C74.2821 13.1572 75.1888 13.5854 76.3774 13.6267C77.641 13.6706 78.6308 13.2548 79.3473 12.3898C79.952 11.6496 80.2741 10.7067 80.3143 9.56094C80.3511 8.50089 80.1241 7.6246 79.6446 6.92181ZM78.5645 11.7837C78.1239 12.4223 77.4488 12.7312 76.5381 12.6996C75.5638 12.6657 74.8781 12.3524 74.4702 11.7486C74.0618 11.1555 73.8729 10.4306 73.9024 9.574C73.9392 8.51395 74.2138 7.71942 74.7354 7.1908C75.2578 6.66218 75.91 6.41681 76.7129 6.44472C77.5265 6.47299 78.16 6.76303 78.6221 7.33658C79.0748 7.89902 79.285 8.63536 79.2535 9.53482C79.2241 10.3914 78.9937 11.1446 78.5645 11.7837Z" fill="currentColor"/>
<path d="M88.346 12.2895L88.5395 11.3339L85.9674 10.8125L85.7732 11.7681L88.346 12.2895Z" fill="currentColor"/>
<path d="M99.219 10.063L95.9746 8.85938L93.3027 16.0619L94.2871 16.4271L95.4161 13.3833L97.6768 14.2218C98.4 14.4901 99.0208 14.4804 99.5284 14.1889C100.033 13.9074 100.386 13.4786 100.595 12.916C100.837 12.263 100.833 11.69 100.569 11.1692C100.307 10.6723 99.8618 10.3015 99.219 10.063ZM99.4165 11.2561C99.7373 11.5923 99.8042 12.0285 99.6067 12.5609C99.4319 13.033 99.1721 13.3023 98.8299 13.3925C98.4918 13.4727 98.0926 13.4391 97.6607 13.2788L95.7221 12.5596L96.6496 10.0583L98.5882 10.7775C98.9699 10.9191 99.2431 11.0774 99.4165 11.2561Z" fill="currentColor"/>
<path d="M101.815 18.4906L104.842 12.4333L103.912 11.9688L100.479 18.8407L104.897 21.0486L105.304 20.2339L101.815 18.4906Z" fill="currentColor"/>
<path d="M110.741 24.6775L112.456 16.6879L111.457 16.0625L104.928 21.039L105.828 21.6019L107.758 20.0927L110.337 21.7073L109.769 24.0692L110.741 24.6775ZM108.461 19.5345L111.308 17.3094L110.496 20.8079L108.461 19.5345Z" fill="currentColor"/>
<path d="M115.353 23.2688L115.908 19.0087L114.958 18.2578L114.392 23.6558L112.471 26.0847L113.287 26.7293L115.207 24.3004L120.329 22.5041L119.371 21.7465L115.353 23.2688Z" fill="currentColor"/>
<path d="M128.101 30.4481L121.755 33.1525L125.2 27.1641L124.434 26.2969L120.535 33.4869L121.266 34.314L128.875 31.3233L128.101 30.4481Z" fill="currentColor"/>
<path d="M124.572 38.4088L130.751 33.8446L130.127 33L123.948 37.5642L124.572 38.4088Z" fill="currentColor"/>
<path d="M134.198 38.9604L132.598 36.2969L126.013 40.2527L127.607 42.9071C128.285 44.0368 129.262 44.5379 130.539 44.3958C131.268 44.32 131.97 44.0735 132.677 43.6486C133.577 43.108 134.189 42.4406 134.502 41.6522C134.842 40.7608 134.744 39.8697 134.198 38.9604ZM128.27 42.2838L127.31 40.6857L132.371 37.6457L133.325 39.2346C133.756 39.9511 133.841 40.6125 133.584 41.2043C133.332 41.8053 132.792 42.3421 131.974 42.8331C131.764 42.96 131.523 43.0796 131.247 43.1826C130.781 43.363 130.358 43.4293 129.996 43.4093C129.524 43.393 129.133 43.2408 128.809 42.9726C128.629 42.8183 128.447 42.5777 128.27 42.2838Z" fill="currentColor"/>
<path d="M138.559 49.6955L139.422 49.3153L137.162 44.1875L130.132 47.2854L132.427 52.4916L133.26 52.1243L131.377 47.8496L133.768 46.7954L135.479 50.6779L136.293 50.3194L134.582 46.4368L136.71 45.4992L138.559 49.6955Z" fill="currentColor"/>
<path d="M141.165 58.2124C141.815 57.3422 141.955 56.2523 141.577 54.9562C141.214 53.7116 140.476 52.9002 139.385 52.5262C138.531 52.2393 137.605 52.2413 136.607 52.5321C135.507 52.8528 134.675 53.4077 134.116 54.2068C133.564 55.0707 133.441 56.0662 133.774 57.208C134.127 58.4218 134.833 59.232 135.878 59.6415C136.771 59.9841 137.767 59.995 138.867 59.6743C139.886 59.3775 140.647 58.8878 141.165 58.2124ZM136.209 58.7081C135.465 58.4898 134.96 57.945 134.705 57.0706C134.432 56.1346 134.515 55.3851 134.96 54.8087C135.396 54.2354 136.025 53.8288 136.848 53.589C137.867 53.2922 138.707 53.304 139.373 53.6345C140.038 53.9651 140.475 54.5073 140.7 55.2788C140.928 56.0606 140.851 56.7527 140.451 57.3714C140.058 57.9769 139.424 58.4071 138.561 58.6589C137.738 58.8988 136.95 58.9161 136.209 58.7081Z" fill="currentColor"/>
<path d="M138.733 67.9726L139.7 67.8561L139.388 65.25L138.42 65.3662L138.733 67.9726Z" fill="currentColor"/>
</svg>
