<svg width="170" height="170" viewBox="0 0 170 170" fill="none" xmlns="http://www.w3.org/2000/svg">
<path d="M151.825 104.701L152.341 103.323C151.193 102.876 150.139 102.908 149.163 103.414C148.209 103.911 147.471 104.831 146.972 106.165C146.54 107.318 146.419 108.418 146.603 109.478C146.793 110.522 147.484 111.277 148.683 111.725C149.642 112.084 150.49 112.009 151.252 111.525C151.688 111.227 152.121 110.757 152.56 110.085L153.466 108.715C154.087 107.786 154.523 107.215 154.785 106.971C155.188 106.626 155.656 106.562 156.18 106.759C156.66 106.938 157.012 107.275 157.231 107.784C157.451 108.293 157.395 108.99 157.075 109.844C156.683 110.893 156.127 111.556 155.389 111.793C155 111.92 154.494 111.902 153.897 111.764L153.386 113.127C154.57 113.57 155.6 113.512 156.431 112.935C157.268 112.342 157.896 111.484 158.317 110.36C158.777 109.132 158.831 108.075 158.454 107.166C158.086 106.276 157.421 105.634 156.462 105.275C155.563 104.939 154.76 105.031 154.052 105.552C153.652 105.846 153.159 106.431 152.596 107.296L151.717 108.641C151.245 109.353 150.817 109.859 150.437 110.144C150.048 110.408 149.561 110.431 148.976 110.212C148.197 109.92 147.815 109.299 147.846 108.303C147.844 107.806 147.96 107.269 148.162 106.73C148.621 105.501 149.295 104.796 150.185 104.565C150.67 104.457 151.215 104.507 151.825 104.701Z" fill="currentColor"/>
<path d="M146.829 118.607L152.804 122.42L153.656 121.085L148.221 117.616C147.034 116.858 146.013 116.435 145.173 116.354C143.629 116.185 142.344 116.921 141.302 118.553C140.26 120.185 140.126 121.674 140.929 123.003C141.356 123.731 142.17 124.479 143.357 125.236L148.792 128.705L149.645 127.37L143.67 123.557C142.968 123.109 142.476 122.662 142.204 122.165C141.698 121.292 141.803 120.296 142.517 119.177C143.103 118.259 143.875 117.822 144.826 117.879C145.47 117.91 146.128 118.159 146.829 118.607Z" fill="currentColor"/>
<path d="M141.149 138.116L144.591 134.589L136.381 126.576L132.995 130.045C131.944 131.122 131.494 132.225 131.654 133.343C131.765 134.1 132.067 134.73 132.594 135.244C133.235 135.87 133.906 136.167 134.619 136.147C135.015 136.131 135.511 135.989 136.085 135.722C135.954 136.153 135.891 136.539 135.917 136.855C135.959 137.477 136.248 138.028 136.775 138.542C137.21 138.967 137.711 139.232 138.289 139.327C139.264 139.474 140.21 139.078 141.149 138.116ZM138.082 134.317L140.06 132.291L142.602 134.772L140.668 136.753C140.188 137.245 139.784 137.567 139.446 137.706C138.827 137.952 138.26 137.823 137.722 137.297C137.184 136.772 137.018 136.208 137.214 135.595C137.346 135.209 137.623 134.787 138.082 134.317ZM133.934 130.985L136.27 128.591L139.155 131.408L136.998 133.618C136.551 134.076 136.137 134.409 135.731 134.572C135 134.886 134.331 134.77 133.735 134.189C133.38 133.843 133.172 133.46 133.099 133.031C132.989 132.342 133.263 131.672 133.934 130.985Z" fill="currentColor"/>
<path d="M128.277 139.611L129.495 138.784C128.816 137.756 127.937 137.173 126.848 137.022C125.782 136.875 124.649 137.2 123.47 138C122.451 138.692 121.717 139.519 121.254 140.49C120.805 141.452 120.934 142.467 121.652 143.526C122.227 144.374 122.963 144.802 123.864 144.848C124.393 144.857 125.017 144.723 125.765 144.429L127.295 143.835C128.339 143.435 129.025 143.221 129.38 143.174C129.908 143.125 130.327 143.344 130.641 143.807C130.929 144.231 131.021 144.709 130.906 145.251C130.791 145.794 130.343 146.33 129.588 146.842C128.661 147.471 127.824 147.691 127.086 147.458C126.694 147.337 126.292 147.029 125.885 146.571L124.68 147.389C125.39 148.435 126.264 148.982 127.276 148.991C128.301 148.992 129.31 148.655 130.303 147.981C131.389 147.244 132.043 146.414 132.261 145.453C132.475 144.515 132.304 143.607 131.729 142.759C131.189 141.965 130.481 141.576 129.602 141.592C129.105 141.601 128.366 141.793 127.406 142.174L125.911 142.763C125.114 143.072 124.472 143.237 123.998 143.25C123.527 143.24 123.117 142.977 122.766 142.461C122.299 141.773 122.346 141.044 122.948 140.249C123.233 139.843 123.638 139.472 124.115 139.148C125.2 138.411 126.157 138.226 127.016 138.552C127.475 138.743 127.891 139.099 128.277 139.611Z" fill="currentColor"/>
<path d="M112.604 156.294C113.637 156.698 114.834 156.618 116.179 156.061C117.746 155.412 118.761 154.351 119.195 152.89C119.613 151.556 119.494 150.099 118.845 148.532C117.994 146.477 116.816 145.181 115.298 144.65C114.164 144.253 112.97 144.298 111.728 144.812C110.309 145.4 109.36 146.329 108.897 147.595C108.5 148.643 108.472 149.745 108.819 150.918L110.223 150.336C110.062 149.571 110.051 148.918 110.17 148.367C110.395 147.321 111.028 146.591 112.092 146.151C113.23 145.679 114.262 145.702 115.162 146.247C116.057 146.777 116.769 147.66 117.284 148.901C117.908 150.409 118.048 151.667 117.719 152.67C117.368 153.663 116.679 154.382 115.644 154.811C114.786 155.166 114.042 155.249 113.388 155.052C112.765 154.842 112.213 154.43 111.769 153.818L110.379 154.393C110.827 155.264 111.571 155.891 112.604 156.294Z" fill="currentColor"/>
<path d="M99.712 160.862L104.939 159.914L102.893 148.626L101.365 148.903L102.244 153.752L98.7652 154.383C98.1354 154.497 97.6646 154.501 97.3398 154.413C96.7903 154.253 96.4342 153.813 96.2529 153.082L95.8188 151.226C95.7231 150.788 95.6374 150.494 95.5774 150.342C95.5174 150.191 95.4631 150.07 95.3987 149.985L93.5095 150.327L93.5552 150.579C93.8242 150.628 94.0244 150.835 94.1845 151.18C94.2689 151.376 94.376 151.698 94.4531 152.124L94.79 153.624C94.9256 154.282 95.1372 154.731 95.4118 154.991C95.6993 155.231 96.0728 155.407 96.5478 155.516C96.0897 155.86 95.7589 156.277 95.5526 156.754C95.3648 157.243 95.323 157.82 95.4458 158.497C95.6798 159.788 96.362 160.591 97.5181 160.869C98.1148 161.021 98.8461 161.019 99.712 160.862ZM98.9334 155.669L102.476 155.027L103.175 158.884L99.4436 159.561C98.9084 159.658 98.4848 159.653 98.1414 159.553C97.5075 159.375 97.1085 158.878 96.9629 158.075C96.8259 157.32 96.9522 156.76 97.3101 156.403C97.6838 156.042 98.2249 155.798 98.9334 155.669Z" fill="currentColor"/>
<path d="M86.8773 150.77L87.0838 162.241L88.6515 162.212L88.445 150.742L86.8773 150.77Z" fill="currentColor"/>
<path d="M75.7296 161.7L80.6104 162.381L82.194 151.018L77.3924 150.349C75.9028 150.142 74.7475 150.433 73.9424 151.225C73.399 151.764 73.0707 152.38 72.9691 153.109C72.8454 153.996 73.004 154.713 73.4426 155.275C73.6903 155.584 74.0987 155.9 74.6541 156.203C74.2292 156.354 73.8814 156.532 73.6422 156.741C73.1662 157.143 72.8943 157.703 72.7927 158.432C72.7087 159.034 72.7921 159.595 73.0586 160.117C73.5187 160.988 74.3984 161.515 75.7296 161.7ZM76.9693 156.978L79.7742 157.369L79.2839 160.887L76.5424 160.505C75.8609 160.41 75.3627 160.276 75.0498 160.087C74.4851 159.734 74.2525 159.201 74.3563 158.456C74.4601 157.711 74.816 157.244 75.4263 157.038C75.8151 156.914 76.3196 156.888 76.9693 156.978ZM77.1932 151.662L80.5052 152.124L79.9487 156.117L76.8902 155.691C76.2563 155.603 75.7422 155.466 75.3704 155.237C74.6834 154.834 74.3803 154.227 74.4952 153.403C74.5637 152.911 74.7479 152.517 75.05 152.204C75.5393 151.706 76.2424 151.53 77.1932 151.662Z" fill="currentColor"/>
<path d="M57.4746 155.689L57.0065 157.017L64.8984 159.8L68.7127 148.98L60.7001 146.156L60.2479 147.438L66.827 149.758L65.529 153.439L59.5534 151.333L59.1119 152.585L65.0874 154.692L63.933 157.966L57.4746 155.689Z" fill="currentColor"/>
<path d="M40.9514 147.053L42.6882 147.532L41.6845 148.959L42.4303 149.483L43.4433 148.044L44.458 149.521L45.2262 148.986L44.1261 147.546L45.85 146.96L45.5311 146.05L43.8058 146.695L43.8432 144.863L42.8929 144.879L42.9093 146.69L41.1962 146.15L40.9514 147.053Z" fill="currentColor"/>
<path d="M34.4641 132.877L35.394 134.018C36.3591 133.252 36.863 132.326 36.9181 131.228C36.9709 130.153 36.5486 129.053 35.6491 127.949C34.8708 126.994 33.9828 126.334 32.9748 125.959C31.977 125.595 30.9769 125.812 29.9846 126.62C29.1908 127.267 28.8279 128.038 28.8611 128.939C28.8983 129.466 29.0862 130.077 29.4451 130.796L30.1705 132.269C30.6594 133.274 30.9327 133.938 31.0109 134.288C31.1055 134.809 30.9245 135.245 30.4904 135.599C30.0935 135.923 29.6249 136.057 29.0746 135.989C28.5242 135.922 27.9509 135.522 27.3747 134.815C26.6672 133.947 26.375 133.132 26.5431 132.376C26.6295 131.976 26.9005 131.548 27.3213 131.102L26.4015 129.974C25.4216 130.772 24.9526 131.691 25.0317 132.7C25.1209 133.721 25.5445 134.697 26.3025 135.627C27.1313 136.644 28.0162 137.223 28.9919 137.357C29.9452 137.488 30.835 137.238 31.6289 136.591C32.373 135.985 32.6987 135.244 32.6059 134.371C32.554 133.876 32.2976 133.157 31.8345 132.234L31.1168 130.796C30.7401 130.029 30.5195 129.404 30.4653 128.932C30.4336 128.463 30.6596 128.031 31.1433 127.637C31.7883 127.111 32.5178 127.095 33.3622 127.624C33.7917 127.873 34.1974 128.244 34.5613 128.691C35.3901 129.708 35.6584 130.645 35.409 131.529C35.2583 132.003 34.94 132.448 34.4641 132.877Z" fill="currentColor"/>
<path d="M25.086 121.699L18.7989 124.972L19.5304 126.377L25.2498 123.4C26.4986 122.749 27.375 122.077 27.8647 121.389C28.7817 120.136 28.7861 118.654 27.8922 116.937C26.9982 115.22 25.7747 114.36 24.2223 114.392C23.3779 114.399 22.3242 114.731 21.0753 115.381L15.356 118.359L16.0874 119.764L22.3744 116.491C23.1124 116.106 23.746 115.903 24.3116 115.915C25.3206 115.913 26.1317 116.501 26.7449 117.679C27.2474 118.644 27.2404 119.531 26.7167 120.327C26.3677 120.869 25.824 121.315 25.086 121.699Z" fill="currentColor"/>
<path d="M10.9835 106.912L12.3064 111.659L23.3573 108.579L22.0558 103.909C21.6521 102.46 20.9242 101.517 19.8764 101.095C19.1661 100.811 18.4698 100.756 17.7608 100.954C16.8977 101.194 16.3036 101.626 15.9633 102.252C15.7786 102.602 15.6523 103.103 15.5954 103.733C15.2877 103.404 14.986 103.155 14.6989 103.019C14.1403 102.743 13.5185 102.717 12.8095 102.915C12.2238 103.078 11.7427 103.378 11.3706 103.831C10.7546 104.6 10.6227 105.617 10.9835 106.912ZM15.8081 106.165L16.5684 108.893L13.1468 109.847L12.4037 107.18C12.219 106.518 12.1432 106.007 12.1917 105.645C12.2905 104.986 12.6867 104.56 13.4111 104.358C14.1355 104.156 14.706 104.296 15.1381 104.774C15.4064 105.081 15.632 105.533 15.8081 106.165ZM20.7723 104.25L21.67 107.471L17.786 108.554L16.957 105.579C16.7852 104.963 16.7051 104.437 16.7673 104.004C16.8625 103.214 17.2989 102.694 18.1003 102.47C18.5781 102.337 19.0132 102.349 19.421 102.501C20.0722 102.751 20.5146 103.325 20.7723 104.25Z" fill="currentColor"/>
<path d="M16.1385 95.0962L16.2427 96.5645C17.4728 96.4932 18.418 96.0251 19.0944 95.1591C19.7559 94.3101 20.0437 93.1668 19.9429 91.7464C19.8557 90.5175 19.5084 89.4675 18.9001 88.5803C18.2929 87.7091 17.3503 87.3108 16.0736 87.4015C15.0521 87.474 14.3121 87.8954 13.8204 88.6521C13.5478 89.1046 13.3503 89.7121 13.2303 90.5066L12.9765 92.1286C12.7981 93.232 12.6394 93.933 12.5024 94.2635C12.2799 94.7445 11.8808 94.9974 11.3222 95.037C10.8115 95.0733 10.351 94.9135 9.93969 94.5417C9.52833 94.1698 9.28923 93.5131 9.22466 92.6034C9.14537 91.4862 9.37488 90.6519 9.94737 90.13C10.2484 89.852 10.7159 89.6584 11.3167 89.5356L11.2136 88.0833C9.9528 88.1727 9.04063 88.6545 8.52498 89.5252C8.01046 90.4119 7.79568 91.4537 7.88064 92.6507C7.97353 93.9594 8.36409 94.9422 9.08538 95.6128C9.78958 96.2686 10.6615 96.5757 11.6829 96.5032C12.6405 96.4352 13.3327 96.0171 13.7593 95.249C14.0012 94.8148 14.2056 94.0785 14.3577 93.0571L14.5978 91.4682C14.7304 90.6246 14.9096 89.9864 15.1367 89.5692C15.3808 89.1669 15.8141 88.9437 16.4365 88.8995C17.2664 88.8406 17.8727 89.2467 18.2587 90.1657C18.4672 90.6161 18.5855 91.153 18.6263 91.7276C18.7191 93.0363 18.3995 93.9572 17.6868 94.5372C17.2911 94.8379 16.7746 95.0189 16.1385 95.0962Z" fill="currentColor"/>
<path d="M9.55151 73.377C8.68308 74.0667 8.15006 75.1409 7.95462 76.5837C7.72695 78.2643 8.13318 79.6756 9.1776 80.7859C10.1196 81.8177 11.4389 82.4485 13.1195 82.6761C15.3234 82.9747 17.036 82.6092 18.2593 81.564C19.1724 80.7835 19.735 79.7295 19.9154 78.3976C20.1216 76.8755 19.7954 75.5881 18.9348 74.5512C18.2293 73.6806 17.2906 73.1014 16.1027 72.8113L15.8987 74.3175C16.6404 74.5633 17.2107 74.8828 17.6276 75.2622C18.418 75.9828 18.7301 76.897 18.5754 78.0385C18.4101 79.2594 17.8711 80.139 16.947 80.6435C16.0388 81.1502 14.9177 81.3212 13.5859 81.1408C11.9686 80.9218 10.8109 80.4097 10.1105 79.6206C9.42807 78.8177 9.15411 77.8602 9.30446 76.7504C9.42902 75.8308 9.73179 75.1452 10.2308 74.68C10.7254 74.2465 11.3593 73.9771 12.1123 73.9015L12.3142 72.4111C11.3363 72.3594 10.42 72.6873 9.55151 73.377Z" fill="currentColor"/>
<path d="M12.1412 59.6016L10.3172 64.5906L21.0917 68.5297L21.6246 67.0721L16.9962 65.3799L18.2104 62.0589C18.4301 61.4578 18.6646 61.0495 18.9042 60.8134C19.3205 60.4205 19.8797 60.3353 20.6025 60.5485L22.4237 61.1121C22.8499 61.2509 23.1464 61.3252 23.3077 61.3501C23.4689 61.375 23.6002 61.3889 23.7068 61.3767L24.3661 59.5735L24.1256 59.4856C23.9476 59.693 23.6672 59.7609 23.2886 59.7247C23.0768 59.6984 22.7447 59.6281 22.339 59.4797L20.8744 59.0124C20.2378 58.7967 19.743 58.7521 19.3806 58.8581C19.0277 58.9847 18.6869 59.2178 18.3527 59.5726C18.2881 59.0039 18.0949 58.5073 17.788 58.0885C17.4606 57.6792 16.9841 57.3517 16.338 57.1154C15.1057 56.665 14.0679 56.8477 13.2435 57.7047C12.8108 58.1428 12.4433 58.7751 12.1412 59.6016ZM17.0152 61.5538L15.779 64.9349L12.0974 63.5889L13.3994 60.0275C13.5862 59.5166 13.8042 59.1533 14.0643 58.9077C14.5381 58.4506 15.1684 58.3574 15.9348 58.6376C16.6561 58.9013 17.0751 59.2929 17.2028 59.7825C17.3249 60.2872 17.2624 60.8776 17.0152 61.5538Z" fill="currentColor"/>
<path d="M27.2973 53.6002L17.2921 47.9873L16.525 49.3548L26.5301 54.9677L27.2973 53.6002Z" fill="currentColor"/>
<path d="M23.435 38.4672L20.3915 42.343L29.4142 49.428L32.4083 45.6151C33.3371 44.4322 33.6666 43.2872 33.3868 42.1928C33.1952 41.4523 32.8275 40.8584 32.2486 40.4039C31.5439 39.8505 30.8447 39.627 30.1384 39.7233C29.7466 39.7818 29.2686 39.9761 28.7268 40.3034C28.8102 39.8603 28.8317 39.4703 28.7714 39.1585C28.6634 38.5447 28.3163 38.0281 27.7375 37.5735C27.2593 37.1981 26.7326 36.9879 26.1476 36.9557C25.1626 36.9147 24.265 37.4101 23.435 38.4672ZM26.8922 41.9143L25.1432 44.1416L22.3495 41.9479L24.059 39.7709C24.4839 39.2298 24.8505 38.8666 25.1712 38.6913C25.7607 38.3811 26.3385 38.4483 26.93 38.9128C27.5214 39.3772 27.7462 39.9199 27.617 40.5508C27.5282 40.9489 27.2973 41.3983 26.8922 41.9143ZM31.3737 44.7824L29.3085 47.4124L26.1373 44.9223L28.0444 42.4936C28.4397 41.9902 28.8161 41.6145 29.2016 41.4086C29.8952 41.0174 30.5728 41.0613 31.2272 41.5751C31.6173 41.8814 31.8654 42.239 31.9842 42.6578C32.1677 43.3308 31.9666 44.0273 31.3737 44.7824Z" fill="currentColor"/>
<path d="M37.4723 25.9925L36.5592 24.9208L30.1898 30.348L37.6301 39.08L44.0969 33.5698L43.2149 32.5347L37.905 37.059L35.373 34.0875L40.1957 29.9782L39.3344 28.9673L34.5117 33.0766L32.2599 30.4339L37.4723 25.9925Z" fill="currentColor"/>
<path d="M53.3105 15.9126L52.0258 17.1757L51.2945 15.5925L50.4665 15.9749L51.2046 17.5727L49.4177 17.7107L49.4962 18.6438L51.2931 18.413L50.9372 20.1989L51.8837 20.3785L52.1905 18.5625L53.7575 19.513L54.2199 18.6825L52.6439 17.789L53.97 16.5773L53.3105 15.9126Z" fill="currentColor"/>
<path d="M68.6398 17.3498L67.1867 17.5854C67.3681 18.8041 67.9191 19.7035 68.8424 20.2994C69.7473 20.8821 70.9118 21.0661 72.3174 20.8383C73.5335 20.6411 74.5482 20.2011 75.3772 19.5156C76.1904 18.8326 76.5024 17.8581 76.2976 16.5946C76.1337 15.5838 75.6476 14.8846 74.8498 14.4628C74.3747 14.2319 73.7519 14.0897 72.9499 14.0415L71.3116 13.9342C70.1966 13.8557 69.4842 13.7604 69.1427 13.6537C68.6438 13.4753 68.3561 13.1005 68.2664 12.5477C68.1845 12.0423 68.3023 11.5693 68.6357 11.1263C68.9691 10.6832 69.6017 10.3861 70.502 10.2402C71.6076 10.061 72.4591 10.2147 73.0302 10.738C73.3341 11.0129 73.5689 11.4611 73.7452 12.0485L75.1824 11.8155C74.9801 10.5678 74.4184 9.70251 73.505 9.26708C72.5757 8.83422 71.5188 8.7138 70.3343 8.90584C69.0392 9.1158 68.0954 9.59299 67.4922 10.3716C66.9023 11.1318 66.6747 12.0277 66.8386 13.0385C66.9922 13.9862 67.4707 14.638 68.274 14.994C68.7282 15.1959 69.4799 15.3334 70.5107 15.3932L72.1149 15.4897C72.9669 15.5461 73.6187 15.6674 74.0545 15.8561C74.4771 16.0631 74.7383 16.4746 74.8382 17.0906C74.9713 17.9118 74.6213 18.5521 73.7406 19.0191C73.3108 19.267 72.7866 19.4331 72.218 19.5252C70.9229 19.7352 69.977 19.4995 69.3355 18.8417C69.0004 18.4746 68.7738 17.9765 68.6398 17.3498Z" fill="currentColor"/>
<path d="M83.5045 14.7442L83.8617 7.66519L82.2797 7.58536L81.9548 14.0252C81.8838 15.4314 82.0207 16.5277 82.3663 17.2981C82.9833 18.723 84.259 19.4762 86.1925 19.5738C88.1261 19.6713 89.487 19.0511 90.2443 17.6956C90.6657 16.9639 90.9123 15.8869 90.9833 14.4807L91.3082 8.04093L89.7262 7.96111L89.369 15.0401C89.3271 15.871 89.1822 16.5206 88.8855 17.0022C88.377 17.8737 87.4595 18.276 86.1332 18.2091C85.0466 18.1542 84.2846 17.6992 83.8631 16.8449C83.5717 16.2695 83.4626 15.5751 83.5045 14.7442Z" fill="currentColor"/>
<path d="M103.017 9.94759L98.247 8.70892L95.3634 19.8126L100.056 21.0312C101.511 21.4092 102.693 21.2531 103.584 20.5588C104.186 20.0869 104.583 19.5123 104.768 18.8C104.993 17.9327 104.918 17.2025 104.547 16.5937C104.337 16.258 103.968 15.8976 103.451 15.532C103.89 15.4313 104.256 15.2949 104.518 15.1149C105.037 14.7703 105.372 14.2456 105.557 13.5332C105.71 12.9447 105.692 12.378 105.487 11.8289C105.131 10.9098 104.318 10.2854 103.017 9.94759ZM101.241 14.4952L98.4996 13.7833L99.3924 10.3454L102.072 11.0411C102.737 11.214 103.217 11.4047 103.506 11.6285C104.026 12.0446 104.196 12.6011 104.007 13.329C103.818 14.0568 103.41 14.48 102.78 14.614C102.38 14.6918 101.876 14.6601 101.241 14.4952ZM100.405 19.7498L97.1684 18.9093L98.1819 15.0068L101.171 15.7829C101.79 15.9438 102.285 16.1385 102.628 16.4094C103.264 16.8886 103.495 17.5271 103.286 18.3324C103.161 18.8125 102.933 19.183 102.596 19.4593C102.053 19.8968 101.334 19.9911 100.405 19.7498Z" fill="currentColor"/>
<path d="M111.104 20.4676L109.784 19.8168C109.225 20.9148 109.152 21.9671 109.559 22.988C109.958 23.9875 110.8 24.8127 112.077 25.4423C113.182 25.9869 114.264 26.2168 115.337 26.1391C116.396 26.0543 117.215 25.4414 117.781 24.2933C118.234 23.3748 118.243 22.5232 117.838 21.717C117.585 21.2533 117.16 20.7763 116.534 20.2719L115.262 19.2345C114.399 18.5239 113.874 18.0331 113.658 17.7482C113.354 17.3134 113.337 16.8412 113.585 16.3389C113.811 15.8797 114.182 15.5627 114.71 15.3951C115.239 15.2275 115.926 15.3524 116.744 15.7555C117.749 16.2507 118.354 16.8697 118.515 17.6273C118.604 18.0275 118.535 18.5288 118.338 19.1095L119.644 19.7532C120.203 18.6194 120.247 17.5887 119.755 16.7043C119.249 15.8127 118.458 15.1017 117.382 14.5712C116.205 13.9912 115.159 13.8326 114.216 14.1171C113.295 14.3943 112.59 14.9922 112.137 15.9107C111.713 16.7718 111.725 17.5803 112.173 18.3363C112.425 18.7641 112.958 19.3121 113.763 19.9586L115.014 20.9675C115.675 21.5075 116.136 21.9843 116.382 22.3908C116.606 22.8045 116.58 23.2912 116.304 23.851C115.936 24.5972 115.28 24.9159 114.292 24.7856C113.798 24.7383 113.274 24.5696 112.758 24.3149C111.581 23.7349 110.947 22.9944 110.806 22.0864C110.746 21.5931 110.85 21.0558 111.104 20.4676Z" fill="currentColor"/>
<path d="M133.333 25.8271C133.179 24.729 132.522 23.7254 131.377 22.8262C130.043 21.7787 128.621 21.4143 127.134 21.7526C125.768 22.0424 124.556 22.8605 123.508 24.1944C122.135 25.9436 121.582 27.6053 121.864 29.1896C122.075 30.3721 122.699 31.391 123.756 32.2211C124.964 33.1697 126.239 33.5405 127.569 33.3235C128.677 33.156 129.652 32.6399 130.504 31.7626L129.308 30.8238C128.721 31.3389 128.156 31.6689 127.618 31.8362C126.596 32.1528 125.65 31.959 124.744 31.2475C123.775 30.4867 123.289 29.5765 123.322 28.5241C123.345 27.4844 123.766 26.4311 124.596 25.374C125.604 24.0904 126.632 23.3514 127.667 23.1472C128.705 22.9653 129.669 23.214 130.55 23.9057C131.28 24.4788 131.718 25.0871 131.866 25.7529C131.989 26.399 131.901 27.082 131.584 27.7696L132.767 28.6984C133.307 27.8814 133.488 26.9252 133.333 25.8271Z" fill="currentColor"/>
<path d="M143.713 34.8278L140.328 30.7346L131.488 38.0463L132.477 39.2423L136.274 36.1014L138.528 38.8261C138.936 39.3192 139.17 39.7278 139.253 40.0538C139.382 40.6115 139.173 41.1372 138.624 41.6535L137.218 42.941C136.883 43.2389 136.669 43.4573 136.566 43.5839C136.464 43.7106 136.385 43.8168 136.342 43.915L137.566 45.3945L137.763 45.2313C137.674 44.9729 137.757 44.6966 137.979 44.3881C138.109 44.2185 138.337 43.9674 138.67 43.692L139.813 42.6637C140.32 42.2231 140.609 41.8185 140.7 41.4522C140.769 41.0837 140.74 40.6718 140.602 40.2042C141.126 40.4356 141.652 40.5195 142.169 40.466C142.687 40.3901 143.21 40.1441 143.741 39.7056C144.752 38.8694 145.118 37.8813 144.794 36.737C144.635 36.1423 144.274 35.5059 143.713 34.8278ZM139.568 38.0494L137.273 35.2753L140.294 32.7769L142.711 35.6989C143.057 36.1181 143.261 36.4896 143.341 36.8382C143.497 37.4779 143.259 38.0691 142.63 38.5892C142.038 39.0787 141.489 39.2426 141.002 39.1056C140.504 38.9563 140.026 38.6042 139.568 38.0494Z" fill="currentColor"/>
<path d="M141.312 51.0503L151.205 45.2422L150.411 43.89L140.518 49.6981L141.312 51.0503Z" fill="currentColor"/>
<path d="M156.351 55.4044L154.532 50.8243L143.87 55.0587L145.659 59.5644C146.215 60.9622 147.038 61.8229 148.125 62.1316C148.861 62.3384 149.56 62.3193 150.244 62.0476C151.076 61.7169 151.621 61.2251 151.893 60.5661C152.04 60.1981 152.112 59.6872 152.102 59.0543C152.443 59.3493 152.769 59.564 153.069 59.6688C153.654 59.8841 154.275 59.8441 154.959 59.5724C155.524 59.348 155.971 58.9985 156.293 58.509C156.824 57.6784 156.847 56.6535 156.351 55.4044ZM151.633 56.6585L150.587 54.0264L153.888 52.7154L154.91 55.2879C155.164 55.9273 155.294 56.4268 155.284 56.7922C155.255 57.4577 154.907 57.9233 154.208 58.2009C153.509 58.4784 152.927 58.3997 152.446 57.9707C152.147 57.6937 151.875 57.2681 151.633 56.6585ZM146.9 59.0891L145.665 55.9812L149.413 54.493L150.552 57.3629C150.789 57.9577 150.924 58.4721 150.908 58.9088C150.897 59.705 150.518 60.2686 149.745 60.5757C149.284 60.7588 148.85 60.7934 148.429 60.6854C147.755 60.5054 147.254 59.9813 146.9 59.0891Z" fill="currentColor"/>
<path d="M160.066 73.8456L161.452 73.5944L159.959 65.3606L148.671 67.4069L150.187 75.7666L151.525 75.524L150.281 68.6599L154.122 67.9636L155.252 74.198L156.559 73.9611L155.429 67.7267L158.845 67.1074L160.066 73.8456Z" fill="currentColor"/>
<path d="M160.754 92.5621L160.311 90.8155L162.047 90.9831L162.135 90.0753L160.383 89.9061L161.166 88.2939L160.321 87.8908L159.613 89.5585L158.251 88.3499L157.618 89.0765L159.031 90.2578L157.42 91.1309L157.903 91.9492L159.47 91.0396L159.847 92.796L160.754 92.5621Z" fill="currentColor"/>
</svg>
