<svg width="172" height="172" viewBox="0 0 172 172" fill="none" xmlns="http://www.w3.org/2000/svg">
<path d="M165.12 94.4707L165.193 93.4232L158.545 92.9608C156.911 92.8472 155.966 91.7148 156.073 90.1646C156.181 88.6143 157.276 87.6098 158.91 87.7235L165.558 88.1859L165.63 87.1384L159.038 86.6799C156.79 86.5235 155.292 87.8789 155.138 90.0995C154.984 92.3062 156.28 93.8558 158.528 94.0122L165.12 94.4707Z" fill="currentColor"/>
<path d="M157.391 101.855C156.956 103.881 157.795 105.507 159.78 105.933C161.765 106.359 163.17 105.214 163.605 103.188L164.298 99.958L154.47 97.849L154.25 98.8756L157.864 99.6511L157.391 101.855ZM162.732 102.987C162.418 104.451 161.424 105.212 160.001 104.906C158.563 104.598 157.955 103.494 158.27 102.029L158.74 99.8391L163.202 100.797L162.732 102.987Z" fill="currentColor"/>
<path d="M150.68 111.294L151.566 111.603L153.114 107.176L161.717 110.185L162.064 109.194L152.575 105.875L150.68 111.294Z" fill="currentColor"/>
<path d="M147.511 117.597C146.152 120.173 147.194 123.177 149.782 124.542C152.37 125.908 155.413 125.061 156.772 122.485C158.132 119.91 157.107 116.931 154.52 115.566C151.932 114.2 148.87 115.022 147.511 117.597ZM148.341 118.035C149.445 115.943 151.887 115.395 154.016 116.519C156.146 117.643 157.047 119.955 155.943 122.047C154.832 124.152 152.421 124.7 150.292 123.577C148.162 122.453 147.23 120.14 148.341 118.035Z" fill="currentColor"/>
<path d="M139.191 130.544L138.521 131.424L148.876 134.417L149.572 133.503L143.941 124.306L143.313 125.13L144.885 127.665L142.044 131.396L139.191 130.544ZM148.35 133.259L142.927 131.646L145.37 128.438L148.35 133.259Z" fill="currentColor"/>
<path d="M135.033 134.943C132.765 137.129 132.941 139.974 134.953 142.06C136.994 144.176 139.693 144.413 142.01 142.178L144.066 140.196L137.089 132.96L135.033 134.943ZM142.679 140.27L141.399 141.504C139.545 143.292 137.439 143.105 135.719 141.321C133.989 139.528 133.851 137.347 135.685 135.578L136.965 134.344L142.679 140.27Z" fill="currentColor"/>
<path d="M124.103 148.194C122.347 149.293 121.765 151.029 122.842 152.749C123.919 154.47 125.72 154.681 127.476 153.581L130.276 151.828L124.943 143.308L124.053 143.865L126.014 146.998L124.103 148.194ZM127.012 152.815C125.743 153.609 124.505 153.426 123.732 152.192C122.952 150.946 123.321 149.741 124.591 148.946L126.489 147.757L128.911 151.626L127.012 152.815Z" fill="currentColor"/>
<path d="M115.912 148.471L117.82 152.802L112.593 155.105L110.685 150.775L109.724 151.198L113.778 160.397L114.738 159.973L112.96 155.938L118.187 153.634L119.965 157.67L120.926 157.246L116.873 148.048L115.912 148.471Z" fill="currentColor"/>
<path d="M103.228 152.819C100.404 153.527 98.864 156.309 99.5756 159.147C100.287 161.985 102.95 163.684 105.775 162.976C108.6 162.268 110.132 159.517 109.421 156.678C108.709 153.84 106.053 152.11 103.228 152.819ZM103.456 153.728C105.751 153.153 107.79 154.605 108.375 156.941C108.961 159.276 107.842 161.491 105.547 162.066C103.238 162.645 101.22 161.217 100.635 158.881C100.049 156.546 101.148 154.307 103.456 153.728Z" fill="currentColor"/>
<path d="M91.2766 155.001L92.1189 164.076L88.7594 164.388L88.846 165.322L96.5967 164.603L96.51 163.669L93.1505 163.981L92.3082 154.906L91.2766 155.001Z" fill="currentColor"/>
<path d="M81.8688 154.86C78.9624 154.68 76.6531 156.866 76.4726 159.786C76.2921 162.707 78.3163 165.132 81.2228 165.312C84.1292 165.491 86.4228 163.333 86.6033 160.412C86.7838 157.492 84.7753 155.039 81.8688 154.86ZM81.8109 155.796C84.1724 155.942 85.6759 157.943 85.5273 160.346C85.3788 162.749 83.6421 164.522 81.2806 164.376C78.9052 164.229 77.414 162.257 77.5625 159.854C77.7111 157.45 79.4355 155.649 81.8109 155.796Z" fill="currentColor"/>
<path d="M66.1747 155.336C65.8406 156.811 66.628 157.707 68.2028 158.422L69.3865 158.963C70.4293 159.429 71.332 160.007 71.069 161.168C70.8463 162.151 69.8334 162.883 68.3315 162.543C66.9251 162.224 66.1828 161.065 66.4085 159.753L65.3571 159.515C65.0425 161.41 66.2449 162.946 68.1564 163.379C70.1089 163.821 71.7633 162.918 72.1191 161.348C72.5058 159.641 71.2765 158.731 70.0382 158.178L68.8514 157.651C67.5237 157.048 67.0554 156.454 67.2843 155.444C67.5504 154.27 68.8036 153.807 70.1963 154.123C71.8893 154.506 72.559 155.605 72.339 157.02L73.3767 157.255C73.7019 155.376 72.6515 153.803 70.3713 153.287C68.0911 152.77 66.5274 153.779 66.1747 155.336Z" fill="currentColor"/>
<path d="M55.1506 151.827L54.8036 152.622L58.8586 154.391L59.2056 153.596L55.1506 151.827Z" fill="currentColor"/>
<path d="M38.4782 149.587L39.345 150.18L43.1058 144.679C44.0302 143.326 45.4853 143.083 46.7682 143.96C48.051 144.837 48.3642 146.289 47.4398 147.641L43.679 153.143L44.5458 153.735L48.275 148.28C49.5471 146.42 49.1352 144.442 47.2975 143.186C45.4714 141.937 43.4794 142.272 42.2073 144.132L38.4782 149.587Z" fill="currentColor"/>
<path d="M36.1374 139.294C34.6047 137.9 32.7768 137.808 31.4108 139.309C30.0447 140.811 30.3276 142.601 31.8602 143.996L34.3042 146.219L41.0685 138.783L40.2918 138.077L37.8047 140.811L36.1374 139.294ZM32.4735 143.342C31.3655 142.334 31.2077 141.093 32.1874 140.016C33.1766 138.929 34.4367 138.958 35.5448 139.966L37.2017 141.474L34.1305 144.85L32.4735 143.342Z" fill="currentColor"/>
<path d="M31.2713 128.639L30.5571 129.248L33.598 132.818L26.6592 138.727L27.3399 139.527L34.9929 133.009L31.2713 128.639Z" fill="currentColor"/>
<path d="M27.4614 122.81C25.9162 120.342 22.795 119.735 20.3149 121.288C17.8347 122.841 17.04 125.898 18.5852 128.366C20.1303 130.835 23.2204 131.444 25.7005 129.891C28.1806 128.339 29.0065 125.278 27.4614 122.81ZM26.6663 123.308C27.9217 125.313 27.1696 127.7 25.1285 128.978C23.0875 130.255 20.6356 129.874 19.3802 127.869C18.1174 125.851 18.8532 123.491 20.8943 122.214C22.9353 120.936 25.4035 121.29 26.6663 123.308Z" fill="currentColor"/>
<path d="M20.4487 109.132L20.0255 108.11L12.2278 115.552L12.6671 116.613L23.4487 116.375L23.0523 115.418L20.0712 115.501L18.2765 111.168L20.4487 109.132ZM13.4929 115.68L17.6161 111.805L19.159 115.53L13.4929 115.68Z" fill="currentColor"/>
<path d="M18.7455 103.373C18.0027 100.312 15.4581 99.0275 12.6418 99.7108C9.78473 100.404 8.21763 102.614 8.97693 105.743L9.65039 108.519L19.4189 106.148L18.7455 103.373ZM10.2871 107.284L9.86787 105.556C9.26043 103.052 10.4846 101.329 12.8927 100.745C15.3144 100.157 17.2669 101.138 17.8677 103.615L18.287 105.342L10.2871 107.284Z" fill="currentColor"/>
<path d="M12.8004 87.2586C12.7365 85.1876 11.5314 83.8102 9.50233 83.8728C7.4733 83.9355 6.38349 85.3839 6.44746 87.4549L6.54946 90.7573L16.5967 90.447L16.5643 89.3975L12.87 89.5116L12.8004 87.2586ZM7.34346 87.4412C7.29722 85.9439 8.07944 84.9673 9.53475 84.9223C11.004 84.877 11.859 85.803 11.9053 87.3003L11.9744 89.5392L7.41262 89.6801L7.34346 87.4412Z" fill="currentColor"/>
<path d="M16.6789 79.9359L11.9785 79.3899L12.6375 73.7161L17.3379 74.262L17.459 73.219L7.47417 72.0593L7.35302 73.1023L11.7336 73.6111L11.0746 79.2849L6.69401 78.7761L6.57287 79.8191L16.5577 80.9789L16.6789 79.9359Z" fill="currentColor"/>
<path d="M19.3044 66.7783C20.1192 63.9826 18.4952 61.249 15.686 60.4303C12.8769 59.6116 10.0655 61.0525 9.25068 63.8482C8.4359 66.6439 10.0369 69.3562 12.8461 70.1749C15.6552 70.9936 18.4896 69.574 19.3044 66.7783ZM18.4039 66.5158C17.7419 68.7873 15.4595 69.8137 13.1477 69.14C10.8359 68.4662 9.48921 66.3822 10.1512 64.1107C10.8171 61.8257 13.0687 60.8049 15.3805 61.4787C17.6923 62.1524 19.0698 64.2309 18.4039 66.5158Z" fill="currentColor"/>
<path d="M23.3896 55.4309L15.1337 51.5702L16.5629 48.5139L15.7132 48.1166L12.416 55.1677L13.2657 55.565L14.6949 52.5087L22.9508 56.3693L23.3896 55.4309Z" fill="currentColor"/>
<path d="M28.151 47.5064C29.7768 45.0905 29.0602 41.9927 26.6326 40.3592C24.2051 38.7256 21.0887 39.2441 19.463 41.6601C17.8372 44.076 18.5384 47.1465 20.966 48.7801C23.3935 50.4136 26.5253 49.9224 28.151 47.5064ZM27.3728 46.9828C26.0519 48.9457 23.5656 49.2301 21.5678 47.8857C19.57 46.5414 18.9203 44.1467 20.2412 42.1837C21.5699 40.2092 24.0252 39.9208 26.023 41.2652C28.0208 42.6095 28.7016 45.0082 27.3728 46.9828Z" fill="currentColor"/>
<path d="M35.4137 33.9186C34.3065 32.889 33.136 33.1198 31.7262 34.122L30.6639 34.8738C29.7371 35.5415 28.7842 36.0318 27.9127 35.2215C27.1745 34.5351 27.0501 33.2915 28.0987 32.1637C29.0807 31.1077 30.4554 31.0478 31.4771 31.9022L32.2112 31.1127C30.7303 29.8887 28.7985 30.157 27.4638 31.5924C26.1005 33.0585 26.0501 34.9425 27.2292 36.0388C28.5108 37.2305 29.9152 36.6247 31.0157 35.8318L32.0678 35.0704C33.2555 34.2249 34.0044 34.1184 34.7631 34.8239C35.6449 35.6437 35.4153 36.9597 34.4429 38.0054C33.2608 39.2768 31.974 39.3037 30.8615 38.4031L30.137 39.1823C31.598 40.4071 33.4858 40.2889 35.0779 38.5767C36.6699 36.8645 36.5825 35.0054 35.4137 33.9186Z" fill="currentColor"/>
<path d="M44.2989 25.8155L43.7858 25.1155L40.2177 27.7309L40.7309 28.431L44.2989 25.8155Z" fill="currentColor"/>
<path d="M54.219 12.6714L53.2729 13.1268L56.1628 19.1315C56.8732 20.6075 56.3576 21.9898 54.9574 22.6637C53.5571 23.3377 52.1425 22.8843 51.4322 21.4083L48.5422 15.4035L47.5961 15.8589L50.4618 21.8132C51.4392 23.8442 53.3583 24.4743 55.3641 23.5089C57.3573 22.5497 58.0621 20.6568 57.0847 18.6257L54.219 12.6714Z" fill="currentColor"/>
<path d="M64.4928 15.6958C66.4684 15.071 67.4663 13.5368 66.8542 11.6013C66.2422 9.66572 64.5521 9.01082 62.5765 9.63553L59.4262 10.6317L62.4569 20.2159L63.4581 19.8994L62.3437 16.3753L64.4928 15.6958ZM62.8333 10.4941C64.2616 10.0424 65.4141 10.5296 65.8531 11.9178C66.2963 13.3194 65.6376 14.394 64.2093 14.8457L62.0736 15.521L60.6975 11.1694L62.8333 10.4941Z" fill="currentColor"/>
<path d="M75.8231 16.8812L75.6544 15.9585L71.0409 16.802L69.4018 7.83656L68.3689 8.0254L70.1767 17.9135L75.8231 16.8812Z" fill="currentColor"/>
<path d="M82.7684 16.4085C85.6786 16.3074 87.7666 13.9094 87.665 10.9852C87.5634 8.06097 85.3149 5.84172 82.4047 5.94285C79.4945 6.04398 77.4195 8.41346 77.5211 11.3377C77.6227 14.2619 79.8581 16.5097 82.7684 16.4085ZM82.7358 15.4711C80.3712 15.5533 78.6821 13.7068 78.5985 11.3003C78.5148 8.89371 80.0727 6.96245 82.4373 6.88028C84.8158 6.79763 86.49 8.61658 86.5736 11.0231C86.6573 13.4297 85.1144 15.3884 82.7358 15.4711Z" fill="currentColor"/>
<path d="M98.5596 17.2497L99.6555 17.3984L97.1501 6.91444L96.0126 6.76011L90.7907 16.1958L91.8173 16.3351L93.2462 13.7174L97.8936 14.3479L98.5596 17.2497ZM96.403 7.94335L97.6755 13.4564L93.6801 12.9144L96.403 7.94335Z" fill="currentColor"/>
<path d="M104.706 18.7255C107.723 19.6297 110.116 18.0815 110.948 15.3055C111.792 12.4892 110.676 10.0209 107.591 9.09658L104.856 8.27676L101.97 17.9057L104.706 18.7255ZM105.6 9.44987L107.303 9.96024C109.771 10.6997 110.64 12.6264 109.929 15.0001C109.214 17.3872 107.381 18.5772 104.94 17.8458L103.237 17.3354L105.6 9.44987Z" fill="currentColor"/>
<path d="M121.291 21.5544C123.112 22.5418 124.909 22.194 125.877 20.4094C126.844 18.6247 126.141 16.9539 124.32 15.9665L121.415 14.392L116.625 23.2293L117.548 23.7297L119.309 20.4803L121.291 21.5544ZM123.88 16.7476C125.197 17.4614 125.647 18.6289 124.953 19.909C124.253 21.2014 123.022 21.4739 121.705 20.76L119.736 19.6926L121.911 15.6801L123.88 16.7476Z" fill="currentColor"/>
<path d="M125.634 28.5444L128.473 24.7588L133.043 28.186L130.204 31.9716L131.044 32.6016L137.075 24.5599L136.235 23.9299L133.589 27.458L129.019 24.0308L131.665 20.5027L130.825 19.8727L124.794 27.9144L125.634 28.5444Z" fill="currentColor"/>
<path d="M135.838 37.5656C137.844 39.6764 141.023 39.6483 143.144 37.6326C145.265 35.6169 145.435 32.4623 143.429 30.3515C141.423 28.2407 138.273 28.2596 136.152 30.2753C134.031 32.291 133.832 35.4548 135.838 37.5656ZM136.518 36.9194C134.888 35.2044 135.149 32.7156 136.895 31.0567C138.64 29.3978 141.119 29.2827 142.749 30.9977C144.388 32.7228 144.138 35.1822 142.392 36.8411C140.647 38.5 138.157 38.6446 136.518 36.9194Z" fill="currentColor"/>
<path d="M143.682 46.9154L151.168 41.717L153.093 44.4884L153.863 43.9534L149.423 37.5597L148.653 38.0947L150.577 40.8661L143.091 46.0645L143.682 46.9154Z" fill="currentColor"/>
<path d="M147.972 54.6825C149.254 57.2969 152.296 58.2219 154.923 56.9334C157.55 55.645 158.656 52.6857 157.374 50.0712C156.092 47.4567 153.081 46.5321 150.454 47.8205C147.827 49.1089 146.69 52.068 147.972 54.6825ZM148.814 54.2694C147.772 52.1452 148.767 49.8487 150.929 48.7883C153.091 47.728 155.49 48.36 156.532 50.4843C157.58 52.6211 156.605 54.8927 154.443 55.953C152.281 57.0134 149.862 56.4063 148.814 54.2694Z" fill="currentColor"/>
<path d="M156.206 68.1008C157.653 67.6613 158.042 66.5336 157.885 64.811L157.769 63.5147C157.657 62.3779 157.713 61.3076 158.851 60.9617C159.816 60.6687 160.953 61.1864 161.401 62.6599C161.82 64.0397 161.181 65.2581 159.929 65.7117L160.242 66.7432C162.045 66.0785 162.784 64.2737 162.214 62.3983C161.632 60.4828 160.029 59.492 158.489 59.96C156.814 60.4686 156.632 61.9872 156.764 63.3371L156.893 64.6294C157.027 66.0812 156.742 66.7821 155.751 67.0833C154.599 67.4332 153.577 66.5732 153.162 65.2069C152.657 63.5458 153.281 62.4199 154.619 61.9111L154.309 60.893C152.516 61.5402 151.669 63.2315 152.349 65.4685C153.028 67.7055 154.679 68.5647 156.206 68.1008Z" fill="currentColor"/>
<path d="M158.667 79.4185L159.53 79.325L159.053 74.9267L158.19 75.0202L158.667 79.4185Z" fill="currentColor"/>
</svg>
