<svg width="45" height="50" viewBox="0 0 45 50" fill="none" xmlns="http://www.w3.org/2000/svg">
<g clip-path="url(#clip0_1210_24313)">
<path d="M21.5552 2.19366C21.5203 2.6687 21.4875 3.09738 21.4568 3.52606C21.4204 4.03463 21.3841 4.54248 21.3505 5.05105C21.3463 5.12095 21.3384 5.15733 21.2507 5.14948C20.9497 5.12238 20.6487 5.09884 20.347 5.086C20.2421 5.08172 20.235 5.03536 20.2407 4.95404C20.3056 4.06173 20.3691 3.16871 20.4333 2.2764C20.4846 1.56098 20.5402 0.846279 20.5866 0.130862C20.5937 0.023157 20.6194 -0.0082272 20.7314 0.00318523C20.9668 0.0281499 21.2043 0.0417022 21.4411 0.0481217C21.5481 0.0509748 21.593 0.100191 21.638 0.187924C22.1458 1.19079 22.658 2.19152 23.1687 3.19225C23.1922 3.23861 23.2207 3.28283 23.255 3.34204C23.5938 2.85487 23.9248 2.37768 24.2557 1.90122C24.5938 1.41405 24.9326 0.928306 25.2664 0.438998C25.3235 0.355544 25.3798 0.323447 25.4833 0.335572C25.7065 0.362677 25.9319 0.385502 26.1559 0.386215C26.3021 0.386928 26.3128 0.44613 26.3042 0.566674C26.2479 1.347 26.1994 2.12732 26.1466 2.90836C26.0924 3.71294 26.0311 4.5168 25.984 5.32138C25.9761 5.45548 25.9462 5.49043 25.8121 5.47616C25.5532 5.44834 25.2921 5.43336 25.0318 5.42552C24.9027 5.42124 24.8584 5.38343 24.8691 5.2472C24.9176 4.63877 24.9554 4.02963 24.9968 3.4205C25.0189 3.09524 25.041 2.7707 25.0639 2.43903C24.9911 2.44402 24.9761 2.50108 24.9497 2.5396C24.4718 3.22506 23.9925 3.9098 23.5203 4.59954C23.4376 4.72009 23.3527 4.75932 23.2036 4.7586C22.9575 4.75718 22.8199 4.6723 22.7079 4.44048C22.3584 3.71579 21.9789 3.0068 21.6102 2.29138C21.6016 2.27212 21.5895 2.25357 21.5552 2.19366Z" fill="#262325"/>
<path d="M37.2284 8.57852C37.4952 8.20333 37.7619 7.82886 38.028 7.45368C38.3197 7.04283 38.6143 6.63412 38.9011 6.21971C38.9617 6.13198 39.0023 6.11343 39.0929 6.18191C39.3347 6.36308 39.5829 6.5364 39.8312 6.7083C39.9053 6.75966 39.936 6.79532 39.8711 6.88662C38.931 8.20333 37.9938 9.5229 37.0608 10.8446C36.993 10.9409 36.9517 10.9302 36.8711 10.8688C36.687 10.729 36.4987 10.595 36.3061 10.4673C36.217 10.4081 36.1856 10.3367 36.1785 10.2333C36.1064 9.13987 36.0308 8.0457 35.9552 6.95224C35.9438 6.7832 35.9267 6.61415 35.9089 6.40445C35.7156 6.67478 35.5415 6.91729 35.3689 7.15981C34.9844 7.70119 34.5986 8.24114 34.2198 8.78608C34.1471 8.89093 34.0993 8.90876 33.9916 8.82531C33.7576 8.64414 33.5122 8.47652 33.2669 8.31032C33.1841 8.25398 33.1806 8.21403 33.2383 8.13343C34.1742 6.821 35.1071 5.50643 36.038 4.18972C36.1021 4.09914 36.1471 4.08416 36.2391 4.15477C36.4317 4.30242 36.6335 4.43866 36.8325 4.57774C36.8882 4.61698 36.9224 4.65763 36.9274 4.73395C36.9959 5.78675 37.0679 6.83883 37.14 7.89092C37.1549 8.11417 37.1742 8.33814 37.1913 8.5614C37.2034 8.56782 37.2156 8.57352 37.2284 8.57852Z" fill="#262325"/>
<path d="M10.9177 3.27912C10.805 3.2941 10.6817 3.29124 10.5583 3.32049C10.0825 3.43533 9.66167 3.68355 9.21088 3.85973C9.13242 3.8904 9.16095 3.93319 9.18449 3.98598C9.26152 4.15859 9.33356 4.33406 9.40917 4.50667C9.72158 5.22137 10.0333 5.93679 10.3478 6.65078C10.3721 6.70499 10.3714 6.80057 10.4869 6.74707C10.8514 6.57803 11.2302 6.4368 11.5839 6.24778C12.2794 5.87616 12.5668 5.25062 12.3971 4.54804C12.2116 3.78198 11.6339 3.2834 10.9177 3.27912ZM11.1439 2.25057C12.4713 2.22275 13.3736 3.21492 13.5754 4.37899C13.7694 5.49812 13.2815 6.31839 12.3743 6.92967C12.1275 7.09587 11.8543 7.20928 11.5825 7.32697C10.9969 7.58018 10.412 7.83625 9.82929 8.09731C9.72872 8.14224 9.69448 8.1237 9.6524 8.02527C9.0133 6.55021 8.37064 5.07729 7.72299 3.6058C7.67591 3.49952 7.68589 3.45958 7.79503 3.41321C8.48476 3.1172 9.16951 2.80907 9.85996 2.5152C10.2594 2.34472 10.6788 2.24201 11.1439 2.25057Z" fill="#262325"/>
<path d="M30.5026 2.68663C29.6381 2.68734 28.9298 3.44627 28.9134 4.38922C28.8984 5.23873 29.6538 5.95914 30.5575 5.95843C31.4327 5.95772 32.1438 5.18595 32.1417 4.23943C32.1403 3.38421 31.4034 2.68591 30.5026 2.68663ZM27.7508 4.30933C27.7508 2.41558 29.4876 1.20087 31.31 1.8043C32.3214 2.13954 33.0347 2.78649 33.2672 3.86211C33.5433 5.13745 32.728 6.75159 31.0925 6.96415C29.7686 7.13605 28.4626 6.43918 27.9548 5.29936C27.8107 4.97625 27.7365 4.63744 27.7508 4.30933Z" fill="#262325"/>
<path d="M2.44744 10.4392C2.44744 9.40918 2.451 8.41273 2.44316 7.41557C2.44173 7.2615 2.47098 7.15023 2.58938 7.04466C2.85329 6.80785 3.10365 6.55535 3.40822 6.31641C3.40822 6.5311 3.4068 6.7458 3.40822 6.95978C3.41393 7.62456 3.4232 8.28862 3.42819 8.95339C3.43105 9.37494 3.42819 9.38136 3.84617 9.43985C4.83763 9.57894 5.83051 9.7109 6.82268 9.84713C6.87475 9.85426 6.92539 9.86639 7.00599 9.88208C6.67717 10.1966 6.36618 10.4934 6.05662 10.7922C6.00883 10.8386 5.95748 10.8193 5.90612 10.8136C5.16502 10.7238 4.42393 10.6353 3.68355 10.5412C3.45245 10.5119 3.44959 10.5055 3.45459 10.7337C3.46029 10.9934 3.37826 11.2801 3.48597 11.5062C3.59011 11.7252 3.82264 11.8821 3.99882 12.0669C4.11294 12.1867 4.22706 12.3065 4.29411 12.3771C4.04518 12.6525 3.80052 12.9192 3.56015 13.1903C3.48098 13.2801 3.45102 13.1953 3.4125 13.1553C2.81121 12.5319 2.21063 11.9071 1.61148 11.2822C1.09292 10.743 0.578651 10.2002 0.0579586 9.66382C-0.0197886 9.58393 -0.0197886 9.54256 0.0608117 9.46838C0.279788 9.26795 0.493771 9.06253 0.702761 8.85211C0.789781 8.76438 0.843277 8.77008 0.927444 8.85853C1.40391 9.36353 1.8868 9.86211 2.36684 10.3628C2.3861 10.3835 2.40749 10.4021 2.44744 10.4392Z" fill="#262325"/>
<path d="M17.0396 0.398715C17.4041 0.387303 17.7421 0.442225 18.0724 0.547077C18.1494 0.571329 18.1815 0.59986 18.1558 0.696865C18.0938 0.93082 18.041 1.16906 18.0068 1.40872C17.9882 1.53639 17.9412 1.52855 17.8456 1.4993C17.307 1.3324 16.7657 1.29816 16.2207 1.47077C16.0781 1.51571 15.944 1.57776 15.8327 1.67905C15.541 1.94439 15.6187 2.33883 15.991 2.46437C16.2635 2.55638 16.5503 2.55995 16.8341 2.57207C17.2136 2.58848 17.5924 2.6056 17.9625 2.70046C18.4733 2.83171 18.8306 3.12486 18.9504 3.65625C19.0746 4.2069 18.9205 4.67767 18.5089 5.05927C18.0924 5.44444 17.5752 5.60707 17.0289 5.69409C16.4047 5.79323 15.7899 5.7647 15.1843 5.56784C15.0174 5.51363 14.9447 5.44658 15.0181 5.25542C15.0916 5.06355 15.1351 4.85741 15.1715 4.65413C15.1936 4.53145 15.2335 4.53145 15.3334 4.57139C15.9532 4.81747 16.5866 4.86027 17.2307 4.67695C17.4083 4.62631 17.5767 4.55427 17.7065 4.41447C17.9133 4.19121 17.862 3.8845 17.5924 3.7447C17.3983 3.64413 17.1844 3.62844 16.9718 3.6106C16.506 3.57209 16.0353 3.5835 15.5766 3.4708C15.0759 3.3474 14.6993 3.08563 14.5574 2.56494C14.4133 2.03355 14.511 1.55351 14.8969 1.14908C15.2728 0.754641 15.7599 0.578461 16.2785 0.472896C16.5353 0.420827 16.7942 0.387303 17.0396 0.398715Z" fill="#262325"/>
<path d="M40.6623 8.71795C40.8791 8.52465 41.0988 8.33563 41.3093 8.13734C41.3977 8.0546 41.4298 8.12664 41.474 8.17586C42.024 8.78999 42.5725 9.40484 43.1217 10.0197C43.4969 10.4398 43.8678 10.8642 44.2501 11.2779C44.34 11.3749 44.3264 11.4198 44.2337 11.4962C44.0596 11.6388 43.8892 11.7879 43.7287 11.9455C43.641 12.0326 43.5974 12.0126 43.5247 11.9284C43.2337 11.5925 42.9305 11.2665 42.6402 10.9291C42.5582 10.8335 42.5161 10.8342 42.4227 10.9184C41.4797 11.7679 40.5304 12.6096 39.5874 13.4584C39.4826 13.5526 39.4283 13.5668 39.3306 13.4434C39.1587 13.2252 38.9669 13.0219 38.7743 12.82C38.6844 12.7252 38.6737 12.6731 38.7843 12.5754C39.7358 11.7358 40.678 10.8863 41.6281 10.0454C41.7272 9.95763 41.7322 9.91126 41.6424 9.81354C41.3128 9.45548 40.9933 9.08957 40.6623 8.71795Z" fill="#262325"/>
<path d="M8.588 8.93025C8.58586 8.96948 8.56018 8.98375 8.53521 9.00086C8.25561 9.18988 7.97458 9.37747 7.69783 9.57077C7.59155 9.64495 7.57657 9.54509 7.54305 9.49659C7.15859 8.93453 6.77699 8.37033 6.39467 7.80613C5.88254 7.05077 5.37326 6.29398 4.85756 5.54076C4.78694 5.43734 4.76697 5.37814 4.89607 5.29968C5.15357 5.14275 5.40107 4.968 5.64787 4.79325C5.72633 4.73761 5.75914 4.74974 5.81121 4.82677C6.71992 6.17201 7.63149 7.51511 8.54306 8.85892C8.56018 8.88317 8.57516 8.90885 8.588 8.93025Z" fill="#262325"/>
<path d="M31.1338 17.5708C31.1038 17.5894 31.081 17.6493 31.0411 17.6043C31.0261 17.5872 31.071 17.5508 31.1017 17.5352C31.1124 17.5473 31.1231 17.5594 31.1338 17.5708Z" fill="#087A4A"/>
<path d="M7.54492 35.2534C7.6084 35.207 7.67117 35.1606 7.73465 35.1143C7.74179 35.1235 7.74892 35.1328 7.75605 35.1421C7.69614 35.1892 7.63694 35.2362 7.57702 35.2833C7.56632 35.2733 7.55562 35.2633 7.54492 35.2534Z" fill="#087A4A"/>
<path d="M25.6061 33.5493C25.4406 33.5486 25.3008 33.6891 25.3022 33.8553C25.3036 34.0144 25.4356 34.1492 25.5946 34.1549C25.7608 34.1606 25.9035 34.0251 25.9071 33.8582C25.9099 33.6927 25.7715 33.5507 25.6061 33.5493ZM25.5989 36.8646C25.4334 36.8682 25.2965 37.0123 25.3029 37.1777C25.3086 37.3368 25.4441 37.4688 25.6025 37.4702C25.768 37.4716 25.9085 37.3318 25.9078 37.1656C25.9064 37.0001 25.7637 36.861 25.5989 36.8646ZM25.9071 30.5043C25.9085 30.3388 25.768 30.1983 25.6025 30.199C25.4377 30.1998 25.2986 30.3424 25.3022 30.5079C25.3058 30.6662 25.4384 30.8003 25.5975 30.8039C25.763 30.8082 25.9056 30.6705 25.9071 30.5043ZM25.5989 26.8845C25.4334 26.8873 25.2965 27.0321 25.3029 27.1976C25.3086 27.3566 25.4434 27.4886 25.6018 27.49C25.7673 27.4914 25.9078 27.3516 25.9071 27.1862C25.9064 27.0207 25.7637 26.8816 25.5989 26.8845ZM25.9071 23.843C25.9106 23.6768 25.7723 23.5349 25.6068 23.5342C25.4484 23.5335 25.3115 23.6633 25.3029 23.8224C25.2944 23.9878 25.4285 24.1341 25.5946 24.1398C25.7601 24.1448 25.9035 24.0092 25.9071 23.843ZM24.7672 29.6648C24.7672 26.6412 24.7687 23.6184 24.7637 20.5948C24.7637 20.4357 24.7986 20.3879 24.9634 20.3929C25.3906 20.4058 25.8186 20.4029 26.2459 20.3936C26.3793 20.3908 26.4106 20.425 26.4106 20.5577C26.4049 22.0363 26.4064 23.5156 26.4099 24.9943C26.4099 25.0585 26.3472 25.1669 26.4941 25.1819C26.5291 25.1854 26.5134 25.256 26.5134 25.2967C26.5141 25.9265 26.5148 26.5556 26.5126 27.1855C26.5126 27.2347 26.5476 27.3053 26.4449 27.316C26.3764 27.3231 26.4085 27.3937 26.4085 27.4337C26.4071 29.7026 26.4071 31.9715 26.4085 34.2405C26.4085 34.289 26.3714 34.3617 26.4741 34.3724C26.5455 34.3796 26.5119 34.4495 26.5119 34.4894C26.5141 35.1192 26.5141 35.7483 26.5134 36.3782C26.5134 36.4374 26.5383 36.5044 26.4306 36.5165C26.3828 36.5222 26.4078 36.6114 26.4078 36.662C26.4064 37.6777 26.4071 38.6934 26.4064 39.7092C26.4064 39.9431 26.385 39.9531 26.1524 39.9666C25.4063 40.0094 24.8821 39.5194 24.7822 38.911C24.7672 38.8183 24.7672 38.722 24.7672 38.6271C24.7665 35.6399 24.7672 32.652 24.7672 29.6648Z" fill="#262325"/>
<path d="M19.027 19.3173C19.0313 19.1518 18.8929 19.0092 18.7275 19.0077C18.5691 19.0063 18.4314 19.1361 18.4229 19.2945C18.4136 19.46 18.5477 19.6062 18.7132 19.6126C18.8787 19.619 19.0228 19.4835 19.027 19.3173ZM22.9707 20.1476C21.5456 20.1476 20.1205 20.149 18.6954 20.1468C18.1019 20.1454 17.6875 19.609 17.8516 19.0627C17.9436 18.7574 18.226 18.5313 18.5449 18.5099C18.5919 18.5063 18.6397 18.5085 18.6875 18.5085C21.5442 18.5085 23.3302 18.5092 26.1862 18.5049C26.3267 18.5049 26.3781 18.5263 26.3738 18.6832C26.3609 19.1105 26.3588 19.5384 26.3745 19.9657C26.3809 20.1354 26.3203 20.1518 26.1762 20.1511C24.7511 20.1454 24.3959 20.1476 22.9707 20.1476Z" fill="#262325"/>
<path d="M40.2829 33.8063C40.2444 33.9141 40.1688 33.9775 40.0832 34.0218C40.004 34.0624 39.9348 34.1073 39.8742 34.1566V34.1559L39.5775 34.3834L39.601 34.6951C39.5982 34.7643 39.6039 34.8385 39.6181 34.9169V34.9212V34.9205C39.621 34.9369 39.6238 34.9526 39.6274 34.969C39.7237 35.4098 39.5917 35.8178 39.4177 36.2236C39.1752 36.79 38.9619 37.3692 38.7358 37.9426C38.5981 38.2921 38.3998 38.6088 38.1987 38.9248C38.1495 39.0019 38.106 39.0111 38.0268 38.9698C37.8792 38.8934 37.7301 38.8178 37.5746 38.7608C37.4426 38.7123 37.4426 38.6531 37.494 38.5368C37.9505 37.5011 38.3913 36.4583 38.8549 35.4255C39.5004 33.9854 39.8564 32.4775 39.9584 30.9047C39.9869 30.4668 40.0447 30.0303 40.0818 29.5923C40.1295 29.0203 40.0632 28.4518 39.979 27.889C39.8342 26.9189 39.7294 25.946 39.6766 24.9674C39.6167 23.8497 39.2864 22.8155 38.7593 21.8354C38.5953 21.5309 38.6003 21.528 38.9262 21.4267C39.3093 21.3076 39.3121 21.3069 39.4156 21.6999C39.7401 22.926 40.1303 24.1343 40.3906 25.3776C40.7087 26.8975 40.9184 28.4297 40.9284 30.2278C40.9712 31.302 40.7237 32.5702 40.2829 33.8063ZM37.0853 38.5318C36.9034 38.4327 36.7137 38.3471 36.5218 38.2672C36.4155 38.223 36.4255 38.1837 36.4868 38.1053C36.6915 37.8435 36.8934 37.5796 37.0888 37.3107C37.7879 36.3463 38.1181 35.2543 38.2094 34.0767C38.2779 33.1915 38.2736 32.2956 38.566 31.439C38.7365 30.9404 38.9298 30.449 39.0753 29.9418C39.1973 29.516 39.2586 29.0852 39.2344 28.6415C39.1745 27.5388 39.1381 26.4346 38.9912 25.339C38.9441 24.9867 38.8827 24.6357 38.8257 24.2848C38.815 24.2206 38.7964 24.1571 38.8442 24.1151C38.994 24.053 39.1452 23.9924 39.2815 23.941C39.2815 23.941 39.066 23.9888 38.8021 24.0466C38.7779 24.023 38.7643 23.9888 38.7558 23.9453C38.6081 23.1999 38.3371 22.5016 37.9491 21.849C37.9027 21.7705 37.9141 21.7448 37.9997 21.7127C38.422 21.5558 38.4091 21.5594 38.6245 21.9553C39.213 23.0352 39.4904 24.1914 39.5325 25.4146C39.5603 26.2099 39.6716 26.9988 39.7857 27.7856C39.8963 28.5516 39.9519 29.3148 39.8585 30.0909C39.7608 30.9033 39.7173 31.7222 39.581 32.531C39.4156 33.5139 39.0825 34.444 38.6901 35.3549C38.2472 36.3834 37.7936 37.407 37.3535 38.4369C37.2864 38.5903 37.2229 38.6067 37.0853 38.5318ZM37.0275 40.4455C35.8741 41.7772 34.6687 43.0633 33.2236 44.0783C32.2321 44.7744 31.2778 45.5176 30.2984 46.2274C29.7421 46.6304 29.0923 46.8572 28.4518 47.0911C26.7014 47.7309 24.8989 48.1582 23.0473 48.3672C21.6264 48.5277 20.2049 48.5462 18.7869 48.3137C18.692 48.298 18.6228 48.2645 18.5615 48.1917C18.4053 48.0056 18.2419 47.8244 18.0821 47.6411C18.075 47.6332 18.0736 47.6197 18.0643 47.5926C18.3168 47.6625 18.5586 47.7395 18.8097 47.7716C19.1949 47.8215 19.5793 47.8144 19.9652 47.7802C20.6 47.7231 21.2355 47.7281 21.8689 47.7794C22.9431 47.8657 23.9845 47.721 25.0152 47.4192C26.2035 47.0712 27.4161 46.8101 28.5809 46.3814C29.4325 46.0683 30.2442 45.6888 30.9169 45.0583C31.1116 44.8757 31.3313 44.7131 31.5781 44.6118C32.3826 44.2808 33.0467 43.7466 33.6808 43.1702C34.7008 42.2423 35.6623 41.2572 36.5375 40.1902C36.6238 40.0846 36.7129 39.9776 36.775 39.8578C36.8592 39.6952 36.9177 39.7323 37.0189 39.8442C37.2878 40.141 37.2936 40.1381 37.0275 40.4455ZM17.8767 47.3351C17.7155 47.2723 17.6185 47.1389 17.5343 47.0091C17.3553 46.7331 17.1435 46.6553 16.841 46.8015C16.6278 46.905 16.4116 46.8672 16.1877 46.798C13.0721 45.8408 10.4108 44.156 8.16687 41.8008C7.85874 41.4776 7.5991 41.1153 7.33876 40.7537C7.09196 40.4106 6.8202 40.0889 6.5085 39.8022C6.2503 39.5646 6.07126 39.2693 5.91862 38.9612C5.66398 38.4462 5.42646 37.922 5.17967 37.4034C5.15114 37.3428 5.1547 37.295 5.18609 37.2365C5.21533 37.183 5.26098 37.1352 5.26883 37.0532L5.30948 36.9626L4.99778 37.0282C4.91076 36.9704 4.86012 36.8492 4.7945 36.7479C4.42217 36.173 4.07837 35.5874 3.96496 34.8955C3.88935 34.4326 3.84584 33.9654 3.79163 33.5004C3.70532 32.7564 3.50988 32.0331 3.36366 31.3006C3.22957 30.6301 3.12043 29.9575 3.13042 29.2706C3.13256 29.1387 3.10974 28.9953 3.19034 28.9104L3.39861 28.8348C3.40147 28.8348 3.40361 28.8341 3.40646 28.8341C3.40503 28.8334 3.40432 28.8334 3.40289 28.8334L3.46709 28.8098L3.20674 28.777C3.13755 28.7392 3.14255 28.6779 3.15396 28.5074C3.25453 27.0081 3.42429 25.5174 3.73742 24.0459C3.78806 23.8083 3.85939 23.5751 3.91146 23.3383C3.93571 23.227 3.97993 23.1928 4.09335 23.2249C4.29877 23.2827 4.50633 23.3354 4.71532 23.374C4.83658 23.3961 4.83444 23.4424 4.79878 23.538C4.4992 24.3519 4.27594 25.1871 4.10975 26.0381C3.73314 27.9653 3.65539 29.9026 3.94356 31.8484C4.08693 32.8163 4.24884 33.7814 4.41004 34.7464C4.47638 35.1437 4.65755 35.4997 4.8537 35.8463C5.08123 36.2486 5.32161 36.6438 5.53203 37.0568C5.70321 37.3927 5.95143 37.6773 6.2182 37.9398C6.78525 38.4976 7.22606 39.1331 7.50138 39.8835C7.67471 40.3571 7.95574 40.7636 8.29526 41.1381C8.9743 41.8856 9.65477 42.6303 10.4322 43.2808C10.8595 43.6382 11.3196 43.9335 11.8381 44.1396C12.1641 44.2687 12.4922 44.4092 12.7547 44.6432C13.448 45.2616 14.274 45.5469 15.1748 45.6624C15.9487 45.7616 16.6713 46.0119 17.3603 46.375C17.9873 46.7052 18.6342 46.9799 19.361 47.0105C19.8668 47.0319 20.3703 47.0177 20.8739 46.9841C21.5137 46.9413 22.1535 46.9021 22.7919 46.8422C23.0979 46.8137 23.4011 46.7473 23.7028 46.6853C23.8005 46.6653 23.8283 46.6853 23.8383 46.7794C23.8597 46.9799 23.8818 47.181 23.9203 47.3786C23.941 47.4849 23.9082 47.5084 23.8112 47.5248C23.2641 47.6204 22.7135 47.6439 22.1607 47.6125C21.3597 47.5676 20.5594 47.5398 19.7583 47.6168C19.1114 47.6789 18.4837 47.5697 17.8767 47.3351ZM15.2019 47.0683C13.6498 46.3429 12.0956 45.6232 10.627 44.7352C9.70541 44.1774 8.83735 43.5483 8.04419 42.8179C7.95503 42.7359 7.88655 42.6446 7.83591 42.5347C7.67257 42.1795 7.5021 41.8279 7.33804 41.4726C7.29667 41.3842 7.24246 41.3143 7.16329 41.2558C6.81806 41.004 6.47926 40.7437 6.13261 40.494C5.98068 40.3842 5.85871 40.2551 5.75599 40.0982C5.38652 39.5318 5.04486 38.9484 4.71675 38.3578C4.65683 38.2493 4.65897 38.1673 4.72388 38.0646C4.83087 37.8949 4.92217 37.7158 5.03844 37.509C5.23316 37.9319 5.4122 38.3257 5.59551 38.7173C5.84087 39.2415 6.12975 39.7344 6.57555 40.1217C6.77669 40.2965 6.94574 40.5076 7.09624 40.7287C7.93149 41.9555 9.0064 42.9477 10.1648 43.8557C11.9572 45.2602 13.9401 46.3022 16.1256 46.9613C15.891 47.1311 15.4452 47.1817 15.2019 47.0683ZM4.037 36.949C3.6019 35.9276 3.3708 34.8627 3.31445 33.7571C3.29947 33.4568 3.2153 33.1765 3.08192 32.9062C2.54411 31.8184 2.2645 30.6615 2.16892 29.4554C2.15894 29.3305 2.18675 29.2635 2.31657 29.2278C2.48348 29.1815 2.64825 29.1201 2.80731 29.0502L2.87293 29.0267C2.95281 29.0067 2.96423 29.0559 2.95781 29.1522C2.95067 29.2585 2.95638 29.3662 2.95638 29.4725C2.96351 30.1765 3.08406 30.8655 3.23884 31.5488C3.45924 32.521 3.64184 33.4996 3.72886 34.4939C3.79734 35.2743 4.07195 35.9783 4.50705 36.6252C4.58979 36.7479 4.66254 36.8777 4.74385 37.0018C4.76668 37.0361 4.77381 37.061 4.76811 37.0781L4.53486 37.1274C4.49492 37.1324 4.4564 37.1395 4.41931 37.1516L4.29021 37.1787C4.16467 37.183 4.10048 37.0981 4.037 36.949ZM2.32727 26.4389C2.40002 26.0787 2.57335 25.7349 2.73027 25.3968C2.9521 24.9196 3.06908 24.431 3.03555 23.9018C3.01915 23.6422 3.05053 23.3797 3.05481 23.1186C3.05624 23.0209 3.07692 22.9774 3.18677 23.0102C3.34583 23.0573 3.50846 23.0922 3.67037 23.1286C3.74241 23.1443 3.78164 23.1543 3.75525 23.2534C3.28164 25.0031 3.09975 26.7963 2.96851 28.5973C2.96423 28.6529 2.97421 28.7221 2.93641 28.7428L2.19745 28.6486C2.15109 28.6301 2.13611 28.5923 2.13754 28.5295C2.15038 27.8277 2.18961 27.1251 2.32727 26.4389ZM3.68036 22.1107C3.70532 21.839 3.72672 21.5665 3.73243 21.294C3.73599 21.13 3.77451 20.9831 3.83799 20.8326C4.34299 19.635 5.09336 18.59 5.85229 17.5493C5.90436 17.478 5.97497 17.4609 6.04915 17.4445C6.28097 17.3931 6.51207 17.3411 6.7446 17.2947C6.83946 17.2762 6.88939 17.2433 6.87727 17.1328C6.86371 17.0094 6.88654 16.881 6.86514 16.7597C6.81735 16.483 6.92862 16.2961 7.13405 16.1171C7.53705 15.7661 7.9215 15.3945 8.30596 15.0236C8.39583 14.9366 8.45218 14.9452 8.54206 15.0165C8.74677 15.1784 8.95576 15.336 9.17117 15.483C9.28458 15.5607 9.27103 15.6057 9.17759 15.6884C8.5121 16.2804 7.83948 16.8646 7.21536 17.5008C6.10764 18.6314 5.15114 19.8718 4.47067 21.3097C4.28308 21.7056 4.12544 22.115 3.97708 22.5302C3.94784 22.5187 3.92572 22.5116 3.90433 22.5023C3.64897 22.3911 3.65397 22.3911 3.68036 22.1107ZM9.53851 15.759C9.68045 15.8753 9.83166 15.9801 9.99072 16.0985C9.67617 16.3118 9.38087 16.5101 9.08771 16.7112C8.6305 17.0251 8.23963 17.4103 7.97928 17.8981C7.50138 18.794 6.85159 19.5301 6.05343 20.1521C5.64401 20.4709 5.2888 20.8461 5.144 21.3732C5.05984 21.6799 5.04628 21.9931 5.02489 22.3069C5.01276 22.4845 4.9935 22.6614 4.98565 22.839C4.97924 22.9817 4.92574 22.9909 4.8109 22.9296C4.65398 22.8461 4.49349 22.767 4.3273 22.7063C4.17181 22.6493 4.14399 22.5787 4.20248 22.4189C4.59621 21.3354 5.13972 20.3354 5.81948 19.406C6.6697 18.2441 7.68684 17.2426 8.76317 16.2954C8.95932 16.1228 9.15547 15.9502 9.34521 15.7704C9.41439 15.7048 9.46218 15.697 9.53851 15.759ZM9.5706 13.8781C11.2375 12.4487 13.0921 11.341 15.1855 10.6627C15.9124 10.4273 16.6741 10.3153 17.4252 10.1691C17.5707 10.1405 17.7212 10.1313 17.8625 10.0892C18.0914 10.0207 18.2826 10.0706 18.4766 10.2033C18.7212 10.3702 18.988 10.5043 19.2348 10.6684C19.3568 10.7497 19.4367 10.7318 19.5451 10.6477C19.8696 10.398 20.2041 10.1612 20.533 9.91728C20.5914 9.87377 20.6478 9.8431 20.7255 9.84381C23.1036 9.86735 25.4524 10.1042 27.7385 10.8032C27.8676 10.8431 27.996 10.8859 28.1251 10.9273C28.0388 10.9294 28.016 10.9879 27.9917 11.0521C27.9189 11.2461 27.8383 11.4373 27.7684 11.6327C27.7399 11.7126 27.7085 11.7461 27.6151 11.7233C26.7263 11.5022 25.8141 11.4194 24.9125 11.2746C24.2392 11.1662 23.5701 11.0314 22.8953 10.9323C21.5009 10.7283 20.1036 10.7197 18.7041 10.8966C18.1449 10.9672 17.5828 11.0179 17.0236 11.0871C16.381 11.1662 15.7804 11.3823 15.2048 11.6734C14.3481 12.1063 13.4929 12.5436 12.6284 12.9623C11.7104 13.4066 10.9372 14.0579 10.2004 14.7512C10.0749 14.8696 10.0228 14.8603 9.94222 14.7141C9.82239 14.4958 9.68401 14.2882 9.54635 14.08C9.49286 13.9994 9.48572 13.9509 9.5706 13.8781ZM37.5924 21.2734C37.203 20.6842 36.7729 20.1236 36.357 19.5529C36.0703 19.1592 35.8042 18.7519 35.5995 18.309C35.2386 17.5287 34.6958 16.9095 33.9832 16.4324C33.6922 16.2376 33.414 16.0251 33.1266 15.8261C33.0817 15.7947 33.0574 15.7697 33.0567 15.7376C33.1451 15.6171 33.2329 15.4965 33.3149 15.3845C33.4476 15.2626 33.541 15.3146 33.8556 15.4844C34.8884 16.0422 35.6395 16.8917 36.2729 17.8511C36.9918 18.9402 37.5946 20.0986 38.2394 21.232C38.2536 21.2577 38.2665 21.2841 38.2764 21.3033C38.2807 21.359 38.2386 21.3675 38.2115 21.3868C37.8385 21.6478 37.8392 21.6471 37.5924 21.2734ZM23.7527 44.6011C23.6764 44.3957 23.6008 44.1888 23.5116 43.9891C23.4553 43.8628 23.4973 43.8443 23.6157 43.8393C24.2798 43.8108 24.9439 43.7772 25.5979 43.6417C25.8076 43.5982 26.0152 43.5447 26.2092 43.4563C27.364 42.9334 28.5259 42.4256 29.6886 41.9206C30.2906 41.6595 30.782 41.2487 31.1251 40.6852C31.7357 39.6838 32.4925 38.8121 33.3563 38.0182C34.1523 37.2864 34.5688 36.3306 34.7821 35.2857C34.974 34.3434 35.2579 33.4397 35.7736 32.618C36.1644 31.9953 36.3164 31.3013 36.3791 30.5752C36.459 29.6522 36.5517 28.7321 36.5696 27.8041C36.5938 26.5894 36.3114 25.4567 35.7607 24.3783C35.4298 23.7292 35.0617 23.0979 34.8035 22.4132C34.7828 22.3575 34.7593 22.3026 34.745 22.2456C34.5218 21.3582 34.0353 20.6407 33.3591 20.033C32.7015 19.4417 32.1515 18.7398 31.4739 18.1663C31.2942 18.0144 31.1116 17.8675 30.9261 17.7234C31.0303 17.6528 31.2464 17.503 31.4889 17.3275C31.5025 17.3239 31.5153 17.3218 31.5288 17.3218C31.6522 17.3218 31.7756 17.468 31.9005 17.5472C32.6894 18.0472 33.474 18.5472 34.021 19.3375C34.2743 19.7034 34.5489 20.0544 34.7914 20.4281C35.4419 21.4303 36.0525 22.4588 36.4291 23.5958C36.5296 23.9004 36.6159 24.2092 36.6951 24.5202C36.551 24.5459 36.3934 24.5694 36.2201 24.5908C36.2201 24.5908 36.4319 24.6001 36.7151 24.6008C36.8349 25.0773 36.9426 25.5573 37.0653 26.0331C37.208 26.5844 37.3256 27.1408 37.4098 27.705C37.5047 28.3384 37.4383 28.9603 37.2957 29.5773C37.0903 30.4668 36.8749 31.3512 36.8285 32.2721C36.785 33.1394 36.4769 33.949 36.1509 34.7479C35.6081 36.0796 34.9312 37.3299 33.9911 38.4298C33.5624 38.9312 33.2108 39.4912 32.8584 40.0475C32.2542 41.0012 31.4597 41.7544 30.4653 42.2844C29.2471 42.9342 28.0288 43.5847 26.7691 44.156C25.8483 44.5733 24.8804 44.6831 23.8889 44.7031C23.8083 44.7059 23.7784 44.6703 23.7527 44.6011ZM5.2082 23.4909C5.34229 23.5451 5.55485 23.5066 5.60763 23.625C5.65043 23.7206 5.53702 23.8861 5.49279 24.0202C4.75598 26.2392 4.45712 28.511 4.65612 30.8448C4.72174 31.6152 4.85798 32.3734 4.99921 33.1316C5.06626 33.4925 5.10263 33.8598 5.15114 34.2243C5.21462 34.7029 5.39365 35.1387 5.63331 35.5532C5.85229 35.9333 6.07554 36.3114 6.27669 36.7008C6.44716 37.0311 6.69324 37.3085 6.95501 37.5675C7.48284 38.0881 7.88941 38.683 8.1469 39.3813C8.31095 39.8257 8.56773 40.2123 8.88728 40.5654C9.54564 41.2922 10.2054 42.0154 10.9615 42.6446C11.3524 42.9698 11.7711 43.2423 12.2447 43.4327C12.6035 43.5768 12.9572 43.7387 13.249 43.9969C13.8517 44.5283 14.5693 44.7765 15.3481 44.8821C16.1249 44.9877 16.861 45.2138 17.5557 45.5847C18.1492 45.9014 18.764 46.1632 19.4545 46.1895C19.8882 46.206 20.3211 46.2052 20.7541 46.1731C21.441 46.1225 22.1286 46.0818 22.814 46.0212C23.0672 45.9991 23.3169 45.9378 23.5665 45.8871C23.6685 45.8664 23.7142 45.8821 23.7313 45.997C23.8055 46.4984 23.8083 46.4934 23.2991 46.5911C22.6607 46.7138 22.0123 46.7195 21.3675 46.7687C20.8939 46.8051 20.4195 46.8322 19.9445 46.8458C19.1378 46.8693 18.3803 46.7052 17.6634 46.3286C17.0436 46.0034 16.4138 45.6995 15.7148 45.5733C15.2711 45.4934 14.826 45.4256 14.3867 45.3208C13.9523 45.2174 13.5564 45.0383 13.2112 44.7551C12.7761 44.3985 12.2975 44.1189 11.7739 43.9135C11.0378 43.6246 10.4715 43.0961 9.90727 42.5697C9.28101 41.9855 8.71538 41.3435 8.15689 40.6959C7.94932 40.4548 7.80524 40.1723 7.69682 39.8778C7.40367 39.0839 6.94788 38.4013 6.34445 37.8107C6.00778 37.4804 5.73745 37.1003 5.53131 36.6723C5.40578 36.4112 5.25171 36.163 5.09907 35.9155C4.74813 35.3449 4.53558 34.7308 4.47994 34.0603C4.42573 33.3969 4.26168 32.75 4.15968 32.0938C4.02273 31.2179 3.95426 30.337 3.95069 29.3455C3.96496 27.4582 4.28664 25.5195 4.94856 23.6372C4.99992 23.4917 5.05056 23.4275 5.2082 23.4909ZM10.2311 16.2754C10.3716 16.3846 10.515 16.4894 10.6783 16.6121C10.4223 16.7797 10.1926 16.9373 9.95649 17.0843C9.31739 17.4816 8.80597 18.0001 8.45147 18.6649C8.09982 19.3254 7.62977 19.881 7.03775 20.3375C6.84089 20.4895 6.66542 20.6685 6.47926 20.8347C6.03132 21.2341 5.83517 21.7463 5.80664 22.3347C5.79237 22.6314 5.78167 22.9274 5.73745 23.222C5.72247 23.3219 5.68823 23.349 5.6005 23.2941C5.59051 23.2877 5.57839 23.2855 5.56769 23.2805C5.4286 23.2135 5.24529 23.1807 5.16397 23.0708C5.07981 22.9581 5.18252 22.7784 5.19108 22.6272C5.20962 22.3076 5.20962 21.9866 5.26312 21.6685C5.33088 21.2634 5.50492 20.9167 5.79879 20.6271C6.07412 20.3561 6.36442 20.1007 6.664 19.8582C7.14617 19.4681 7.53277 19.0037 7.83948 18.4652C8.11552 17.9802 8.40368 17.5016 8.83735 17.1321C9.22324 16.8033 9.6562 16.5436 10.0742 16.2619C10.1362 16.2205 10.1783 16.2348 10.2311 16.2754ZM27.6158 12.0343C27.5452 12.1976 27.4831 12.3645 27.4197 12.53C27.3975 12.5878 27.3819 12.642 27.2977 12.6227C26.5887 12.4608 25.8647 12.4173 25.1429 12.3652C24.3069 12.3039 23.5073 12.0899 22.7184 11.8253C21.702 11.4843 20.6713 11.4444 19.6264 11.6555C19.585 11.6641 19.5508 11.6662 19.5222 11.6612C19.4367 11.423 19.3603 11.2454 19.3603 11.2454C19.3603 11.2454 19.3354 11.4223 19.3061 11.6534C19.2305 11.7354 19.1014 11.7625 18.9616 11.7946C17.8724 12.0464 16.8396 12.4701 15.7954 12.8574C15.0728 13.1256 14.3282 13.3282 13.5992 13.5764C12.8039 13.8474 12.1077 14.2683 11.5064 14.8546C11.239 15.1156 10.9522 15.3567 10.6783 15.6121C10.5892 15.6948 10.5378 15.682 10.4865 15.5786C10.4494 15.5044 10.4009 15.4366 10.3573 15.3653C10.1512 15.0308 10.1562 15.0358 10.4486 14.7604C11.3345 13.928 12.3203 13.2533 13.438 12.7633C14.0507 12.4951 14.6392 12.1698 15.2319 11.8588C15.9794 11.4672 16.774 11.2568 17.6135 11.1948C18.3361 11.1413 19.0515 11.0236 19.7747 10.9786C21.1528 10.8945 22.5152 11.0072 23.8661 11.2811C24.6928 11.4487 25.5316 11.5357 26.364 11.6634C26.757 11.7233 27.1472 11.7975 27.5366 11.8795C27.6429 11.9023 27.655 11.943 27.6158 12.0343ZM32.3527 16.2162C32.3006 16.2276 32.2507 16.187 32.1387 16.0978C30.7221 14.963 29.1351 14.1356 27.4411 13.5058C26.8861 13.2996 26.2955 13.2397 25.7106 13.2083C24.6008 13.1491 23.5266 12.9359 22.4745 12.5814C21.635 12.2982 20.7726 12.2818 19.9074 12.4373C19.8325 12.4508 19.7797 12.4487 19.7398 12.4294C19.7113 12.2561 19.6556 12.0564 19.595 11.8717C19.6421 11.821 19.7548 11.806 19.9695 11.7711C21.0109 11.6013 22.0152 11.749 22.9966 12.0985C23.8896 12.4159 24.8169 12.5264 25.7542 12.5935C26.2213 12.627 26.6871 12.6805 27.1486 12.7668C27.2692 12.7896 27.3362 12.8232 27.267 12.9744C27.3605 12.7725 27.4995 12.8439 27.6258 12.8909C29.374 13.545 31.021 14.3852 32.4861 15.555C32.5852 15.6342 32.7557 15.6962 32.7578 15.8082C32.5788 15.9901 32.4262 16.1442 32.3527 16.2162ZM31.4383 17.0094C31.098 16.7512 30.8042 16.4366 30.4504 16.1941C29.3141 15.4152 28.1158 14.7661 26.7627 14.4437C26.6914 14.4266 26.66 14.4059 26.6657 14.366L27.1493 13.5978C27.175 13.6056 27.2021 13.6156 27.2292 13.6242C28.2421 13.9694 29.2036 14.4266 30.1337 14.9523C30.8505 15.3574 31.5274 15.8204 32.1929 16.3746C32.0388 16.5294 31.7792 16.7954 31.526 17.0579C31.4946 17.0565 31.4689 17.0329 31.4383 17.0094ZM20.5586 43.8364C19.498 43.8486 18.4381 43.7216 17.3917 43.524C16.9402 43.4384 16.5336 43.2416 16.1734 42.9641C15.4551 42.4106 14.6691 42.0012 13.7989 41.7437C13.2647 41.5853 12.8067 41.2986 12.4423 40.8678C12.2497 40.6403 12.0293 40.4363 11.7689 40.29C11.0892 39.9099 10.5792 39.3549 10.1155 38.7458C9.6833 38.178 9.29956 37.5789 8.92152 36.9754C8.74249 36.6894 8.66331 36.3642 8.59341 36.0403C8.47287 35.4804 8.25247 34.9676 7.91223 34.5082C7.33162 33.7243 7.08554 32.7971 6.79453 31.8905C6.72534 31.6751 6.72534 31.4447 6.73532 31.2186C6.761 30.6608 6.74531 30.103 6.73889 29.5445C6.71036 26.9931 7.31665 24.5979 8.53849 22.3597C8.74677 21.9781 8.86588 21.5729 8.94149 21.1514C9.04135 20.5922 9.31882 20.1599 9.81526 19.8753C9.83594 19.8639 9.85449 19.8482 9.87517 19.8368C10.6912 19.3982 11.388 18.8233 11.9515 18.0814C12.2796 17.6499 12.7483 17.3924 13.2404 17.1884C13.9729 16.8846 14.6627 16.508 15.3039 16.0429C15.9637 15.5643 16.7255 15.3724 17.5144 15.2733C18.5108 15.1477 19.4887 14.928 20.4752 14.7497C21.431 14.5771 22.3911 14.4737 23.3618 14.6206C23.7819 14.6841 24.1864 14.8075 24.5587 15.0065C25.4917 15.5051 26.4753 15.8553 27.5095 16.0664C28.4382 16.2562 29.225 16.7362 29.9917 17.2612C30.9468 17.9145 31.8192 18.6599 32.5952 19.5208C32.929 19.891 33.2956 20.2313 33.648 20.5843C34.0203 20.9567 34.2878 21.3932 34.4347 21.8989C34.6815 22.7491 35.1223 23.5102 35.5146 24.2941C35.8606 24.9853 36.1751 25.6878 36.2978 26.4589C36.3856 27.0117 36.3955 27.5702 36.3784 28.369C36.352 29.2043 36.2379 30.2728 36.0995 31.3384C36.0689 31.5752 35.974 31.7949 35.8791 32.0125C35.8435 32.0938 35.8099 32.1772 35.7629 32.2521C35.1302 33.2614 34.7771 34.3713 34.5332 35.5296C34.3263 36.5132 33.8449 37.362 33.0924 38.0339C32.3063 38.7358 31.6316 39.5247 31.0895 40.4277C31.0624 40.4733 31.0274 40.5147 30.9989 40.5597C30.6501 41.1146 30.1715 41.5247 29.573 41.7794C28.4282 42.2665 27.2941 42.7787 26.1564 43.2822C25.6058 43.5262 25.0095 43.5875 24.4168 43.6125C23.1293 43.6674 21.8461 43.8215 20.5586 43.8364ZM23.1543 44.7423C22.6871 44.7808 22.2199 44.8272 21.7541 44.8821C21.1164 44.9577 20.4866 44.8921 19.8553 44.8101C19.1849 44.723 18.5108 44.6589 17.8468 44.5226C17.2512 44.4007 16.6777 44.2088 16.1342 43.9384C15.0942 43.4213 14.0486 42.9142 12.9972 42.4199C12.3531 42.1167 11.7832 41.7009 11.2689 41.2087C10.3445 40.3243 9.48002 39.387 8.71681 38.3578C8.62765 38.2379 8.54063 38.1153 8.48785 37.9776C8.22536 37.2921 7.79811 36.7087 7.36871 36.1259C7.2767 36.0011 7.1098 35.8734 7.10837 35.7408C7.2603 35.596 7.54204 35.2957 7.9857 34.954C8.19612 35.3256 8.34947 35.7222 8.43649 36.1495C8.52565 36.5903 8.70326 36.9926 8.95219 37.3699C9.3773 38.014 9.79956 38.6595 10.2932 39.2544C10.6526 39.6873 11.0528 40.0696 11.5428 40.3542C11.806 40.5069 12.0514 40.6888 12.2468 40.9227C12.6769 41.437 13.2233 41.7658 13.8567 41.9534C14.6227 42.1802 15.3196 42.5347 15.948 43.0283C16.565 43.5133 17.2797 43.743 18.0515 43.8165C18.9431 43.9014 19.8325 44.0511 20.7305 44.019C21.4595 43.9927 22.1871 43.9178 22.916 43.8671C23.0808 43.8557 23.2855 43.7851 23.3996 43.8771C23.5059 43.9634 23.4667 44.1774 23.4888 44.335C23.543 44.7173 23.5416 44.7102 23.1543 44.7423ZM6.33874 36.158C6.3473 36.1537 6.35657 36.1495 6.36513 36.1459C6.53204 36.071 6.79595 35.9483 6.95715 35.8549C7.40937 36.5304 7.95646 37.1302 8.25247 37.8934C8.43578 38.367 8.78314 38.7337 9.09128 39.1245C9.75035 39.9619 10.4943 40.7209 11.2682 41.4505C11.7682 41.9213 12.3317 42.3072 12.9537 42.5989C13.968 43.074 14.9772 43.559 15.9773 44.0647C16.9216 44.5426 17.9373 44.7644 18.9802 44.8857C19.4402 44.9392 19.9003 44.9884 20.3582 45.054C20.9952 45.1446 21.6257 45.074 22.2577 45.0098C22.6535 44.9698 23.0494 44.9363 23.4453 44.8949C23.5444 44.885 23.5829 44.9149 23.5922 45.0155C23.6093 45.1988 23.6364 45.3807 23.6664 45.5619C23.6821 45.6589 23.6528 45.6924 23.5537 45.7138C23.1236 45.8058 22.6913 45.8793 22.2512 45.8992C21.5216 45.9321 20.7947 46.0055 20.0643 46.0283C19.2697 46.0526 18.5144 45.9121 17.8211 45.5184C16.9438 45.0198 15.9894 44.7865 15.0043 44.6353C14.4623 44.5519 13.968 44.3486 13.54 43.9927C13.1919 43.7024 12.8096 43.462 12.3838 43.3022C11.6313 43.0205 11.0407 42.5083 10.4686 41.9698C9.87089 41.4077 9.32523 40.7957 8.78885 40.1759C8.58842 39.9441 8.44862 39.6723 8.34448 39.3892C8.05917 38.6103 7.60552 37.9483 7.01422 37.3713C6.70608 37.071 6.46499 36.7194 6.27883 36.3292C6.23246 36.2322 6.25315 36.1994 6.33874 36.158ZM5.96712 23.6693C6.11263 23.717 6.26456 23.7549 6.41649 23.7748C6.54631 23.7927 6.54417 23.849 6.52063 23.9531C6.38653 24.5437 6.21748 25.1229 5.97568 25.6793C5.74244 26.2164 5.63046 26.7742 5.66398 27.3598C5.70393 28.073 5.65471 28.7835 5.60335 29.4946C5.55057 30.2293 5.6326 30.9532 5.81448 31.6644C6.01563 32.4533 6.15329 33.2521 6.23389 34.0617C6.2881 34.6066 6.47141 35.1131 6.7717 35.5717C6.80523 35.6231 6.8202 35.6609 6.8145 35.693C6.63047 35.8149 6.32804 36.0239 6.21107 36.1052C6.17184 36.1052 6.13831 36.0753 6.09979 36.0068C5.80521 35.4797 5.45856 34.9754 5.35585 34.3641C5.28594 33.949 5.2567 33.5267 5.1761 33.1145C4.96996 32.0645 4.81233 31.0103 4.77952 29.9397C4.77452 29.7735 4.7788 29.6073 4.7788 29.4411C4.78594 27.496 5.10763 25.6065 5.76741 23.7748C5.80806 23.6614 5.85015 23.6315 5.96712 23.6693ZM10.7532 16.774C10.8146 16.7376 10.8538 16.7362 10.9087 16.7804C11.0342 16.8803 11.1619 16.978 11.2946 17.0665C11.3788 17.1228 11.3745 17.1649 11.3053 17.2269C11.112 17.4024 10.9244 17.585 10.729 17.7576C9.7154 18.6492 8.74748 19.5843 7.94861 20.6813C7.30523 21.5644 6.82377 22.5195 6.60051 23.5958C6.59053 23.6429 6.60907 23.7192 6.52705 23.7299C6.31592 23.6293 6.11263 23.533 5.91006 23.4353C5.87725 23.4196 5.88153 23.3875 5.88866 23.3583C5.98924 22.9275 5.94929 22.4831 6.01777 22.0487C6.07412 21.6878 6.21392 21.3682 6.46785 21.1007C6.75886 20.794 7.08269 20.5237 7.40723 20.2555C7.81951 19.9146 8.18756 19.5315 8.4208 19.0515C8.92723 18.0087 9.79243 17.3461 10.7532 16.774ZM19.2234 12.5015C19.1749 12.5692 19.0786 12.5956 18.8803 12.6477C18.1114 12.8503 17.3639 13.117 16.6263 13.4088C15.667 13.7882 14.6655 14.0414 13.7005 14.4031C13.1149 14.6221 12.597 14.9466 12.1377 15.3689C11.7975 15.682 11.4686 16.0094 11.1084 16.3011C11.0257 16.3682 10.9808 16.3824 10.9244 16.2747C10.8509 16.1335 10.6947 15.9987 10.6976 15.8639C10.7004 15.7376 10.9073 15.662 11.0178 15.5564C11.2111 15.3724 11.4137 15.1977 11.6034 15.0101C12.1912 14.428 12.8702 13.9908 13.6605 13.7483C15.122 13.3004 16.55 12.7554 17.993 12.254C18.3389 12.1334 18.697 12.0464 19.0522 11.9515C19.1934 11.9137 19.2505 11.9009 19.2719 11.9494C19.2491 12.1484 19.2298 12.351 19.2234 12.5015ZM19.4181 13.7419C19.4195 13.8253 19.3639 13.8289 19.3133 13.8417C18.8589 13.9637 18.3946 14.0208 17.9259 14.0521C17.5764 14.0757 17.2276 14.1028 16.8824 14.162C16.5165 14.2248 16.1649 14.3375 15.8517 14.5343C15.0536 15.0358 14.1905 15.3931 13.3125 15.7205C12.6184 15.9794 12.0264 16.3774 11.5585 16.953C11.4686 17.0636 11.4123 17.0807 11.3402 16.9388C11.2739 16.8068 11.127 16.6848 11.1277 16.5593C11.1284 16.4259 11.326 16.3639 11.4315 16.2633C11.6505 16.055 11.883 15.8596 12.0977 15.647C12.6605 15.0885 13.3196 14.6862 14.0749 14.4566C15.4245 14.0464 16.7412 13.5436 18.0714 13.0771C18.4067 12.9594 18.7498 12.8653 19.0936 12.7754C19.1806 12.7526 19.2227 12.734 19.2369 12.8717C19.264 13.1342 19.3418 13.3917 19.3996 13.6506C19.4003 13.6534 19.401 13.6556 19.4017 13.6577C19.4067 13.6862 19.4124 13.7141 19.4181 13.7419ZM6.57698 30.1216C6.59053 30.3955 6.57769 30.6679 6.55914 30.9404C6.51849 31.5374 6.61692 32.1087 6.84374 32.6623C6.96785 32.9633 7.07413 33.2721 7.18184 33.5788C7.30167 33.919 7.48997 34.2208 7.69968 34.5082C7.80453 34.653 7.89939 34.8014 7.9857 34.954C7.96501 34.9669 7.2767 35.4012 7.00851 35.5689C6.97713 35.5631 6.95145 35.536 6.92149 35.4883C6.65758 35.0639 6.46999 34.6074 6.41863 34.1123C6.3309 33.2671 6.19823 32.4312 5.98353 31.608C5.76598 30.7714 5.72532 29.9204 5.80806 29.0631C5.86441 28.476 5.8637 27.889 5.84016 27.3005C5.82019 26.807 5.89508 26.3291 6.09123 25.8754C6.40436 25.1507 6.61835 24.3961 6.77741 23.625C7.0456 22.3219 7.70895 21.2249 8.53778 20.2127C9.2211 19.3782 9.99928 18.6371 10.8081 17.9267C11.1391 17.6364 11.4658 17.3425 11.7497 17.0058C12.1805 16.4937 12.7176 16.1392 13.3403 15.9024C14.2383 15.5614 15.1263 15.1991 15.9466 14.6877C16.5308 14.3232 17.2027 14.2811 17.8667 14.2355C18.3589 14.2019 18.8496 14.157 19.3254 14.0186C19.4038 13.9958 19.4488 14.0015 19.4766 14.0329C19.5337 14.3146 19.5864 14.5678 19.6164 14.7105C19.5979 14.734 19.5629 14.7462 19.5144 14.7561C18.9502 14.8688 18.3846 14.9723 17.8139 15.0529C17.4445 15.1049 17.075 15.1663 16.7091 15.2398C16.1912 15.3432 15.7098 15.545 15.279 15.8496C14.5928 16.3346 13.8674 16.7433 13.0892 17.0615C12.5057 17.3004 12.0143 17.6692 11.632 18.1706C11.2111 18.7234 10.7004 19.1635 10.0899 19.4923C9.95934 19.5622 9.84022 19.6521 9.71183 19.727C9.17473 20.0422 8.86731 20.513 8.7646 21.1214C8.68471 21.5943 8.50924 22.0266 8.28528 22.4517C7.02278 24.8526 6.44074 27.4083 6.57698 30.1216ZM26.5894 14.3389C26.558 14.3767 26.5166 14.3845 26.4546 14.3717C24.9952 14.0792 23.513 13.9245 22.0565 13.6135C21.3183 13.4558 20.5815 13.4929 19.8561 13.7041C19.7862 13.7248 19.7469 13.7248 19.7277 13.7012C19.7512 13.3153 19.769 12.9195 19.7612 12.6662C19.779 12.642 19.8104 12.6292 19.8596 12.6206C20.7576 12.4594 21.6492 12.4722 22.513 12.7789C23.6207 13.1727 24.7656 13.3317 25.9289 13.4109C26.2242 13.4309 26.5166 13.4872 26.8112 13.5229C26.8804 13.5315 26.9154 13.55 26.9218 13.5849L26.5894 14.3389ZM30.9104 17.7113C30.287 17.2291 29.6322 16.7918 28.9468 16.3988C28.3997 16.085 27.7891 15.9445 27.1836 15.804C26.3997 15.6221 25.6422 15.3753 24.936 14.9844C23.839 14.3767 22.66 14.2911 21.4452 14.4273C20.9081 14.4872 20.376 14.5743 19.8482 14.6905C19.7106 14.7205 19.6649 14.6884 19.6906 14.545C19.7077 14.4466 19.7013 14.3439 19.7034 14.2426C19.7098 13.918 19.712 13.9287 20.033 13.8403C20.8168 13.6242 21.6 13.6784 22.3775 13.8489C23.4802 14.0899 24.5994 14.2248 25.7106 14.4116C25.9696 14.4551 26.2292 14.5393 26.4817 14.5842L26.3719 14.8339L26.5238 14.5921C26.9639 14.667 27.3854 14.7854 27.7898 14.9516C28.9746 15.4395 30.0966 16.0386 31.0467 16.9202C31.1551 17.0208 31.3484 17.0964 31.3684 17.2077C31.3691 17.212 31.3691 17.2162 31.3691 17.2205C31.1801 17.4188 31.0089 17.6 30.9104 17.7113ZM37.7729 24.2641C37.576 24.3141 37.2971 24.4018 36.8884 24.4838C36.8663 24.4717 36.8513 24.4446 36.8399 24.3968C36.3057 22.2434 35.1223 20.4417 33.7586 18.7405C33.4319 18.3332 32.9946 18.0486 32.5624 17.764C32.2707 17.5722 31.9782 17.3824 31.6793 17.1877C31.7842 17.11 31.8891 17.0301 31.9875 16.9523C32.0923 16.8781 32.1936 16.8033 32.2785 16.7105C32.3398 16.6556 32.3926 16.605 32.4354 16.5593C32.4433 16.5622 32.4518 16.5672 32.4611 16.5743C33.0581 17.0215 33.7172 17.3917 34.2101 17.9709C34.3606 18.1478 34.4989 18.3361 34.5974 18.5458C35.0096 19.4217 35.5817 20.1942 36.153 20.9674C36.6823 21.6842 37.1837 22.4182 37.5054 23.2591C37.6181 23.5537 37.693 23.8583 37.7707 24.1628C37.7829 24.2064 37.7836 24.2392 37.7729 24.2641ZM35.5731 37.7001C35.5218 37.77 35.4761 37.7879 35.3977 37.7458C35.2464 37.6652 35.0161 37.6267 34.9604 37.5054C34.9112 37.3977 35.1159 37.2401 35.1958 37.0967C35.9533 35.7486 36.6181 34.362 36.9383 32.8349C37.0118 32.4846 37.0204 32.128 37.0468 31.7728C37.0917 31.1608 37.2236 30.5616 37.3927 29.9753C37.7265 28.8148 37.6673 27.665 37.3699 26.5124C37.213 25.904 37.0617 25.2941 36.9084 24.685C36.9012 24.6579 36.8984 24.6293 36.8941 24.5994C37.2172 24.5951 37.5888 24.5773 37.8485 24.523C37.8606 24.5473 37.8535 24.5851 37.8585 24.6086C37.9533 25.0744 38.0125 25.5452 38.0625 26.0174C38.1523 26.874 38.1766 27.7356 38.2351 28.5944C38.2764 29.2086 38.1345 29.7835 37.9355 30.3527C37.6994 31.0296 37.4234 31.695 37.367 32.4219C37.3285 32.919 37.2843 33.4162 37.2486 33.9133C37.1702 34.9975 36.842 35.9925 36.1951 36.8734C35.9904 37.1523 35.7771 37.4227 35.5731 37.7001ZM23.9717 46.2031C23.971 46.1731 23.9717 46.1439 23.9717 46.1139C23.9717 45.8015 23.9731 45.8065 24.2684 45.7245C25.3433 45.4235 26.4453 45.248 27.5309 44.9969C28.4446 44.7858 29.2842 44.4235 30.0445 43.8714C30.7649 43.3486 31.5117 42.8643 32.2856 42.4234C32.3163 42.4056 32.3456 42.3849 32.3762 42.3671C33.3727 41.8065 34.1016 41.0162 34.5246 39.9398C34.7479 39.3735 35.0032 38.8164 35.3484 38.3071C35.4269 38.1916 35.4747 38.1602 35.5703 38.2857C35.6594 38.4034 35.8221 38.4947 35.8506 38.621C35.8798 38.7501 35.7201 38.8706 35.6495 38.9983C35.3784 39.4862 35.1395 39.9912 34.9326 40.5076C34.541 41.4869 33.8755 42.2145 32.9782 42.7416C31.9746 43.3307 31.0003 43.9641 30.0502 44.6353C29.2107 45.2281 28.2485 45.4948 27.2634 45.701C26.242 45.9149 25.2178 46.1125 24.2092 46.3836C23.9317 46.4577 23.9752 46.4506 23.9717 46.2031ZM32.9618 15.6007C32.8641 15.6235 32.7635 15.5443 32.5474 15.3746C31.0602 14.2062 29.4004 13.3553 27.6308 12.709C27.5117 12.6655 27.5088 12.6384 27.578 12.5486C27.6722 12.4266 27.7684 12.3039 27.8412 12.1684C27.9268 12.01 28.0259 12.0065 28.1857 12.055C29.1622 12.3517 29.9903 12.9088 30.7992 13.5058C31.4433 13.9808 32.0574 14.4972 32.7557 14.896C32.9205 14.9901 33.0895 15.0764 33.2557 15.167C33.2821 15.1813 33.3078 15.1977 33.3384 15.2169C33.2222 15.336 33.0909 15.4694 32.9618 15.6007ZM23.8611 44.8878C24.3212 44.8579 24.7549 44.8514 25.185 44.7987C25.8219 44.7209 26.4168 44.5091 26.9981 44.2473C28.2478 43.6845 29.4561 43.0397 30.6572 42.3821C31.6273 41.8507 32.414 41.1053 32.9961 40.1616C33.5396 39.28 34.1901 38.4769 34.8099 37.6516C34.8684 37.5739 34.9026 37.5632 34.9683 37.6395C35.0767 37.7657 35.2507 37.8692 35.2892 38.0118C35.3299 38.1623 35.1423 38.2886 35.0596 38.4277C34.7892 38.8827 34.5567 39.3592 34.3684 39.8499C33.9625 40.9099 33.2414 41.6738 32.2692 42.2252C31.4326 42.6995 30.6251 43.2223 29.8491 43.7901C28.9689 44.4342 27.961 44.7416 26.9139 44.9527C25.9838 45.141 25.053 45.3222 24.1379 45.574C23.9938 45.6139 23.9574 45.5804 23.9717 45.442C23.9895 45.2573 23.9645 45.0768 23.8611 44.8878ZM23.9695 46.7887C23.9631 46.666 24.0002 46.6189 24.125 46.5854C25.2135 46.2923 26.3184 46.0719 27.4232 45.85C28.5916 45.6161 29.6686 45.1845 30.6258 44.462C31.4368 43.85 32.3242 43.3536 33.1865 42.8193C34.0218 42.3015 34.658 41.6174 35.0417 40.6987C35.2657 40.1638 35.5032 39.6324 35.7871 39.1245C35.8534 39.0061 35.9291 38.8927 36.0089 38.7629C36.2472 39.0183 36.4719 39.2629 36.7008 39.5019C36.7672 39.5711 36.7251 39.616 36.6894 39.6709C36.479 39.9883 36.2493 40.2915 35.9925 40.5718C34.944 41.7137 33.8848 42.8457 32.653 43.7986C32.4254 43.9748 32.1815 44.1189 31.9219 44.2359C31.4304 44.457 30.9796 44.7387 30.5809 45.0997C30.0652 45.5669 29.4461 45.8465 28.8098 46.0997C27.7435 46.5241 26.6322 46.7958 25.5266 47.089C25.0573 47.2138 24.5851 47.3308 24.1172 47.4613C23.9852 47.4984 23.9667 47.4549 23.971 47.3393C23.9774 47.1575 23.9795 46.9727 23.9695 46.7887ZM38.6573 24.3319C38.7522 24.864 38.8278 25.3982 38.8813 25.9361C38.9683 26.8169 38.9976 27.7014 39.0553 28.5844C39.096 29.2036 38.9555 29.7849 38.7572 30.3612C38.576 30.8876 38.362 31.404 38.2429 31.9504C38.1238 32.4975 38.0981 33.056 38.0646 33.613C38.0068 34.5788 37.8692 35.5232 37.4298 36.4027C37.1274 37.0082 36.7058 37.5289 36.3007 38.0632C36.2557 38.1231 36.2144 38.1267 36.1502 38.0939C36.0289 38.0318 35.9048 37.9733 35.7786 37.922C35.6887 37.8856 35.6766 37.8506 35.74 37.7715C35.9248 37.5389 36.1024 37.3014 36.2807 37.0639C36.9833 36.1316 37.3399 35.076 37.4291 33.9169C37.4826 33.2314 37.4897 32.5396 37.6352 31.8634C37.7465 31.3463 37.959 30.8605 38.1217 30.3591C38.3342 29.7071 38.5011 29.2678 38.3906 28.2007C38.3271 26.9503 38.2608 25.7477 38.0311 24.5609C38.0239 24.5259 38.0218 24.4959 38.0261 24.4703C38.121 24.4275 38.3414 24.329 38.5946 24.2213C38.6295 24.2285 38.6459 24.267 38.6573 24.3319ZM38.5789 24.0958C38.3599 24.1436 38.1395 24.19 37.9983 24.2171C37.9976 24.2171 37.9968 24.2171 37.9961 24.2163C37.8984 24.1693 37.8941 23.9225 37.8535 23.7634C37.6202 22.8511 37.1459 22.0608 36.6131 21.2998C36.4226 21.0273 36.2286 20.7577 36.0289 20.4923C35.5788 19.8946 35.1573 19.2798 34.8327 18.6014C34.5189 17.9459 34.0225 17.453 33.4326 17.0443C33.1694 16.8617 32.9133 16.6692 32.648 16.4894C32.6023 16.4587 32.5724 16.4316 32.5617 16.4024C32.6551 16.2804 32.7799 16.1121 32.914 15.9302C32.9155 15.9302 32.9169 15.9295 32.919 15.9288C33.0346 15.9109 33.1822 16.0807 33.3113 16.1741C33.638 16.411 33.964 16.6485 34.2864 16.8903C34.6673 17.1756 34.9918 17.5222 35.1958 17.9481C35.7044 19.0108 36.4198 19.9345 37.1045 20.8803C37.2607 21.0965 37.3977 21.3269 37.5582 21.5394C37.6602 21.6749 37.6388 21.752 37.4883 21.8112C37.4562 21.824 37.4284 21.8468 37.3563 21.8911C37.7415 21.8283 37.7401 21.829 37.9148 22.1486C38.2308 22.7242 38.4462 23.3369 38.5839 23.9781C38.5953 24.0323 38.5967 24.0694 38.5789 24.0958ZM28.7335 11.1477C29.4924 11.4408 30.2164 11.8067 30.934 12.1876C32.5346 13.0372 33.9568 14.1213 35.255 15.3845C35.9918 16.1014 36.6473 16.8739 37.2151 17.7277C37.5432 18.222 37.8856 18.7034 38.3364 19.1036C38.6438 19.376 38.7822 19.7698 38.927 20.1471C38.9969 20.3297 39.0546 20.5166 39.126 20.6985C39.1638 20.7948 39.1395 20.8461 39.0489 20.8946C38.8863 20.9802 38.7272 21.0729 38.5746 21.1756C38.4712 21.2448 38.4327 21.2134 38.377 21.115C37.8713 20.2163 37.3642 19.3176 36.847 18.4245C36.357 17.5786 35.7807 16.7975 35.061 16.1278C34.7372 15.8268 34.3905 15.555 33.9939 15.3624C33.8313 15.2833 33.6708 15.1991 33.5125 15.1135C33.6337 14.9459 33.715 14.8339 33.715 14.8339C33.715 14.8339 33.6145 14.9373 33.4668 15.0878C32.5567 14.59 31.7136 13.9922 30.8905 13.3588C30.1515 12.7896 29.379 12.269 28.4803 11.9722C28.3626 11.933 28.2442 11.8938 28.1265 11.8531C28.1158 11.8495 28.1065 11.8403 28.0873 11.8274C28.2421 11.6042 28.3997 11.3831 28.5502 11.157C28.6137 11.0614 28.6764 11.1256 28.7335 11.1477ZM41.8913 25.2028C41.5561 24.6243 41.2915 24.0066 41.0525 23.379C40.7052 22.466 40.5218 21.5102 40.3057 20.5629C40.126 19.7748 39.8927 19.0037 39.484 18.2976C39.2829 17.9495 39.0432 17.6299 38.6894 17.4245C38.4155 17.2655 38.1994 17.0529 38.0083 16.8075C37.6538 16.3525 37.372 15.8482 37.0418 15.3774C36.8991 15.1741 36.7294 15.0108 36.5054 14.896C36.2465 14.764 35.999 14.6099 35.7764 14.4202C35.4412 14.1349 35.2536 13.7932 35.28 13.3339C35.3056 12.8852 35.0874 12.5978 34.6601 12.4458C34.2928 12.3153 33.9119 12.3132 33.5339 12.3574C33.3834 12.3752 33.352 12.331 33.3177 12.1998C33.1751 11.6627 32.8484 11.2768 32.3349 11.0542C32.1166 10.9594 31.8862 10.9016 31.6579 10.8388C31.307 10.7425 30.9532 10.6363 30.6915 10.3716C30.3584 10.035 29.9489 9.87234 29.5024 9.77248C28.5238 9.55422 27.5573 9.30172 26.6393 8.88089C25.8476 8.51783 25.0095 8.38088 24.1386 8.48217C23.7769 8.52425 23.4303 8.47289 23.0965 8.32168C22.9296 8.24607 22.7562 8.18188 22.5808 8.12909C22.2448 8.02852 22.0886 8.10128 21.9381 8.41797C21.7869 8.73538 21.5415 8.9351 21.1963 8.9943C20.6642 9.0856 20.1592 9.04993 19.7191 8.67618C19.3967 8.40228 19.0151 8.24678 18.5978 8.16761C18.2262 8.097 17.9181 8.18544 17.6634 8.46505C17.182 8.99359 16.5572 9.21898 15.8696 9.31599C15.2989 9.39659 14.7212 9.39373 14.1513 9.48789C13.2868 9.63125 12.52 9.94724 11.9651 10.6627C11.9394 10.6955 11.908 10.7233 11.8809 10.7547C11.6284 11.045 11.3103 11.122 10.9458 11.0386C10.7554 10.995 10.5663 10.9415 10.3759 10.8987C9.86733 10.7832 9.58629 10.9758 9.55491 11.4901C9.51497 12.1399 9.19542 12.6056 8.65903 12.9416C8.23535 13.2062 7.82093 13.4844 7.44218 13.8096C6.62833 14.5101 5.84159 15.2419 4.98138 15.8895C4.48565 16.2626 4.15611 16.779 4.07623 17.4124C4.03985 17.6977 3.89862 17.8946 3.67964 18.0558C3.54983 18.1513 3.41288 18.2362 3.26309 18.2919C3.14469 18.3361 3.0862 18.3974 3.08263 18.5322C3.07764 18.7213 3.04839 18.9103 3.02486 19.0986C2.97207 19.5237 2.88505 19.931 2.66679 20.3154C2.33654 20.8968 2.09974 21.5273 2.07762 22.2013C2.05908 22.7691 1.86079 23.2384 1.50272 23.6571C1.20172 24.0088 0.893583 24.3554 0.591153 24.7056C0.380023 24.9503 0.255913 25.237 0.20955 25.5544C0.0740271 26.4774 0.29657 27.3341 0.717403 28.1472C0.851499 28.4054 0.9321 28.6729 0.958491 28.9589C0.987735 29.2671 0.984882 29.5752 0.97561 29.8848C0.956351 30.5196 0.92782 31.1544 1.02554 31.7871C1.11185 32.342 1.28517 32.8698 1.50201 33.3841C1.61827 33.6594 1.59687 33.9133 1.4157 34.1551C1.2973 34.3128 1.2117 34.4897 1.15393 34.678C0.997008 35.1922 1.05621 35.6495 1.50058 36.0118C1.66963 36.1495 1.77163 36.3399 1.84866 36.5418C1.93782 36.7757 2.00416 37.0175 2.02627 37.2657C2.0869 37.9305 2.32727 38.4954 2.83156 38.9562C3.16537 39.2615 3.425 39.6388 3.59833 40.0604C3.92073 40.8435 4.39363 41.5297 4.93929 42.1688C5.96142 43.3657 7.164 44.3108 8.65761 44.8678C9.57916 45.2116 10.485 45.5982 11.3716 46.0255C11.8795 46.2701 12.3831 46.5241 12.826 46.8793C13.0478 47.0576 13.2169 47.263 13.2789 47.5583C13.3474 47.885 13.4829 48.1917 13.6912 48.4571C13.9765 48.8215 14.3424 48.997 14.8146 48.915C15.1071 48.8643 15.3988 48.8137 15.6991 48.8543C16.1056 48.91 16.4523 49.099 16.7768 49.3337C17.172 49.6204 17.5985 49.6839 18.06 49.5398C18.2633 49.4763 18.4695 49.4164 18.6663 49.3358C18.9595 49.2167 19.2255 49.2645 19.473 49.4421C19.6613 49.5769 19.8389 49.726 20.0272 49.8608C20.294 50.0512 20.4645 50.0498 20.687 49.8166C21.0458 49.4407 21.4524 49.3622 21.936 49.5291C22.2712 49.6454 22.6029 49.7766 22.9531 49.8479C23.9624 50.0527 24.8818 49.9385 25.7534 49.303C26.7763 48.5569 27.9553 48.2131 29.2364 48.3001C29.4496 48.3001 29.6636 48.3023 29.8769 48.2994C30.3056 48.2937 30.628 48.1182 30.8213 47.721C30.9012 47.5562 31.0003 47.4 31.1002 47.2459C31.225 47.0533 31.4047 46.9278 31.6301 46.8836C32.2942 46.7516 32.9069 46.4841 33.5018 46.1731C35.1109 45.3308 36.3092 44.064 37.2351 42.5226C37.4918 42.0961 37.7251 41.6552 37.9726 41.223C38.0489 41.0903 38.1195 40.9491 38.2786 40.8899C38.8064 40.693 39.1852 40.3171 39.5047 39.8692C39.9691 39.2194 40.3343 38.5133 40.6588 37.7871C41.6859 35.4925 42.1082 33.0667 42.1567 30.5709C42.1745 29.6501 42.1617 28.7292 42.3357 27.8205C42.5147 26.8933 42.3699 26.0295 41.8913 25.2028Z" fill="#037847"/>
<path d="M24.3966 42.689C23.9201 42.8544 23.4323 42.9329 22.7154 42.9179C21.7696 42.7988 20.6034 42.8245 19.4429 42.7425C19.0249 42.7132 18.6283 42.5777 18.2453 42.4186C17.0912 41.9386 15.9165 41.4985 14.7966 40.9464C13.2224 40.1697 11.7823 39.1896 10.6867 37.7759C10.4128 37.4221 10.1817 37.0441 9.96915 36.6532C9.65032 36.0648 9.3058 35.4892 9.14175 34.8294C9.09753 34.6518 9.00837 34.4849 8.90494 34.3336C8.4677 33.6953 8.28225 32.9684 8.15885 32.2216C7.98339 31.1624 7.90635 30.0889 7.7102 29.0319C7.65314 28.7251 7.68952 28.4106 7.77511 28.1139C8.01192 27.295 8.14601 26.4605 8.22804 25.6145C8.25372 25.3521 8.34003 25.1024 8.46984 24.8749C8.85073 24.2087 9.12249 23.494 9.44132 22.7992C10.2052 21.1316 11.3208 19.7478 12.8294 18.6858C14.1639 17.7464 15.6026 17.0224 17.1576 16.5288C17.4914 16.4225 17.8095 16.2763 18.1305 16.138C18.5463 15.9582 18.9807 15.8676 19.4308 15.8983C20.3238 15.9589 21.209 15.9061 22.0941 15.7806C22.5414 15.7171 22.9886 15.7777 23.4137 15.9175C24.6527 16.3248 25.9159 16.6494 27.1591 17.0402C28.6178 17.4982 29.8196 18.3598 30.8553 19.4604C31.2391 19.8684 31.6357 20.2578 32.0715 20.6073C32.5009 20.9526 32.8432 21.3684 33.1564 21.8235C34.003 23.0546 34.5187 24.4198 34.8918 25.8521C35.0294 26.3792 35.2042 26.897 35.3319 27.427C35.3975 27.6973 35.436 27.9776 35.3418 28.2366C35.0487 29.0483 35.0772 29.8942 35.033 30.7337C34.9852 31.6503 34.7898 32.5262 34.3447 33.3422C33.9374 34.0876 33.6877 34.9028 33.3561 35.6825C33.3026 35.808 33.2434 35.9307 33.1906 36.0562C32.8775 36.798 32.4046 37.4043 31.7077 37.8266C31.5151 37.9428 31.3389 38.0862 31.1542 38.2153C30.7134 38.5234 30.3439 38.9043 30.1121 39.3886C29.7333 40.1804 29.0964 40.684 28.3474 41.082C27.7433 41.4029 27.0971 41.6212 26.4623 41.8694C25.7725 42.1397 25.097 42.4457 24.3966 42.689ZM30.2968 39.4286C30.5094 38.9749 30.871 38.6319 31.2804 38.3444C31.4602 38.2182 31.6342 38.0826 31.8204 37.9671C32.5344 37.5284 33.0215 36.9043 33.3511 36.1425C33.8304 35.0334 34.2284 33.8893 34.7898 32.8158C34.8361 32.7273 34.8625 32.6282 34.8946 32.5326C35.1821 31.6831 35.2348 30.8008 35.2441 29.9149C35.2491 29.4477 35.3033 28.9933 35.451 28.549C35.5936 28.121 35.595 27.6909 35.4766 27.2522C35.3147 26.6509 35.1229 26.0589 34.9602 25.4583C34.6649 24.3663 34.2833 23.3157 33.6913 22.3406C33.2027 21.5367 32.667 20.7871 31.8967 20.225C31.6185 20.0225 31.3789 19.7721 31.1478 19.5153C30.0529 18.297 28.764 17.3626 27.1898 16.8612C25.9815 16.476 24.749 16.1722 23.5464 15.7685C22.9394 15.5652 22.3145 15.5466 21.6812 15.6437C21.1298 15.7278 20.5742 15.7927 19.9714 15.7214C19.883 15.7214 19.7517 15.7292 19.6219 15.72C18.9971 15.6743 18.4072 15.7963 17.843 16.0645C17.5969 16.1815 17.343 16.2827 17.0834 16.3655C15.599 16.8398 14.2203 17.5238 12.9285 18.3969C11.3008 19.4968 10.0918 20.944 9.27798 22.7201C8.962 23.4091 8.69167 24.1188 8.31577 24.7807C8.14102 25.0889 8.04544 25.4291 8.02048 25.7807C7.96841 26.4997 7.84073 27.203 7.64315 27.8963C7.53046 28.2922 7.46555 28.7002 7.54187 29.111C7.72304 30.0861 7.79722 31.0761 7.94915 32.0547C8.07897 32.89 8.26014 33.711 8.7523 34.4264C8.84217 34.5562 8.92135 34.7053 8.95915 34.8572C9.13319 35.5519 9.49767 36.1575 9.83291 36.7773C10.0398 37.1582 10.2673 37.5248 10.5326 37.8701C11.6396 39.3052 13.099 40.2966 14.6903 41.0948C15.6896 41.5962 16.7581 41.9536 17.7753 42.4229C18.5834 42.796 19.4301 42.9871 20.3266 42.9736C20.9379 42.9643 21.5492 42.9957 22.1583 43.0584C22.913 43.1362 23.6676 43.1469 24.393 42.8773C25.632 42.4179 26.8631 41.9365 28.075 41.4101C29.0251 40.9985 29.8361 40.4101 30.2968 39.4286Z" fill="#037847"/>
<path d="M15.986 39.2266C15.986 39.2266 15.8719 39.1018 15.9332 39.0447C15.9938 38.987 16.0666 38.9049 16.0152 38.8415C15.9639 38.778 15.9154 38.4499 16.0908 38.0918C16.267 37.7337 16.5402 37.248 16.5523 37.1325C16.5644 37.0169 16.6251 36.8051 16.6187 36.5255C16.6122 36.2466 17.098 35.6881 17.1408 35.6089C17.1836 35.5297 17.165 35.4149 17.1957 35.3421C17.2264 35.2694 17.3169 35.1174 17.3048 35.0204C17.2927 34.9234 17.2278 34.6017 17.3063 34.3528C17.384 34.1039 17.451 33.825 17.4268 33.5761C17.4025 33.3271 17.5117 33.2358 17.5117 33.1695C17.5117 33.1024 17.4995 32.775 17.5545 32.6959C17.6094 32.6167 17.7792 32.4534 17.7185 32.3556C17.6579 32.2586 17.5851 32.2786 17.573 32.1559C17.5609 32.034 17.5488 31.6937 17.573 31.5418C17.5973 31.3899 17.5124 30.9469 17.4154 30.7772C17.3184 30.6074 17.1607 30.2672 17.1729 30.0304C17.185 29.7936 17.1179 29.4961 16.6386 29.3991C16.6386 29.3991 16.5052 29.4055 16.4746 29.3991C16.4439 29.3934 15.6857 28.6402 16.2927 27.7479C16.2927 27.7479 16.1714 27.5717 16.0744 27.4868C15.9774 27.4019 15.8134 27.1651 15.6679 26.6245C15.5223 26.0845 15.2249 25.5381 15.0972 25.459C15.0972 25.459 14.8547 25.3741 14.5815 25.3741C14.5815 25.3741 14.4082 25.362 14.436 25.307C14.436 25.307 14.2113 25.3042 14.2113 25.2771C14.2113 25.25 14.1778 25.1494 14.3233 25.1466C14.4688 25.1437 14.5416 25.1651 14.5416 25.1651C14.5416 25.1651 14.5109 25.1073 14.6086 25.1073C14.7056 25.1073 14.9517 25.0888 15.088 25.1316C15.2242 25.1737 15.4432 25.1908 15.4853 25.1031C15.5281 25.016 15.6008 24.822 15.7313 24.8427C15.8619 24.8641 15.7891 24.934 15.7706 24.949C15.7527 24.964 15.6914 25.0096 15.6978 25.2771C15.7035 25.5439 15.7071 25.6052 15.7584 25.6901C15.8098 25.775 15.9895 26.0909 16.0195 26.1937C16.0502 26.2971 16.1593 26.4911 16.2684 26.5731C16.3776 26.6551 16.5081 26.8948 16.6358 27.2258C16.6358 27.2258 16.6935 27.2472 16.7634 27.183C16.8333 27.1195 16.9575 27.0674 17.0794 27.1195C17.2007 27.1708 17.3219 27.2258 17.3983 27.2472C17.4739 27.2686 17.5716 27.1922 17.5987 27.1623C17.6258 27.1316 17.6622 27.0988 17.7114 27.1109C17.7599 27.123 17.7749 27.1687 17.7692 27.1865C17.7635 27.2051 17.7656 27.2201 17.7706 27.2322C17.7756 27.2443 17.8298 27.2443 17.8726 27.2443C17.9154 27.2443 17.9667 27.2928 17.9974 27.3142C18.0274 27.3356 18.3583 27.566 18.389 27.6116C18.419 27.6573 18.4496 27.7329 18.389 28.0788C18.389 28.0788 18.5288 28.0817 18.5866 28.0032C18.6444 27.9241 18.5923 27.8577 18.6658 27.7907C18.7385 27.7236 18.8783 27.7058 18.8961 27.5539C18.9147 27.4019 18.9931 27.1323 19.0481 27.0439C19.103 26.9561 19.0181 26.6402 19.3334 25.9205C19.3334 25.9205 19.5638 25.2678 19.5153 25.0767C19.4668 24.8855 19.3512 24.7336 19.3334 24.6487C19.3148 24.5638 19.1907 24.5003 19.1815 24.4697C19.1722 24.439 19.1879 24.3905 19.2542 24.3998C19.3213 24.409 19.3819 24.4911 19.409 24.5182C19.4361 24.5453 19.4482 24.5117 19.4482 24.4575C19.4482 24.4026 19.4482 24.1694 19.491 24.133C19.5338 24.0966 19.6151 24.1209 19.6365 24.163C19.6579 24.2058 19.7036 24.1601 19.7186 24.2115C19.7335 24.2628 19.7428 24.3876 19.7428 24.3876C19.7428 24.3876 19.7763 24.3149 19.8184 24.3448C19.8612 24.3755 19.8184 24.5602 19.8519 24.648C19.8855 24.7357 19.9518 24.7757 19.9611 24.8755C19.9703 24.9754 19.9033 24.9668 19.8912 25.1637C19.8912 25.1637 19.7685 26.2093 19.7635 26.3277C19.7592 26.4461 19.6907 26.7693 19.5859 26.9511C19.5859 26.9511 19.5723 27.3791 19.4903 27.5931C19.4903 27.5931 19.4175 27.7935 19.4404 28.1716C19.4404 28.1716 19.4361 28.3306 19.3719 28.5132C19.3084 28.6951 19.4447 29.0004 19.5131 29.1188C19.5816 29.2372 19.7364 29.6152 19.7956 29.8064C19.8548 29.9976 19.9546 30.1937 20.0188 30.2936C20.0823 30.3934 20.0417 30.9719 20.0509 31.0996C20.0602 31.2272 20.0738 31.6281 20.1144 31.6552C20.1551 31.6823 20.1601 31.7643 20.1144 31.8143C20.0688 31.8642 19.9689 31.8963 19.9689 31.8963C19.9689 31.8963 19.9283 32.534 19.9689 32.616C20.0096 32.698 20.083 32.7708 20.078 32.8663C20.073 32.9619 20.0417 33.0575 20.0459 33.208C20.0509 33.3585 20.123 33.4855 20.128 33.7316C20.1323 33.9776 20.0959 34.2365 20.0231 34.5689C19.9504 34.9013 19.909 35.3386 19.9004 35.4748C19.8912 35.6117 19.7321 36.044 19.6679 36.1488C19.6044 36.2537 19.5588 36.5083 19.5766 36.718C19.5952 36.9277 19.6857 37.2958 19.6722 37.5076C19.6586 37.7195 19.5952 38.243 19.5723 38.3479C19.5495 38.4527 19.5538 38.6253 19.317 38.753C19.317 38.753 19.3262 39.263 19.3398 39.3629C19.3534 39.4627 19.2942 39.5312 19.1579 39.5269C19.0217 39.5219 19.0074 39.5362 19.0581 39.604C19.108 39.6724 19.2856 39.8222 19.3084 39.8907C19.3312 39.9592 19.3904 40.1411 19.1536 40.1368C18.9168 40.1325 18.4796 40.1917 18.3298 39.9913C18.1793 39.7908 18.17 39.6817 18.1201 39.5997C18.0702 39.5176 17.9468 39.3721 17.9468 39.3129C17.9468 39.2537 17.956 39.049 17.9332 39.0077C17.9104 38.967 17.8876 38.8122 17.9011 38.7116C17.9147 38.6111 18.0652 38.3379 18.1515 38.2338C18.2378 38.1289 18.2742 38.0832 18.2335 38.024C18.1929 37.9648 18.0973 37.8329 18.1929 37.4185C18.2884 37.0041 18.4204 36.8949 18.4753 36.4848C18.5302 36.0747 18.4568 35.9477 18.4568 35.9477C18.4568 35.9477 18.3933 35.9206 18.3476 36.034C18.302 36.1481 18.0424 36.462 18.0424 36.462C18.0424 36.462 18.0288 37.1631 17.8241 37.6959C17.8241 37.6959 17.7421 37.9235 17.7192 38.2017C17.6964 38.4791 17.6279 38.589 17.4282 38.83C17.4282 38.83 17.4325 39.1211 17.3918 39.1667C17.3512 39.2124 17.1643 39.3308 17.1237 39.3258C17.1237 39.3258 17.1008 39.4399 17.1329 39.4898C17.165 39.5398 17.2107 39.5355 17.2057 39.6218C17.2014 39.7081 17.1786 39.8814 16.8234 39.8586C16.4681 39.8358 16.2813 39.6539 16.2449 39.5034C16.205 39.3543 16.1179 39.2644 15.986 39.2266Z" fill="#262325"/>
<path d="M24.5733 22.8577V23.9968C24.243 24.0381 23.932 24.0567 23.6396 24.0567C21.698 24.0567 20.5668 23.2279 19.9363 22.4668C19.2123 21.5909 19.0097 20.6401 18.9726 20.4325C18.969 20.4211 18.9662 20.4076 18.9619 20.3926H20.1196C20.1916 20.6693 20.3842 21.2514 20.8364 21.7813C21.646 22.7314 22.9028 23.0938 24.5733 22.8577Z" fill="#262325"/>
</g>
<defs>
<clipPath id="clip0_1210_24313">
<rect width="44.3109" height="50" fill="white"/>
</clipPath>
</defs>
</svg>
