<svg width="227" height="75" viewBox="0 0 227 75" fill="none" xmlns="http://www.w3.org/2000/svg">
<g clip-path="url(#clip0_113_2979)">
<path d="M52.1767 71.9916C49.9183 71.8228 47.8905 72.4106 46.0933 73.6734C45.2074 74.295 44.3074 74.7197 43.2387 74.8547C41.9449 75.0206 40.7159 74.7956 39.5234 74.3287C38.5334 73.9406 37.625 73.9097 36.8291 74.7337C36.5197 75.0544 36.1569 75.0712 35.7913 74.8519C35.5297 74.6972 35.2709 74.5228 35.0403 74.3231C34.4272 73.7859 33.7635 73.6172 32.9844 73.9322C32.6525 74.0672 32.2897 74.1319 31.9466 74.2472C31.2744 74.475 30.6641 74.2922 30.0763 73.9716C29.8541 73.8506 29.6432 73.7072 29.4379 73.5638C28.5295 72.9309 27.5226 72.8691 26.4736 73.0322C25.357 73.2094 24.5217 72.8016 23.9958 71.806C23.8355 71.5022 23.6611 71.1928 23.588 70.8638C23.3742 69.8907 22.7442 69.2579 21.9089 68.8529C20.0077 67.936 18.1205 66.9545 16.149 66.2176C12.2903 64.7748 9.27814 62.3533 7.10129 58.8827C6.5388 57.9827 6.09724 57.0068 5.54881 56.0984C5.29006 55.6709 4.93288 55.294 4.5757 54.9368C3.90352 54.2646 3.56602 53.4518 3.4704 52.5237C3.36071 51.4775 3.07665 50.5297 2.26385 49.7647C1.53824 49.0784 1.52417 48.1222 1.94886 47.346C2.52822 46.2913 2.63228 45.3857 2.10917 44.2579C1.47917 42.8966 1.45105 41.3835 1.50449 39.8901C1.51574 39.547 1.49042 39.2011 1.51855 38.8608C1.62542 37.567 1.3498 36.3773 0.773245 35.2017C0.399187 34.4367 0.188252 33.5649 0.0476292 32.7155C-0.157681 31.4724 0.250127 30.3615 1.07699 29.4109C1.5748 28.8371 2.0726 28.2662 2.57041 27.6925C3.11884 27.0568 3.43384 26.3284 3.46759 25.4762C3.51259 24.3766 3.79102 23.3078 4.3282 22.3656C4.93851 21.2913 5.19444 20.1551 5.27319 18.9569C5.30131 18.521 5.47006 18.2707 5.86381 18.0879C6.5163 17.787 6.95504 17.3285 7.08442 16.5523C7.26442 15.4554 7.90847 14.592 8.74096 13.8861C10.2822 12.5755 11.8375 11.2817 13.4012 9.99924C13.944 9.55487 14.5178 9.13582 15.1168 8.76738C16.1434 8.1402 16.793 7.27678 16.8774 6.06742C16.9393 5.17868 17.5637 4.7315 18.5846 4.98181C18.8827 5.05493 19.1752 5.15618 19.4761 5.21524C20.1061 5.33899 20.6658 5.21524 21.0792 4.68087C22.1677 3.27464 23.6723 2.64465 25.3767 2.42246C26.4314 2.28465 27.4945 2.20028 28.5548 2.08497C29.7444 1.95559 30.7007 1.35654 31.5276 0.538112C32.0225 0.0515556 32.6075 -0.0946925 33.2207 0.107805C33.8647 0.321552 34.5116 0.594361 35.0713 0.968419C36.0359 1.61247 37.0175 1.93872 38.1115 1.40435C38.4153 1.25529 38.7022 0.965607 38.8709 0.670298C39.3209 -0.11438 40.0212 -0.150942 40.744 0.186554C41.4302 0.507175 42.1221 0.765922 42.8815 0.664673C44.7827 0.411551 46.5124 0.971232 48.2533 1.64341C49.5611 2.14965 50.9308 2.51246 52.292 2.86683C53.237 3.11152 54.0779 3.47432 54.8541 4.09307C55.3294 4.47275 55.9594 4.709 56.5557 4.87212C57.8944 5.24055 59.0053 5.82836 59.5313 7.22053C59.5931 7.38084 59.9672 7.50459 60.1978 7.50459C60.9713 7.50459 61.7081 7.58896 62.3634 8.05021C62.7628 8.33145 62.9822 8.69988 62.9653 9.19769C62.9259 10.3536 63.4743 11.2199 64.4559 11.712C65.5668 12.2689 66.2924 13.138 66.8999 14.1645C67.5496 15.2642 68.3821 16.167 69.4086 16.9601C70.0696 17.472 70.5364 18.3157 70.9161 19.0948C71.8836 21.0972 72.0552 23.3444 72.7217 25.4369C73.2617 27.1328 73.9086 28.8203 74.7298 30.398C75.6439 32.1558 75.9983 33.8939 75.5314 35.8261C75.3373 36.6277 75.2783 37.4686 75.2361 38.2983C75.1292 40.3542 75.2276 42.4354 74.9464 44.466C74.6511 46.6035 74.1589 48.7409 73.4699 50.7856C72.8342 52.67 71.8696 54.4502 70.9639 56.2333C70.4436 57.2571 69.6421 58.0643 68.5902 58.6155C68.219 58.8096 67.8646 59.1724 67.6649 59.5436C66.4528 61.8217 65.0943 63.9817 63.1734 65.7479C61.3312 67.4438 59.2332 68.6841 56.8144 69.3226C56.0438 69.5251 55.4869 69.9188 55.1776 70.6079C54.7023 71.671 53.8979 72.0703 52.787 71.9831C52.5704 71.9775 52.351 71.9916 52.1767 71.9916ZM64.8131 35.573C64.7596 35.573 64.709 35.5702 64.6556 35.5702C64.9143 33.2049 64.2478 31.0702 63.1734 29.0003C62.4169 27.5462 61.8347 26.0022 61.1597 24.5059C60.9459 24.0306 60.7659 23.5019 60.4284 23.1278C59.2444 21.8144 58.021 20.5319 56.7694 19.2804C55.3576 17.8657 53.7488 16.6845 52.0192 15.7029C51.0264 15.1404 49.9126 14.772 48.8298 14.3895C47.6064 13.9564 46.3436 13.6414 45.123 13.2111C44.0037 12.8173 42.9462 12.2014 41.8043 11.9258C40.1703 11.532 38.494 11.7486 36.8487 12.0298C35.0178 12.342 33.1953 12.7076 31.3588 12.9917C29.7276 13.242 28.206 13.6976 26.842 14.6876C26.0432 15.267 25.1545 15.7423 24.2517 16.1529C23.0902 16.6817 21.9455 17.1907 21.1411 18.2398C20.9217 18.5266 20.7024 18.8304 20.4239 19.0526C19.5493 19.7472 18.6858 20.4616 17.7493 21.0607C16.7396 21.7047 16.0956 22.5175 15.9212 23.7241C15.8509 24.2163 15.6821 24.7141 15.4571 25.1612C14.3603 27.3437 13.3084 29.5459 12.8134 31.9562C12.535 33.3146 12.2847 34.6899 12.1694 36.0708C12.0569 37.3983 12.2453 38.7511 12.1019 40.0729C11.8319 42.5732 12.7347 44.7107 13.8962 46.806C14.3153 47.5625 14.8862 48.2797 15.1084 49.0897C15.4853 50.4847 15.9971 51.7784 16.8127 52.9765C17.9433 54.6443 19.0908 56.2727 20.8261 57.3893C21.3689 57.738 21.8892 58.1514 22.3308 58.6183C22.9608 59.2792 23.6723 59.7461 24.5414 60.0245C26.0657 60.5111 27.4776 61.217 28.7713 62.1817C29.3113 62.5839 29.9554 62.9186 30.6023 63.0873C32.9957 63.7145 35.4509 63.827 37.9147 63.7258C39.5206 63.6583 41.1237 63.5064 42.7296 63.4417C44.5155 63.3686 46.2311 63.0873 47.8567 62.2633C49.1589 61.6023 50.5342 61.0877 51.8786 60.5111C53.3017 59.898 54.5279 59.0599 55.3548 57.693C56.2098 56.2812 57.1857 54.9424 58.4653 53.8878C60.2766 52.3943 61.1963 50.4312 61.6659 48.1953C61.995 46.6316 62.504 45.1438 63.3337 43.7601C63.7275 43.1019 64.1015 42.3595 64.2056 41.617C64.4868 39.6061 64.619 37.5867 64.8131 35.573ZM13.6009 48.3584C13.6375 48.4063 13.6768 48.4513 13.7134 48.4991C13.539 48.6819 13.39 48.9069 13.1847 49.0419C12.7825 49.3034 12.7628 49.5678 13.0468 49.9306C13.8568 50.9712 14.6359 52.0315 15.1281 53.2774C15.2715 53.6403 15.5106 53.9778 15.7665 54.2787C16.8521 55.5584 17.9152 56.8605 19.0711 58.0755C20.3058 59.3721 21.6361 60.573 23.3011 61.3295C24.3361 61.802 25.3626 62.2942 26.392 62.7836C27.4354 63.2814 28.4592 63.827 29.5166 64.2882C31.1929 65.0167 33.0013 65.1714 34.7844 65.4667C36.995 65.8323 39.1775 65.6551 41.3656 65.3626C41.5006 65.3457 41.6834 65.2276 41.7312 65.1123C41.9506 64.5751 41.5821 64.0604 41.0027 64.0745C40.5331 64.0857 40.0662 64.1307 39.5965 64.1561C38.2803 64.2236 36.9641 64.3445 35.6506 64.3389C34.6803 64.3332 33.71 64.1701 32.7397 64.0661C31.1057 63.8889 29.5279 63.5542 28.2032 62.477C27.1964 61.6558 26.0432 61.0961 24.8029 60.722C23.6723 60.3817 22.6992 59.8136 21.8499 58.9783C21.2874 58.4271 20.6208 57.9799 19.9993 57.4849C19.7039 57.2486 19.389 57.0321 19.1218 56.7705C17.6733 55.3559 16.599 53.6599 15.5359 51.9584C15.3109 51.5984 15.1506 51.1822 15.0296 50.7715C14.7034 49.6662 14.4643 48.5272 13.7303 47.5878C12.7037 46.2744 12.2762 44.6938 11.7728 43.1498C11.6294 42.7082 11.5056 42.2329 11.5112 41.7745C11.545 39.2854 11.3903 36.7908 11.7869 34.3074C12.1722 31.8999 12.7628 29.5684 13.7921 27.355C14.2421 26.3903 14.7062 25.4312 15.1393 24.4581C15.2856 24.1319 15.4065 23.7747 15.4487 23.4231C15.6231 21.9325 16.5652 21.0466 17.7887 20.3716C18.7955 19.8176 19.7124 19.1594 20.4099 18.2257C21.3239 16.9967 22.5699 16.2345 23.962 15.6523C24.6595 15.3626 25.3711 15.0392 25.9701 14.5892C27.7307 13.2701 29.6882 12.5614 31.8679 12.3702C32.7116 12.2942 33.5413 12.0833 34.3766 11.9286C34.6381 11.8808 34.8322 11.7542 34.7085 11.4448C34.6072 11.1917 34.6831 10.798 34.1713 10.8739C33.1728 11.023 32.1547 11.0708 31.1647 11.2564C30.2141 11.4336 29.2523 11.6445 28.3607 12.0045C27.0951 12.5164 25.9139 13.242 24.6483 13.7595C23.0648 14.4036 21.6164 15.1882 20.5336 16.5579C20.2468 16.9235 19.8783 17.2329 19.524 17.5395C17.8421 18.9963 16.2249 20.5179 14.8581 22.2897C13.6965 23.7916 12.76 25.3919 12.2903 27.2593C11.919 28.7246 11.5169 30.1927 10.9881 31.6074C10.6309 32.5665 10.4847 33.5086 10.4988 34.5127C10.5128 35.4858 10.5072 36.4702 10.4003 37.4348C10.2231 39.0211 10.3834 40.5651 10.7237 42.1148C11.0106 43.4366 11.185 44.781 11.4437 46.1085C11.5815 46.8144 11.7419 47.5203 11.9753 48.1981C12.22 48.9069 12.4422 48.9547 13.1031 48.5975C13.2634 48.5103 13.435 48.4372 13.6009 48.3584ZM42.0715 64.0886C42.2655 65.0785 42.4315 65.3064 42.949 65.3035C44.6111 65.3007 46.2255 65.0532 47.733 64.3079C49.6736 63.3461 51.6198 62.3898 53.5548 61.4139C55.1832 60.5899 56.6513 59.5521 57.7425 58.0586C58.3388 57.243 58.8732 56.3824 59.4666 55.5668C60.2625 54.4727 61.1934 53.4631 61.8769 52.3043C62.8303 50.6928 63.6965 49.0166 64.4334 47.2981C64.9481 46.1 65.249 44.7951 65.5246 43.5098C65.8003 42.2273 65.8903 40.9082 66.1293 39.6173C66.4134 38.0901 66.8381 36.5827 66.5287 35.0077C66.3177 33.9277 66.1152 32.8449 65.8593 31.7762C65.5162 30.3559 65.2096 28.9159 64.7343 27.5378C64.0453 25.5494 62.9653 23.7466 61.8066 21.9944C60.5916 20.1579 59.2556 18.4394 57.2588 17.3679C56.9747 17.216 56.7272 16.8898 56.4432 16.8617C56.1366 16.8335 55.8048 17.0613 55.4841 17.1767C55.5432 17.3088 55.5685 17.4748 55.6613 17.5676C57.1941 19.0723 58.7522 20.5544 60.2681 22.0732C60.9347 22.7397 61.4156 23.5328 61.7503 24.4384C62.2003 25.6534 62.7572 26.8318 63.3112 28.0046C64.0368 29.5402 64.844 31.0449 65.114 32.7465C65.4628 34.943 65.3025 37.1367 65.069 39.3361C64.889 41.0348 64.6725 42.7082 63.7387 44.196C62.9203 45.501 62.4562 46.9353 62.175 48.44C61.7784 50.5606 60.8588 52.445 59.25 53.8849C57.9535 55.0465 56.8566 56.343 55.951 57.8083C54.9357 59.448 53.4788 60.4886 51.6986 61.1692C50.4526 61.6445 49.2489 62.2408 48.0339 62.792C46.8246 63.3404 45.5927 63.7764 44.2511 63.8608C43.534 63.9086 42.8224 64.0098 42.0715 64.0886ZM7.04786 38.6273C7.09004 39.1589 7.11536 39.9548 7.21942 40.7423C7.45566 42.5141 7.79035 44.2747 7.97034 46.0522C8.11378 47.4528 8.51315 48.7269 9.23877 49.925C9.97001 51.1287 10.5691 52.4112 11.6209 53.3984C12.6025 54.3181 13.2353 55.4655 13.7303 56.7058C13.9356 57.2205 14.1775 57.7577 14.5431 58.1599C15.8143 59.5661 17.1165 60.947 18.4637 62.2773C19.209 63.0142 20.1033 63.5626 21.0905 63.9676C21.7542 64.2404 22.4152 64.5807 22.9777 65.0195C24.0126 65.8267 25.1095 66.4032 26.4257 66.5945C28.1301 66.842 29.7838 67.2863 31.3054 68.1469C32.6919 68.9316 34.2022 69.2522 35.7913 69.1735C37.0006 69.1116 38.2072 69.0441 39.4137 68.9344C40.2209 68.8613 41.0224 68.7207 41.824 68.5969C42.1446 68.5463 42.2796 68.3157 42.1221 68.0485C42.0349 67.8995 41.7874 67.7757 41.6046 67.7645C41.3431 67.7476 41.0759 67.8685 40.8087 67.891C39.1184 68.0288 37.4253 68.2257 35.7322 68.2651C34.5144 68.2932 33.2938 68.1666 32.1491 67.5929C30.5854 66.8082 29.0076 66.0714 27.2189 65.8717C26.1867 65.7564 25.1742 65.4526 24.2658 64.8648C23.287 64.2292 22.2577 63.6723 21.2536 63.0761C20.7896 62.8005 20.2833 62.5698 19.8868 62.2155C18.7027 61.158 17.5355 60.078 16.4218 58.9502C15.4571 57.9743 14.65 56.8858 14.1296 55.5724C13.8062 54.754 13.3 53.9412 12.6812 53.3168C11.1822 51.8065 10.1528 49.9925 9.3822 48.08C8.8619 46.7863 8.7719 45.3097 8.56096 43.9063C8.35565 42.5535 8.15315 41.1867 8.11097 39.8226C8.05753 38.0761 8.06597 36.3155 8.22909 34.5802C8.43159 32.4399 8.93221 30.3418 9.65782 28.3056C9.70564 28.1706 9.59876 27.8443 9.52283 27.8303C9.32595 27.7909 9.07846 27.8331 8.89846 27.9315C8.78315 27.9934 8.73252 28.2015 8.6819 28.3562C7.60472 31.5962 7.1491 34.9486 7.04786 38.6273ZM40.0718 70.4869C40.0718 70.5207 40.0718 70.5544 40.0746 70.5882C40.7384 70.5207 41.4049 70.456 42.0687 70.38C42.5074 70.3322 42.4512 70.006 42.3921 69.7219C42.3443 69.4913 42.4399 69.1285 41.9843 69.1735C40.2968 69.3394 38.6093 69.5054 36.9191 69.66C35.2091 69.8147 33.4963 69.8232 31.9325 69.0216C29.8851 67.9698 27.7251 67.3313 25.4695 66.9207C24.7495 66.7885 24.0661 66.3751 23.4052 66.0179C22.4264 65.4864 21.4842 64.8873 20.5224 64.322C20.1174 64.0857 19.6814 63.8973 19.3018 63.6273C17.7324 62.5108 16.4387 61.0961 15.1253 59.7039C14.079 58.5958 13.345 57.3161 12.7403 55.924C12.4506 55.2574 12.0287 54.5965 11.5112 54.0931C10.3525 52.9625 9.51158 51.635 8.78315 50.2203C8.47659 49.6269 8.06597 49.0475 7.93378 48.4147C7.47535 46.2266 7.00004 44.0301 6.75817 41.8138C6.55005 39.9042 6.54724 37.9551 6.64567 36.0314C6.72723 34.4199 7.03661 32.8111 7.34035 31.2193C7.54847 30.1421 7.91128 29.0931 8.22909 28.0384C8.3444 27.6615 8.21222 27.4731 7.86347 27.4196C7.54004 27.369 7.11817 26.9809 6.94379 27.6165C6.82005 28.0693 6.69067 28.5221 6.62317 28.9862C6.2913 31.3093 5.96787 33.6352 5.67256 35.9639C5.63319 36.2649 5.77662 36.5855 5.82443 36.8977C5.84412 37.0298 5.85256 37.1677 5.82725 37.297C5.77381 37.5726 5.61912 37.8483 5.64444 38.1126C5.7485 39.2432 5.87225 40.3739 6.04381 41.496C6.3588 43.5266 6.68505 45.56 7.05911 47.5794C7.35441 49.1741 7.84941 50.69 9.21345 51.7475C9.28939 51.8065 9.30345 51.9612 9.32033 52.0737C9.34002 52.2115 9.2922 52.3746 9.34564 52.4956C9.7872 53.4659 10.1556 54.484 10.7209 55.3784C11.275 56.253 12.0681 56.973 12.6897 57.8111C14.1071 59.7208 15.7102 61.4336 17.5468 62.958C20.8177 65.672 24.4711 67.652 28.4985 68.9738C29.0638 69.1594 29.6179 69.2466 30.1944 69.0385C30.5994 68.8923 30.8807 69.061 31.2013 69.3507C31.6035 69.7135 32.0816 70.0454 32.585 70.2338C33.4878 70.5713 34.4413 70.5713 35.4144 70.515C36.9669 70.425 38.5222 70.4869 40.0718 70.4869ZM35.7997 67.5366C36.8825 67.5366 37.9681 67.5732 39.0481 67.5254C39.8384 67.4888 40.6231 67.3313 41.4134 67.2441C41.9084 67.1907 42.0406 66.9404 41.9702 66.4679C41.8915 65.9448 41.5934 65.9138 41.1574 65.9504C39.7568 66.0685 38.3534 66.1838 36.9472 66.2373C36.3594 66.2598 35.7659 66.1079 35.1725 66.0489C33.0632 65.8407 30.9538 65.5932 29.0076 64.6932C26.811 63.6779 24.6483 62.5923 22.477 61.5264C22.0889 61.3352 21.7149 61.1102 21.3633 60.8599C19.673 59.6561 18.2387 58.1739 16.9252 56.5877C16.0309 55.5105 15.2378 54.3434 14.4475 53.1818C13.8006 52.2312 13.2353 51.2243 12.6137 50.2569C12.3437 49.835 12.0906 49.8462 11.5647 50.1837C11.1737 50.4369 11.3481 50.7125 11.5169 50.9684C11.7559 51.3284 12.0034 51.6884 12.2903 52.0118C13.1762 53.0131 14.1465 53.9637 14.6246 55.2405C15.1843 56.7368 16.1406 57.9377 17.2487 59.0374C18.5283 60.3086 19.7096 61.698 21.3689 62.5192C22.0945 62.8792 22.9073 63.138 23.5177 63.6386C24.7551 64.6539 26.1417 65.1939 27.6998 65.3992C29.0188 65.5735 30.2788 65.9617 31.4347 66.6254C32.796 67.3988 34.2388 67.7673 35.7997 67.5366ZM34.641 6.10117C34.9447 6.46397 35.4284 6.22492 35.87 6.17992C37.1412 6.05054 38.39 6.08148 39.6359 6.40491C41.3599 6.85491 43.0305 7.52427 44.8446 7.61709C45.9977 7.67615 47.1452 7.83927 48.2927 7.95739C48.7877 8.00802 48.9283 7.63677 48.9789 7.29084C48.9958 7.17834 48.6752 6.98709 48.4839 6.87741C48.3489 6.80147 48.1717 6.79303 48.0114 6.77053C46.5658 6.54835 45.1174 6.35991 43.6774 6.10117C41.4893 5.70742 39.304 5.28836 37.0681 5.36149C35.6253 5.40649 34.1825 5.50492 32.7425 5.60336C30.7148 5.74117 28.7292 6.03367 26.9067 7.04053C25.8323 7.63396 24.7186 8.15708 23.6245 8.71395C22.9805 9.043 22.2942 9.31019 21.712 9.72362C20.6574 10.4774 19.6589 11.3127 18.6493 12.1283C18.1712 12.5136 18.1796 12.6908 18.6268 13.1886C18.9699 13.5711 19.1696 13.1717 19.3833 13.017C19.628 12.837 19.8333 12.6008 20.0499 12.3814C20.9724 11.4477 21.9792 10.6152 23.2195 10.1511C24.502 9.67019 25.8211 9.27925 27.1176 8.83488C29.2382 8.11208 31.356 7.38646 33.4682 6.64678C33.8422 6.5146 34.191 6.3121 34.641 6.10117ZM72.7808 39.1982C72.7808 38.4754 72.8314 37.7498 72.7724 37.0326C72.5417 34.2764 72.1114 31.5512 71.4027 28.8737C70.9949 27.3381 70.5252 25.8194 70.0893 24.2922C69.974 23.89 69.718 23.9266 69.4115 24.025C69.0374 24.1431 69.1218 24.3569 69.2483 24.61C69.3946 24.8997 69.5099 25.2062 69.6505 25.4987C70.2411 26.7109 70.6321 27.985 70.7727 29.3265C70.8824 30.4037 70.9555 31.4837 71.0455 32.5636C71.2086 34.5239 71.4505 36.4786 71.5068 38.4417C71.5433 39.7129 71.3014 40.9926 71.2058 42.2695C71.0624 44.1791 70.559 46.0016 69.8418 47.7622C68.9699 49.9025 68.0502 52.0203 67.1277 54.1409C66.9477 54.5571 67.0377 54.7399 67.4512 54.9143C67.8787 55.0915 68.1205 54.9481 68.2809 54.5937C68.8602 53.2915 69.3833 51.9668 69.9993 50.6815C70.4521 49.7366 70.6911 48.7719 70.5168 47.7481C70.3986 47.0675 70.7558 46.7328 71.2086 46.3672C71.4589 46.1647 71.6896 45.8722 71.7992 45.5741C72.5502 43.5154 72.9383 41.3948 72.7808 39.1982ZM68.6015 23.336C69.6224 22.9478 69.7349 22.7369 69.3608 21.8003C69.0037 20.9088 68.5902 20.0482 67.828 19.4069C67.5552 19.1763 67.3246 18.8866 67.1081 18.5998C65.7974 16.8363 64.5937 15.0139 63.0075 13.4389C60.0685 10.5195 56.7272 8.24145 53.0204 6.45835C52.4832 6.1996 51.9376 5.94929 51.3723 5.76648C50.8323 5.59211 50.6748 6.10398 50.4695 6.43585C50.4273 6.50335 50.6129 6.82678 50.7479 6.87178C52.7054 7.5299 54.2776 8.8152 55.9313 9.98237C57.1379 10.8345 58.3585 11.6867 59.6635 12.373C61.9359 13.5683 63.7443 15.2361 65.0943 17.3876C66.3065 19.3282 67.4259 21.3307 68.6015 23.336ZM71.113 37.8736C71.0286 37.1592 70.9471 36.4786 70.8683 35.798C70.5758 33.2724 70.2918 30.7496 69.9936 28.224C69.8418 26.919 69.1724 25.8053 68.6043 24.6606C68.5368 24.5256 68.233 24.5116 68.039 24.4412C68.0249 24.6269 67.9518 24.8378 68.0109 24.9953C68.2893 25.7181 68.6858 26.4072 68.8827 27.1468C69.0768 27.8753 69.5465 28.5531 69.389 29.3631C69.3777 29.4277 69.4199 29.5037 69.4312 29.574C69.5155 30.2012 69.628 30.8227 69.6786 31.4527C69.8108 33.053 69.8755 34.6617 70.0443 36.2592C70.1511 37.2717 70.0836 38.2476 69.7405 39.1926C68.8968 41.5298 68.2893 43.8979 68.2246 46.415C68.1768 48.3106 67.648 50.1247 66.5681 51.7306C66.2165 52.2537 65.8312 52.7571 65.4825 53.2831C65.3812 53.4349 65.2631 53.7584 65.3109 53.7949C65.5612 53.9862 65.8509 54.1606 66.1518 54.2309C66.2643 54.259 66.5118 54.0228 66.5906 53.8568C67.0293 52.9062 67.4287 51.9359 67.859 50.9825C69.0093 48.4288 70.199 45.8891 70.5308 43.0626C70.7333 41.3301 70.9189 39.5892 71.113 37.8736ZM32.6554 70.9425C32.99 71.4769 33.305 71.7947 33.8169 71.8453C34.4103 71.9044 35.0038 71.9719 35.5972 72C39.1015 72.1603 42.5609 71.82 45.9724 71.0016C48.5261 70.3885 51.0433 69.6572 53.3579 68.3916C54.1285 67.9726 54.8007 67.3707 55.5179 66.856C56.941 65.8351 58.3922 64.8507 59.7816 63.7876C61.7222 62.2998 63.4322 60.5589 65.069 58.7477C65.4093 58.3736 65.7581 58.0024 66.0393 57.5861C66.1265 57.4568 65.9999 57.184 65.969 56.9758C65.7946 57.0293 65.5809 57.0377 65.4571 57.1474C65.2715 57.3105 65.1674 57.5636 64.9931 57.7436C63.3984 59.4142 61.8431 61.127 60.1838 62.7301C59.0982 63.7792 57.9141 64.7467 56.4685 65.3176C56.1394 65.447 55.8188 65.6523 55.5544 65.8913C53.836 67.4382 51.7998 68.3719 49.6089 69.0104C48.0311 69.4688 46.4589 69.9469 44.8671 70.3407C43.7871 70.6079 42.679 70.8863 41.5737 70.92C38.9018 71.0044 36.2244 70.9482 33.5469 70.9482C33.3022 70.9425 33.0547 70.9425 32.6554 70.9425ZM62.1103 52.9174C62.0062 53.0693 61.8881 53.2465 61.7644 53.4209C60.735 54.8609 59.7535 56.3374 58.6622 57.7268C57.9085 58.6858 57.1097 59.6674 56.1423 60.3817C54.8598 61.3295 53.4198 62.0805 51.9995 62.823C49.2995 64.232 46.653 65.807 43.4608 65.8717C42.738 65.8857 42.6705 66.091 42.9996 66.8223C43.0812 66.8138 43.1684 66.811 43.2555 66.7913C45.0021 66.4145 46.7514 66.046 48.4952 65.6523C49.9436 65.3232 51.347 64.8789 52.6042 64.0379C54.1201 63.0226 55.6501 62.0298 57.2025 61.0736C58.8619 60.0499 60.3159 58.8939 61.0106 56.9533C61.3734 55.9437 61.9528 55.0071 62.4787 54.0621C62.8247 53.4434 62.85 53.4237 62.1103 52.9174ZM8.47378 38.0761C8.60315 39.4401 8.69877 40.807 8.86752 42.1654C9.01939 43.4001 9.30345 44.6207 9.4272 45.8582C9.55939 47.1885 10.0009 48.3838 10.7041 49.5031C10.8897 49.7984 11.0641 49.939 11.3931 49.7056C11.6772 49.5059 11.9472 49.3906 11.7278 48.9041C11.3959 48.1728 11.1259 47.3966 10.96 46.6119C10.6591 45.1832 10.4791 43.7291 10.2006 42.2976C9.94188 40.9673 9.69157 39.6454 9.76751 38.2758C9.85188 36.7627 9.86313 35.2439 9.98126 33.7336C10.0347 33.0249 10.2203 32.319 10.4172 31.6327C10.6872 30.699 11.0331 29.7849 11.3284 28.8568C11.4269 28.5531 11.4606 28.2549 11.0331 28.1228C10.6197 27.9962 10.3272 28.0328 10.1922 28.4996C10.0544 28.9834 9.8997 29.4643 9.75626 29.9481C8.97721 32.6002 8.55815 35.303 8.47378 38.0761ZM34.0588 4.87775C34.0728 4.82431 34.0841 4.77368 34.0981 4.72025C33.7325 4.50369 33.381 4.25057 32.9957 4.079C32.6469 3.92432 32.2307 3.71901 31.8875 3.77807C29.4013 4.21682 26.9207 4.65275 24.592 5.72711C21.9989 6.92522 19.6055 8.41301 17.4202 10.2439C17.2655 10.3733 17.1109 10.708 17.1727 10.857C17.3359 11.2424 17.6199 11.577 17.8899 11.982C18.0924 11.8105 18.2415 11.6867 18.3849 11.5573C19.7602 10.3536 21.1805 9.22019 22.8623 8.45239C23.7652 8.03895 24.6567 7.60021 25.5286 7.12209C27.351 6.12648 29.227 5.32493 31.3307 5.17305C32.2447 5.11118 33.1503 4.97899 34.0588 4.87775ZM55.8048 16.2654C54.6966 15.4892 53.6363 14.7186 52.5479 13.9901C50.3429 12.5164 47.8511 11.8077 45.2749 11.3577C43.3033 11.0117 41.3206 10.7249 39.3462 10.3986C38.1003 10.1933 36.8656 10.168 35.6366 10.4802C35.1275 10.6095 35.2288 10.9949 35.2456 11.3492C35.2681 11.7711 35.5381 11.712 35.825 11.6614C36.4831 11.5433 37.1412 11.4223 37.8022 11.3352C40.0634 11.0399 42.2796 11.1214 44.3411 12.238C45.6855 12.9664 47.1086 13.5148 48.5992 13.782C50.8323 14.1814 52.6576 15.3373 54.4238 16.6423C55.096 17.1345 55.1269 17.1429 55.8048 16.2654ZM64.245 55.0746C64.1156 55.2377 64.02 55.3249 63.9665 55.429C63.6262 56.1068 63.2437 56.7677 62.9709 57.4708C62.1441 59.5999 60.8222 61.2733 58.8169 62.4405C57.1632 63.4023 55.591 64.4992 53.9935 65.5539C52.8235 66.3273 51.6057 66.9629 50.2164 67.261C48.048 67.7307 45.888 68.2426 43.7224 68.7376C42.9068 68.9232 42.8618 68.9879 42.8084 69.8035C42.7859 70.1663 42.9237 70.2675 43.2527 70.1832C44.389 69.8907 45.5308 69.6179 46.6586 69.2972C47.8736 68.9513 49.0858 68.5857 50.2811 68.1807C51.7548 67.6829 53.1779 67.1035 54.4098 66.0826C55.1804 65.4442 56.0944 64.9829 56.9466 64.4429C57.3572 64.1842 57.8185 63.9817 58.1785 63.6667C59.4019 62.598 60.6394 61.5348 61.7784 60.3817C62.9175 59.2286 63.9553 57.9743 65.0184 56.7452C65.1478 56.5962 65.2603 56.2558 65.1815 56.1377C64.9368 55.7609 64.5881 55.4459 64.245 55.0746ZM42.963 68.3101C43.0812 68.2904 43.2021 68.2763 43.323 68.251C44.7546 67.9416 46.1805 67.6238 47.612 67.3229C49.938 66.8307 52.2245 66.257 54.1623 64.7635C54.8626 64.2264 55.6163 63.7567 56.3616 63.2786C57.3657 62.6345 58.4119 62.0523 59.3878 61.3717C60.2597 60.7614 61.0838 60.078 61.5675 59.0796C62.2537 57.6649 62.9681 56.2643 63.6262 54.8384C63.6937 54.6893 63.4631 54.4024 63.3675 54.1802C63.2156 54.259 62.9934 54.3012 62.9259 54.4249C62.445 55.3334 61.9247 56.2333 61.5478 57.1868C60.8194 59.0233 59.5228 60.317 57.8747 61.3239C56.7357 62.0214 55.5657 62.6823 54.4885 63.467C52.6942 64.7692 50.7789 65.7704 48.5936 66.2204C46.878 66.572 45.168 66.946 43.458 67.3257C42.8196 67.4691 42.7549 67.6238 42.963 68.3101ZM68.7758 29.0453C67.8787 29.3181 67.8984 29.3124 68.0221 30.0465C68.1346 30.7215 68.219 31.4049 68.2724 32.0883C68.3765 33.4383 68.4102 34.7967 68.5452 36.1411C68.6802 37.4686 68.5255 38.7426 68.039 39.9689C67.4146 41.5438 67.0321 43.1582 66.9449 44.8597C66.8887 45.9538 66.734 47.0506 66.5287 48.1278C66.1856 49.9194 65.1899 51.3903 64.0706 52.7825C63.7865 53.1368 63.9272 53.2549 64.245 53.4153C64.5993 53.5953 64.7456 53.3281 64.9143 53.134C66.6356 51.1343 67.6059 48.8225 67.7071 46.1816C67.7859 44.1088 68.0924 42.0979 68.8462 40.1432C69.2174 39.1814 69.4958 38.1211 69.5099 37.1002C69.5352 35.3367 69.3524 33.5649 69.2033 31.8015C69.1274 30.8959 68.9277 29.9959 68.7758 29.0453ZM62.5097 52.5265C63.089 52.9428 63.2156 52.9568 63.5222 52.5968C65.2434 50.5831 66.2559 48.2994 66.3234 45.605C66.3684 43.7966 66.6074 42.0135 67.3331 40.312C67.8365 39.1279 68.1402 37.882 68.039 36.563C67.9377 35.2495 67.8984 33.9305 67.783 32.6171C67.7043 31.7199 67.5693 30.8227 67.4034 29.9368C67.2881 29.3209 66.7818 29.6162 66.4274 29.6218C66.0421 29.6302 65.9493 29.8721 66.0393 30.2209C66.2615 31.0955 66.4584 31.9787 66.7002 32.8477C67.2318 34.7602 67.4062 36.6783 66.9027 38.6245C66.7312 39.2882 66.5427 39.952 66.4387 40.627C66.2643 41.7492 66.1856 42.8882 66.0084 44.0104C65.6596 46.2547 64.6921 48.2825 63.7162 50.3019C63.3478 51.0669 62.9119 51.7897 62.5097 52.5265ZM34.9166 4.6865C34.9306 4.74556 34.9475 4.80462 34.9616 4.86087C35.1697 4.87493 35.3778 4.89462 35.5859 4.89743C37.1581 4.91712 38.7472 4.80181 40.2996 4.98181C42.8252 5.27711 45.3283 5.76367 47.8427 6.17148C48.2167 6.23335 48.588 6.31773 48.9648 6.36273C49.6201 6.44148 49.4739 5.81992 49.6623 5.50774C49.848 5.19555 49.5386 5.09431 49.3192 5.04087C47.778 4.66962 46.2452 4.22807 44.6815 3.97213C42.8477 3.6712 40.9915 3.50245 39.1381 3.34214C38.3562 3.27464 37.5097 3.21277 36.784 3.44058C36.0978 3.65714 35.5325 4.25619 34.9166 4.6865ZM37.6475 6.58491C36.6997 6.68616 36.05 6.7396 35.4116 6.83803C35.2597 6.86053 35.1359 7.04616 34.9981 7.15584C35.1528 7.3499 35.285 7.57771 35.4763 7.72115C35.5775 7.79427 35.7969 7.74083 35.9487 7.70146C37.3156 7.34709 38.6543 7.57209 39.9537 7.96864C41.7565 8.51707 43.5593 8.96707 45.4577 9.08519C46.6699 9.16113 47.913 9.34956 49.0576 9.73768C52.0192 10.7417 54.7388 12.238 57.1941 14.1898C57.4922 14.4289 57.7369 14.5104 58.0069 14.1533C58.2825 13.7904 58.0041 13.6498 57.7763 13.4642C55.7626 11.8414 53.507 10.6264 51.1558 9.57456C49.6989 8.92207 48.1886 8.41864 46.5939 8.30895C44.569 8.16833 42.5777 7.89833 40.6315 7.29928C39.5712 6.97022 38.4687 6.77616 37.6475 6.58491ZM56.8144 16.3638C56.9494 16.4707 57.0704 16.572 57.1969 16.662C58.0857 17.3117 59.0925 17.8488 59.8322 18.6363C60.8391 19.7051 61.6941 20.9341 62.5266 22.1547C63.8822 24.1488 65.0212 26.2609 65.6399 28.6149C65.7778 29.1381 66.1293 29.2759 66.779 29.0734C67.2515 28.9271 67.1559 28.6065 67.0659 28.2437C66.6131 26.4128 65.5949 24.8856 64.5262 23.3781C63.7022 22.2138 62.774 21.0972 62.1384 19.8372C61.3284 18.2285 60.2456 16.9601 58.7353 16.0095C57.7425 15.3851 57.7594 15.357 56.9072 16.1867C56.8847 16.2064 56.8735 16.2457 56.8144 16.3638ZM6.7188 25.5747C6.78348 25.5831 6.84817 25.5944 6.91567 25.6028C7.03379 25.3497 7.14348 25.0937 7.26723 24.8462C7.87191 23.6566 8.40628 22.4247 9.10377 21.2941C10.8081 18.5323 13.1059 16.2795 15.5303 14.1561C16.3515 13.4361 16.3684 13.4558 15.4571 12.8145C15.4431 12.8033 15.4262 12.7976 15.4121 12.7836C15.1056 12.4798 14.8328 12.5248 14.529 12.8201C13.9243 13.4136 13.3 13.9901 12.67 14.5582C12.369 14.8282 12.31 15.1376 12.3381 15.5285C12.4084 16.4707 12.2734 16.6479 11.3453 16.7604C10.7744 16.8307 10.3694 17.0838 10.0656 17.5563C9.22752 18.8613 8.3444 20.141 7.54847 21.4713C6.90161 22.5541 6.50786 23.7353 6.62317 25.0319C6.64005 25.2119 6.68786 25.3919 6.7188 25.5747ZM10.6197 27.3184C10.7575 27.3971 10.9797 27.5996 11.2356 27.6615C11.6715 27.7656 11.725 27.3634 11.7869 27.085C12.1384 25.4622 12.9062 24.0363 13.8596 22.706C15.4684 20.4588 17.4427 18.5576 19.5408 16.7745C19.7293 16.6142 20.0527 16.4623 19.8052 16.122C19.5943 15.8323 19.299 15.6607 18.9586 15.866C17.7015 16.6226 16.4752 17.4101 15.6709 18.7066C15.1393 19.5616 14.5909 20.4194 13.9412 21.1844C13.3984 21.8257 12.7009 22.3375 12.0625 22.8972C11.4044 23.4738 10.8981 24.1544 10.7772 25.0347C10.6787 25.7294 10.6759 26.4381 10.6197 27.3184ZM33.8282 8.57614C32.751 8.93894 31.7385 9.26519 30.7373 9.61675C29.3929 10.0921 28.0907 10.7389 26.7098 11.0427C24.0801 11.6192 22.0439 13.0705 20.213 14.9267C19.9486 15.1967 19.9514 15.461 20.213 15.6607C20.303 15.7282 20.6208 15.6101 20.7502 15.4892C21.5067 14.7832 22.297 14.1589 23.2645 13.7398C24.9351 13.017 26.5692 12.2127 28.2285 11.4645C28.8023 11.2058 29.3901 10.9302 30.0004 10.8233C31.0804 10.6349 32.1829 10.5674 33.2769 10.4577C34.461 10.3367 34.5791 10.1567 34.2022 9.01488C34.191 8.98113 34.1966 8.93332 34.1741 8.91082C34.0644 8.79832 33.9491 8.69145 33.8282 8.57614ZM35.2766 9.00644C35.2653 9.92893 35.2653 9.91768 36.1119 9.81643C36.6491 9.75456 37.1975 9.65331 37.7262 9.70956C38.9412 9.83893 40.1506 10.0499 41.3599 10.2327C43.0699 10.4942 44.7827 10.7502 46.4927 11.0286C47.2774 11.1552 47.3111 11.1411 47.6036 10.4577C47.7583 10.0977 47.6964 9.90924 47.3027 9.85581C46.428 9.73768 45.5561 9.54362 44.6815 9.52112C43.1937 9.48456 41.7987 9.10207 40.3981 8.66332C38.9778 8.21614 37.5322 7.97146 36.0275 8.21614C35.4538 8.31176 35.1388 8.47207 35.2766 9.00644ZM66.9674 24.6719C66.7481 24.2191 66.6018 23.8028 66.3628 23.4456C65.3981 22.0085 64.3912 20.5994 63.4293 19.1594C63.0497 18.5913 62.7628 17.9613 62.4056 17.3763C61.5844 16.032 60.2316 15.2895 58.9885 14.4289C58.8703 14.3473 58.5413 14.4261 58.4119 14.5414C58.1897 14.7382 58.2291 14.9717 58.516 15.1545C58.9435 15.4245 59.3597 15.7142 59.7591 16.0235C60.6984 16.7435 61.5112 17.5732 62.0962 18.6194C62.6137 19.5476 63.1734 20.4532 63.7556 21.3419C64.259 22.1097 64.8328 22.8353 65.3587 23.5891C66.3656 25.0319 67.243 26.5422 67.6649 28.2718C67.7409 28.584 67.9012 28.7387 68.2415 28.6824C68.6352 28.6178 68.5902 28.3337 68.5733 28.0609C68.5677 27.9709 68.5537 27.8781 68.5227 27.7965C68.2105 27.009 67.9209 26.2103 67.5637 25.4425C67.423 25.1303 67.1362 24.88 66.9674 24.6719ZM34.1769 7.53834C34.191 7.1924 34.0391 7.06866 33.7072 7.16709C32.9985 7.37521 32.2785 7.54959 31.5782 7.78865C29.5138 8.49457 27.486 9.32706 25.3908 9.92049C22.9805 10.6011 21.1158 12.0298 19.3946 13.737C19.1274 14.0014 19.2511 14.232 19.4283 14.4486C19.6449 14.7101 19.8277 14.5526 20.0133 14.3754C20.4718 13.9395 20.9049 13.4698 21.4111 13.0986C22.2211 12.508 23.0227 11.8386 23.9339 11.4645C26.0011 10.618 28.1301 9.92331 30.2394 9.18925C31.3476 8.80394 32.4697 8.46645 33.5863 8.10645C33.8816 8.01646 34.2135 7.96021 34.1769 7.53834ZM68.0418 23.6284C67.949 23.4231 67.8927 23.2713 67.814 23.1306C67.2655 22.1547 66.7199 21.1788 66.1603 20.2113C65.0184 18.2398 63.9159 16.2317 62.1469 14.7298C61.4775 14.1617 60.7069 13.7173 59.97 13.2308C59.6803 13.0395 59.461 13.1942 59.281 13.4389C59.07 13.7229 59.2697 13.8579 59.4666 14.0042C59.7422 14.2067 60.0122 14.4233 60.2906 14.6229C61.3819 15.402 62.4084 16.226 63.0975 17.4326C63.8456 18.7488 64.6753 20.0172 65.505 21.2857C66.0478 22.1153 66.644 22.9141 67.2374 23.71C67.3302 23.8338 67.5524 23.9209 67.7127 23.9209C67.8196 23.9209 67.9293 23.7353 68.0418 23.6284ZM8.82815 53.0806C8.49065 53.4968 8.32753 53.9103 8.64252 54.4109C8.80565 54.6696 8.92939 54.9537 9.08408 55.2209C9.85188 56.5371 10.6309 57.8252 12.0231 58.6211C12.5772 58.9389 13.1059 59.3749 13.3084 60.0358C13.7921 61.5911 14.9199 62.6036 16.1659 63.5345C18.3483 65.1629 20.7277 66.4567 23.152 67.6745C24.412 68.3073 25.6945 68.8923 26.9742 69.4857C27.3314 69.6516 27.711 69.7275 28.1357 69.4491C19.5296 66.5242 13.2072 60.9949 8.82815 53.0806ZM17.4427 14.412C16.869 13.8439 16.8212 13.8326 16.3431 14.2348C14.3181 15.9335 12.4056 17.7448 10.7856 19.8457C9.45533 21.5725 8.3444 23.4288 7.62441 25.4987C7.57379 25.6478 7.5541 25.9375 7.62722 25.9769C7.91691 26.1428 8.24597 26.2356 8.56096 26.3565C8.63127 26.1119 8.7044 25.87 8.76908 25.6225C8.78315 25.5719 8.77752 25.5156 8.77471 25.4594C8.67065 23.755 9.42439 22.4781 10.7237 21.4488C11.905 20.5122 12.9906 19.4857 13.6965 18.1216C14.2815 16.991 15.1112 16.077 16.1349 15.3317C16.554 15.0307 16.9815 14.7382 17.4427 14.412ZM9.23595 26.5084C9.34283 26.6125 9.54814 26.8122 9.75345 27.0118C9.8772 26.829 10.0319 26.6603 10.1134 26.4606C10.1781 26.3003 10.1781 26.1034 10.1697 25.9262C10.0994 24.5031 10.6534 23.3866 11.7165 22.4472C12.7262 21.5557 13.885 20.7935 14.5206 19.5419C15.3812 17.8488 16.644 16.5523 18.2921 15.6129C18.413 15.5454 18.4552 15.3401 18.5368 15.1967C18.3399 15.0898 18.1543 14.9351 17.9462 14.8901C17.8196 14.8648 17.6509 14.9998 17.5102 15.0786C16.0309 15.897 14.9115 17.067 14.079 18.5351C13.7865 19.0526 13.5053 19.6038 13.0975 20.0201C12.3044 20.83 11.4241 21.5585 10.5803 22.3207C10.0009 22.8438 9.56501 23.4569 9.45814 24.2472C9.37095 24.925 9.32314 25.6112 9.23595 26.5084ZM48.5598 10.0921C48.4052 10.258 48.1914 10.4267 48.0536 10.6433C47.6345 11.307 47.657 11.2817 48.3798 11.5236C49.232 11.8077 50.0814 12.1198 50.897 12.4939C52.6604 13.3011 54.3254 14.2742 55.7344 15.6326C56.0185 15.9054 56.2997 15.9195 56.5641 15.5904C56.6654 15.4639 56.7863 15.3514 56.9072 15.2445C57.1435 15.042 57.1294 14.8507 56.8904 14.6679C56.4347 14.3164 56.0073 13.9086 55.5094 13.6273C53.7685 12.643 52.0079 11.6895 50.2417 10.7558C49.7551 10.497 49.2095 10.3424 48.5598 10.0921ZM8.19815 51.6575C8.06878 51.4381 7.97597 51.244 7.85503 51.0725C7.07036 49.9559 6.62317 48.7184 6.46568 47.3656C6.33068 46.221 6.20693 45.0735 5.98756 43.9429C5.63037 42.1035 5.12975 40.2895 5.28725 38.3798C5.35475 37.5642 5.276 37.5445 4.47445 37.7892C4.07789 37.9101 3.70665 38.0226 3.82758 38.5851C4.25226 40.5426 4.58132 42.5198 5.50944 44.3366C5.77943 44.8654 5.91724 45.5038 5.95381 46.1028C6.06912 47.9281 6.4488 49.6747 7.18567 51.3481C7.44723 51.9387 7.49785 51.9612 8.19815 51.6575ZM3.80508 35.5505C3.80508 35.7839 3.78821 36.023 3.8079 36.2536C3.84165 36.6023 4.3057 36.8273 4.89632 36.8161C5.30975 36.8077 5.27881 36.5152 5.28725 36.2452C5.31256 35.3255 5.25069 34.3917 5.38006 33.4861C5.6585 31.523 6.02693 29.5712 6.37286 27.6193C6.43193 27.2875 6.4263 27.054 6.02974 26.9781C5.61912 26.8993 5.5235 27.144 5.48694 27.4646C5.46444 27.6615 5.41663 27.864 5.43913 28.0581C5.59381 29.3715 5.12413 30.5415 4.62632 31.7087C4.1032 32.9321 3.90071 34.2314 3.80508 35.5505ZM49.3305 8.19083C49.4317 8.24989 49.5048 8.30333 49.5836 8.33426C52.6885 9.52675 55.6276 11.0145 58.2235 13.1239C58.6707 13.4867 58.8282 13.4136 59.0194 12.8961C57.2785 11.6333 55.5854 10.3396 53.822 9.15269C52.8545 8.50301 51.7914 7.97708 50.7283 7.49052C49.9211 7.12209 49.6905 7.28521 49.3305 8.19083Z" fill="white"/>
<path d="M35.6507 13.6897C36.7645 13.5997 37.881 13.5294 38.9947 13.4141C40.415 13.265 41.7594 13.5604 43.0953 13.9907C44.8672 14.556 46.639 15.1241 48.4277 15.6303C50.0562 16.0916 51.5243 16.8566 52.8292 17.9028C53.867 18.7353 54.798 19.7028 55.7823 20.6C56.4236 21.1849 57.062 21.7699 57.7286 22.324C58.8535 23.2605 59.5257 24.5205 60.2851 25.7299C61.3257 27.3921 61.9248 29.2145 62.4197 31.0904C62.6813 32.0861 63.016 33.062 63.3057 34.0492C63.5869 35.0138 63.525 35.9673 63.2719 36.9376C63.1032 37.576 62.9879 38.2454 62.9738 38.9035C62.9401 40.6838 62.8219 42.4472 62.1779 44.1234C61.8741 44.9137 61.4494 45.6562 61.1119 46.4352C60.5157 47.8105 59.9532 49.1999 59.3654 50.578C58.8845 51.7058 58.1336 52.6086 57.107 53.2836C56.8061 53.4833 56.5248 53.7139 56.2211 53.9108C55.2648 54.5295 54.4577 55.3086 53.9458 56.3267C53.1246 57.9607 51.7436 58.9535 50.1433 59.6398C47.9356 60.5848 45.6856 61.4341 43.4497 62.3172C42.2881 62.7757 41.0703 62.7082 39.8582 62.6547C38.7585 62.6069 37.656 62.455 36.5591 62.4775C34.672 62.5169 32.9114 62.1119 31.2042 61.3329C29.4605 60.5398 27.6465 59.8957 25.9449 59.0238C23.3181 57.6739 20.8459 56.0764 18.9672 53.7167C17.6172 52.0208 16.585 50.159 15.8594 48.1143C15.6147 47.4252 15.1985 46.7952 14.8835 46.1287C14.1719 44.6128 14.006 42.9703 13.7866 41.3419C13.6376 40.2366 13.3873 39.1369 13.3198 38.026C13.2635 37.1204 13.3591 36.1951 13.4801 35.2895C13.6179 34.2573 13.8963 33.242 14.0369 32.2098C14.1888 31.0848 14.5151 30.0498 15.0551 29.0373C15.7919 27.6536 16.2953 26.1433 17.066 24.7821C18.7225 21.8543 21.009 19.52 23.9002 17.7509C26.0293 16.4459 28.2793 15.4588 30.6277 14.66C31.328 14.421 31.9833 14.016 32.6948 13.8641C33.6567 13.6588 34.6523 13.6222 35.6367 13.5154C35.6395 13.5688 35.6451 13.6307 35.6507 13.6897ZM35.8138 14.241C35.8082 14.1819 35.8026 14.1257 35.797 14.0666C34.8323 14.1678 33.8536 14.2016 32.9058 14.3957C32.2251 14.5335 31.6008 14.9216 30.9314 15.1381C27.9868 16.0831 25.2362 17.4078 22.7162 19.219C20.2412 20.9993 18.3963 23.2999 17.0463 26.0083C16.3628 27.3808 15.7244 28.7786 15.0944 30.1792C14.9201 30.5645 14.8244 30.9948 14.7457 31.4139C14.5319 32.5473 14.411 33.7032 14.1326 34.8198C13.7979 36.1613 13.6713 37.4691 13.9919 38.8332C14.186 39.6544 14.2338 40.5122 14.3407 41.3531C14.6107 43.4372 14.9482 45.4762 16.1238 47.3156C16.706 48.2268 16.9872 49.3265 17.4372 50.3277C18.3541 52.3611 19.7491 54.0683 21.4478 55.4492C22.8821 56.6136 24.4768 57.6289 26.1165 58.4867C27.953 59.4457 29.933 60.1235 31.8258 60.9757C33.3248 61.6507 34.8801 61.9235 36.5141 61.9151C37.5238 61.9094 38.5335 62.0697 39.5432 62.0782C40.5866 62.0838 41.7031 62.2188 42.6566 61.9038C45.1737 61.0713 47.6459 60.0898 50.0843 59.0435C51.3583 58.4979 52.5846 57.7414 53.2371 56.4195C53.943 54.9851 55.068 53.9867 56.3561 53.1092C56.9467 52.707 57.5739 52.2739 57.9845 51.7086C58.5695 50.8986 59.0223 49.979 59.4413 49.0621C60.0038 47.8302 60.406 46.5196 61.0163 45.3131C61.7644 43.8365 62.2566 42.3234 62.3072 40.6613C62.341 39.5785 62.3016 38.4619 62.566 37.4297C62.9316 35.9954 62.9963 34.6426 62.5097 33.2307C61.7954 31.1495 61.4101 28.953 60.3498 26.9955C59.4723 25.3755 58.6117 23.7387 57.1154 22.5631C56.6486 22.1946 56.2183 21.7784 55.788 21.3678C54.8992 20.524 54.0583 19.624 53.1246 18.8309C51.6789 17.6047 50.0674 16.6625 48.2196 16.1422C46.4478 15.6416 44.6815 15.11 42.9266 14.5503C41.661 14.1482 40.401 13.8191 39.051 13.9653C37.9738 14.0863 36.891 14.151 35.8138 14.241Z" fill="white"/>
<path d="M32.551 50.3959C32.4498 50.6772 32.3148 50.9528 32.2529 51.2425C32.0307 52.2831 31.8901 53.3462 31.6088 54.3699C31.4626 54.9015 31.0716 55.3599 30.8101 55.8634C30.7426 55.9956 30.7145 56.1615 30.7145 56.3134C30.7145 56.724 30.5063 56.9096 30.1154 56.9209C29.5304 56.9377 29.1395 56.6959 28.7626 56.2065C27.9554 55.1574 28.3351 54.159 28.7542 53.1606C29.0889 52.3618 29.522 51.6137 29.5614 50.7081C29.5754 50.4128 29.7863 50.0922 29.9804 49.8419C30.5457 49.1163 30.616 48.2753 30.7088 47.4035C30.8354 46.1885 31.0885 44.9876 31.2882 43.781C31.3023 43.6938 31.3473 43.5982 31.3304 43.5166C31.0913 42.3045 30.8438 41.0923 30.5963 39.8829C30.5598 39.7058 30.5035 39.5314 30.4923 39.3542C30.4613 38.8676 30.2138 38.5555 29.7779 38.3558C28.6445 37.8383 28.2789 37.017 28.6782 35.7908C28.7992 35.4224 28.7345 35.1805 28.5376 34.8543C28.2142 34.3199 27.9836 33.7265 27.7333 33.1499C27.5983 32.8349 27.4942 32.5058 27.3901 32.1796C27.1708 31.4934 26.6926 31.1727 25.9923 31.0799C25.7392 31.0462 25.5114 30.8521 25.2695 30.7312C25.503 30.6187 25.7251 30.464 25.9698 30.4021C26.2089 30.3402 26.4761 30.3374 26.7208 30.3768C27.0836 30.4331 27.3901 30.419 27.6573 30.1181C27.7389 30.0253 27.9386 30.0337 28.0848 29.9971C28.1129 30.1293 28.1917 30.2727 28.1636 30.3909C27.9386 31.3893 28.5151 32.1177 28.982 32.8827C29.0467 32.9896 29.1873 33.0599 29.2267 33.1696C29.5979 34.2074 30.4529 34.0836 31.277 34.0415C32.0082 34.0021 32.3851 34.5561 32.8519 34.9611C32.9279 35.0286 32.9757 35.1299 33.0488 35.2367C33.6479 34.9105 33.6254 34.2833 33.8025 33.7827C34.0332 33.1387 34.1485 32.4552 34.3622 31.8055C34.5985 31.0912 34.711 30.4106 34.3004 29.7159C34.1485 29.4571 34.4269 28.8131 34.7222 28.7456C35.1413 28.65 35.3297 28.9284 35.4703 29.2799C35.8472 30.2137 35.5575 31.139 35.4338 32.0559C35.296 33.0937 35.0513 34.1146 34.8432 35.1411C34.6435 36.1283 34.5985 37.0648 35.1019 38.0267C35.7656 39.2923 35.9456 40.7014 35.9203 42.1245C35.9147 42.5295 35.7122 42.9317 35.7178 43.3338C35.7291 43.961 35.8641 44.5854 35.9091 45.2126C36.03 46.8972 35.6785 48.5144 35.2228 50.1231C35.0878 50.5956 35.0625 51.1215 35.0935 51.6165C35.1694 52.7781 35.1975 53.889 34.6519 54.9999C34.41 55.4921 34.2919 56.1727 34.486 56.7999C34.5844 57.1177 34.4747 57.3399 34.1035 57.3455C33.7238 57.3512 33.3385 57.3821 32.9672 57.3258C32.7619 57.2949 32.5116 57.1487 32.3991 56.9743C31.7663 56.004 31.412 54.9915 32.1573 53.9031C32.2079 53.83 32.2585 53.7456 32.2726 53.6612C32.4301 52.6543 32.5819 51.6447 32.731 50.635C32.7394 50.5731 32.7141 50.5056 32.7029 50.4409C32.6551 50.4269 32.6044 50.4128 32.551 50.3959Z" fill="white"/>
<path d="M44.1494 38.5892C44.1494 33.3102 44.1494 28.0312 44.1494 22.7522C44.1494 21.9506 44.1522 21.9506 44.9763 21.9534C45.446 21.9534 45.9157 21.9534 46.3853 21.9562C47.0941 21.9591 47.125 21.99 47.125 22.6875C47.1278 24.9825 47.0181 27.2859 47.1644 29.5724C47.2572 31.0208 47.5806 32.4805 47.3781 33.912C46.8353 37.796 47.2488 41.6885 47.1447 45.5753C47.1081 46.9815 47.5356 48.4272 47.3556 49.8025C47.0519 52.1059 47.2009 54.398 47.1194 56.6958C47.1081 57.0192 46.9422 57.1233 46.6385 57.143C45.4741 57.2133 44.2872 56.1333 44.1635 54.8649C44.1438 54.668 44.1466 54.4683 44.1466 54.2686C44.1494 49.0403 44.1494 43.8147 44.1494 38.5892ZM45.5416 52.3224C45.7019 52.1199 45.8903 51.9849 45.8819 51.864C45.8735 51.7459 45.6597 51.5687 45.5332 51.5631C45.4235 51.5602 45.2238 51.7599 45.2182 51.878C45.2097 51.999 45.3897 52.1284 45.5416 52.3224ZM46.0703 28.0115C45.8144 27.8877 45.6597 27.7471 45.5275 27.7668C45.401 27.7865 45.2997 27.9693 45.1872 28.0818C45.3166 28.1802 45.446 28.3546 45.5782 28.3546C45.7103 28.3546 45.8397 28.1802 46.0703 28.0115ZM46.0225 40.0713C45.8172 39.911 45.6878 39.7366 45.5585 39.7366C45.4375 39.7366 45.3166 39.9195 45.1957 40.0207C45.3025 40.1388 45.401 40.3385 45.5191 40.3526C45.6485 40.3666 45.7975 40.2063 46.0225 40.0713ZM45.9972 34.1398C45.7666 34.0077 45.626 33.8642 45.4938 33.8698C45.3897 33.8755 45.1957 34.0892 45.2154 34.1623C45.2547 34.2973 45.415 34.4773 45.5332 34.4858C45.6513 34.4914 45.7835 34.3114 45.9972 34.1398ZM45.5444 45.5556C45.401 45.7244 45.3082 45.8341 45.2154 45.9438C45.3391 46.0478 45.4516 46.2166 45.5866 46.2334C45.685 46.2475 45.8116 46.0647 45.9269 45.9719C45.8144 45.8538 45.7075 45.7328 45.5444 45.5556Z" fill="white"/>
<path d="M38.8489 18.493C41.3801 18.493 43.9085 18.5043 46.4398 18.4846C46.9601 18.479 47.2047 18.5858 47.1457 19.1736C47.0866 19.7446 47.0922 20.3324 47.1457 20.9061C47.1935 21.432 46.9854 21.5502 46.5044 21.5502C42.8736 21.5361 39.2398 21.5417 35.609 21.5417C34.1634 21.5417 32.7177 21.5361 31.2721 21.5502C30.6731 21.5558 30.2147 21.3252 29.9193 20.8161C29.5959 20.2621 29.5593 19.6883 29.9137 19.123C30.2287 18.6224 30.7125 18.4902 31.2665 18.4902C33.7977 18.493 36.3261 18.4902 38.8574 18.4902C38.8489 18.4902 38.8489 18.4902 38.8489 18.493ZM31.4971 19.6911C31.3593 19.8908 31.1962 20.0258 31.2159 20.1214C31.244 20.2592 31.4015 20.3717 31.5056 20.4955C31.6209 20.3746 31.8037 20.2677 31.8262 20.1327C31.8431 20.0286 31.6574 19.8908 31.4971 19.6911Z" fill="white"/>
<path d="M35.9317 22.0058C36.2636 21.9862 36.5983 21.9946 36.9245 21.9468C38.2604 21.7471 39.287 22.1662 40.2067 23.2011C41.1966 24.3177 42.3807 25.2627 43.455 26.3061C43.6435 26.4889 43.7925 26.7898 43.815 27.0486C43.8685 27.6392 43.8488 28.2411 43.8263 28.8373C43.8207 28.992 43.6913 29.1411 43.6182 29.2901C43.4804 29.2226 43.3172 29.1804 43.2076 29.082C42.3244 28.2833 41.4441 27.4789 40.5751 26.6633C39.1014 25.2796 37.6361 23.8846 36.1679 22.4924C36.0667 22.3968 35.9879 22.2815 35.8979 22.1746C35.9092 22.1183 35.9204 22.0621 35.9317 22.0058Z" fill="white"/>
<path d="M94.7983 37.6096L92.3796 40.1323V44.6885H88.2368V26.6719H92.3796V35.0868L100.356 26.6719H104.988L97.5264 34.7015L105.427 44.6857H100.564L94.7983 37.6096Z" fill="white"/>
<path d="M106.942 28.2631C106.478 27.8356 106.248 27.3012 106.248 26.6684C106.248 26.0328 106.478 25.5012 106.942 25.0737C107.406 24.6462 108.005 24.4297 108.742 24.4297C109.479 24.4297 110.081 24.635 110.542 25.0484C111.006 25.459 111.237 25.9737 111.237 26.5925C111.237 27.2618 111.006 27.8159 110.542 28.2518C110.078 28.6906 109.479 28.9071 108.742 28.9071C108.008 28.9071 107.406 28.6934 106.942 28.2631ZM106.737 30.8365H110.75V44.6822H106.737V30.8365Z" fill="white"/>
<path d="M128.584 25.5938V44.6876H124.751V43.0929C123.755 44.2938 122.315 44.8929 120.428 44.8929C119.123 44.8929 117.945 44.6004 116.89 44.0182C115.835 43.436 115.006 42.6035 114.407 41.5207C113.805 40.4407 113.507 39.1892 113.507 37.7633C113.507 36.3402 113.808 35.0858 114.407 34.0058C115.006 32.9258 115.835 32.0934 116.89 31.5084C117.945 30.9262 119.126 30.6337 120.428 30.6337C122.194 30.6337 123.575 31.1906 124.571 32.3071V25.5938H128.584ZM123.646 40.5561C124.315 39.8614 124.65 38.9305 124.65 37.7633C124.65 36.5961 124.315 35.6652 123.646 34.9705C122.976 34.2758 122.135 33.9271 121.123 33.9271C120.093 33.9271 119.244 34.2758 118.575 34.9705C117.905 35.6652 117.571 36.5961 117.571 37.7633C117.571 38.9305 117.905 39.8614 118.575 40.5561C119.244 41.2507 120.093 41.5995 121.123 41.5995C122.135 41.5995 122.976 41.2507 123.646 40.5561Z" fill="white"/>
<path d="M133.576 44.4617C132.479 44.1777 131.602 43.8233 130.952 43.393L132.291 40.5102C132.91 40.9039 133.655 41.2274 134.53 41.4749C135.404 41.7224 136.262 41.8489 137.103 41.8489C138.802 41.8489 139.651 41.4299 139.651 40.5889C139.651 40.1952 139.42 39.9111 138.956 39.7396C138.492 39.568 137.781 39.4218 136.822 39.3036C135.688 39.1321 134.755 38.9352 134.018 38.713C133.281 38.4908 132.642 38.0943 132.1 37.529C131.56 36.9637 131.29 36.1565 131.29 35.1103C131.29 34.2356 131.543 33.4593 132.049 32.7815C132.555 32.1037 133.292 31.5778 134.262 31.1981C135.233 30.8212 136.377 30.6328 137.696 30.6328C138.675 30.6328 139.648 30.7397 140.616 30.9534C141.586 31.1672 142.388 31.4653 143.023 31.8422L141.685 34.6996C140.467 34.0134 139.136 33.6703 137.696 33.6703C136.839 33.6703 136.195 33.7912 135.767 34.0303C135.337 34.2721 135.123 34.5787 135.123 34.9556C135.123 35.3859 135.354 35.684 135.818 35.8556C136.282 36.0271 137.019 36.1902 138.031 36.3449C139.165 36.5334 140.09 36.7359 140.81 36.9496C141.53 37.1634 142.157 37.5543 142.689 38.1196C143.22 38.6849 143.487 39.4752 143.487 40.4877C143.487 41.3455 143.231 42.1077 142.714 42.777C142.199 43.4464 141.448 43.9667 140.461 44.3351C139.474 44.7036 138.304 44.8892 136.948 44.8892C135.798 44.8864 134.676 44.7458 133.576 44.4617Z" fill="white"/>
<path d="M167.815 32.1662C168.836 33.1872 169.345 34.7171 169.345 36.759V44.6845H165.332V37.3749C165.332 36.2781 165.104 35.4568 164.651 34.9168C164.196 34.3768 163.549 34.1068 162.708 34.1068C161.766 34.1068 161.018 34.4106 160.469 35.0209C159.921 35.6312 159.645 36.534 159.645 37.7349V44.6817H155.632V37.3721C155.632 35.1924 154.757 34.104 153.008 34.104C152.083 34.104 151.343 34.4078 150.794 35.0181C150.246 35.6284 149.97 36.5312 149.97 37.7321V44.6789H145.957V30.8331H149.79V32.4278C150.305 31.8456 150.935 31.3984 151.683 31.0891C152.429 30.7797 153.25 30.625 154.141 30.625C155.12 30.625 156.003 30.8191 156.791 31.2044C157.578 31.5897 158.214 32.1522 158.695 32.889C159.26 32.169 159.977 31.6122 160.843 31.2156C161.71 30.8219 162.657 30.625 163.687 30.625C165.419 30.6362 166.795 31.1481 167.815 32.1662Z" fill="white"/>
<path d="M175.766 43.9723C174.608 43.3649 173.702 42.5183 173.052 41.4383C172.4 40.3583 172.073 39.1321 172.073 37.7596C172.073 36.3871 172.4 35.1609 173.052 34.0809C173.705 33.0009 174.61 32.1544 175.766 31.5469C176.925 30.9394 178.233 30.6328 179.69 30.6328C181.146 30.6328 182.451 30.9366 183.602 31.5469C184.752 32.1572 185.652 33.0009 186.304 34.0809C186.957 35.1609 187.283 36.3899 187.283 37.7596C187.283 39.1321 186.957 40.3583 186.304 41.4383C185.652 42.5183 184.752 43.3649 183.602 43.9723C182.451 44.5826 181.149 44.8864 179.69 44.8864C178.233 44.8864 176.925 44.5826 175.766 43.9723ZM182.226 40.5496C182.887 39.8549 183.216 38.924 183.216 37.7568C183.216 36.5896 182.885 35.6587 182.226 34.964C181.566 34.2693 180.722 33.9206 179.692 33.9206C178.663 33.9206 177.814 34.2693 177.144 34.964C176.475 35.6587 176.14 36.5896 176.14 37.7568C176.14 38.924 176.475 39.8549 177.144 40.5496C177.814 41.2442 178.663 41.593 179.692 41.593C180.722 41.593 181.566 41.2442 182.226 40.5496Z" fill="white"/>
<path d="M202.53 32.1769C203.585 33.2062 204.113 34.7334 204.113 36.7584V44.6839H200.1V37.3743C200.1 36.2774 199.858 35.4562 199.38 34.9162C198.899 34.3762 198.204 34.1062 197.296 34.1062C196.283 34.1062 195.476 34.4184 194.877 35.0456C194.275 35.6727 193.977 36.6037 193.977 37.8383V44.6839H189.964V30.8381H193.797V32.4581C194.329 31.8759 194.99 31.4259 195.78 31.1081C196.567 30.7903 197.437 30.6328 198.379 30.6328C200.089 30.6328 201.475 31.1475 202.53 32.1769Z" fill="white"/>
<path d="M216.671 44.0126C216.277 44.3051 215.79 44.5245 215.217 44.6679C214.643 44.8142 214.038 44.8873 213.403 44.8873C211.755 44.8873 210.481 44.4682 209.581 43.6273C208.681 42.7864 208.231 41.5517 208.231 39.9205V34.2337H206.096V31.1456H208.231V27.7734H212.244V31.1456H215.692V34.2337H212.244V39.8698C212.244 40.452 212.393 40.9048 212.694 41.2198C212.995 41.5376 213.42 41.6951 213.968 41.6951C214.601 41.6951 215.144 41.5236 215.588 41.1805L216.671 44.0126Z" fill="white"/>
</g>
<defs>
<clipPath id="clip0_113_2979">
<rect width="226.938" height="75" fill="white"/>
</clipPath>
</defs>
</svg>
