<svg width="67" height="75" viewBox="0 0 67 75" fill="none" xmlns="http://www.w3.org/2000/svg">
<path d="M32.3334 3.28999C32.2809 4.00255 32.2317 4.64557 32.1857 5.28859C32.1311 6.05144 32.0766 6.81322 32.0263 7.57607C32.0199 7.68092 32.0081 7.73549 31.8765 7.72372C31.425 7.68306 30.9735 7.64775 30.5209 7.62849C30.3636 7.62207 30.3529 7.55253 30.3615 7.43056C30.4589 6.09209 30.5541 4.75256 30.6504 3.4141C30.7274 2.34097 30.8109 1.26891 30.8804 0.195789C30.8911 0.0342319 30.9296 -0.0128443 31.0976 0.0042743C31.4507 0.0417214 31.807 0.0620498 32.1622 0.071679C32.3227 0.0759587 32.3901 0.149783 32.4575 0.281382C33.2192 1.78568 33.9874 3.28678 34.7535 4.78787C34.7888 4.85741 34.8316 4.92375 34.883 5.01255C35.3912 4.2818 35.8876 3.56602 36.3841 2.85132C36.8912 2.12057 37.3994 1.39195 37.9001 0.657993C37.9857 0.532813 38.0702 0.484666 38.2254 0.502855C38.5603 0.543512 38.8984 0.577749 39.2343 0.578819C39.4536 0.579889 39.4697 0.668692 39.4569 0.849508C39.3723 2.02 39.2996 3.19048 39.2204 4.36204C39.1391 5.56891 39.0471 6.7747 38.9765 7.98157C38.9647 8.18271 38.9198 8.23514 38.7186 8.21374C38.3302 8.17201 37.9386 8.14954 37.5481 8.13777C37.3545 8.13135 37.2881 8.07465 37.3042 7.87029C37.3769 6.95766 37.4336 6.04395 37.4957 5.13024C37.5289 4.64236 37.562 4.15555 37.5963 3.65804C37.4871 3.66553 37.4647 3.75112 37.4251 3.80889C36.7082 4.83708 35.9893 5.8642 35.281 6.89881C35.1569 7.07963 35.0295 7.13847 34.8059 7.1374C34.4368 7.13526 34.2303 7.00794 34.0623 6.66022C33.5381 5.57319 32.9689 4.50969 32.4157 3.43656C32.4029 3.40768 32.3847 3.37986 32.3334 3.28999Z" fill="white"/>
<path d="M55.8426 12.8668C56.2428 12.304 56.6429 11.7423 57.042 11.1795C57.4796 10.5633 57.9215 9.95021 58.3516 9.32859C58.4425 9.19699 58.5035 9.16917 58.6394 9.27188C59.0021 9.54364 59.3744 9.80363 59.7468 10.0615C59.858 10.1385 59.904 10.192 59.8067 10.329C58.3965 12.304 56.9907 14.2834 55.5912 16.2659C55.4896 16.4104 55.4275 16.3943 55.3066 16.3023C55.0306 16.0926 54.7481 15.8915 54.4592 15.6999C54.3255 15.6111 54.2784 15.5041 54.2677 15.349C54.1596 13.7088 54.0462 12.0676 53.9328 10.4274C53.9157 10.1738 53.89 9.92025 53.8633 9.6057C53.5733 10.0112 53.3123 10.375 53.0534 10.7387C52.4767 11.5508 51.8978 12.3607 51.3297 13.1781C51.2206 13.3354 51.1489 13.3622 50.9873 13.237C50.6364 12.9652 50.2684 12.7138 49.9003 12.4645C49.7762 12.38 49.7708 12.3201 49.8575 12.1992C51.2612 10.2305 52.6607 8.25867 54.0569 6.28361C54.1532 6.14773 54.2206 6.12526 54.3587 6.23118C54.6475 6.45265 54.9503 6.65701 55.2488 6.86564C55.3323 6.92449 55.3836 6.98547 55.3911 7.09995C55.4938 8.67915 55.6019 10.2573 55.71 11.8354C55.7324 12.1703 55.7613 12.5062 55.787 12.8411C55.8052 12.8508 55.8234 12.8593 55.8426 12.8668Z" fill="white"/>
<path d="M16.3771 4.9184C16.2081 4.94087 16.023 4.93659 15.8379 4.98046C15.1242 5.15271 14.493 5.52504 13.8168 5.78931C13.6991 5.83532 13.7419 5.89952 13.7772 5.97869C13.8928 6.23761 14.0008 6.50081 14.1142 6.75973C14.5829 7.83178 15.0504 8.90491 15.5222 9.9759C15.5586 10.0572 15.5576 10.2006 15.7309 10.1203C16.2776 9.86677 16.8457 9.65492 17.3764 9.37139C18.4196 8.81397 18.8507 7.87565 18.5961 6.82178C18.3179 5.67269 17.4513 4.92482 16.3771 4.9184ZM16.7163 3.37558C18.7074 3.33386 20.0608 4.82211 20.3636 6.56821C20.6546 8.24691 19.9228 9.47732 18.5619 10.3942C18.1917 10.6435 17.7819 10.8136 17.3743 10.9902C16.4959 11.37 15.6185 11.7541 14.7444 12.1457C14.5936 12.2131 14.5422 12.1853 14.4791 12.0376C13.5204 9.82504 12.5564 7.61566 11.585 5.40842C11.5144 5.24901 11.5293 5.18909 11.693 5.11955C12.7276 4.67553 13.7548 4.21333 14.7904 3.77252C15.3896 3.51681 16.0187 3.36274 16.7163 3.37558Z" fill="white"/>
<path d="M45.7543 4.0293C44.4576 4.03037 43.3952 5.16876 43.3706 6.58319C43.3481 7.85746 44.4812 8.93807 45.8367 8.937C47.1495 8.93593 48.2162 7.77828 48.213 6.35851C48.2109 5.07568 47.1056 4.02823 45.7543 4.0293ZM41.6266 6.46336C41.6266 3.62273 44.2319 1.80067 46.9655 2.70582C48.4826 3.20868 49.5525 4.17909 49.9013 5.79252C50.3154 7.70553 49.0925 10.1267 46.6392 10.4456C44.6534 10.7034 42.6944 9.65812 41.9326 7.9484C41.7165 7.46373 41.6052 6.95552 41.6266 6.46336Z" fill="white"/>
<path d="M3.67116 15.6582C3.67116 14.1133 3.67651 12.6186 3.66474 11.1228C3.6626 10.8917 3.70646 10.7248 3.88407 10.5665C4.27994 10.2113 4.65548 9.83251 5.11233 9.47409C5.11233 9.79614 5.11019 10.1182 5.11233 10.4392C5.12089 11.4363 5.1348 12.4324 5.14229 13.4296C5.14657 14.0619 5.14229 14.0715 5.76926 14.1593C7.25644 14.3679 8.74577 14.5658 10.234 14.7702C10.3121 14.7809 10.3881 14.7991 10.509 14.8226C10.0158 15.2944 9.54927 15.7395 9.08493 16.1878C9.01325 16.2574 8.93621 16.2285 8.85918 16.2199C7.74754 16.0851 6.63589 15.9524 5.52532 15.8112C5.17867 15.7673 5.17439 15.7577 5.18188 16.1001C5.19044 16.4895 5.0674 16.9196 5.22895 17.2588C5.38516 17.5873 5.73395 17.8227 5.99822 18.0998C6.16941 18.2795 6.3406 18.4593 6.44117 18.5652C6.06777 18.9782 5.70079 19.3783 5.34022 19.7849C5.22146 19.9197 5.17653 19.7924 5.11875 19.7325C4.21681 18.7973 3.31594 17.8601 2.41721 16.9229C1.63939 16.114 0.867977 15.2998 0.0869379 14.4952C-0.0296829 14.3754 -0.0296829 14.3133 0.0912176 14.2021C0.419682 13.9014 0.740656 13.5933 1.05414 13.2776C1.18467 13.146 1.26492 13.1546 1.39117 13.2873C2.10587 14.0448 2.8302 14.7926 3.55026 15.5437C3.57914 15.5748 3.61124 15.6026 3.67116 15.6582Z" fill="white"/>
<path d="M25.5574 0.598073C26.1041 0.580955 26.6113 0.663338 27.1066 0.820616C27.2222 0.856993 27.2703 0.89979 27.2318 1.0453C27.1387 1.39623 27.0596 1.75358 27.0082 2.11307C26.9804 2.30459 26.9098 2.29282 26.7664 2.24895C25.9586 1.99859 25.1465 1.94724 24.3291 2.20616C24.1151 2.27356 23.914 2.36664 23.7471 2.51857C23.3095 2.91658 23.4261 3.50825 23.9846 3.69655C24.3933 3.83457 24.8234 3.83992 25.2493 3.85811C25.8185 3.88272 26.3866 3.90839 26.9419 4.05069C27.7079 4.24756 28.244 4.68729 28.4237 5.48438C28.6099 6.31036 28.3788 7.0165 27.7614 7.58891C27.1366 8.16666 26.3609 8.4106 25.5413 8.54113C24.6052 8.68985 23.6829 8.64705 22.7745 8.35176C22.5242 8.27044 22.415 8.16987 22.5252 7.88313C22.6354 7.59532 22.7007 7.28612 22.7553 6.98119C22.7884 6.79717 22.8484 6.79717 22.9981 6.85708C23.9279 7.2262 24.878 7.2904 25.8441 7.01543C26.1105 6.93947 26.363 6.83141 26.5578 6.6217C26.868 6.28682 26.791 5.82675 26.3866 5.61705C26.0956 5.46619 25.7746 5.44265 25.4558 5.41591C24.7571 5.35813 24.0509 5.37525 23.363 5.2062C22.6119 5.02111 22.047 4.62845 21.8341 3.84741C21.618 3.05032 21.7645 2.33027 22.3434 1.72363C22.9072 1.13196 23.638 0.867692 24.4158 0.709345C24.801 0.631241 25.1893 0.580955 25.5574 0.598073Z" fill="white"/>
<path d="M60.994 13.0765C61.3192 12.7865 61.6487 12.503 61.9644 12.2056C62.097 12.0815 62.1452 12.1895 62.2115 12.2634C63.0364 13.1846 63.8592 14.1068 64.683 15.0291C65.2458 15.6593 65.8021 16.2959 66.3756 16.9164C66.5104 17.0619 66.4901 17.1293 66.351 17.2438C66.09 17.4578 65.8342 17.6814 65.5935 17.9179C65.4619 18.0484 65.3967 18.0184 65.2875 17.8922C64.851 17.3883 64.3963 16.8993 63.9608 16.3932C63.8378 16.2499 63.7747 16.2509 63.6345 16.3772C62.2201 17.6515 60.796 18.914 59.3816 20.1872C59.2243 20.3284 59.143 20.3498 58.9964 20.1647C58.7386 19.8373 58.4508 19.5324 58.1619 19.2296C58.0271 19.0873 58.011 19.0092 58.1769 18.8626C59.6041 17.6033 61.0175 16.329 62.4426 15.0676C62.5913 14.936 62.5988 14.8665 62.464 14.7199C61.9697 14.1828 61.4904 13.6339 60.994 13.0765Z" fill="white"/>
<path d="M12.8805 13.3953C12.8773 13.4542 12.8388 13.4756 12.8014 13.5013C12.3819 13.7848 11.9604 14.0662 11.5453 14.3561C11.3859 14.4674 11.3634 14.3176 11.3131 14.2448C10.7364 13.4017 10.164 12.5554 9.59054 11.7091C8.82234 10.5761 8.05842 9.44093 7.28487 8.3111C7.17895 8.15596 7.14899 8.06716 7.34264 7.94947C7.72888 7.71409 8.10015 7.45196 8.47034 7.18983C8.58803 7.10637 8.63724 7.12456 8.71535 7.24011C10.0784 9.25797 11.4458 11.2726 12.8131 13.2883C12.8388 13.3247 12.8613 13.3632 12.8805 13.3953Z" fill="white"/>
<path d="M46.7002 26.3552C46.6553 26.383 46.621 26.4729 46.5611 26.4055C46.5386 26.3798 46.606 26.3253 46.652 26.3017C46.6681 26.3199 46.6841 26.3381 46.7002 26.3552Z" fill="#087A4A"/>
<path d="M11.3174 52.8795C11.4126 52.8099 11.5068 52.7404 11.602 52.6708C11.6127 52.6847 11.6234 52.6986 11.6341 52.7126C11.5442 52.7832 11.4554 52.8538 11.3655 52.9244C11.3495 52.9095 11.3334 52.8945 11.3174 52.8795Z" fill="#087A4A"/>
<path d="M38.4101 50.3234C38.1618 50.3224 37.9521 50.5331 37.9543 50.7824C37.9564 51.021 38.1544 51.2232 38.3929 51.2318C38.6422 51.2404 38.8562 51.0371 38.8616 50.7867C38.8659 50.5385 38.6583 50.3256 38.4101 50.3234ZM38.3994 55.2964C38.1511 55.3018 37.9457 55.5179 37.9553 55.7661C37.9639 56.0047 38.1672 56.2026 38.4047 56.2048C38.6529 56.2069 38.8637 55.9972 38.8626 55.7479C38.8605 55.4997 38.6465 55.2911 38.3994 55.2964ZM38.8616 45.756C38.8637 45.5078 38.6529 45.297 38.4047 45.2981C38.1576 45.2991 37.9489 45.5131 37.9543 45.7613C37.9596 45.9988 38.1586 46.2 38.3972 46.2053C38.6455 46.2118 38.8594 46.0053 38.8616 45.756ZM38.3994 40.3262C38.1511 40.3304 37.9457 40.5476 37.9553 40.7959C37.9639 41.0344 38.1661 41.2324 38.4036 41.2345C38.6519 41.2367 38.8626 41.027 38.8616 40.7787C38.8605 40.5305 38.6465 40.3219 38.3994 40.3262ZM38.8616 35.7641C38.8669 35.5148 38.6594 35.3019 38.4111 35.3008C38.1736 35.2997 37.9682 35.4944 37.9553 35.733C37.9425 35.9812 38.1437 36.2006 38.3929 36.2091C38.6412 36.2166 38.8562 36.0133 38.8616 35.7641ZM37.1518 44.4967C37.1518 39.9613 37.154 35.427 37.1465 30.8917C37.1465 30.6531 37.1989 30.5814 37.4461 30.5889C38.0869 30.6081 38.7289 30.6039 39.3698 30.5899C39.5699 30.5857 39.6169 30.637 39.6169 30.836C39.6084 33.054 39.6105 35.273 39.6159 37.4909C39.6159 37.5872 39.5217 37.7498 39.7421 37.7723C39.7946 37.7776 39.771 37.8836 39.771 37.9445C39.7721 38.8893 39.7732 39.8329 39.7699 40.7777C39.7699 40.8515 39.8224 40.9574 39.6683 40.9735C39.5656 40.9842 39.6137 41.0901 39.6137 41.15C39.6116 44.5534 39.6116 47.9568 39.6137 51.3602C39.6137 51.4329 39.5581 51.5421 39.7122 51.5581C39.8192 51.5688 39.7689 51.6737 39.7689 51.7336C39.7721 52.6783 39.7721 53.622 39.771 54.5667C39.771 54.6555 39.8085 54.7561 39.6469 54.7743C39.5752 54.7828 39.6127 54.9166 39.6127 54.9925C39.6105 56.5161 39.6116 58.0397 39.6105 59.5632C39.6105 59.9142 39.5784 59.9291 39.2296 59.9495C38.1105 60.0137 37.3241 59.2786 37.1743 58.366C37.1518 58.2269 37.1518 58.0825 37.1518 57.9402C37.1508 53.4594 37.1518 48.9775 37.1518 44.4967Z" fill="white"/>
<path d="M28.5401 28.9754C28.5465 28.7272 28.3389 28.5132 28.0907 28.5111C27.8532 28.509 27.6467 28.7037 27.6338 28.9412C27.6199 29.1894 27.8211 29.4087 28.0693 29.4184C28.3175 29.428 28.5336 29.2247 28.5401 28.9754ZM34.4556 30.2208C32.3179 30.2208 30.1802 30.223 28.0426 30.2197C27.1524 30.2176 26.5308 29.413 26.7768 28.5935C26.9149 28.1356 27.3385 27.7964 27.8168 27.7643C27.8874 27.7589 27.9591 27.7622 28.0308 27.7622C32.3158 27.7622 34.9948 27.7632 39.2788 27.7568C39.4896 27.7568 39.5666 27.7889 39.5602 28.0243C39.5409 28.6652 39.5377 29.3071 39.5612 29.948C39.5709 30.2026 39.4799 30.2272 39.2638 30.2262C37.1261 30.2176 36.5933 30.2208 34.4556 30.2208Z" fill="white"/>
<path d="M60.4234 50.7086C60.3656 50.8702 60.2522 50.9654 60.1238 51.0317C60.005 51.0927 59.9013 51.1601 59.8103 51.234V51.2329L59.3652 51.5742L59.4005 52.0417C59.3962 52.1455 59.4048 52.2568 59.4262 52.3745V52.3809V52.3798C59.4305 52.4044 59.4348 52.428 59.4401 52.4526C59.5846 53.1138 59.3866 53.7258 59.1256 54.3346C58.7618 55.1841 58.4419 56.0529 58.1027 56.9131C57.8962 57.4373 57.5988 57.9124 57.2971 58.3863C57.2233 58.5019 57.158 58.5158 57.0392 58.4537C56.8177 58.3393 56.5941 58.2258 56.3609 58.1403C56.163 58.0675 56.163 57.9787 56.24 57.8043C56.9247 56.2508 57.5859 54.6866 58.2814 53.1373C59.2497 50.9772 59.7836 48.7154 59.9366 46.3562C59.9794 45.6993 60.066 45.0445 60.1217 44.3876C60.1933 43.5295 60.0938 42.6768 59.9676 41.8326C59.7504 40.3775 59.5931 38.9182 59.5139 37.4502C59.4241 35.7737 58.9287 34.2223 58.138 32.7522C57.8919 32.2954 57.8994 32.2911 58.3884 32.1392C58.9629 31.9605 58.9672 31.9594 59.1224 32.549C59.6092 34.3881 60.1944 36.2006 60.5849 38.0654C61.0621 40.3454 61.3767 42.6436 61.3916 45.3409C61.4558 46.9522 61.0846 48.8545 60.4234 50.7086ZM55.6269 57.7968C55.3541 57.6481 55.0695 57.5197 54.7817 57.3999C54.6223 57.3335 54.6373 57.2747 54.7293 57.157C55.0363 56.7643 55.3391 56.3685 55.6323 55.9651C56.6808 54.5186 57.1762 52.8806 57.3131 51.1141C57.4158 49.7864 57.4094 48.4425 57.8481 47.1576C58.1038 46.4097 58.3937 45.6725 58.612 44.9118C58.795 44.2731 58.887 43.6269 58.8506 42.9614C58.7607 41.3073 58.7062 39.6511 58.4858 38.0077C58.4151 37.4791 58.3231 36.9527 58.2375 36.4263C58.2215 36.33 58.1937 36.2348 58.2654 36.1717C58.49 36.0786 58.7169 35.9877 58.9212 35.9106C58.9212 35.9106 58.5981 35.9823 58.2022 36.069C58.1658 36.0337 58.1455 35.9823 58.1327 35.917C57.9112 34.799 57.5046 33.7515 56.9226 32.7726C56.8531 32.6549 56.8702 32.6164 56.9986 32.5682C57.632 32.3328 57.6127 32.3382 57.9358 32.932C58.8185 34.5518 59.2347 36.2862 59.2978 38.1211C59.3395 39.314 59.5065 40.4974 59.6776 41.6775C59.8435 42.8266 59.9269 43.9714 59.7868 45.1354C59.6402 46.3541 59.5749 47.5823 59.3706 48.7956C59.1223 50.27 58.6227 51.6651 58.0342 53.0314C57.3698 54.5742 56.6894 56.1096 56.0292 57.6545C55.9286 57.8845 55.8334 57.9092 55.6269 57.7968ZM55.5403 60.6674C53.8102 62.6649 52.0021 64.594 49.8344 66.1165C48.3472 67.1607 46.9157 68.2756 45.4467 69.3401C44.6122 69.9446 43.6375 70.2849 42.6767 70.6358C40.0511 71.5955 37.3474 72.2364 34.5699 72.5499C32.4386 72.7906 30.3063 72.8184 28.1793 72.4696C28.037 72.4461 27.9332 72.3958 27.8412 72.2867C27.6069 72.0074 27.3619 71.7357 27.1222 71.4607C27.1115 71.4489 27.1094 71.4286 27.0955 71.388C27.4742 71.4928 27.8369 71.6084 28.2136 71.6565C28.7913 71.7314 29.368 71.7207 29.9468 71.6693C30.899 71.5837 31.8523 71.5912 32.8024 71.6683C34.4137 71.7977 35.9758 71.5805 37.5218 71.128C39.3043 70.6058 41.1232 70.2143 42.8703 69.5712C44.1478 69.1015 45.3654 68.5323 46.3743 67.5865C46.6664 67.3126 46.9959 67.0687 47.3661 66.9168C48.573 66.4203 49.5691 65.619 50.5202 64.7545C52.0502 63.3625 53.4925 61.885 54.8052 60.2844C54.9347 60.126 55.0684 59.9655 55.1615 59.7858C55.2878 59.5418 55.3755 59.5975 55.5274 59.7655C55.9308 60.2105 55.9394 60.2063 55.5403 60.6674ZM26.8141 71.0017C26.5723 70.9076 26.4268 70.7075 26.3005 70.5128C26.032 70.0987 25.7142 69.9821 25.2606 70.2014C24.9407 70.3566 24.6165 70.2999 24.2805 70.1961C19.6071 68.7602 15.6153 66.2331 12.2493 62.7002C11.7871 62.2156 11.3977 61.672 11.0072 61.1296C10.637 60.615 10.2293 60.1324 9.76178 59.7023C9.37447 59.3461 9.10592 58.9031 8.87696 58.4409C8.495 57.6684 8.13871 56.882 7.76852 56.1042C7.72573 56.0133 7.73108 55.9416 7.77815 55.8538C7.82202 55.7736 7.89049 55.7019 7.90226 55.5789L7.96325 55.443L7.49569 55.5414C7.36516 55.4548 7.2892 55.2729 7.19077 55.121C6.63227 54.2586 6.11657 53.3802 5.94646 52.3424C5.83305 51.648 5.76778 50.9472 5.68647 50.2496C5.55701 49.1337 5.26385 48.0488 5.04452 46.95C4.84337 45.9443 4.67968 44.9354 4.69465 43.905C4.69786 43.7071 4.66363 43.492 4.78453 43.3647L5.09694 43.2513C5.10122 43.2513 5.10443 43.2502 5.10871 43.2502C5.10657 43.2492 5.1055 43.2492 5.10336 43.2492L5.19965 43.2139L4.80914 43.1647C4.70535 43.1079 4.71284 43.0159 4.72996 42.7602C4.88082 40.5113 5.13546 38.2751 5.60515 36.0679C5.68112 35.7116 5.78811 35.3618 5.86621 35.0065C5.90259 34.8396 5.96892 34.7883 6.13904 34.8364C6.44718 34.9231 6.75852 35.0023 7.07201 35.06C7.25389 35.0932 7.25068 35.1628 7.19719 35.3061C6.74782 36.5269 6.41294 37.7798 6.16365 39.0562C5.59873 41.9471 5.48211 44.853 5.91436 47.7717C6.12941 49.2236 6.37228 50.6712 6.61408 52.1188C6.71359 52.7147 6.98534 53.2486 7.27957 53.7686C7.62087 54.372 7.98144 54.9648 8.29706 55.5842C8.55384 56.0882 8.92617 56.5151 9.32632 56.9088C10.1769 57.7455 10.8381 58.6988 11.2511 59.8243C11.5111 60.5347 11.9326 61.1446 12.4419 61.7063C13.4605 62.8276 14.4812 63.9446 15.6474 64.9203C16.2883 65.4563 16.9784 65.8993 17.7562 66.2085C18.2451 66.4021 18.7373 66.6129 19.131 66.9639C20.171 67.8915 21.41 68.3194 22.7613 68.4928C23.9221 68.6415 25.0059 69.017 26.0395 69.5616C26.9799 70.057 27.9503 70.4689 29.0406 70.5149C29.7992 70.547 30.5545 70.5256 31.3099 70.4753C32.2696 70.4111 33.2293 70.3523 34.1869 70.2624C34.6459 70.2196 35.1006 70.1201 35.5532 70.027C35.6997 69.9971 35.7415 70.027 35.7565 70.1683C35.7886 70.4689 35.8217 70.7706 35.8795 71.067C35.9105 71.2264 35.8613 71.2617 35.7158 71.2863C34.8952 71.4297 34.0692 71.465 33.24 71.4179C32.0385 71.3505 30.8381 71.3088 29.6365 71.4243C28.6661 71.5174 27.7246 71.3537 26.8141 71.0017ZM22.8019 70.6016C20.4738 69.5135 18.1424 68.4339 15.9395 67.1019C14.5571 66.2652 13.2551 65.3215 12.0653 64.2259C11.9316 64.1029 11.8289 63.966 11.7529 63.8012C11.5079 63.2684 11.2522 62.7409 11.0061 62.2081C10.944 62.0754 10.8627 61.9706 10.744 61.8828C10.2261 61.5051 9.71791 61.1146 9.19793 60.7402C8.97004 60.5754 8.78708 60.3817 8.63302 60.1463C8.0788 59.2968 7.56631 58.4216 7.07415 57.5358C6.98427 57.3731 6.98748 57.2501 7.08485 57.096C7.24533 56.8414 7.38228 56.5728 7.55668 56.2626C7.84877 56.897 8.11732 57.4876 8.39228 58.075C8.76033 58.8614 9.19365 59.6007 9.86235 60.1817C10.1641 60.4438 10.4176 60.7605 10.6434 61.0922C11.8963 62.9324 13.5086 64.4207 15.2462 65.7827C17.9349 67.8893 20.9092 69.4525 24.1875 70.4411C23.8355 70.6957 23.1668 70.7717 22.8019 70.6016ZM6.05452 55.4227C5.40187 53.8906 5.05522 52.2932 4.97069 50.6348C4.94822 50.1844 4.82197 49.7639 4.6219 49.3584C3.81518 47.7268 3.39578 45.9914 3.25241 44.1821C3.23743 43.9949 3.27916 43.8943 3.47388 43.8408C3.72424 43.7713 3.97139 43.6793 4.20998 43.5744L4.30841 43.5391C4.42825 43.5092 4.44536 43.583 4.43573 43.7274C4.42504 43.8868 4.43359 44.0484 4.43359 44.2078C4.44429 45.2638 4.62511 46.2974 4.85728 47.3223C5.18789 48.7806 5.46178 50.2486 5.59231 51.74C5.69503 52.9105 6.10694 53.9665 6.75959 54.9369C6.8837 55.121 6.99283 55.3157 7.1148 55.5018C7.14904 55.5532 7.15974 55.5907 7.15118 55.6163L6.80132 55.6902C6.7414 55.6976 6.68363 55.7083 6.62799 55.7265L6.43434 55.7672C6.24603 55.7736 6.14974 55.6463 6.05452 55.4227ZM3.48993 39.6575C3.59906 39.1172 3.85905 38.6015 4.09443 38.0943C4.42718 37.3785 4.60264 36.6457 4.55236 35.8518C4.52775 35.4623 4.57482 35.0686 4.58124 34.677C4.58338 34.5304 4.61441 34.4652 4.77918 34.5144C5.01777 34.585 5.26171 34.6374 5.50458 34.692C5.61264 34.7155 5.67149 34.7305 5.6319 34.8792C4.92148 37.5037 4.64865 40.1935 4.45178 42.895C4.44536 42.9785 4.46034 43.0823 4.40364 43.1133L3.2952 42.9721C3.22566 42.9443 3.20319 42.8875 3.20533 42.7934C3.22459 41.7406 3.28344 40.6867 3.48993 39.6575ZM5.51956 33.1652C5.55701 32.7576 5.5891 32.3489 5.59766 31.9402C5.60301 31.6941 5.66079 31.4737 5.75601 31.2479C6.51351 29.4515 7.63906 27.8841 8.77745 26.3231C8.85556 26.2161 8.96148 26.1904 9.07275 26.1658C9.42047 26.0888 9.76713 26.0107 10.1159 25.9412C10.2582 25.9133 10.3331 25.8641 10.3149 25.6983C10.2946 25.5132 10.3288 25.3206 10.2967 25.1387C10.225 24.7236 10.392 24.4433 10.7001 24.1747C11.3046 23.6483 11.8813 23.0909 12.458 22.5345C12.5928 22.404 12.6773 22.4169 12.8121 22.5238C13.1192 22.7667 13.4327 23.0032 13.7558 23.2236C13.9259 23.3402 13.9056 23.4076 13.7654 23.5317C12.7672 24.4197 11.7582 25.296 10.8221 26.2504C9.16048 27.9462 7.72573 29.8068 6.70503 31.9637C6.42364 32.5575 6.18719 33.1716 5.96464 33.7943C5.92078 33.7772 5.88761 33.7665 5.85551 33.7526C5.47248 33.5857 5.47997 33.5857 5.51956 33.1652ZM14.3068 23.6376C14.5197 23.812 14.7465 23.9693 14.9851 24.1469C14.5133 24.4668 14.0703 24.7642 13.6306 25.066C12.9448 25.5367 12.3585 26.1145 11.9679 26.8463C11.2511 28.1901 10.2764 29.2943 9.07917 30.2272C8.46504 30.7055 7.93222 31.2683 7.71503 32.0589C7.58878 32.519 7.56845 32.9887 7.53635 33.4595C7.51816 33.7259 7.48927 33.9912 7.47751 34.2576C7.46788 34.4716 7.38763 34.4855 7.21538 34.3935C6.97999 34.2683 6.73926 34.1495 6.48997 34.0586C6.25673 33.973 6.215 33.8671 6.30274 33.6274C6.89333 32.0022 7.70861 30.5022 8.72824 29.1081C10.0036 27.3652 11.5293 25.8631 13.1438 24.4422C13.438 24.1833 13.7322 23.9244 14.0168 23.6547C14.1206 23.5563 14.1923 23.5445 14.3068 23.6376ZM14.3549 20.8163C16.8553 18.6721 19.6371 17.0106 22.7773 15.9931C23.8675 15.64 25.0102 15.472 26.1368 15.2527C26.3551 15.2099 26.5809 15.196 26.7927 15.1329C27.1361 15.0302 27.4229 15.105 27.7139 15.3041C28.0809 15.5544 28.481 15.7556 28.8512 16.0016C29.0342 16.1236 29.154 16.0969 29.3166 15.9706C29.8034 15.5961 30.3052 15.2409 30.7985 14.875C30.8862 14.8098 30.9707 14.7637 31.0873 14.7648C34.6544 14.8001 38.1777 15.1553 41.6068 16.2039C41.8004 16.2638 41.993 16.328 42.1867 16.39C42.0572 16.3932 42.023 16.481 41.9866 16.5773C41.8774 16.8683 41.7565 17.155 41.6517 17.4482C41.6089 17.568 41.5618 17.6183 41.4217 17.584C40.0885 17.2524 38.7201 17.1283 37.3678 16.9111C36.3577 16.7484 35.3542 16.5462 34.342 16.3975C32.2503 16.0915 30.1544 16.0787 28.0552 16.344C27.2164 16.4499 26.3733 16.5259 25.5345 16.6297C24.5705 16.7484 23.6696 17.0726 22.8062 17.5092C21.5212 18.1586 20.2384 18.8144 18.9417 19.4425C17.5647 20.109 16.4049 21.0859 15.2997 22.1258C15.1114 22.3034 15.0333 22.2895 14.9124 22.0702C14.7326 21.7428 14.525 21.4315 14.3186 21.119C14.2383 20.9981 14.2276 20.9254 14.3549 20.8163ZM56.3876 31.9091C55.8035 31.0254 55.1583 30.1844 54.5346 29.3285C54.1044 28.7379 53.7054 28.127 53.3983 27.4626C52.8569 26.2921 52.0427 25.3634 50.9739 24.6476C50.5373 24.3555 50.1201 24.0367 49.6889 23.7382C49.6215 23.6911 49.5851 23.6537 49.5841 23.6055C49.7167 23.4247 49.8483 23.2439 49.9714 23.0759C50.1704 22.893 50.3105 22.9711 50.7824 23.2257C52.3316 24.0624 53.4582 25.3367 54.4083 26.7757C55.4868 28.4094 56.3909 30.147 57.3581 31.8471C57.3795 31.8856 57.3987 31.9252 57.4137 31.9541C57.4201 32.0375 57.357 32.0504 57.3163 32.0793C56.7568 32.4708 56.7578 32.4698 56.3876 31.9091ZM35.6281 66.9007C35.5136 66.5926 35.4002 66.2823 35.2664 65.9827C35.1819 65.7934 35.245 65.7655 35.4226 65.7581C36.4187 65.7153 37.4148 65.665 38.3959 65.4617C38.7105 65.3964 39.0218 65.3162 39.3129 65.1835C41.0451 64.3993 42.7879 63.6375 44.5319 62.88C45.4349 62.4884 46.1721 61.8721 46.6867 61.0269C47.6026 59.5247 48.7378 58.2173 50.0334 57.0265C51.2274 55.9287 51.8523 54.4951 52.1722 52.9276C52.46 51.5143 52.8858 50.1587 53.6594 48.9261C54.2457 47.9921 54.4736 46.9511 54.5677 45.8619C54.6875 44.4774 54.8266 43.0972 54.8534 41.7053C54.8898 39.8832 54.4661 38.1842 53.6401 36.5665C53.1437 35.5929 52.5916 34.646 52.2043 33.6189C52.1732 33.5354 52.1379 33.453 52.1165 33.3674C51.7817 32.0365 51.052 30.9601 50.0377 30.0486C49.0512 29.1616 48.2263 28.1088 47.2099 27.2486C46.9403 27.0207 46.6664 26.8003 46.3882 26.5842C46.5444 26.4783 46.8686 26.2536 47.2324 25.9904C47.2527 25.985 47.272 25.9818 47.2923 25.9818C47.4774 25.9818 47.6625 26.2011 47.8497 26.3199C49.033 27.0699 50.21 27.8199 51.0306 29.0054C51.4104 29.5543 51.8223 30.0807 52.1861 30.6413C53.1619 32.1445 54.0777 33.6873 54.6426 35.3928C54.7935 35.8496 54.9229 36.3129 55.0417 36.7794C54.8256 36.8179 54.5891 36.8532 54.3291 36.8853C54.3291 36.8853 54.6469 36.8992 55.0716 36.9003C55.2514 37.615 55.413 38.3351 55.597 39.0487C55.811 39.8757 55.9875 40.7103 56.1137 41.5566C56.256 42.5067 56.1565 43.4396 55.9426 44.3651C55.6344 45.6993 55.3113 47.026 55.2418 48.4072C55.1765 49.7083 54.7143 50.9226 54.2253 52.1209C53.4111 54.1184 52.3958 55.994 50.9856 57.6438C50.3426 58.396 49.8152 59.2359 49.2866 60.0704C48.3804 61.5009 47.1885 62.6307 45.697 63.4256C43.8696 64.4003 42.0422 65.3761 40.1527 66.2331C38.7715 66.859 37.3196 67.0238 35.8324 67.0537C35.7115 67.058 35.6666 67.0045 35.6281 66.9007ZM7.81132 35.2355C8.01246 35.3168 8.3313 35.259 8.41047 35.4367C8.47467 35.58 8.30455 35.8282 8.23822 36.0294C7.13299 39.3579 6.6847 42.7656 6.9832 46.2663C7.08164 47.4218 7.28599 48.5592 7.49783 49.6965C7.59841 50.2379 7.65297 50.7889 7.72573 51.3356C7.82095 52.0535 8.0895 52.7072 8.44899 53.3288C8.77745 53.8991 9.11234 54.4662 9.41405 55.0503C9.66976 55.5457 10.0389 55.9619 10.4315 56.3503C11.2233 57.1313 11.8331 58.0236 12.2194 59.0711C12.4655 59.7376 12.8506 60.3175 13.3299 60.8471C14.3175 61.9374 15.3072 63.0223 16.4413 63.9659C17.0276 64.4538 17.6556 64.8625 18.366 65.1482C18.9042 65.3643 19.4349 65.6072 19.8725 65.9945C20.7766 66.7916 21.8529 67.1639 23.0212 67.3223C24.1864 67.4806 25.2905 67.8198 26.3326 68.3761C27.2228 68.8512 28.1451 69.2438 29.1808 69.2834C29.8313 69.308 30.4807 69.307 31.1301 69.2588C32.1605 69.1829 33.1919 69.1219 34.2201 69.0309C34.5999 68.9978 34.9743 68.9058 35.3488 68.8298C35.5018 68.7988 35.5703 68.8223 35.596 68.9945C35.7072 69.7467 35.7115 69.7392 34.9476 69.8858C33.99 70.0698 33.0175 70.0784 32.0503 70.1522C31.3398 70.2068 30.6283 70.2474 29.9158 70.2677C28.7057 70.3031 27.5695 70.057 26.4942 69.4921C25.5644 69.0042 24.6197 68.5484 23.5712 68.359C22.9057 68.2392 22.2381 68.1376 21.579 67.9803C20.9274 67.8251 20.3336 67.5566 19.8158 67.1318C19.1631 66.5969 18.4452 66.1775 17.6599 65.8693C16.5557 65.436 15.7062 64.6432 14.8599 63.8536C13.9205 62.9773 13.0721 62.0144 12.2344 61.0429C11.923 60.6813 11.7069 60.2576 11.5443 59.8157C11.1045 58.6249 10.4208 57.601 9.5157 56.7151C9.0107 56.2198 8.6052 55.6495 8.29599 55.0075C8.10769 54.616 7.87658 54.2436 7.64762 53.8724C7.12122 53.0164 6.80239 52.0952 6.71894 51.0895C6.63762 50.0945 6.39154 49.1241 6.23854 48.1398C6.03312 46.8259 5.93041 45.5046 5.92506 44.0174C5.94646 41.1864 6.42899 38.2784 7.42187 35.4548C7.4989 35.2366 7.57487 35.1403 7.81132 35.2355ZM15.3457 24.4122C15.5564 24.5759 15.7715 24.7332 16.0165 24.9172C15.6324 25.1687 15.2879 25.4051 14.9338 25.6255C13.9751 26.2215 13.208 26.9993 12.6762 27.9965C12.1488 28.9872 11.4437 29.8207 10.5557 30.5054C10.2604 30.7333 9.99716 31.0019 9.71791 31.2511C9.046 31.8503 8.75178 32.6185 8.70898 33.5012C8.68758 33.9463 8.67153 34.3903 8.6052 34.8322C8.58273 34.9819 8.53137 35.0226 8.39977 34.9402C8.38479 34.9306 8.36661 34.9274 8.35056 34.9199C8.14192 34.8193 7.86695 34.7701 7.74498 34.6053C7.61873 34.4363 7.7728 34.1667 7.78564 33.9398C7.81346 33.4605 7.81346 32.9791 7.8937 32.5019C7.99534 31.8942 8.2564 31.3742 8.69721 30.9398C9.1102 30.5332 9.54565 30.1502 9.99502 29.7864C10.7183 29.2012 11.2982 28.5047 11.7582 27.6969C12.1723 26.9693 12.6045 26.2514 13.2551 25.6972C13.8339 25.204 14.4833 24.8145 15.1103 24.3919C15.2034 24.3299 15.2665 24.3513 15.3457 24.4122ZM41.4227 18.0505C41.3168 18.2955 41.2237 18.5459 41.1285 18.7941C41.0953 18.8808 41.0718 18.9621 40.9456 18.9332C39.8821 18.6903 38.7961 18.6251 37.7133 18.547C36.4594 18.455 35.26 18.134 34.0767 17.737C32.5521 17.2256 31.006 17.1657 29.4386 17.4824C29.3765 17.4952 29.3252 17.4985 29.2824 17.491C29.154 17.1336 29.0395 16.8672 29.0395 16.8672C29.0395 16.8672 29.0021 17.1325 28.9582 17.4792C28.8448 17.6022 28.6511 17.6429 28.4414 17.691C26.8077 18.0687 25.2584 18.7042 23.6921 19.2852C22.6083 19.6875 21.4913 19.9914 20.3978 20.3637C19.2049 20.7703 18.1606 21.4015 17.2587 22.281C16.8575 22.6726 16.4274 23.0342 16.0165 23.4172C15.8828 23.5413 15.8057 23.5221 15.7287 23.3669C15.6731 23.2557 15.6003 23.154 15.535 23.047C15.2258 22.5452 15.2333 22.5527 15.672 22.1397C17.0008 20.8912 18.4795 19.879 20.156 19.144C21.0751 18.7417 21.9577 18.2538 22.8468 17.7873C23.9681 17.1999 25.16 16.8843 26.4193 16.7912C27.5031 16.711 28.5763 16.5345 29.6611 16.4671C31.7282 16.3408 33.7718 16.5098 35.7982 16.9207C37.0382 17.1721 38.2964 17.3027 39.545 17.4942C40.1346 17.584 40.7198 17.6953 41.304 17.8184C41.4634 17.8526 41.4816 17.9136 41.4227 18.0505ZM48.528 24.3234C48.4499 24.3406 48.375 24.2796 48.2071 24.1458C46.0822 22.4436 43.7017 21.2025 41.1606 20.2578C40.3282 19.9486 39.4423 19.8587 38.565 19.8116C36.9002 19.7228 35.2889 19.4029 33.7108 18.8712C32.4515 18.4464 31.158 18.4218 29.8601 18.655C29.7478 18.6754 29.6686 18.6721 29.6087 18.6433C29.5659 18.3833 29.4825 18.0837 29.3915 17.8066C29.4621 17.7306 29.6312 17.7082 29.9532 17.6557C31.5153 17.4011 33.0218 17.6226 34.494 18.1468C35.8335 18.6229 37.2244 18.7888 38.6303 18.8893C39.331 18.9396 40.0297 19.0199 40.7219 19.1493C40.9028 19.1836 41.0033 19.2339 40.8995 19.4607C41.0397 19.1579 41.2483 19.2649 41.4377 19.3355C44.0601 20.3166 46.5305 21.577 48.7281 23.3316C48.8768 23.4504 49.1325 23.5435 49.1358 23.7114C48.8672 23.9843 48.6382 24.2154 48.528 24.3234ZM47.1564 25.5132C46.6461 25.1259 46.2053 24.654 45.6746 24.2903C43.9702 23.1219 42.1727 22.1483 40.1431 21.6647C40.0361 21.639 39.989 21.608 39.9976 21.5481L40.723 20.3958C40.7615 20.4076 40.8022 20.4225 40.8428 20.4354C42.3621 20.9532 43.8044 21.639 45.1995 22.4276C46.2748 23.0353 47.2901 23.7296 48.2884 24.561C48.0573 24.7931 47.6678 25.1922 47.288 25.5859C47.2409 25.5838 47.2024 25.5485 47.1564 25.5132ZM30.837 65.7538C29.246 65.772 27.6561 65.5815 26.0866 65.2852C25.4093 65.1568 24.7994 64.8615 24.2591 64.4453C23.1817 63.615 22.0027 63.0009 20.6974 62.6146C19.896 62.3771 19.2091 61.947 18.6624 61.3008C18.3735 60.9595 18.0429 60.6535 17.6524 60.4342C16.6328 59.8639 15.8678 59.0315 15.1723 58.1178C14.524 57.2661 13.9484 56.3674 13.3813 55.4623C13.1128 55.0332 12.994 54.5453 12.8891 54.0596C12.7083 53.2197 12.3777 52.4505 11.8674 51.7614C10.9965 50.5856 10.6273 49.1947 10.1908 47.8348C10.087 47.5117 10.087 47.1661 10.102 46.827C10.1405 45.9903 10.117 45.1536 10.1074 44.3159C10.0646 40.4888 10.974 36.896 12.8068 33.5386C13.1192 32.9662 13.2978 32.3585 13.4113 31.7262C13.561 30.8874 13.9772 30.239 14.7219 29.8121C14.7529 29.795 14.7808 29.7715 14.8118 29.7543C16.0358 29.0963 17.0811 28.234 17.9263 27.1213C18.4185 26.474 19.1214 26.0877 19.8596 25.7817C20.9584 25.326 21.9931 24.761 22.9549 24.0635C23.9446 23.3455 25.0873 23.0577 26.2706 22.909C27.7653 22.7207 29.2321 22.3912 30.7118 22.1237C32.1455 21.8648 33.5856 21.7096 35.0418 21.93C35.6719 22.0253 36.2786 22.2104 36.8371 22.5089C38.2365 23.2567 39.7119 23.7821 41.2633 24.0988C42.6563 24.3834 43.8365 25.1034 44.9866 25.8909C46.4192 26.8709 47.7277 27.989 48.8918 29.2804C49.3925 29.8356 49.9425 30.346 50.471 30.8756C51.0295 31.4341 51.4307 32.0889 51.6511 32.8475C52.0213 34.1228 52.6825 35.2644 53.271 36.4402C53.7899 37.477 54.2617 38.5308 54.4458 39.6874C54.5774 40.5166 54.5923 41.3544 54.5667 42.5527C54.5271 43.8055 54.3559 45.4083 54.1483 47.0067C54.1023 47.3619 53.96 47.6915 53.8177 48.0178C53.7642 48.1398 53.7139 48.2649 53.6433 48.3773C52.6943 49.8912 52.1647 51.556 51.7988 53.2935C51.4885 54.769 50.7663 56.0422 49.6375 57.05C48.4585 58.1028 47.4464 59.2861 46.6332 60.6407C46.5926 60.7091 46.5401 60.7712 46.4973 60.8386C45.9742 61.671 45.2562 62.2862 44.3586 62.6681C42.6414 63.3989 40.9402 64.1671 39.2337 64.9225C38.4077 65.2884 37.5133 65.3804 36.6242 65.4178C34.693 65.5002 32.7682 65.7313 30.837 65.7538ZM34.7304 67.1126C34.0296 67.1703 33.3288 67.2399 32.6302 67.3223C31.6737 67.4357 30.7289 67.3372 29.782 67.2142C28.7763 67.0837 27.7653 66.9874 26.7692 66.783C25.8758 66.6001 25.0156 66.3123 24.2003 65.9068C22.6404 65.1311 21.0719 64.3704 19.4948 63.6289C18.5287 63.1742 17.6738 62.5504 16.9024 61.8122C15.5158 60.4855 14.219 59.0796 13.0742 57.5358C12.9405 57.356 12.81 57.172 12.7308 56.9655C12.3371 55.9373 11.6962 55.0621 11.0521 54.188C10.9141 54.0008 10.6637 53.8092 10.6616 53.6102C10.8895 53.393 11.3121 52.9426 11.9776 52.4301C12.2932 52.9875 12.5232 53.5824 12.6538 54.2233C12.7875 54.8845 13.0539 55.4879 13.4273 56.0539C14.065 57.0201 14.6984 57.9883 15.4388 58.8806C15.978 59.5301 16.5782 60.1036 17.3132 60.5304C17.708 60.7594 18.0761 61.0322 18.3693 61.3832C19.0144 62.1546 19.834 62.6478 20.7841 62.9292C21.9331 63.2694 22.9785 63.8012 23.921 64.5416C24.8465 65.2691 25.9186 65.6136 27.0762 65.7238C28.4136 65.8511 29.7478 66.0758 31.0948 66.0277C32.1883 65.9881 33.2796 65.8757 34.3731 65.7998C34.6202 65.7827 34.9273 65.6767 35.0985 65.8148C35.2579 65.9442 35.199 66.2652 35.2322 66.5016C35.3135 67.0751 35.3114 67.0644 34.7304 67.1126ZM9.50714 54.2361C9.51998 54.2297 9.53389 54.2233 9.54672 54.2179C9.79708 54.1056 10.193 53.9216 10.4348 53.7814C11.1131 54.7946 11.9337 55.6944 12.3777 56.8392C12.6527 57.5497 13.1737 58.0996 13.6359 58.6859C14.6245 59.942 15.7405 61.0804 16.9013 62.1749C17.6513 62.8811 18.4966 63.4599 19.4295 63.8975C20.951 64.61 22.4649 65.3376 23.9649 66.0962C25.3815 66.813 26.905 67.1457 28.4693 67.3276C29.1594 67.4079 29.8495 67.4817 30.5363 67.5801C31.4918 67.716 32.4376 67.6101 33.3855 67.5138C33.9793 67.4539 34.5731 67.4036 35.1669 67.3415C35.3157 67.3265 35.3734 67.3715 35.3873 67.5223C35.413 67.7973 35.4537 68.0701 35.4986 68.3419C35.5221 68.4874 35.4783 68.5377 35.3296 68.5698C34.6844 68.7078 34.036 68.818 33.3759 68.848C32.2814 68.8972 31.1911 69.0074 30.0955 69.0416C28.9036 69.078 27.7706 68.8672 26.7306 68.2766C25.4146 67.5288 23.9831 67.1789 22.5055 66.9521C21.6924 66.8269 20.951 66.522 20.309 65.9881C19.7869 65.5526 19.2134 65.1921 18.5747 64.9524C17.4459 64.5298 16.56 63.7616 15.702 62.9538C14.8054 62.1107 13.9869 61.1927 13.1823 60.263C12.8817 59.9152 12.6719 59.5076 12.5157 59.0829C12.0878 57.9145 11.4073 56.9216 10.5203 56.0561C10.0581 55.6056 9.69651 55.0782 9.41726 54.4929C9.34772 54.3474 9.37875 54.2982 9.50714 54.2361ZM8.94971 35.503C9.16797 35.5747 9.39586 35.6314 9.62376 35.6613C9.81848 35.6881 9.81527 35.7726 9.77997 35.9288C9.57882 36.8147 9.32525 37.6835 8.96255 38.518C8.61269 39.3237 8.44471 40.1603 8.495 41.0387C8.55491 42.1086 8.48109 43.1743 8.40405 44.241C8.32488 45.343 8.44792 46.429 8.72075 47.4957C9.02246 48.679 9.22896 49.8773 9.34986 51.0917C9.43117 51.9091 9.70614 52.6687 10.1566 53.3567C10.2069 53.4337 10.2293 53.4904 10.2208 53.5386C9.94473 53.7215 9.49109 54.035 9.31562 54.157C9.25678 54.157 9.20649 54.112 9.14872 54.0093C8.70684 53.2186 8.18686 52.4622 8.03279 51.5453C7.92794 50.9226 7.88407 50.2892 7.76317 49.6708C7.45397 48.0959 7.21752 46.5146 7.1683 44.9086C7.16081 44.6593 7.16723 44.41 7.16723 44.1607C7.17793 41.2431 7.66046 38.4089 8.65013 35.6613C8.71112 35.4912 8.77424 35.4463 8.94971 35.503ZM16.1288 25.1601C16.2209 25.1056 16.2797 25.1034 16.3621 25.1697C16.5504 25.3195 16.7419 25.4661 16.9409 25.5988C17.0672 25.6833 17.0607 25.7464 16.957 25.8395C16.667 26.1027 16.3856 26.3766 16.0925 26.6355C14.5721 27.9729 13.1202 29.3756 11.9219 31.0211C10.9569 32.3457 10.2347 33.7783 9.8998 35.3928C9.88482 35.4634 9.91263 35.5779 9.78959 35.5939C9.4729 35.4431 9.16797 35.2986 8.86412 35.1521C8.8149 35.1285 8.82132 35.0804 8.83202 35.0365C8.98288 34.3903 8.92296 33.7237 9.02567 33.0721C9.1102 32.5308 9.3199 32.0514 9.70079 31.6502C10.1373 31.1902 10.6231 30.7847 11.1099 30.3824C11.7283 29.871 12.2804 29.2964 12.6302 28.5764C13.3899 27.0121 14.6877 26.0182 16.1288 25.1601ZM28.8341 18.7513C28.7613 18.853 28.6169 18.8926 28.3195 18.9707C27.1661 19.2745 26.0448 19.6747 24.9385 20.1123C23.4995 20.6814 21.9973 21.0613 20.5497 21.6037C19.6713 21.9322 18.8946 22.419 18.2056 23.0524C17.6952 23.5221 17.202 24.0132 16.6617 24.4508C16.5376 24.5513 16.4701 24.5727 16.3856 24.4112C16.2754 24.1993 16.0411 23.9971 16.0454 23.7949C16.0497 23.6055 16.36 23.4921 16.5258 23.3338C16.8157 23.0577 17.1196 22.7956 17.4042 22.5142C18.2858 21.6412 19.3044 20.9853 20.4898 20.6215C22.6821 19.9496 24.8241 19.1322 26.9885 18.3801C27.5074 18.1992 28.0445 18.0687 28.5773 17.9264C28.7892 17.8697 28.8748 17.8505 28.9069 17.9232C28.8726 18.2217 28.8437 18.5256 28.8341 18.7513ZM29.1262 20.6119C29.1283 20.7371 29.0449 20.7424 28.9689 20.7617C28.2874 20.9446 27.5909 21.0302 26.8879 21.0773C26.3637 21.1126 25.8405 21.1533 25.3226 21.2421C24.7738 21.3362 24.2463 21.5053 23.7766 21.8006C22.5794 22.5527 21.2848 23.0888 19.9677 23.5799C18.9267 23.9682 18.0386 24.5652 17.3368 25.4287C17.202 25.5945 17.1174 25.6202 17.0094 25.4073C16.9099 25.2093 16.6895 25.0264 16.6906 24.8381C16.6916 24.638 16.988 24.5449 17.1463 24.3941C17.4748 24.0816 17.8236 23.7885 18.1456 23.4696C18.9898 22.6319 19.9784 22.0285 21.1114 21.684C23.1357 21.0688 25.1108 20.3145 27.1062 19.6147C27.609 19.4382 28.1237 19.297 28.6394 19.1622C28.7699 19.1279 28.833 19.1001 28.8544 19.3066C28.8951 19.7003 29.0117 20.0866 29.0984 20.475C29.0994 20.4792 29.1005 20.4824 29.1016 20.4857C29.1091 20.5285 29.1176 20.5702 29.1262 20.6119ZM9.86449 45.1814C9.88482 45.5923 9.86556 46.001 9.83774 46.4097C9.77676 47.3052 9.9244 48.1622 10.2646 48.9925C10.4508 49.444 10.6102 49.9073 10.7718 50.3673C10.9515 50.8777 11.234 51.3302 11.5485 51.7614C11.7058 51.9786 11.8481 52.2012 11.9776 52.4301C11.9465 52.4494 10.9141 53.101 10.5118 53.3524C10.4647 53.3438 10.4262 53.3032 10.3813 53.2315C9.98539 52.5949 9.704 51.9101 9.62697 51.1676C9.49537 49.8998 9.29636 48.6458 8.97432 47.4111C8.64799 46.1561 8.58701 44.8797 8.71112 43.5937C8.79564 42.7132 8.79457 41.8326 8.75926 40.9499C8.72931 40.2095 8.84165 39.4927 9.13588 38.8122C9.60557 37.7252 9.92654 36.5932 10.1651 35.4367C10.5674 33.4819 11.5624 31.8364 12.8057 30.3182C13.8307 29.0664 14.9979 27.9547 16.2112 26.8891C16.7077 26.4536 17.1977 26.0128 17.6235 25.5078C18.2698 24.7396 19.0754 24.2079 20.0094 23.8527C21.3565 23.3413 22.6885 22.7977 23.9189 22.0306C24.7952 21.4839 25.803 21.4208 26.7991 21.3523C27.5374 21.302 28.2735 21.2346 28.9871 21.027C29.1048 20.9928 29.1722 21.0014 29.2139 21.0484C29.2995 21.471 29.3787 21.8509 29.4236 22.0648C29.3958 22.1002 29.3434 22.1183 29.2706 22.1333C28.4243 22.3024 27.5759 22.4575 26.7199 22.5784C26.1657 22.6565 25.6115 22.7485 25.0626 22.8587C24.2859 23.0139 23.5637 23.3167 22.9175 23.7735C21.8882 24.501 20.8001 25.1141 19.6328 25.5913C18.7576 25.9497 18.0205 26.5029 17.447 27.255C16.8157 28.0842 16.0497 28.7443 15.1338 29.2376C14.938 29.3424 14.7594 29.4772 14.5668 29.5896C13.7611 30.0625 13.3 30.7686 13.1459 31.6812C13.0261 32.3906 12.7629 33.039 12.4269 33.6766C10.5332 37.278 9.66013 41.1115 9.86449 45.1814ZM39.8831 21.5074C39.836 21.5641 39.774 21.5759 39.6809 21.5566C37.4919 21.118 35.2686 20.8858 33.0838 20.4193C31.9764 20.1829 30.8712 20.2385 29.7831 20.5552C29.6783 20.5862 29.6194 20.5862 29.5905 20.5509C29.6258 19.9721 29.6526 19.3783 29.6408 18.9985C29.6676 18.9621 29.7146 18.9428 29.7885 18.93C31.1355 18.6882 32.4729 18.7075 33.7686 19.1675C35.4301 19.7581 37.1474 19.9967 38.8924 20.1155C39.3353 20.1454 39.774 20.2299 40.2159 20.2834C40.3196 20.2963 40.3721 20.3241 40.3817 20.3765L39.8831 21.5074ZM46.3647 26.566C45.4296 25.8427 44.4474 25.1869 43.4192 24.5973C42.5986 24.1266 41.6827 23.9158 40.7744 23.705C39.5985 23.4322 38.4623 23.062 37.4031 22.4757C35.7575 21.5641 33.989 21.4357 32.1669 21.6401C31.3612 21.73 30.5631 21.8605 29.7713 22.0349C29.5649 22.0798 29.4964 22.0317 29.5349 21.8166C29.5606 21.669 29.5509 21.5149 29.5542 21.363C29.5638 20.8762 29.567 20.8922 30.0485 20.7596C31.2243 20.4354 32.3991 20.5167 33.5653 20.7724C35.2194 21.134 36.8981 21.3362 38.565 21.6166C38.9534 21.6818 39.3428 21.8081 39.7216 21.8755L39.5568 22.2499L39.7847 21.8872C40.4448 21.9996 41.0772 22.1772 41.6838 22.4265C43.4609 23.1583 45.1439 24.057 46.569 25.3794C46.7317 25.5303 47.0216 25.6437 47.0516 25.8106C47.0526 25.817 47.0526 25.8235 47.0526 25.8299C46.7691 26.1273 46.5123 26.3991 46.3647 26.566ZM56.6583 36.3953C56.363 36.4702 55.9447 36.6018 55.3316 36.7248C55.2985 36.7066 55.276 36.666 55.2589 36.5943C54.4575 33.3642 52.6825 30.6616 50.6368 28.1099C50.1468 27.499 49.491 27.0721 48.8426 26.6452C48.405 26.3574 47.9663 26.0728 47.518 25.7807C47.6753 25.664 47.8326 25.5442 47.9802 25.4276C48.1375 25.3163 48.2895 25.204 48.4168 25.0649C48.5088 24.9825 48.588 24.9065 48.6522 24.8381C48.6639 24.8424 48.6768 24.8498 48.6907 24.8605C49.5862 25.5314 50.5748 26.0867 51.3141 26.9554C51.5399 27.2208 51.7474 27.5032 51.8951 27.8178C52.5135 29.1316 53.3716 30.2904 54.2286 31.4502C55.0224 32.5254 55.7746 33.6264 56.2571 34.8878C56.4262 35.3297 56.5385 35.7865 56.6551 36.2434C56.6733 36.3086 56.6744 36.3579 56.6583 36.3953ZM53.3587 56.5493C53.2817 56.6541 53.2132 56.6809 53.0955 56.6178C52.8687 56.4969 52.5231 56.4391 52.4397 56.2572C52.3658 56.0956 52.6729 55.8592 52.7927 55.6441C53.929 53.622 54.9261 51.5421 55.4065 49.2514C55.5167 48.7261 55.5296 48.1911 55.5692 47.6583C55.6366 46.7403 55.8345 45.8416 56.0881 44.9621C56.5888 43.2214 56.5 41.4967 56.0538 39.7677C55.8184 38.855 55.5916 37.9403 55.3616 37.0266C55.3509 36.9859 55.3466 36.9431 55.3402 36.8982C55.8249 36.8917 56.3823 36.865 56.7717 36.7837C56.7899 36.8201 56.7792 36.8768 56.7867 36.9121C56.929 37.6107 57.0178 38.3169 57.0927 39.0252C57.2275 40.3101 57.2639 41.6026 57.3516 42.8908C57.4137 43.812 57.2008 44.6743 56.9023 45.5281C56.5481 46.5434 56.1341 47.5417 56.0496 48.6319C55.9918 49.3777 55.9254 50.1234 55.8719 50.8691C55.7543 52.4954 55.2621 53.9879 54.2917 55.3093C53.9846 55.7276 53.6647 56.1331 53.3587 56.5493ZM35.9565 69.3038C35.9555 69.2588 35.9565 69.215 35.9565 69.17C35.9565 68.7014 35.9587 68.7089 36.4016 68.5858C38.014 68.1343 39.667 67.8711 41.2954 67.4945C42.666 67.1778 43.9253 66.6343 45.0658 65.8062C46.1464 65.022 47.2666 64.2955 48.4275 63.6343C48.4735 63.6075 48.5173 63.5765 48.5634 63.5497C50.058 62.7088 51.1515 61.5233 51.7859 59.9088C52.1208 59.0593 52.5039 58.2237 53.0217 57.4598C53.1394 57.2865 53.2111 57.2394 53.3544 57.4277C53.4882 57.6042 53.7321 57.7412 53.7749 57.9306C53.8188 58.1242 53.5791 58.305 53.4732 58.4965C53.0666 59.2284 52.7082 59.9859 52.3979 60.7605C51.8105 62.2295 50.8123 63.3208 49.4664 64.1115C47.961 64.9952 46.4995 65.9453 45.0744 66.9521C43.8151 67.8412 42.3717 68.2413 40.8942 68.5505C39.3621 68.8715 37.8257 69.1679 36.3128 69.5744C35.8966 69.6857 35.9619 69.675 35.9565 69.3038ZM49.4418 23.4001C49.2952 23.4343 49.1443 23.3156 48.8201 23.0609C46.5894 21.3084 44.0997 20.032 41.4452 19.0627C41.2665 18.9974 41.2622 18.9567 41.366 18.8219C41.5073 18.639 41.6517 18.455 41.7608 18.2517C41.8892 18.0142 42.0379 18.0088 42.2776 18.0816C43.7423 18.5266 44.9845 19.3622 46.1978 20.2578C47.1639 20.9703 48.0851 21.7449 49.1325 22.343C49.3797 22.4843 49.6333 22.6137 49.8826 22.7496C49.9221 22.771 49.9607 22.7956 50.0067 22.8245C49.8323 23.0032 49.6354 23.2032 49.4418 23.4001ZM35.7907 67.3308C36.4808 67.2859 37.1313 67.2763 37.7765 67.1971C38.7319 67.0805 39.6242 66.7627 40.4962 66.37C42.3707 65.5259 44.1831 64.5587 45.9849 63.5722C47.4399 62.7751 48.6201 61.6571 49.4931 60.2416C50.3084 58.9192 51.2841 57.7144 52.2139 56.4765C52.3016 56.3599 52.353 56.3439 52.4514 56.4584C52.6141 56.6477 52.8751 56.8029 52.9329 57.0168C52.9939 57.2426 52.7125 57.432 52.5884 57.6406C52.1829 58.3232 51.8341 59.0379 51.5516 59.774C50.9428 61.3639 49.8612 62.5098 48.4029 63.3368C47.1479 64.0483 45.9367 64.8326 44.7726 65.6842C43.4524 66.6504 41.9406 67.1115 40.3699 67.4282C38.9748 67.7106 37.5785 67.9824 36.2058 68.3601C35.9897 68.42 35.9351 68.3697 35.9565 68.1622C35.9833 67.8851 35.9458 67.6144 35.7907 67.3308ZM35.9533 70.1822C35.9437 69.9981 35.9993 69.9275 36.1866 69.8772C37.8193 69.4375 39.4766 69.1069 41.1339 68.7741C42.8864 68.4232 44.5019 67.7759 45.9378 66.6921C47.1543 65.7741 48.4852 65.0294 49.7788 64.2281C51.0317 63.4513 51.986 62.4253 52.5616 61.0472C52.8976 60.2448 53.2539 59.4477 53.6797 58.6859C53.7792 58.5083 53.8926 58.3382 54.0124 58.1435C54.3698 58.5265 54.7068 58.8935 55.0503 59.2519C55.1498 59.3557 55.0866 59.4231 55.0331 59.5055C54.7175 59.9816 54.373 60.4363 53.9878 60.8568C52.4151 62.5697 50.8262 64.2677 48.9785 65.6971C48.6372 65.9613 48.2713 66.1775 47.8818 66.3529C47.1446 66.6846 46.4685 67.1072 45.8704 67.6486C45.0968 68.3494 44.1681 68.7688 43.2138 69.1486C41.6142 69.7852 39.9473 70.1929 38.2889 70.6326C37.5849 70.8198 36.8767 70.9953 36.1748 71.1911C35.9769 71.2467 35.949 71.1815 35.9555 71.0081C35.9651 70.7353 35.9683 70.4582 35.9533 70.1822ZM57.985 36.4969C58.1273 37.2951 58.2407 38.0965 58.321 38.9032C58.4515 40.2245 58.4954 41.5512 58.582 42.8758C58.643 43.8045 58.4323 44.6764 58.1348 45.5409C57.8631 46.3305 57.5421 47.1051 57.3634 47.9247C57.1847 48.7453 57.1462 49.5831 57.0959 50.4187C57.0093 51.8673 56.8028 53.2839 56.1437 54.6031C55.6901 55.5115 55.0577 56.2925 54.45 57.0939C54.3826 57.1838 54.3206 57.1891 54.2243 57.1399C54.0424 57.0468 53.8562 56.9591 53.6669 56.882C53.532 56.8275 53.5139 56.775 53.6091 56.6563C53.8862 56.3075 54.1526 55.9512 54.4201 55.5949C55.4739 54.1965 56.0089 52.6131 56.1426 50.8745C56.2229 49.8463 56.2336 48.8085 56.4518 47.7942C56.6187 47.0185 56.9376 46.2899 57.1815 45.5377C57.5004 44.5598 57.7507 43.9008 57.5849 42.3002C57.4897 40.4246 57.3902 38.6207 57.0456 36.8404C57.0349 36.788 57.0317 36.743 57.0382 36.7045C57.1805 36.6403 57.5111 36.4927 57.8909 36.3311C57.9433 36.3418 57.9679 36.3996 57.985 36.4969ZM57.8673 36.1428C57.5389 36.2145 57.2083 36.284 56.9964 36.3247C56.9954 36.3247 56.9943 36.3247 56.9932 36.3236C56.8466 36.253 56.8402 35.8828 56.7792 35.6442C56.4294 34.2758 55.7179 33.0903 54.9187 31.9487C54.633 31.54 54.342 31.1356 54.0424 30.7376C53.3673 29.841 52.735 28.9187 52.2481 27.9012C51.7774 26.918 51.0327 26.1787 50.1479 25.5656C49.7531 25.2917 49.369 25.0028 48.971 24.7332C48.9025 24.6872 48.8576 24.6466 48.8415 24.6027C48.9817 24.4197 49.1689 24.1672 49.3701 23.8944C49.3722 23.8944 49.3744 23.8933 49.3776 23.8923C49.5509 23.8655 49.7724 24.1202 49.966 24.2603C50.456 24.6155 50.945 24.9718 51.4286 25.3345C51.9999 25.7625 52.4867 26.2825 52.7927 26.9212C53.5556 28.5154 54.6287 29.9009 55.6558 31.3196C55.8901 31.6438 56.0956 31.9894 56.3363 32.3082C56.4893 32.5115 56.4572 32.6271 56.2314 32.7159C56.1833 32.7351 56.1416 32.7694 56.0335 32.8357C56.6113 32.7415 56.6091 32.7426 56.8712 33.2219C57.3452 34.0854 57.6683 35.0044 57.8748 35.9663C57.8919 36.0476 57.8941 36.1032 57.8673 36.1428ZM43.0993 16.7206C44.2377 17.1604 45.3236 17.7092 46.4 18.2806C48.8009 19.5548 50.9343 21.1811 52.8815 23.0759C53.9868 24.1512 54.97 25.3099 55.8217 26.5906C56.3138 27.332 56.8274 28.0542 57.5036 28.6545C57.9647 29.0632 58.1723 29.6538 58.3895 30.2197C58.4943 30.4936 58.581 30.774 58.688 31.0468C58.7447 31.1912 58.7083 31.2683 58.5724 31.341C58.3285 31.4694 58.0899 31.6085 57.8609 31.7626C57.7058 31.8663 57.648 31.8193 57.5646 31.6716C56.806 30.3235 56.0453 28.9754 55.2696 27.6359C54.5346 26.367 53.6701 25.1954 52.5905 24.1908C52.1048 23.7393 51.5848 23.3316 50.9899 23.0428C50.746 22.924 50.5052 22.7977 50.2677 22.6694C50.4496 22.4179 50.5716 22.2499 50.5716 22.2499C50.5716 22.2499 50.4207 22.4051 50.1993 22.6308C48.834 21.884 47.5694 20.9874 46.3347 20.0374C45.2263 19.1836 44.0676 18.4025 42.7195 17.9574C42.5429 17.8986 42.3653 17.8398 42.1888 17.7788C42.1727 17.7734 42.1588 17.7595 42.1299 17.7403C42.3621 17.4054 42.5986 17.0737 42.8243 16.7345C42.9195 16.5912 43.0137 16.6875 43.0993 16.7206ZM62.836 37.8033C62.3332 36.9356 61.9362 36.0091 61.5778 35.0675C61.0568 33.698 60.7818 32.2644 60.4576 30.8435C60.188 29.6613 59.8381 28.5047 59.2251 27.4455C58.9233 26.9233 58.5639 26.444 58.0332 26.1359C57.6223 25.8973 57.2981 25.5785 57.0114 25.2104C56.4797 24.5278 56.057 23.7714 55.5617 23.0652C55.3477 22.7603 55.0931 22.5153 54.7571 22.343C54.3687 22.1451 53.9975 21.914 53.6636 21.6294C53.1608 21.2014 52.8794 20.6889 52.919 19.9999C52.9575 19.3269 52.6301 18.8958 51.9892 18.6679C51.4382 18.4721 50.8669 18.4689 50.2998 18.5352C50.0741 18.5619 50.027 18.4956 49.9756 18.2987C49.7617 17.4931 49.2716 16.9143 48.5013 16.5805C48.1739 16.4382 47.8283 16.3515 47.4859 16.2573C46.9595 16.1129 46.4289 15.9535 46.0362 15.5566C45.5366 15.0516 44.9224 14.8076 44.2527 14.6578C42.7847 14.3304 41.335 13.9517 39.958 13.3204C38.7704 12.7758 37.5133 12.5704 36.2069 12.7223C35.6644 12.7855 35.1445 12.7084 34.6437 12.4816C34.3934 12.3682 34.1334 12.2719 33.8702 12.1927C33.3663 12.0419 33.132 12.151 32.9062 12.6261C32.6794 13.1022 32.3113 13.4017 31.7935 13.4905C30.9953 13.6275 30.2378 13.574 29.5777 13.0134C29.0941 12.6025 28.5217 12.3693 27.8958 12.2505C27.3384 12.1446 26.8762 12.2773 26.4942 12.6967C25.772 13.4895 24.8348 13.8276 23.8034 13.9731C22.9474 14.094 22.0808 14.0897 21.2259 14.2309C19.9292 14.446 18.779 14.92 17.9466 15.9931C17.9081 16.0423 17.861 16.084 17.8204 16.1311C17.4416 16.5666 16.9645 16.6821 16.4177 16.5569C16.1321 16.4917 15.8485 16.4114 15.5629 16.3472C14.8 16.1739 14.3785 16.4628 14.3314 17.2342C14.2715 18.2089 13.7921 18.9075 12.9876 19.4115C12.352 19.8084 11.7304 20.2257 11.1623 20.7135C9.94152 21.7642 8.7614 22.8619 7.47109 23.8334C6.72749 24.393 6.23319 25.1676 6.11336 26.1177C6.0588 26.5457 5.84695 26.841 5.51849 27.0828C5.32377 27.2261 5.11834 27.3534 4.89366 27.4369C4.71605 27.5032 4.62832 27.5952 4.62297 27.7975C4.61548 28.081 4.57161 28.3645 4.53631 28.647C4.45713 29.2846 4.3266 29.8956 3.99921 30.4722C3.50384 31.3442 3.14863 32.29 3.11546 33.3011C3.08764 34.1528 2.7902 34.8568 2.25311 35.4848C1.8016 36.0123 1.3394 36.5322 0.885753 37.0576C0.569058 37.4246 0.382893 37.8547 0.313348 38.3308C0.110064 39.7152 0.443878 41.0002 1.07513 42.2199C1.27627 42.6072 1.39717 43.0084 1.43676 43.4375C1.48063 43.8997 1.47635 44.3619 1.46244 44.8262C1.43355 45.7785 1.39075 46.7307 1.53733 47.6797C1.66679 48.5121 1.92678 49.3038 2.25204 50.0752C2.42643 50.4882 2.39434 50.8691 2.12258 51.2318C1.94497 51.4683 1.81658 51.7336 1.72992 52.0161C1.49454 52.7875 1.58334 53.4733 2.2499 54.0168C2.50347 54.2233 2.65646 54.509 2.77202 54.8118C2.90575 55.1627 3.00526 55.5254 3.03842 55.8977C3.12937 56.8949 3.48993 57.7423 4.24636 58.4334C4.74708 58.8913 5.13653 59.4573 5.39652 60.0896C5.88012 61.2644 6.58948 62.2937 7.40796 63.2523C8.94115 65.0476 10.745 66.4653 12.9854 67.3009C14.3678 67.8166 15.7266 68.3965 17.0565 69.0373C17.8182 69.4043 18.5736 69.7852 19.238 70.318C19.5708 70.5855 19.8243 70.8937 19.9174 71.3366C20.0201 71.8266 20.2234 72.2867 20.5358 72.6847C20.9638 73.2314 21.5127 73.4946 22.2209 73.3716C22.6596 73.2956 23.0972 73.2196 23.5476 73.2806C24.1575 73.3641 24.6775 73.6476 25.1643 73.9996C25.757 74.4297 26.3968 74.5249 27.0891 74.3088C27.394 74.2136 27.7032 74.1237 27.9985 74.0028C28.4382 73.8241 28.8373 73.8958 29.2086 74.1622C29.491 74.3645 29.7574 74.5881 30.0399 74.7903C30.44 75.076 30.6958 75.0738 31.0296 74.7239C31.5677 74.1601 32.1776 74.0424 32.903 74.2928C33.4059 74.4672 33.9034 74.664 34.4287 74.771C35.9426 75.0781 37.3217 74.9069 38.6292 73.9536C40.1634 72.8345 41.932 72.3188 43.8536 72.4493C44.1735 72.4493 44.4945 72.4525 44.8144 72.4482C45.4574 72.4397 45.941 72.1765 46.2309 71.5805C46.3508 71.3334 46.4995 71.0991 46.6493 70.868C46.8365 70.5791 47.1061 70.3908 47.4442 70.3245C48.4403 70.1265 49.3594 69.7253 50.2517 69.2588C52.6654 67.9953 54.4629 66.0951 55.8516 63.783C56.2368 63.1432 56.5866 62.482 56.9579 61.8336C57.0724 61.6346 57.1783 61.4228 57.4169 61.334C58.2086 61.0387 58.7768 60.4748 59.2561 59.8029C59.9526 58.8282 60.5004 57.769 60.9872 56.6798C62.5279 53.2379 63.1613 49.5991 63.234 45.8555C63.2608 44.4742 63.2415 43.093 63.5026 41.7299C63.7711 40.339 63.5539 39.0433 62.836 37.8033Z" fill="#037847"/>
<path d="M36.5954 64.0334C35.8807 64.2816 35.1489 64.3993 34.0736 64.3768C32.6549 64.1981 30.9056 64.2366 29.1648 64.1136C28.5379 64.0697 27.943 63.8665 27.3684 63.6279C25.6373 62.9078 23.8752 62.2477 22.1954 61.4196C19.8341 60.2544 17.6739 58.7844 16.0305 56.6638C15.6197 56.1331 15.273 55.5661 14.9542 54.9797C14.476 54.0971 13.9592 53.2336 13.7131 52.244C13.6468 51.9776 13.513 51.7272 13.3579 51.5004C12.702 50.5428 12.4239 49.4526 12.2388 48.3324C11.9756 46.7435 11.86 45.1333 11.5658 43.5477C11.4802 43.0876 11.5348 42.6158 11.6632 42.1707C12.0184 40.9425 12.2195 39.6906 12.3425 38.4217C12.3811 38.028 12.5105 37.6535 12.7053 37.3122C13.2766 36.3129 13.6842 35.2409 14.1625 34.1988C15.3084 31.6973 16.9817 29.6217 19.2446 28.0286C21.2464 26.6195 23.4044 25.5335 25.7368 24.7931C26.2375 24.6337 26.7147 24.4144 27.1962 24.2068C27.8199 23.9372 28.4715 23.8013 29.1466 23.8473C30.4862 23.9383 31.8139 23.8591 33.1417 23.6708C33.8125 23.5756 34.4834 23.6665 35.121 23.8762C36.9795 24.4872 38.8743 24.974 40.7392 25.5603C42.9271 26.2472 44.7299 27.5396 46.2835 29.1905C46.8591 29.8025 47.454 30.3867 48.1077 30.9109C48.7518 31.4288 49.2653 32.0525 49.735 32.7351C51.005 34.5818 51.7785 36.6296 52.3381 38.778C52.5446 39.5687 52.8067 40.3454 52.9983 41.1404C53.0967 41.5459 53.1545 41.9664 53.0132 42.3547C52.5735 43.5723 52.6163 44.8412 52.55 46.1005C52.4783 47.4754 52.1851 48.7892 51.5175 50.0132C50.9066 51.1313 50.5321 52.3542 50.0346 53.5236C49.9543 53.7119 49.8655 53.8959 49.7864 54.0842C49.3167 55.1969 48.6073 56.1064 47.562 56.7398C47.2731 56.9142 47.0089 57.1292 46.7318 57.3229C46.0706 57.7851 45.5163 58.3564 45.1686 59.0829C44.6005 60.2705 43.6451 61.0258 42.5216 61.6228C41.6154 62.1043 40.6461 62.4317 39.6939 62.804C38.6593 63.2095 37.646 63.6685 36.5954 64.0334ZM45.4457 59.1428C45.7646 58.4623 46.307 57.9477 46.9211 57.5165C47.1908 57.3271 47.4518 57.1238 47.7311 56.9505C48.802 56.2925 49.5328 55.3563 50.0271 54.2137C50.7461 52.55 51.3431 50.8338 52.1851 49.2236C52.2547 49.0909 52.2943 48.9422 52.3424 48.7988C52.7736 47.5246 52.8527 46.2011 52.8667 44.8722C52.8741 44.1715 52.9555 43.4899 53.1769 42.8234C53.3909 42.1814 53.3931 41.5363 53.2154 40.8783C52.9726 39.9763 52.6848 39.0883 52.4408 38.1874C51.9979 36.5494 51.4255 34.9734 50.5374 33.5108C49.8046 32.305 49.0011 31.1805 47.8455 30.3374C47.4283 30.0336 47.0688 29.6581 46.7221 29.2729C45.0798 27.4455 43.1465 26.0439 40.7852 25.2917C38.9727 24.714 37.1239 24.2582 35.32 23.6526C34.4095 23.3477 33.4723 23.3199 32.5222 23.4654C31.6952 23.5916 30.8617 23.689 29.9576 23.582C29.825 23.582 29.6281 23.5938 29.4334 23.5799C28.4961 23.5114 27.6113 23.6943 26.765 24.0966C26.3959 24.2721 26.015 24.424 25.6255 24.5481C23.3991 25.2596 21.3309 26.2857 19.3933 27.5953C16.9517 29.2451 15.1382 31.4159 13.9175 34.08C13.4435 35.1136 13.038 36.1781 12.4741 37.171C12.212 37.6332 12.0687 38.1436 12.0312 38.671C11.9531 39.7495 11.7616 40.8044 11.4652 41.8444C11.2962 42.4382 11.1988 43.0502 11.3133 43.6665C11.585 45.129 11.6963 46.6141 11.9242 48.082C12.1189 49.3349 12.3907 50.5663 13.1289 51.6395C13.2637 51.8342 13.3825 52.0578 13.4392 52.2857C13.7003 53.3278 14.247 54.2361 14.7499 55.1659C15.0601 55.7372 15.4014 56.2872 15.7994 56.805C17.46 58.9577 19.649 60.4449 22.036 61.6421C23.5349 62.3943 25.1377 62.9303 26.6634 63.6343C27.8756 64.1939 29.1456 64.4806 30.4904 64.4603C31.4074 64.4464 32.3243 64.4934 33.238 64.5876C34.37 64.7042 35.5019 64.7203 36.59 64.3158C38.4485 63.6268 40.2952 62.9046 42.1129 62.115C43.5381 61.4977 44.7546 60.615 45.4457 59.1428Z" fill="#037847"/>
<path d="M23.9794 58.84C23.9794 58.84 23.8083 58.6527 23.9003 58.5671C23.9912 58.4805 24.1004 58.3574 24.0233 58.2622C23.9463 58.167 23.8735 57.6748 24.1367 57.1377C24.401 56.6006 24.8108 55.872 24.829 55.6987C24.8472 55.5254 24.9381 55.2076 24.9285 54.7882C24.9188 54.3699 25.6474 53.5321 25.7116 53.4134C25.7758 53.2946 25.748 53.1224 25.794 53.0132C25.84 52.9041 25.9759 52.6762 25.9577 52.5307C25.9395 52.3852 25.8422 51.9026 25.9599 51.5292C26.0765 51.1558 26.1771 50.7375 26.1407 50.3641C26.1043 49.9907 26.268 49.8538 26.268 49.7543C26.268 49.6537 26.2498 49.1626 26.3322 49.0438C26.4146 48.9251 26.6692 48.6801 26.5783 48.5335C26.4873 48.388 26.3782 48.4179 26.36 48.2339C26.3418 48.051 26.3236 47.5406 26.36 47.3127C26.3964 47.0848 26.2691 46.4204 26.1236 46.1658C25.9781 45.9111 25.7416 45.4008 25.7598 45.0456C25.778 44.6904 25.6774 44.2442 24.9584 44.0987C24.9584 44.0987 24.7583 44.1083 24.7123 44.0987C24.6663 44.0901 23.529 42.9603 24.4395 41.6218C24.4395 41.6218 24.2576 41.3576 24.1121 41.2303C23.9666 41.1029 23.7205 40.7477 23.5023 39.9367C23.284 39.1268 22.8379 38.3073 22.6463 38.1885C22.6463 38.1885 22.2826 38.0612 21.8728 38.0612C21.8728 38.0612 21.6128 38.043 21.6545 37.9606C21.6545 37.9606 21.3175 37.9563 21.3175 37.9157C21.3175 37.875 21.2672 37.7241 21.4855 37.7199C21.7037 37.7156 21.8129 37.7477 21.8129 37.7477C21.8129 37.7477 21.7669 37.661 21.9134 37.661C22.059 37.661 22.4281 37.6332 22.6324 37.6974C22.8368 37.7605 23.1652 37.7862 23.2284 37.6546C23.2926 37.5241 23.4017 37.2331 23.5975 37.2641C23.7933 37.2962 23.6842 37.401 23.6563 37.4235C23.6296 37.446 23.5376 37.5144 23.5472 37.9157C23.5558 38.3158 23.5611 38.4078 23.6381 38.5351C23.7152 38.6625 23.9848 39.1364 24.0297 39.2905C24.0757 39.4456 24.2394 39.7367 24.4031 39.8597C24.5668 39.9827 24.7626 40.3422 24.9541 40.8387C24.9541 40.8387 25.0408 40.8708 25.1457 40.7745C25.2505 40.6793 25.4367 40.6011 25.6196 40.6793C25.8015 40.7563 25.9834 40.8387 26.0979 40.8708C26.2113 40.9029 26.3579 40.7884 26.3985 40.7434C26.4392 40.6974 26.4937 40.6482 26.5676 40.6664C26.6403 40.6846 26.6628 40.7531 26.6542 40.7798C26.6457 40.8076 26.6489 40.8301 26.6564 40.8483C26.6639 40.8665 26.7452 40.8665 26.8094 40.8665C26.8736 40.8665 26.9506 40.9392 26.9966 40.9713C27.0415 41.0034 27.538 41.349 27.584 41.4175C27.6289 41.486 27.6749 41.5994 27.584 42.1183C27.584 42.1183 27.7937 42.1226 27.8804 42.0049C27.967 41.8861 27.8889 41.7866 27.9991 41.686C28.1083 41.5855 28.318 41.5587 28.3447 41.3308C28.3725 41.1029 28.4902 40.6985 28.5726 40.5658C28.655 40.4342 28.5277 39.9603 29.0006 38.8807C29.0006 38.8807 29.3461 37.9018 29.2734 37.615C29.2006 37.3283 29.0273 37.1004 29.0006 36.9731C28.9727 36.8458 28.7866 36.7505 28.7727 36.7045C28.7588 36.6585 28.7823 36.5858 28.8818 36.5997C28.9824 36.6136 29.0733 36.7366 29.114 36.7773C29.1546 36.8179 29.1728 36.7676 29.1728 36.6863C29.1728 36.604 29.1728 36.2541 29.237 36.1995C29.3012 36.145 29.4232 36.1813 29.4553 36.2445C29.4874 36.3087 29.5558 36.2402 29.5783 36.3172C29.6008 36.3942 29.6147 36.5815 29.6147 36.5815C29.6147 36.5815 29.665 36.4724 29.7281 36.5173C29.7923 36.5633 29.7281 36.8404 29.7784 36.972C29.8287 37.1036 29.9282 37.1635 29.9421 37.3133C29.956 37.4631 29.8554 37.4503 29.8372 37.7455C29.8372 37.7455 29.6532 39.314 29.6457 39.4916C29.6393 39.6693 29.5366 40.1539 29.3793 40.4268C29.3793 40.4268 29.359 41.0687 29.2359 41.3897C29.2359 41.3897 29.1268 41.6903 29.161 42.2574C29.161 42.2574 29.1546 42.496 29.0583 42.7699C28.9631 43.0427 29.1675 43.5006 29.2702 43.6782C29.3729 43.8558 29.6051 44.4229 29.6939 44.7096C29.7827 44.9964 29.9325 45.2906 30.0287 45.4404C30.124 45.5902 30.063 46.4579 30.0769 46.6494C30.0908 46.8409 30.1111 47.4422 30.1721 47.4828C30.2331 47.5235 30.2406 47.6465 30.1721 47.7214C30.1036 47.7963 29.9539 47.8445 29.9539 47.8445C29.9539 47.8445 29.8929 48.801 29.9539 48.924C30.0148 49.047 30.125 49.1562 30.1175 49.2995C30.1101 49.4429 30.063 49.5863 30.0694 49.812C30.0769 50.0378 30.185 50.2282 30.1924 50.5974C30.1989 50.9665 30.1443 51.3549 30.0352 51.8534C29.926 52.352 29.864 53.0079 29.8511 53.2122C29.8372 53.4176 29.5986 54.066 29.5023 54.2233C29.4071 54.3806 29.3387 54.7625 29.3654 55.0771C29.3932 55.3916 29.5291 55.9437 29.5088 56.2615C29.4884 56.5792 29.3932 57.3646 29.359 57.5218C29.3247 57.6791 29.3312 57.938 28.976 58.1295C28.976 58.1295 28.9899 58.8945 29.0102 59.0443C29.0305 59.1941 28.9417 59.2968 28.7374 59.2904C28.533 59.2829 28.5116 59.3043 28.5876 59.406C28.6625 59.5087 28.9289 59.7333 28.9631 59.8361C28.9974 59.9388 29.0862 60.2116 28.7309 60.2052C28.3757 60.1988 27.7199 60.2876 27.4952 59.9869C27.2694 59.6863 27.2555 59.5226 27.1806 59.3995C27.1057 59.2765 26.9206 59.0582 26.9206 58.9694C26.9206 58.8806 26.9346 58.5736 26.9003 58.5115C26.8661 58.4505 26.8318 58.2183 26.8522 58.0675C26.8725 57.9166 27.0983 57.5069 27.2277 57.3507C27.3572 57.1934 27.4117 57.1249 27.3508 57.0361C27.2898 56.9473 27.1464 56.7494 27.2898 56.1277C27.4331 55.5061 27.6311 55.3424 27.7135 54.7272C27.7958 54.112 27.6856 53.9216 27.6856 53.9216C27.6856 53.9216 27.5904 53.8809 27.5219 54.051C27.4535 54.2222 27.064 54.693 27.064 54.693C27.064 54.693 27.0437 55.7447 26.7366 56.5439C26.7366 56.5439 26.6136 56.8852 26.5793 57.3025C26.5451 57.7187 26.4424 57.8835 26.1428 58.2451C26.1428 58.2451 26.1492 58.6816 26.0883 58.7501C26.0273 58.8186 25.747 58.9962 25.686 58.9887C25.686 58.9887 25.6517 59.1599 25.6999 59.2348C25.748 59.3097 25.8165 59.3032 25.809 59.4327C25.8026 59.5622 25.7683 59.8222 25.2355 59.7879C24.7027 59.7537 24.4224 59.4809 24.3678 59.2551C24.3079 59.0315 24.1774 58.8967 23.9794 58.84Z" fill="white"/>
<path d="M36.8604 34.2865V35.9952C36.365 36.0572 35.8985 36.085 35.4599 36.085C32.5476 36.085 30.8507 34.8418 29.9049 33.7002C28.8189 32.3863 28.515 30.9601 28.4594 30.6488C28.4541 30.6317 28.4498 30.6114 28.4434 30.5889H30.1798C30.2879 31.004 30.5768 31.8771 31.2551 32.672C32.4695 34.0971 34.3546 34.6407 36.8604 34.2865Z" fill="white"/>
</svg>
