<?xml version="1.0" standalone="no"?>
<!DOCTYPE svg PUBLIC "-//W3C//DTD SVG 20010904//EN"
 "http://www.w3.org/TR/2001/REC-SVG-20010904/DTD/svg10.dtd">
<svg version="1.0" xmlns="http://www.w3.org/2000/svg"
 width="800.000000pt" height="800.000000pt" viewBox="0 0 800.000000 800.000000"
 preserveAspectRatio="xMidYMid meet">
<metadata>
Created by potrace 1.14, written by Peter Selinger 2001-2017
</metadata>
<g transform="translate(0.000000,800.000000) scale(0.100000,-0.100000)"
fill="#000000" stroke="none">
<path d="M3696 7978 c-3 -13 -8 -66 -12 -118 -3 -52 -7 -115 -9 -140 -2 -25
-6 -85 -9 -135 -3 -49 -8 -108 -10 -130 -12 -114 -17 -265 -10 -266 146 -17
173 -14 172 19 -1 16 7 115 18 247 3 33 7 86 8 118 2 32 5 59 7 62 3 2 49 -84
103 -190 94 -184 101 -195 132 -201 61 -11 52 -21 270 298 21 32 42 57 47 58
7 0 5 -34 -8 -205 -16 -205 -16 -255 -3 -259 24 -8 146 -13 155 -7 11 8 12 14
18 133 3 57 8 123 10 148 2 25 7 86 10 135 5 87 8 127 20 303 6 93 11 88 -81
96 -50 4 -65 2 -77 -12 -8 -9 -84 -117 -170 -239 -113 -163 -157 -220 -165
-210 -5 6 -52 98 -105 202 -52 105 -108 215 -123 245 -16 30 -29 56 -30 57 0
2 -35 5 -77 8 -74 6 -77 5 -81 -17z"/>
<path d="M3001 7923 c-155 -32 -260 -116 -277 -222 -14 -90 25 -190 90 -224
62 -34 106 -43 242 -51 118 -8 148 -14 173 -38 33 -30 27 -72 -13 -104 -19
-15 -40 -29 -48 -30 -7 -1 -31 -6 -53 -11 -57 -14 -155 -8 -221 13 -65 20 -64
21 -83 -67 -16 -69 -15 -70 54 -91 45 -13 229 -16 290 -4 97 19 164 54 224
115 79 82 75 237 -8 309 -50 44 -105 59 -241 67 -170 10 -222 32 -222 92 0 31
51 83 82 83 10 0 21 4 25 9 4 8 150 7 239 -1 24 -3 29 1 31 22 2 14 8 44 13
67 7 30 6 45 -2 52 -33 26 -198 35 -295 14z"/>
<path d="M5152 7723 c-121 -28 -236 -130 -283 -253 -29 -73 -35 -206 -12 -276
79 -253 411 -386 656 -264 83 41 184 170 205 260 22 97 9 216 -33 300 -89 177
-327 280 -533 233z m257 -188 c84 -46 131 -124 131 -217 -2 -175 -154 -302
-312 -262 -201 51 -267 281 -124 432 80 86 200 104 305 47z"/>
<path d="M2085 7633 c-56 -13 -143 -48 -325 -130 -30 -14 -72 -32 -92 -40 -21
-8 -38 -18 -38 -22 0 -3 45 -110 101 -236 97 -221 120 -274 124 -285 1 -3 10
-23 19 -45 10 -22 28 -62 40 -90 42 -99 21 -98 222 -9 99 43 197 88 218 100
75 43 150 118 185 187 30 59 34 76 34 149 1 98 -5 130 -38 201 -36 79 -105
151 -182 189 -57 28 -76 32 -157 34 -50 1 -100 -1 -111 -3z m170 -185 c71 -38
124 -125 132 -217 5 -52 2 -68 -21 -115 -15 -30 -42 -66 -62 -81 -33 -26 -214
-115 -232 -115 -7 0 -45 71 -48 90 0 3 -14 34 -31 70 -70 152 -125 292 -117
300 19 17 162 74 213 85 61 13 121 6 166 -17z"/>
<path d="M6157 7320 c-9 -11 -17 -23 -17 -26 0 -3 -13 -23 -29 -43 -79 -100
-400 -564 -396 -572 8 -12 135 -99 145 -99 4 0 10 4 12 9 2 4 13 21 25 37 12
16 70 97 129 179 58 83 109 153 113 158 4 4 9 -16 10 -45 1 -29 4 -69 6 -88 3
-19 7 -71 9 -115 5 -87 17 -265 21 -305 2 -14 3 -35 4 -47 1 -19 58 -71 118
-106 8 -5 48 43 113 135 55 79 106 150 113 159 7 8 17 23 22 32 6 8 59 84 118
167 72 101 106 157 102 168 -3 9 -25 29 -48 44 -23 15 -51 34 -62 42 -11 8
-25 12 -31 8 -6 -4 -44 -54 -84 -112 -41 -58 -77 -106 -82 -108 -4 -2 -8 -8
-8 -13 0 -10 -101 -151 -106 -146 -3 3 -9 70 -19 215 -2 37 -7 108 -11 157
-11 156 -13 179 -13 216 -1 32 -7 40 -60 78 -33 22 -63 41 -68 41 -5 0 -16 -9
-26 -20z"/>
<path d="M1298 7232 c-1 -4 -31 -25 -65 -47 -35 -22 -63 -45 -63 -51 0 -5 70
-113 156 -240 85 -126 185 -273 221 -326 37 -54 71 -98 77 -98 16 0 146 91
146 102 0 12 -41 72 -52 76 -4 2 -8 8 -8 13 0 9 -36 66 -50 79 -3 3 -26 37
-50 75 -25 39 -50 76 -57 83 -7 7 -13 17 -13 21 0 4 -8 17 -17 28 -10 12 -58
82 -108 157 -82 123 -107 151 -117 128z"/>
<path d="M920 6969 c-14 -11 -48 -43 -77 -71 l-52 -49 1 -250 c0 -137 -2 -252
-4 -255 -5 -4 -72 62 -196 194 -27 28 -55 52 -62 52 -12 0 -130 -108 -130
-120 0 -7 30 -39 315 -335 99 -103 194 -203 212 -221 l32 -34 40 42 c22 24 51
56 64 72 l25 29 -58 56 c-32 31 -63 66 -69 78 -14 27 -11 152 4 154 16 2 48 1
85 -4 19 -3 62 -8 95 -12 33 -3 67 -8 75 -10 8 -2 44 -7 80 -10 l65 -6 73 69
c71 69 84 88 60 89 -13 0 -81 8 -163 18 -22 3 -51 7 -65 10 -23 5 -74 12 -145
20 -27 3 -66 9 -134 20 -13 2 -28 8 -32 12 -5 5 -10 115 -11 246 -2 130 -3
237 -3 237 0 -1 -11 -10 -25 -21z"/>
<path d="M3948 6699 c-10 -5 -29 -29 -43 -52 -33 -58 -89 -88 -163 -90 -89 -1
-118 8 -198 63 -41 28 -74 49 -74 46 0 -3 -15 1 -33 9 -92 38 -151 27 -226
-44 -40 -37 -134 -90 -186 -105 -42 -11 -135 -24 -234 -31 -233 -17 -350 -65
-474 -194 -62 -65 -96 -79 -164 -66 -21 4 -39 7 -40 7 -1 0 -22 6 -45 13 -31
9 -51 9 -73 2 -50 -18 -60 -34 -70 -116 -12 -98 -57 -158 -173 -232 -68 -44
-200 -147 -237 -185 -11 -11 -65 -58 -120 -104 -55 -46 -102 -86 -105 -90 -3
-3 -28 -23 -57 -43 -64 -47 -130 -120 -149 -167 -8 -19 -22 -63 -31 -97 -17
-68 -50 -110 -108 -137 -46 -22 -52 -33 -59 -111 -8 -92 -26 -156 -67 -235
-18 -36 -34 -67 -34 -70 -1 -3 -11 -36 -24 -75 -12 -38 -25 -97 -27 -130 -6
-74 -20 -128 -45 -177 -18 -36 -105 -143 -176 -218 -37 -39 -73 -105 -79 -147
-6 -42 -5 -164 1 -198 13 -66 29 -115 73 -215 l45 -105 2 -225 c2 -270 5 -292
56 -441 21 -63 39 -125 39 -137 0 -11 -16 -52 -36 -90 -59 -114 -54 -199 17
-263 32 -29 74 -108 83 -154 2 -16 10 -59 16 -95 15 -89 50 -155 126 -236 35
-37 64 -71 64 -75 0 -4 6 -14 13 -21 7 -7 28 -47 46 -88 19 -41 48 -97 65
-125 103 -171 302 -381 462 -488 56 -37 105 -67 109 -67 5 0 16 -6 24 -14 9
-7 104 -48 211 -91 222 -89 474 -207 546 -255 77 -52 110 -94 134 -168 25 -78
60 -134 109 -170 36 -28 30 -28 226 -22 79 3 131 -14 210 -67 90 -60 146 -64
283 -18 47 16 84 23 100 18 24 -6 69 -29 82 -43 3 -3 22 -18 42 -33 46 -34 90
-44 109 -25 86 84 134 91 287 41 89 -30 124 -36 212 -39 91 -3 115 0 179 22
41 14 111 49 156 78 192 125 307 158 550 158 132 0 189 10 219 41 9 8 32 44
53 78 20 35 46 71 57 81 12 9 59 27 106 39 47 12 132 45 189 72 304 145 532
374 721 722 61 114 85 142 141 170 115 59 221 206 342 475 34 75 77 182 77
191 0 4 5 20 12 36 6 15 13 34 15 40 1 7 5 19 6 25 2 7 7 20 10 28 21 50 80
329 92 430 3 25 8 68 11 95 9 71 12 124 18 345 8 248 14 333 35 430 12 55 4
183 -14 247 -9 32 -52 130 -95 218 -109 222 -144 329 -211 635 -43 196 -106
359 -178 457 -17 24 -61 65 -98 92 -77 56 -93 75 -208 249 -69 104 -72 106
-178 176 -112 74 -144 118 -151 208 -3 35 -10 75 -16 89 -24 54 -127 92 -234
86 l-49 -2 -36 70 c-44 86 -91 123 -192 154 -133 41 -161 54 -215 98 -64 52
-116 75 -220 98 -126 28 -265 71 -399 125 -169 67 -195 73 -380 75 -145 2
-166 5 -220 28 -77 32 -116 39 -137 26z m17 -283 c72 -4 148 -9 170 -11 22 -2
65 -7 95 -10 30 -3 66 -7 80 -10 26 -4 91 -15 125 -19 11 -2 34 -6 50 -9 17
-4 41 -9 55 -11 14 -2 48 -10 75 -16 28 -6 58 -13 68 -15 9 -2 59 -16 111 -31
l94 -27 -20 -51 c-11 -28 -23 -58 -25 -68 -5 -15 -31 -17 -71 -3 -7 2 -34 7
-60 11 -26 3 -50 8 -53 10 -3 1 -28 6 -55 9 -27 4 -76 11 -109 16 -33 5 -73
11 -90 14 -16 2 -43 6 -60 8 -16 3 -46 8 -65 11 -19 3 -46 8 -60 11 -40 8 -72
14 -125 21 -27 3 -59 8 -70 11 -108 23 -483 22 -650 -2 -26 -4 -94 -11 -175
-20 -197 -20 -208 -24 -585 -212 -234 -117 -313 -159 -325 -173 -3 -3 -18 -14
-35 -24 -41 -26 -172 -134 -203 -168 -14 -16 -31 -28 -38 -28 -6 0 -31 30 -54
67 l-42 67 34 31 c91 85 331 250 473 325 167 88 416 187 511 203 16 3 49 10
74 15 25 6 63 13 84 16 21 4 48 8 60 11 144 32 153 32 241 -22 107 -65 110
-66 142 -40 16 13 39 31 53 40 14 9 46 32 72 50 52 37 46 36 303 23z m-10
-181 c28 -3 64 -8 80 -10 42 -5 105 -15 140 -22 17 -3 39 -7 50 -9 11 -1 44
-7 72 -13 29 -6 76 -13 105 -16 29 -4 55 -8 58 -10 3 -1 36 -6 75 -10 38 -4
72 -8 76 -10 3 -2 28 -7 55 -10 27 -4 57 -9 66 -11 10 -3 30 -7 45 -10 15 -3
30 -7 34 -10 8 -5 6 -30 -4 -40 -4 -4 -7 -15 -7 -24 0 -9 -6 -24 -12 -33 -13
-17 -14 -17 -168 8 -23 4 -75 8 -221 19 -93 7 -190 30 -388 91 -30 9 -64 19
-75 21 -12 2 -34 7 -51 10 -51 11 -217 11 -291 -1 l-71 -11 -13 30 -13 31 -4
-32 c-5 -38 -24 -46 -198 -88 -5 -1 -23 -7 -38 -13 -16 -7 -32 -12 -36 -12 -4
0 -79 -27 -167 -59 -87 -32 -224 -80 -304 -106 -80 -26 -174 -58 -210 -72 -60
-23 -168 -79 -180 -93 -3 -3 -16 -13 -30 -22 -14 -9 -68 -55 -120 -103 -52
-48 -102 -91 -111 -95 -12 -7 -21 2 -41 44 l-26 53 22 24 c26 27 118 107 150
128 12 8 23 18 26 22 29 39 632 353 756 393 85 28 144 38 299 51 44 4 89 9
100 11 11 2 53 6 95 10 41 3 76 7 77 8 5 5 350 -2 398 -9z m1188 -82 c273
-128 558 -309 735 -466 160 -143 230 -214 333 -333 30 -35 117 -152 184 -249
27 -38 76 -98 110 -133 33 -35 70 -83 83 -107 25 -46 72 -171 72 -189 0 -12
-84 -66 -103 -66 -10 0 -63 90 -169 284 -9 17 -21 36 -25 42 -8 10 -11 14 -58
99 -63 115 -171 261 -260 351 -54 56 -158 133 -227 168 -31 16 -54 34 -51 39
3 6 1 7 -5 3 -10 -6 -117 45 -132 63 -3 3 -32 24 -65 45 -61 39 -236 165 -245
177 -11 13 -158 109 -210 136 -30 16 -89 43 -130 58 -41 16 -77 30 -79 32 -2
1 13 27 34 58 44 67 35 68 208 -12z m-1263 -37 c14 -3 39 -8 55 -12 40 -8 135
-35 160 -45 31 -13 125 -37 175 -45 25 -3 54 -8 65 -10 26 -5 92 -12 185 -20
138 -12 221 -23 235 -33 6 -4 20 -8 33 -9 35 -1 244 -89 371 -154 132 -68 255
-139 259 -150 2 -5 10 -8 17 -8 7 0 15 -3 17 -8 2 -4 40 -34 86 -66 111 -80
111 -80 73 -116 -17 -17 -35 -30 -40 -30 -6 0 -51 31 -101 68 -112 85 -217
149 -365 224 -128 64 -312 142 -367 154 -10 2 -28 6 -40 9 -26 7 -90 14 -163
20 -60 5 -143 13 -205 21 -63 7 -230 48 -325 79 -120 39 -248 49 -387 31 l-57
-7 -10 38 c-16 57 -15 59 37 69 49 10 249 10 292 0z m-401 -72 c-3 -53 3 -49
-154 -96 -54 -16 -104 -32 -110 -36 -5 -4 -12 -7 -15 -8 -25 -4 -67 -18 -75
-24 -5 -4 -28 -13 -50 -20 -22 -7 -46 -17 -52 -23 -7 -5 -13 -6 -13 -3 0 4 -9
2 -21 -4 -11 -6 -28 -13 -37 -15 -9 -2 -93 -29 -187 -60 -259 -86 -333 -127
-480 -266 -33 -31 -74 -69 -92 -84 l-32 -26 -28 42 -27 41 34 30 c19 17 62 56
95 87 33 31 78 70 100 86 22 17 42 33 45 37 10 12 169 89 196 94 15 3 40 12
55 20 16 8 30 14 31 13 7 -3 91 25 363 120 291 103 404 139 438 140 15 1 18
-6 16 -45z m1509 -3 c29 -12 72 -31 95 -42 47 -24 205 -126 224 -145 7 -7 28
-22 48 -34 19 -12 35 -25 35 -29 0 -4 15 -15 33 -26 17 -10 34 -21 37 -25 12
-14 141 -100 202 -134 39 -22 65 -42 62 -49 -3 -7 -18 -22 -34 -34 l-28 -23
-64 47 c-34 26 -65 50 -68 54 -6 7 -175 114 -245 154 -80 46 -239 123 -322
155 -121 47 -153 62 -153 72 0 10 49 79 64 89 10 8 39 0 114 -30z m-1102 -55
c17 -3 75 -19 130 -36 117 -36 186 -53 264 -65 20 -3 46 -7 57 -9 26 -5 104
-14 193 -21 72 -6 136 -14 162 -21 15 -4 14 -11 -9 -62 -13 -31 -28 -61 -33
-66 -4 -4 -43 -1 -87 7 -115 22 -153 29 -201 33 -24 2 -47 6 -51 8 -4 3 -30 8
-57 11 -27 4 -110 18 -184 32 -74 13 -157 28 -185 33 -62 10 -209 5 -255 -9
-45 -14 -83 -14 -75 0 4 6 7 43 7 84 l0 73 57 9 c59 10 215 9 267 -1z m-412
-43 c3 -10 10 -40 16 -68 6 -27 13 -58 16 -67 8 -28 -27 -35 -316 -63 -123
-12 -192 -32 -268 -79 -79 -48 -183 -99 -272 -134 -41 -16 -84 -33 -95 -37
-11 -5 -22 -9 -25 -10 -63 -16 -185 -97 -252 -167 l-47 -50 -27 42 -28 41 64
57 c36 31 81 73 101 92 53 52 79 72 134 106 45 27 144 73 170 79 5 1 17 5 25
8 8 3 51 17 95 31 44 13 145 48 225 76 246 88 448 156 472 159 4 1 9 -7 12
-16z m1352 -148 c38 -14 85 -33 104 -42 242 -110 391 -196 552 -320 l68 -51
-52 -55 -52 -56 -30 22 c-17 12 -44 34 -61 50 -49 47 -223 159 -331 215 -84
43 -239 107 -279 116 -74 16 -76 18 -69 39 4 12 11 24 15 25 5 2 9 8 9 13 0
13 42 69 51 69 4 0 38 -11 75 -25z m-910 2 c12 -3 39 -8 60 -11 22 -4 46 -8
54 -11 20 -6 67 -14 110 -20 19 -3 42 -7 50 -10 8 -2 35 -7 60 -10 25 -3 56
-8 70 -10 14 -3 39 -7 55 -9 17 -2 50 -7 75 -11 78 -11 175 -37 182 -49 5 -8
8 -7 8 2 0 7 4 11 9 8 5 -3 26 -8 47 -12 61 -9 214 -70 331 -131 113 -58 283
-169 283 -184 0 -5 4 -9 10 -9 5 0 20 -10 33 -22 13 -13 34 -31 46 -41 l23
-19 -38 -39 c-21 -21 -41 -39 -44 -39 -3 0 -17 10 -31 23 -14 12 -32 27 -41
32 -8 6 -47 31 -85 57 -38 25 -86 56 -106 67 -20 12 -52 29 -69 39 -42 24
-139 55 -249 82 -128 30 -231 66 -354 125 -60 29 -119 55 -130 60 -47 17 -127
35 -135 30 -5 -3 -11 -1 -14 4 -6 10 -299 8 -346 -2 -14 -3 -47 -8 -74 -12
-27 -3 -52 -8 -56 -10 -4 -2 -28 -7 -54 -10 l-47 -7 2 56 c1 31 7 60 13 65 10
7 77 26 121 34 28 5 205 0 231 -6z m-402 -54 c3 -10 6 -21 7 -25 0 -4 4 -21 9
-38 5 -17 5 -32 0 -35 -12 -8 -133 -31 -289 -55 -69 -11 -139 -22 -156 -25
-52 -10 -165 -49 -165 -57 0 -4 -5 -8 -10 -8 -6 0 -44 -22 -85 -50 -41 -27
-79 -50 -85 -50 -5 0 -10 -4 -10 -10 0 -5 -5 -10 -10 -10 -6 0 -27 -10 -48
-23 -20 -13 -84 -44 -142 -71 -122 -56 -171 -88 -225 -147 -94 -103 -216 -219
-230 -219 -8 0 -15 -3 -15 -7 0 -5 -24 -21 -53 -37 -133 -74 -185 -144 -213
-290 -8 -43 -31 -98 -94 -231 -78 -165 -109 -241 -148 -365 -22 -69 -60 -226
-66 -270 -3 -25 -9 -58 -12 -75 -13 -70 -15 -110 -19 -305 -6 -273 -6 -380 -2
-410 8 -50 18 -95 27 -115 5 -11 25 -65 46 -120 43 -119 53 -139 114 -230 54
-81 81 -141 109 -246 28 -103 53 -154 149 -297 131 -194 225 -299 327 -364 28
-18 52 -36 53 -40 2 -5 9 -8 15 -8 6 0 37 -26 67 -59 76 -79 147 -124 263
-166 137 -49 210 -85 299 -149 136 -98 242 -138 400 -151 40 -3 84 -8 98 -10
148 -24 370 -21 688 10 38 3 44 -4 48 -58 2 -22 5 -46 8 -53 9 -23 -12 -29
-127 -39 -39 -3 -99 -9 -133 -13 -93 -12 -197 -8 -369 14 -16 2 -55 6 -85 9
-30 4 -62 8 -70 10 -8 2 -35 7 -60 10 -69 9 -198 45 -270 76 -58 24 -410 193
-597 287 -98 49 -185 116 -306 236 -215 212 -338 365 -410 506 -47 94 -131
221 -179 274 -10 11 -18 25 -18 30 0 6 26 35 57 65 59 56 58 57 -12 11 -71
-47 -71 -47 -109 33 -39 80 -39 82 -61 267 -3 25 -8 56 -11 70 -3 14 -7 36
-10 50 -17 90 -28 142 -40 190 -19 75 -29 168 -27 270 10 544 8 529 77 708 20
51 38 103 40 115 3 12 5 23 7 25 1 1 2 5 3 10 1 4 6 23 11 42 4 19 9 42 10 50
1 8 4 24 8 35 3 11 8 31 11 45 7 40 56 171 84 225 31 58 147 232 194 290 46
56 507 509 601 590 34 30 81 55 162 89 50 21 128 53 175 73 47 19 132 61 190
94 104 58 179 83 275 93 93 10 180 19 210 21 17 1 30 3 30 4 0 1 13 4 29 6 15
2 31 6 34 9 11 12 31 5 36 -11z m656 -89 c41 -9 120 -38 178 -66 155 -74 240
-105 411 -148 226 -59 372 -138 620 -338 44 -35 170 -152 190 -176 9 -10 72
-75 139 -145 68 -69 135 -145 148 -167 28 -47 75 -164 67 -164 -3 0 -1 -6 5
-12 6 -7 11 -17 12 -23 5 -23 25 -68 105 -229 84 -174 124 -259 131 -286 2 -8
8 -33 14 -55 6 -22 13 -56 17 -75 10 -50 9 -431 -1 -520 -4 -41 -9 -86 -11
-100 -21 -193 -33 -240 -84 -328 -21 -37 -50 -92 -65 -123 -30 -65 -101 -278
-110 -329 -19 -120 -73 -253 -136 -337 -22 -29 -89 -101 -148 -160 -118 -117
-201 -217 -253 -303 -35 -59 -101 -144 -134 -172 -11 -10 -42 -31 -70 -47 -49
-28 -595 -271 -665 -296 -57 -20 -114 -27 -335 -40 -60 -4 -126 -8 -145 -10
-57 -6 -330 -19 -400 -19 -63 1 -227 12 -272 19 -13 2 -57 9 -98 15 -157 24
-198 41 -335 136 -95 66 -215 126 -315 159 -111 36 -159 66 -253 158 -69 67
-92 87 -103 87 -11 0 -104 73 -146 114 -45 44 -152 180 -204 261 -21 33 -42
61 -46 63 -5 2 -8 8 -8 12 0 5 -14 31 -30 57 -17 26 -40 80 -51 118 -11 39
-25 88 -31 110 -16 55 -52 127 -99 195 -52 77 -99 181 -144 320 l-36 114 0
241 c1 265 7 386 26 485 2 14 7 43 10 65 3 22 11 58 17 80 6 22 12 49 13 60 1
11 3 20 4 20 2 0 4 7 6 15 15 76 68 230 106 315 13 28 23 52 24 55 0 3 23 50
52 105 50 99 78 169 88 222 18 99 58 169 125 217 27 20 53 36 56 36 3 0 38 23
78 50 73 51 181 153 233 222 27 36 127 108 174 127 13 5 41 16 61 25 21 9 41
16 44 15 4 0 10 3 13 8 3 4 28 19 56 33 27 14 88 50 135 81 141 91 202 119
306 138 32 6 68 13 79 15 11 2 41 6 66 10 62 9 98 15 139 22 19 4 42 8 50 9 8
1 42 7 75 14 33 6 74 13 90 16 17 3 41 8 55 11 50 12 66 14 120 20 30 4 56 8
58 9 12 10 270 1 332 -11z m-2347 -99 c31 -22 57 -43 57 -47 0 -3 -37 -39 -82
-80 -108 -95 -342 -329 -393 -392 -22 -27 -63 -81 -92 -120 -29 -39 -57 -76
-63 -83 -5 -7 -10 -15 -10 -17 0 -3 -15 -29 -34 -58 -44 -69 -106 -195 -141
-285 -28 -72 -37 -81 -64 -64 -10 7 -12 31 -7 115 6 116 18 154 90 281 21 39
44 80 50 92 6 13 14 23 19 23 4 0 7 5 7 11 0 10 73 119 150 224 35 47 40 50
111 65 l74 15 5 70 c6 80 9 86 69 140 24 22 73 68 109 102 38 37 70 59 77 55
6 -4 37 -25 68 -47z m3980 -26 c186 -95 312 -233 501 -548 31 -52 56 -95 56
-97 0 -3 10 -21 23 -42 22 -34 53 -90 116 -204 l25 -47 -23 -21 c-13 -11 -30
-20 -37 -20 -13 0 -94 99 -94 114 0 4 -6 13 -12 20 -7 7 -22 25 -33 41 -11 15
-30 40 -42 55 -13 15 -23 31 -23 35 0 3 -8 14 -17 23 -27 27 -105 151 -143
227 -19 39 -38 72 -42 73 -5 2 -8 10 -8 18 0 8 -4 14 -8 14 -4 0 -15 13 -24
28 -28 47 -108 121 -203 188 -128 91 -126 89 -119 108 3 9 10 16 15 16 5 0 9
6 9 14 0 8 8 17 18 19 9 3 18 5 20 6 1 0 22 -9 45 -20z m-3848 -71 c42 -28 43
-38 7 -60 -164 -104 -222 -156 -282 -259 -65 -110 -152 -220 -229 -289 -228
-204 -236 -219 -252 -477 -2 -26 -8 -43 -15 -43 -24 0 -114 51 -114 65 0 59
144 335 257 493 100 141 291 343 478 507 44 39 82 73 83 78 6 13 32 7 67 -15z
m3843 -97 c151 -114 180 -143 225 -219 20 -35 37 -66 37 -69 0 -14 109 -183
195 -301 52 -73 112 -157 132 -188 36 -54 37 -57 18 -70 -18 -13 -17 -14 7
-14 19 0 32 -9 47 -33 22 -36 93 -197 86 -197 -2 0 2 -19 10 -41 29 -81 20
-96 -54 -95 -30 1 -35 4 -38 31 -12 94 -128 335 -210 435 -7 8 -51 69 -97 135
-47 66 -90 125 -95 131 -5 6 -38 65 -73 129 -50 94 -78 133 -136 191 -41 40
-82 76 -93 79 -10 4 -19 11 -19 16 0 5 -6 9 -14 9 -8 0 -16 4 -18 8 -1 5 -24
23 -50 41 -27 17 -48 33 -48 35 0 3 19 26 50 64 6 6 13 12 16 12 3 0 58 -40
122 -89z m-3728 10 c19 -16 33 -31 30 -34 -3 -2 -44 -30 -92 -61 -107 -71
-178 -139 -235 -227 -23 -37 -43 -70 -43 -74 0 -8 -79 -110 -107 -140 -11 -11
-50 -47 -88 -80 -118 -102 -145 -132 -172 -191 -26 -58 -28 -66 -37 -197 -3
-43 -8 -82 -11 -87 -3 -5 -19 -4 -38 2 -52 18 -59 27 -52 70 4 21 8 66 10 101
7 150 41 208 205 347 99 84 151 145 223 260 39 63 96 140 127 171 52 53 214
169 235 168 6 0 26 -13 45 -28z m3760 -204 c63 -62 77 -80 112 -150 47 -92
100 -174 234 -362 67 -94 142 -208 167 -255 39 -74 55 -116 97 -252 9 -30 4
-32 -107 -58 l-32 -8 -31 100 c-40 130 -95 255 -170 389 -56 98 -172 273 -217
325 -10 11 -29 36 -43 55 -58 78 -118 132 -241 213 l-130 87 48 36 c26 20 54
42 61 49 10 11 31 0 110 -56 53 -37 117 -88 142 -113z m-3650 123 l45 -30 -80
-72 c-163 -148 -383 -376 -443 -458 -34 -47 -66 -90 -72 -97 -35 -42 -139
-264 -154 -328 -1 -5 -5 -19 -8 -30 -3 -11 -9 -32 -12 -47 -5 -23 -10 -26 -24
-19 -9 5 -34 17 -54 27 -25 12 -36 24 -33 34 2 8 7 49 10 90 10 135 13 149 34
194 25 51 59 89 151 166 92 78 148 137 187 197 18 29 33 55 33 58 0 18 85 128
137 175 75 70 211 169 233 170 3 0 25 -14 50 -30z m3392 -142 c138 -93 221
-170 293 -273 27 -38 55 -76 62 -83 7 -7 13 -17 13 -22 0 -5 6 -15 14 -22 19
-20 156 -250 194 -328 27 -57 79 -186 87 -215 1 -5 5 -17 8 -25 3 -8 8 -27 11
-42 3 -14 9 -33 12 -42 4 -11 -2 -19 -17 -26 l-24 -10 24 3 c25 2 35 -16 46
-83 5 -28 5 -28 40 -170 63 -255 69 -365 30 -545 -29 -131 -62 -301 -63 -325
-9 -158 -37 -302 -77 -395 -7 -16 -25 -61 -40 -100 -36 -91 -127 -279 -137
-283 -5 -2 -8 -8 -8 -13 0 -23 -152 -245 -214 -312 -14 -15 -66 -89 -117 -165
-108 -162 -139 -202 -199 -262 -113 -111 -164 -143 -562 -345 -339 -172 -417
-198 -638 -211 l-105 -6 -23 63 c-15 44 -19 65 -11 70 6 3 41 7 78 8 36 1 75
3 86 5 11 2 47 7 80 10 72 8 154 30 215 59 25 12 47 22 50 22 6 2 80 35 151
68 30 14 99 44 154 67 181 76 259 118 310 166 30 28 88 103 115 149 46 77 154
209 263 319 137 139 167 176 206 253 34 67 73 173 64 173 -3 0 -1 6 4 12 6 7
13 29 17 48 6 34 12 63 20 97 12 50 59 189 67 197 5 6 9 15 9 21 0 6 27 60 60
120 70 128 91 206 105 380 4 44 9 98 11 120 3 22 7 128 9 235 4 167 2 208 -15
285 -25 115 -63 218 -121 330 -82 157 -131 262 -157 341 -33 97 -57 144 -106
209 -36 48 -393 406 -454 456 l-43 35 43 31 c24 17 46 32 50 32 5 1 63 -36
130 -81z m1127 -595 c6 -16 13 -39 15 -53 3 -14 21 -81 41 -150 20 -69 39
-133 41 -142 5 -21 12 -51 19 -75 20 -76 54 -224 59 -253 3 -19 8 -46 11 -60
2 -14 7 -36 10 -50 6 -31 12 -70 20 -135 3 -27 8 -63 10 -80 25 -176 27 -512
5 -635 -23 -126 -35 -172 -65 -266 -24 -74 -29 -82 -80 -118 l-54 -38 6 -62
c11 -114 6 -147 -34 -241 -14 -33 -29 -69 -34 -80 -4 -11 -24 -63 -44 -115
-48 -127 -113 -239 -134 -235 -9 2 -35 13 -58 24 -46 23 -46 21 -8 106 7 16
23 51 34 78 12 26 29 66 40 90 155 355 180 415 190 459 1 4 9 27 17 50 17 49
49 181 59 248 13 78 15 94 20 150 3 30 8 75 10 100 24 228 24 345 1 480 -7 42
-18 123 -22 160 -2 19 -6 58 -9 85 -4 28 -8 78 -10 111 -14 243 -48 386 -131
555 -19 37 -34 75 -34 83 0 15 40 34 76 35 15 1 25 -8 33 -26z m-122 -58 c13
-22 25 -47 29 -55 3 -8 12 -31 21 -50 28 -65 70 -209 78 -270 2 -14 4 -25 5
-25 2 0 9 -87 14 -178 3 -43 7 -100 10 -125 9 -74 16 -124 21 -162 3 -19 7
-51 10 -70 2 -19 7 -60 11 -90 12 -94 8 -263 -11 -410 -3 -26 -13 -107 -20
-170 -16 -140 -38 -233 -95 -394 -29 -81 -274 -654 -285 -664 -6 -6 -135 48
-135 57 0 5 17 27 60 78 5 7 10 16 10 22 0 5 4 11 9 13 14 5 84 116 113 179
26 54 61 164 72 224 15 81 17 99 31 310 3 39 7 81 10 95 2 14 7 41 10 60 4 19
31 109 61 198 30 90 58 180 62 200 19 99 -9 587 -44 777 -12 63 -14 95 -6 95
4 0 17 7 28 16 18 14 18 15 -4 4 -29 -14 -39 -7 -47 33 -14 69 -48 165 -86
239 -21 43 -39 80 -39 83 0 9 44 24 65 22 12 -1 29 -19 42 -42z m-5612 -191
c35 -6 36 -7 29 -47 -3 -23 -8 -45 -10 -49 -3 -4 -7 -18 -10 -30 -2 -13 -6
-32 -9 -43 -15 -68 -25 -124 -30 -173 -3 -20 -8 -50 -11 -67 -4 -16 -8 -41 -9
-55 -9 -82 -17 -149 -20 -175 -2 -16 -7 -70 -11 -120 -6 -85 -10 -121 -13
-137 -1 -6 -19 -5 -81 6 -14 3 -31 5 -38 5 -9 1 -11 25 -7 99 11 201 24 262
98 437 34 79 39 110 42 236 2 109 8 134 30 125 8 -3 30 -8 50 -12z m198 -53
c4 -4 -2 -34 -13 -67 -19 -55 -67 -224 -76 -269 -56 -281 -67 -377 -68 -625 0
-156 6 -256 25 -385 6 -38 12 -83 14 -100 3 -16 6 -39 9 -50 5 -26 16 -93 21
-130 10 -73 37 -213 47 -245 6 -19 22 -55 36 -80 166 -300 155 -282 252 -387
73 -80 129 -160 160 -228 81 -183 87 -192 236 -352 132 -142 223 -228 303
-289 66 -50 106 -71 235 -129 32 -14 83 -46 114 -71 96 -78 228 -132 367 -150
104 -13 216 -49 340 -109 147 -71 189 -86 290 -102 71 -11 299 -5 480 13 33 3
67 6 75 6 8 0 55 6 104 14 49 8 91 13 93 10 4 -4 14 -50 16 -78 1 -10 5 -18 9
-18 4 0 6 23 4 50 -3 41 0 53 15 60 14 8 150 43 249 65 8 2 15 4 15 5 0 1 16
4 75 14 14 2 72 14 130 26 58 12 115 24 127 26 61 12 212 68 289 108 47 26
130 77 183 115 53 38 146 99 206 136 61 37 122 76 137 86 15 11 30 19 33 19
14 0 124 87 169 134 64 66 109 137 160 255 23 53 49 108 57 123 8 15 27 52 42
83 16 30 34 55 40 54 7 0 36 -28 65 -60 l53 -60 -42 -60 c-71 -101 -358 -400
-499 -519 -36 -30 -71 -61 -78 -68 -27 -25 -99 -70 -162 -102 -76 -38 -128
-73 -226 -151 -64 -50 -127 -86 -234 -132 -36 -16 -148 -57 -165 -62 -5 -1
-17 -4 -25 -7 -23 -8 -129 -39 -148 -43 -9 -2 -51 -14 -92 -25 -41 -12 -82
-23 -90 -25 -8 -2 -75 -19 -147 -38 -73 -19 -133 -30 -133 -24 0 5 -7 3 -16
-4 -9 -7 -23 -15 -33 -17 -9 -2 -187 -5 -396 -6 -328 -2 -389 0 -445 15 -97
25 -114 34 -141 73 -30 45 -63 57 -110 40 -49 -16 -88 -11 -189 26 -47 17 -89
32 -95 34 -5 2 -23 8 -38 14 -16 7 -30 12 -33 12 -17 0 -287 132 -296 145 -4
5 -8 7 -8 2 0 -4 -19 5 -42 20 -24 14 -52 31 -63 37 -28 16 -199 129 -205 136
-3 3 -21 17 -40 30 -19 13 -37 27 -40 30 -3 3 -45 39 -95 80 -132 110 -269
251 -359 370 -44 58 -104 130 -134 161 -73 77 -93 109 -168 267 -63 130 -68
151 -49 195 6 15 4 16 -19 8 -24 -10 -28 -6 -72 61 -47 74 -83 145 -103 210
-14 43 -16 55 -31 178 -13 113 -16 134 -24 180 -3 19 -8 46 -10 60 -2 14 -13
66 -25 115 -32 145 -53 274 -57 365 -6 97 0 130 21 130 8 0 15 5 15 11 0 5 -4
8 -9 5 -14 -9 -31 18 -26 45 2 13 6 65 10 114 3 50 7 101 10 115 2 14 7 52 10
85 7 65 11 94 27 195 5 36 12 79 15 95 2 17 9 47 14 68 6 21 12 50 14 65 7 45
24 95 36 102 11 7 107 -16 122 -29z m92 -15 c44 -8 48 -18 25 -77 -12 -30 -21
-55 -21 -57 1 -1 -6 -27 -15 -58 -9 -31 -17 -62 -18 -68 -2 -6 -8 -29 -14 -51
-6 -22 -14 -58 -18 -80 -3 -22 -7 -42 -9 -45 -2 -3 -6 -26 -10 -50 -3 -25 -9
-58 -11 -75 -32 -181 -36 -519 -8 -710 3 -22 8 -53 10 -70 2 -16 11 -66 19
-110 17 -96 22 -126 30 -185 3 -25 8 -56 10 -70 3 -14 7 -41 10 -60 7 -38 72
-178 111 -235 13 -20 24 -40 24 -44 0 -17 99 -158 142 -201 24 -25 57 -63 73
-85 17 -22 33 -42 36 -45 7 -5 73 -131 74 -140 2 -22 61 -126 98 -175 47 -61
284 -307 347 -359 40 -32 165 -116 175 -116 21 0 151 -71 210 -115 81 -60 108
-75 190 -103 57 -19 75 -23 169 -38 36 -5 48 -8 94 -18 48 -11 168 -59 262
-104 157 -76 193 -83 405 -78 248 6 395 17 482 36 29 7 50 7 61 0 9 -5 14 -10
10 -10 -4 0 -3 -14 2 -30 7 -26 5 -33 -15 -46 -13 -8 -38 -17 -57 -19 -18 -3
-49 -7 -68 -9 -19 -3 -78 -8 -130 -12 -52 -3 -122 -8 -155 -10 -283 -20 -381
-5 -585 91 -147 68 -182 83 -220 90 -43 9 -124 25 -150 30 -164 29 -217 50
-321 127 -70 50 -133 85 -259 142 -74 33 -177 118 -318 261 -75 77 -158 164
-182 194 -25 29 -50 59 -55 65 -12 12 -40 70 -75 156 -34 80 -98 173 -185 269
-73 81 -92 110 -198 296 -80 141 -95 187 -112 335 -9 76 -21 144 -38 225 -3
11 -8 45 -12 75 -4 30 -9 62 -10 71 -25 133 -25 540 0 699 22 141 28 174 40
230 3 14 7 34 9 45 2 11 12 49 21 85 9 36 18 70 20 75 1 6 7 21 12 35 6 14 14
41 18 60 9 39 34 82 44 75 4 -2 20 -6 36 -9z m182 -47 c8 -8 6 -31 -12 -94
-23 -84 -72 -221 -85 -240 -26 -36 -34 -159 -42 -635 -2 -108 5 -165 37 -305
18 -80 43 -211 50 -270 3 -22 8 -58 11 -80 3 -22 7 -49 8 -60 6 -42 20 -82 53
-145 18 -36 33 -66 33 -67 0 -9 -94 -64 -103 -60 -12 4 -35 43 -88 148 -32 63
-37 84 -58 239 -6 41 -13 86 -16 100 -3 14 -8 41 -11 60 -3 19 -8 46 -11 60
-2 14 -6 41 -8 60 -2 19 -4 35 -5 35 -1 0 -4 20 -6 45 -3 25 -8 68 -12 95 -13
87 -4 433 12 535 3 14 7 45 10 70 11 82 40 230 57 285 5 17 21 71 35 120 38
130 37 128 92 120 26 -4 52 -11 59 -16z m5146 -76 c3 -5 8 -30 11 -58 3 -27 8
-59 10 -70 2 -11 7 -49 10 -85 4 -36 9 -81 12 -100 7 -60 17 -260 18 -380 0
-148 -2 -159 -78 -378 -20 -57 -38 -117 -41 -134 -3 -17 -8 -34 -10 -38 -5 -7
-16 -115 -20 -185 -19 -327 -68 -480 -220 -685 -71 -95 -76 -99 -101 -90 -14
6 -35 16 -45 24 -17 11 -18 16 -7 27 7 8 31 39 53 69 22 30 42 57 45 60 15 12
78 130 102 190 42 107 63 217 73 378 2 45 7 106 10 135 5 44 8 65 20 117 13
59 19 77 27 88 6 6 8 12 5 12 -3 0 4 24 15 53 18 49 49 140 54 162 1 6 7 30
13 55 19 82 -7 514 -44 728 l-12 73 36 19 c39 21 57 24 64 13z m-118 -96 c4
-28 9 -61 11 -72 15 -78 29 -264 39 -501 5 -124 -9 -202 -65 -354 -48 -135
-69 -221 -75 -320 -20 -309 -46 -431 -120 -567 -38 -70 -164 -243 -177 -243
-13 0 -88 32 -88 38 0 2 18 33 40 68 77 122 214 425 246 544 30 113 44 188 49
258 7 101 11 133 29 227 2 11 14 54 25 95 29 104 36 158 36 285 -1 121 -7 169
-33 270 -6 22 -13 51 -16 65 -3 14 -17 70 -31 124 -31 124 -32 135 -2 132 13
-2 43 0 68 4 24 3 47 5 51 3 3 -2 9 -27 13 -56z m-5590 -754 c2 -48 6 -106 9
-128 12 -76 27 -160 36 -195 11 -41 28 -122 35 -165 2 -16 7 -41 9 -55 6 -30
14 -85 22 -148 15 -130 18 -149 28 -192 4 -14 8 -35 10 -46 2 -12 9 -30 14
-40 6 -11 22 -44 37 -74 15 -30 33 -62 41 -71 8 -8 14 -21 14 -27 0 -7 4 -12
9 -12 11 0 22 -38 13 -44 -4 -2 -24 -7 -44 -10 -32 -5 -40 -2 -53 17 -40 62
-108 314 -110 405 0 17 -3 32 -6 32 -3 0 -5 12 -5 28 1 59 -15 146 -35 184
-74 145 -132 352 -146 519 l-6 76 59 19 c33 11 61 19 63 17 2 -1 4 -41 6 -90z
m668 -1040 c14 -21 48 -71 76 -111 28 -39 72 -115 97 -167 26 -52 50 -95 55
-95 4 0 10 -8 14 -19 3 -10 19 -31 35 -47 16 -16 30 -33 30 -37 0 -5 6 -14 13
-21 6 -8 32 -37 57 -67 78 -92 303 -313 375 -368 54 -41 340 -195 365 -196 3
0 84 -39 180 -87 173 -85 241 -116 270 -123 8 -2 51 -13 95 -25 44 -11 96 -23
115 -25 19 -3 46 -7 60 -10 14 -3 59 -8 100 -11 41 -3 77 -7 81 -10 25 -15
247 -21 364 -10 28 3 82 8 120 11 39 4 80 8 93 10 24 4 48 -26 38 -50 -2 -7
-2 -16 1 -19 4 -3 7 -17 9 -30 2 -23 -3 -26 -52 -36 -73 -15 -105 -19 -199
-25 -44 -3 -116 -8 -160 -11 -266 -20 -377 -3 -537 80 -104 55 -232 98 -358
121 -149 27 -221 51 -284 95 -32 23 -65 47 -72 55 -8 7 -67 39 -131 70 -99 48
-168 91 -241 150 -23 18 -216 210 -257 256 -82 90 -122 145 -146 199 -68 157
-125 244 -236 363 -41 43 -113 151 -113 168 0 7 94 56 111 58 4 1 18 -16 32
-36z m-309 -285 c92 -207 121 -256 210 -348 34 -36 78 -87 97 -115 19 -27 39
-55 44 -61 6 -6 26 -31 45 -55 49 -62 203 -216 280 -280 36 -30 67 -57 70 -60
3 -3 50 -39 105 -80 255 -189 544 -340 833 -434 61 -20 58 -33 -10 -41 -38 -5
-59 0 -124 29 -246 108 -741 368 -774 407 -3 3 -18 14 -35 24 -57 36 -227 168
-269 210 -36 35 -126 197 -126 225 0 11 -44 48 -135 115 -44 33 -88 69 -99 80
-40 45 -196 308 -196 331 0 13 49 105 56 105 2 0 15 -24 28 -52z m4778 22 c36
-28 40 -55 14 -88 -22 -26 -83 -145 -146 -286 -74 -165 -163 -252 -400 -391
-36 -21 -133 -84 -216 -141 -191 -130 -292 -181 -424 -215 -29 -8 -346 -76
-440 -95 -14 -3 -55 -13 -92 -23 -47 -13 -68 -15 -69 -7 -3 44 -8 80 -13 92
-4 11 6 14 47 15 67 1 212 14 212 19 0 1 10 3 23 6 94 17 543 220 605 272 9 8
17 13 17 10 0 -4 48 21 108 54 59 34 117 66 129 72 13 6 23 14 23 19 0 4 4 7
10 7 33 0 198 174 275 290 38 58 72 107 75 110 3 3 21 28 40 55 19 28 38 52
42 53 4 2 8 10 8 18 0 8 4 14 9 14 5 0 19 16 31 35 12 20 27 41 34 48 6 6 22
27 35 45 26 38 30 38 63 12z m112 -168 c-28 -42 -88 -162 -119 -237 -81 -193
-166 -293 -342 -400 -54 -32 -195 -122 -313 -201 -232 -153 -342 -211 -438
-229 -9 -2 -17 -4 -17 -5 0 -2 -22 -7 -60 -15 -16 -3 -38 -8 -47 -11 -10 -3
-28 -7 -40 -10 -51 -9 -70 -13 -86 -18 -10 -3 -31 -8 -47 -10 -44 -6 -166 -33
-275 -60 -52 -14 -97 -23 -100 -21 -5 3 -6 59 -1 86 2 11 51 27 146 49 50 11
101 23 115 26 14 3 36 8 50 10 14 3 66 13 115 24 90 20 103 23 160 35 17 3 46
11 65 17 19 7 37 13 40 13 9 3 58 24 107 46 44 20 171 96 183 109 13 14 159
110 168 110 6 0 12 4 14 9 2 5 48 35 103 67 55 32 102 62 103 66 2 4 8 8 14 8
6 0 41 25 78 55 96 79 178 188 220 295 30 76 95 207 123 249 l30 44 34 -37
c34 -37 34 -38 17 -64z m210 -183 l26 -31 -19 -26 c-53 -73 -245 -277 -368
-392 -115 -108 -105 -100 -383 -303 -58 -42 -116 -85 -129 -95 -13 -9 -74 -54
-135 -100 -124 -93 -217 -141 -386 -200 -113 -40 -272 -90 -307 -97 -10 -2
-54 -12 -99 -24 -76 -19 -313 -63 -414 -75 -160 -21 -448 -27 -575 -13 -147
16 -154 18 -193 59 -40 42 -57 68 -45 68 4 0 31 -6 58 -13 37 -10 142 -13 410
-12 363 2 411 5 520 31 33 8 68 17 77 19 9 2 108 29 220 60 112 32 217 61 233
65 188 50 393 150 510 250 33 28 103 73 156 101 152 78 237 148 474 384 89 88
183 187 210 220 28 33 58 69 68 80 10 11 26 32 35 48 9 15 19 27 23 27 4 0 19
-14 33 -31z"/>
<path d="M3907 5503 c-4 -4 -85 -14 -147 -18 -25 -2 -47 -4 -50 -5 -3 -1 -9
-1 -15 0 -5 1 -62 3 -125 4 -110 3 -219 -11 -265 -33 -52 -25 -115 -51 -125
-51 -5 0 -18 -4 -28 -9 -9 -5 -69 -28 -132 -51 -63 -24 -151 -60 -196 -80 -94
-43 -297 -159 -302 -171 -2 -5 -10 -9 -18 -9 -8 0 -14 -4 -14 -10 0 -5 -7 -10
-15 -10 -8 0 -15 -4 -15 -10 0 -5 -6 -10 -14 -10 -8 0 -16 -3 -18 -7 -1 -5
-29 -28 -61 -51 -120 -89 -300 -289 -364 -402 -15 -27 -31 -50 -35 -50 -5 0
-8 -9 -8 -19 0 -11 -4 -21 -8 -23 -11 -4 -82 -146 -82 -163 0 -7 -7 -18 -15
-25 -8 -7 -15 -19 -15 -27 0 -8 -30 -76 -66 -151 -84 -173 -84 -174 -99 -317
-3 -33 -8 -67 -10 -75 -2 -8 -6 -31 -9 -50 -10 -61 -16 -89 -26 -116 -24 -63
-32 -194 -17 -269 10 -47 36 -240 53 -385 2 -25 7 -52 9 -60 2 -8 7 -31 10
-50 18 -109 54 -203 128 -335 12 -22 24 -49 25 -60 9 -53 110 -255 190 -380
117 -184 286 -341 528 -493 114 -71 292 -155 559 -265 236 -97 278 -113 330
-122 17 -2 41 -7 55 -11 14 -3 88 -7 165 -9 77 -2 176 -6 220 -10 254 -22 343
-10 548 74 16 6 31 11 35 11 4 1 25 9 47 20 22 11 43 19 47 20 10 0 274 109
353 145 149 69 245 154 321 286 51 88 119 163 188 206 23 14 43 29 46 32 3 3
23 18 45 32 85 56 161 148 211 258 52 112 50 108 95 221 45 117 54 136 114
265 69 145 92 245 100 435 8 175 15 234 35 304 22 79 21 188 -4 255 -9 24 -18
53 -20 65 -3 12 -21 77 -41 146 -20 69 -39 132 -40 140 -11 44 -67 187 -108
271 -90 185 -214 351 -337 451 -30 24 -114 102 -185 174 -144 143 -250 224
-388 294 -75 38 -228 98 -272 106 -20 3 -263 76 -440 130 -49 16 -92 29 -95
29 -3 1 -21 5 -40 10 -35 8 -187 15 -193 8z m248 -54 c39 -12 75 -23 80 -25 6
-1 134 -39 285 -84 258 -76 349 -109 428 -152 98 -55 157 -91 172 -108 3 -3
23 -18 45 -35 22 -16 90 -79 151 -140 62 -61 145 -140 185 -175 118 -104 149
-139 226 -257 107 -164 208 -410 268 -653 2 -8 15 -54 29 -102 45 -153 46
-170 17 -283 -19 -79 -27 -147 -36 -320 -10 -206 -28 -277 -120 -469 -29 -62
-75 -169 -101 -237 -27 -68 -52 -127 -57 -130 -5 -3 -8 -10 -8 -15 1 -9 -28
-76 -55 -127 -29 -53 -124 -144 -215 -207 -51 -35 -106 -75 -122 -89 -34 -30
-96 -112 -117 -156 -14 -30 -71 -107 -99 -135 -68 -68 -263 -174 -391 -215
-30 -10 -59 -21 -65 -25 -5 -3 -32 -15 -60 -25 -43 -16 -82 -32 -180 -75 -51
-23 -182 -62 -224 -67 -57 -8 -149 -8 -311 1 -69 3 -175 8 -236 10 -173 8
-230 18 -334 63 -62 27 -74 31 -155 64 -44 17 -93 37 -110 44 -16 7 -64 27
-105 45 -255 110 -468 236 -624 370 -91 77 -223 227 -256 289 -7 14 -21 34
-31 44 -10 11 -16 24 -13 28 2 4 0 10 -5 14 -17 10 -119 219 -142 290 -12 39
-34 88 -48 110 -28 42 -70 129 -75 155 -2 8 -6 22 -9 30 -14 38 -40 191 -63
370 -24 197 -25 204 -31 230 -16 80 -14 139 10 235 14 55 28 120 32 145 4 25
9 54 12 65 2 11 6 45 9 76 5 55 11 94 14 94 1 0 3 11 5 25 2 14 29 75 59 135
31 61 56 114 56 119 0 10 160 339 169 346 3 3 23 31 44 63 20 31 45 67 55 78
95 118 193 214 287 284 33 25 65 48 70 53 21 15 98 67 115 77 10 5 49 28 87
50 138 80 395 192 484 210 9 2 25 8 35 13 40 21 141 61 184 73 27 7 131 13
255 15 116 1 233 7 260 12 78 14 192 6 270 -19z"/>
<path d="M3323 5025 c-94 -40 -94 -182 0 -232 29 -15 88 -17 647 -18 338 -1
623 1 633 3 16 4 17 17 15 131 l-3 126 -630 2 c-515 1 -636 -1 -662 -12z m93
-73 c17 -11 32 -45 27 -60 -3 -7 -17 -18 -30 -23 -32 -12 -63 12 -63 47 0 32
40 54 66 36z"/>
<path d="M3440 4712 c4 -15 14 -47 21 -72 41 -139 174 -313 285 -373 95 -52
173 -84 224 -92 19 -3 51 -10 72 -14 38 -9 273 -9 281 -1 6 6 9 65 8 131 l-1
47 -114 -3 c-154 -4 -259 19 -360 80 -100 60 -176 153 -217 265 l-21 58 -93 0
-93 0 8 -26z"/>
<path d="M4371 4726 c-11 -14 -10 -2940 1 -2984 14 -51 88 -118 145 -130 41
-9 86 -8 103 3 3 2 5 123 5 270 0 168 4 270 10 275 13 11 11 325 -2 342 -12
16 -10 1108 2 1128 12 19 12 310 0 335 -6 12 -10 164 -10 393 0 325 -2 373
-15 376 -32 10 -230 3 -239 -8z m155 -504 c22 -15 24 -42 4 -62 -34 -34 -80
-20 -80 25 0 37 44 59 76 37z m-4 -534 c26 -22 29 -47 7 -69 -14 -14 -27 -18
-42 -13 -39 12 -49 50 -21 78 19 19 35 20 56 4z m7 -539 c21 -23 18 -46 -7
-66 -21 -17 -37 -16 -56 3 -23 23 -20 59 7 72 31 15 34 15 56 -9z m2 -535 c14
-13 15 -21 8 -44 -12 -34 -40 -43 -68 -23 -23 16 -26 35 -11 64 13 23 47 25
71 3z m2 -535 c19 -26 12 -54 -18 -67 -46 -21 -86 36 -49 72 21 22 50 20 67
-5z"/>
<path d="M3514 4110 c-6 -25 -9 -28 -25 -19 -24 13 -24 10 6 -42 32 -57 31
-90 -5 -199 -16 -49 -32 -107 -35 -127 -12 -67 -39 -148 -53 -156 -7 -5 -17
-20 -22 -33 -14 -36 -38 -31 -34 7 3 24 -3 37 -25 58 -44 41 -101 68 -110 52
-8 -12 -53 -7 -76 8 -13 9 -26 8 -51 -6 -19 -11 -22 -8 -39 29 -10 23 -28 53
-41 67 -44 50 -92 158 -91 204 1 23 5 47 10 54 17 27 -14 21 -40 -7 -23 -26
-31 -30 -57 -24 -46 11 -80 11 -93 1 -7 -5 -16 -6 -22 -3 -12 8 -41 -3 -41
-15 0 -5 11 -9 24 -9 14 0 27 -4 31 -10 3 -5 12 -7 20 -4 8 3 29 1 48 -5 40
-14 71 -65 110 -183 31 -94 42 -115 74 -150 25 -26 25 -27 9 -74 -9 -26 -16
-64 -16 -84 0 -43 46 -140 66 -140 8 0 16 0 19 0 11 1 62 -30 74 -44 7 -8 15
-30 17 -48 3 -18 7 -42 9 -54 2 -12 13 -41 25 -65 17 -33 23 -69 27 -144 3
-63 10 -106 19 -116 12 -13 11 -19 -3 -38 -9 -13 -17 -34 -19 -47 -1 -13 -6
-43 -10 -66 -4 -24 -6 -53 -5 -64 1 -12 -5 -48 -13 -80 -8 -33 -13 -77 -11
-99 5 -56 -17 -124 -58 -181 -42 -60 -47 -75 -52 -142 -3 -38 -18 -81 -52
-150 -39 -80 -47 -106 -46 -147 0 -27 -3 -55 -8 -61 -7 -8 -2 -18 14 -30 13
-11 32 -33 42 -51 21 -35 33 -42 84 -49 46 -6 64 11 56 52 -5 27 -2 34 14 39
13 4 23 19 27 43 4 20 15 48 25 62 10 14 20 43 24 65 3 22 14 72 25 110 11 39
21 91 23 117 4 44 53 142 67 133 16 -10 7 -82 -20 -169 -25 -82 -31 -148 -15
-165 2 -2 -9 -26 -24 -55 -24 -42 -28 -60 -24 -100 4 -48 48 -141 78 -166 7
-6 41 -12 75 -12 77 -2 90 12 54 59 -27 36 -30 48 -10 40 23 -9 33 14 30 68
-2 37 3 55 16 70 29 31 42 175 27 293 -5 42 -2 66 14 110 19 51 28 94 56 262
10 56 5 281 -6 295 -13 16 -10 109 3 125 10 11 11 45 6 135 -7 115 -9 124 -56
230 -46 105 -49 114 -46 190 2 85 16 184 35 250 7 22 13 43 13 48 1 4 2 8 3
10 1 1 4 20 6 42 3 37 6 66 20 173 8 66 -26 162 -57 162 -5 0 -11 -13 -14 -30z"/>
<path d="M6994 6686 c-11 -12 -32 -31 -45 -41 -46 -37 -44 -41 40 -134 45 -49
81 -93 81 -99 0 -5 -30 -36 -66 -68 -36 -32 -76 -68 -88 -79 -46 -41 -93 -83
-181 -160 -49 -44 -103 -92 -118 -108 -32 -32 -35 -25 48 -114 l50 -54 121
108 c112 100 237 212 323 290 43 39 49 40 76 9 78 -90 139 -156 146 -156 10 0
109 90 109 99 0 3 -19 26 -41 51 -39 44 -136 152 -172 193 -44 51 -167 185
-212 233 l-50 53 -21 -23z"/>
</g>
</svg>
